<svg xmlns="http://www.w3.org/2000/svg" width="880" height="880" viewBox="0 0 880 880">
  <defs>
    <style>
      .cls-1 {
        fill: #471452;
      }

      .cls-1, .cls-2 {
        fill-rule: evenodd;
      }

      .cls-2 {
        fill: #610061;
      }
    </style>
  </defs>
  <g>
    <path id="Shape_1_copy" data-name="Shape 1 copy" class="cls-1" d="M251.639,371.352c2.152,2.152-36.576,38.728-36.576,38.728s-44.107-45.182-53.789-58.092-20.439-57.015-4.3-77.455,173.2-177.5,200.094-202.245,71-24.743,96.819-2.152S694.857,305.73,716.372,328.322s37.652,68.849,17.213,92.516S584.052,585.431,542.1,627.386s-93.592,16.136-98.971,10.758-159.214-152.76-159.214-152.76l40.88-36.576S435.6,557.461,447.43,569.294s31.2,41.955,68.849,4.3c47.334-43.031,137.7-130.168,159.214-157.062s-6.455-53.789-6.455-53.789S457.111,152.971,438.823,134.683s-24.742-34.425-62.394,0S221.879,279.135,204.305,306.806C196.775,332.625,212.911,331.549,251.639,371.352Z"/>
    <path class="cls-2" d="M253.791,354.14c2.151,2.152-36.576,38.728-36.576,38.728s-44.107-45.183-53.789-58.092-20.44-57.016-4.3-77.455,173.2-177.5,200.093-202.245,71-24.743,96.82-2.151S697.008,288.518,718.524,311.109s37.652,68.85,17.212,92.516S586.2,568.218,544.249,610.174s-93.592,16.136-98.971,10.757-150.608-142-150.608-142L331.246,440.2s106.5,100.046,118.335,111.88,31.2,41.955,68.849,4.3c47.334-43.031,137.7-130.168,159.215-157.063s-6.455-53.788-6.455-53.788S459.263,135.758,440.975,117.47s-24.743-34.424-62.4,0S224.03,261.922,206.457,289.594C198.926,315.412,215.063,314.336,253.791,354.14Z"/>
  </g>
  <g id="Group_1_copy" data-name="Group 1 copy">
    <path id="Shape_1_copy-2" data-name="Shape 1 copy" class="cls-1" d="M639.4,517.95c-2.2-2.22,37.749-39.605,37.749-39.605s45.089,46.613,54.973,59.917,20.726,58.656,4.056,79.573-178.722,181.5-206.46,206.784-73.04,25.08-99.452,1.756-246.394-243.1-268.386-266.407-38.349-70.891-17.245-95.1,154.353-168.35,197.641-211.244,96.2-16.135,101.7-10.585S598,389.589,598,389.589l-37.748,39.605S451.337,325.939,439.239,313.73s-31.846-43.238-70.694-4.743c-48.818,43.974-142.038,133.048-164.262,160.57s6.377,55.275,6.377,55.275,216.683,216.45,235.38,235.32,25.252,35.473,64.085.292S669.538,612.8,687.717,584.466C695.572,557.984,678.993,559.013,639.4,517.95Z"/>
    <path class="cls-2" d="M638.925,510.336c-2.142-2.161,36.753-38.56,36.753-38.56s43.9,45.383,53.522,58.336,20.18,57.109,3.95,77.475S559.142,784.3,532.136,808.916s-71.114,24.419-96.829,1.71S195.412,573.935,174,551.245s-37.337-69.02-16.79-92.594S307.492,294.743,349.638,252.98s93.665-15.71,99.019-10.306S598.616,385.361,598.616,385.361l-36.753,38.561S455.819,323.39,444.04,311.5s-31-42.1-68.829-4.618C327.681,349.7,236.92,436.424,215.282,463.22s6.209,53.817,6.209,53.817S432.458,727.778,450.663,746.149s24.585,34.537,62.394.285S668.264,602.689,685.964,575.1C693.612,549.314,677.471,550.316,638.925,510.336Z"/>
  </g>
</svg>
