<svg xmlns:dc="http://purl.org/dc/elements/1.1/" xmlns:cc="http://creativecommons.org/ns#" xmlns:rdf="http://www.w3.org/1999/02/22-rdf-syntax-ns#" xmlns:svg="http://www.w3.org/2000/svg" xmlns="http://www.w3.org/2000/svg" xmlns:sodipodi="http://sodipodi.sourceforge.net/DTD/sodipodi-0.dtd" xmlns:inkscape="http://www.inkscape.org/namespaces/inkscape" height="72.439514" width="75.140251" viewBox="0 0 75.14025 72.439515" id="svg54" sodipodi:docname="avrit.svg" inkscape:version="1.0 (4035a4fb49, 2020-05-01)"><defs id="defs58" /><sodipodi:namedview fit-margin-bottom="5" fit-margin-right="20" fit-margin-left="20" fit-margin-top="5" inkscape:document-rotation="0" pagecolor="#ffffff" bordercolor="#666666" borderopacity="1" objecttolerance="10" gridtolerance="10" guidetolerance="10" inkscape:pageopacity="0" inkscape:pageshadow="2" inkscape:window-width="1880" inkscape:window-height="1016" id="namedview56" showgrid="false" inkscape:zoom="3.9225895" inkscape:cx="61.486348" inkscape:cy="42.425638" inkscape:window-x="40" inkscape:window-y="27" inkscape:window-maximized="1" inkscape:current-layer="g52" /><g transform="translate(-541.91627,-524.84392)" id="g52"><path d="M595.56785 553.8605z" fill="none" stroke="#e90000" stroke-width=".58771" id="path4" /><g transform="matrix(0.05877,0,0,0.05877,545.43,528.09)" fill="none" stroke="#e90000" stroke-width="10" id="g12"><path d="m479.68 1053.4-3.0699-117.43-17.652-22.257-2.3025-69.074-11.441-10.152-.0678-9.6328c-26.60886-39.76609-23.0472-78.73089-24.0141-124.819l-9.158-37.853-107.66-224.69c0 0-104.6-307.28 179.78-387.6 284.38-80.32 449.35 175.83 369.03 388.57" id="path6" sodipodi:nodetypes="cccccccccsc" /><path d="m853.12 438.5-112.88 251.81 1e-5 79.233c0 0-1.8994 32.833-21.979 54.269l-1.3567 12.753-8.4118 12.482-1.0854 63.495-20.894 23.607-1.0854 119.39" id="path8" /><path d="m685.42 1055.5c-66.406 35.695-153.28 49.382-205.74-2.1041" id="path10" /></g><path d="m574.13923 590.53902h10.89289" fill="none" stroke="#e90000" stroke-width=".58771" id="path14" /><path d="m573.44022 583.09936 12.33586.01" fill="none" stroke="#e90000" stroke-width=".58771" id="path16" /><path d="m571.80649 577.39863 15.75568-.14361" fill="none" stroke="#e90000" stroke-width=".58771" id="path18" /><path d="m572.2673 577.73174 15.13502-.14205" fill="none" stroke="#e90000" stroke-width=".58771" id="path20" /><path d="m572.4031 581.79094 14.60148-.0709" fill="none" stroke="#e90000" stroke-width=".58771" id="path22" /><g transform="matrix(0.07260419,0,0,0.06262511,562.85048,531.89334)" id="g50"><g stroke-width=".17431" id="g34"><path d="m151.24 222.45c-3.191 14.593-16.209 25.554-31.745 25.554-4.142.0-7.5 3.357-7.5 7.5.0 4.143 3.358 7.5 7.5 7.5 23.774.0 43.522-17.557 46.966-40.386 14.556-1.574 27.993-8.06 38.395-18.677 2.899-2.959 2.85-7.708-.109-10.606-2.958-2.897-7.707-2.851-10.606.108-9.199 9.39-21.503 14.561-34.646 14.561-26.743.0-48.5-21.757-48.5-48.5.0-4.143-3.358-7.5-7.5-7.5-4.142.0-7.5 3.357-7.5 7.5.0 32.215 24.119 58.884 55.245 62.946z" id="path24" /><path d="m183 287.5c0-4.143-3.358-7.5-7.5-7.5-35.014.0-63.5 28.486-63.5 63.5.0.362.013.725.019 1.088C109.23 344.212 106.39 344 103.5 344c-4.142.0-7.5 3.357-7.5 7.5.0 4.143 3.358 7.5 7.5 7.5 26.743.0 48.5 21.757 48.5 48.5.0 4.143 3.358 7.5 7.5 7.5 4.142.0 7.5-3.357 7.5-7.5.0-26.611-16.462-49.437-39.731-58.867-.178-1.699-.269-3.418-.269-5.133.0-26.743 21.757-48.5 48.5-48.5 4.142.0 7.5-3.357 7.5-7.5z" id="path26" /><path d="m439 223.5c0-17.075-6.82-33.256-18.875-45.156C422.034 172.236 423 165.918 423 159.5 423 128.626 400.848 102.841 371.606 97.171 373.841 91.6 375 85.628 375 79.5 375 59.943 363.117 43.113 346.194 35.839 317.999 13.383 287.162.0 263.5.0 250.347.0 238.683 6.468 231.5 16.384 224.317 6.468 212.653.0 199.5.0 175.838.0 145.001 13.383 116.806 35.839 99.883 43.113 88 59.943 88 79.5 88 85.628 89.159 91.6 91.394 97.171 62.152 102.841 40 128.626 40 159.5c0 6.418.965 12.735 2.875 18.844C30.82 190.244 24 206.425 24 223.5c0 13.348 4.149 25.741 11.213 35.975C27.872 270.087 24 282.466 24 295.5c0 23.088 12.587 44.242 32.516 55.396-.343 2.852-.516 5.73-.516 8.604.0 31.144 20.315 58.679 49.79 68.063 12.821 21.942 36.175 35.437 61.71 35.437 27.995.0 52.269-16.181 64-39.674 11.731 23.493 36.005 39.674 64 39.674 25.535.0 48.889-13.495 61.71-35.437 29.475-9.385 49.79-36.92 49.79-68.063.0-2.874-.173-5.752-.516-8.604C426.413 339.742 439 318.588 439 295.5 439 282.466 435.128 270.087 427.787 259.475 434.851 249.241 439 236.848 439 223.5zM167.5 448c-21.029.0-40.191-11.594-50.009-30.256-.973-1.849-2.671-3.208-4.688-3.751C88.19 407.369 71 384.961 71 359.5c0-3.81.384-7.626 1.141-11.344.702-3.447-1.087-6.92-4.302-8.35C50.32 332.018 39 314.626 39 295.5 39 286.801 41.256 278.486 45.561 271.121 56.757 280.992 71.436 287 87.5 287 91.642 287 95 283.643 95 279.5 95 275.357 91.642 272 87.5 272 60.757 272 39 250.243 39 223.5c0-14.396 6.352-27.964 17.428-37.221 2.5-2.09 3.365-5.555 2.14-8.574C56.2 171.869 55 165.744 55 159.5 55 132.757 76.757 111 103.5 111c26.743.0 48.5 21.757 48.5 48.5.0 4.143 3.358 7.5 7.5 7.5 4.142.0 7.5-3.357 7.5-7.5C167 125.858 140.698 98.257 107.579 96.145 104.577 91.127 103 85.421 103 79.5c0-13.369 8.116-24.875 19.678-29.859.447-.133.885-.307 1.308-.527C127.568 47.752 131.447 47 135.5 47c12.557.0 23.767 7.021 29.256 18.325 1.81 3.727 6.298 5.281 10.023 3.47 3.726-1.809 5.28-6.296 3.47-10.022C171.983 45.87 160.124 36.596 146.467 33.311 165.609 21.631 184.454 15 199.5 15 213.009 15 224 25.99 224 39.5v97.051C217.261 131.205 208.75 128 199.5 128c-4.142.0-7.5 3.357-7.5 7.5.0 4.143 3.358 7.5 7.5 7.5 13.509.0 24.5 10.99 24.5 24.5v180.28c-9.325-12.031-22.471-21.111-37.935-25.266-3.999-1.071-8.114 1.297-9.189 5.297-1.075 4.001 1.297 8.115 5.297 9.189C206.8 343.617 224 366.028 224 391.501c0 31.154-25.346 56.5-56.5 56.5zM395.16 339.81c-3.215 1.43-5.004 4.902-4.302 8.35.757 3.718 1.141 7.534 1.141 11.344.0 25.461-17.19 47.869-41.803 54.493-2.017.543-3.716 1.902-4.688 3.751-9.818 18.661-28.98 30.255-50.009 30.255-31.154.0-56.5-25.346-56.5-56.5.0-2.109-.098-4.2-.281-6.271.178-.641.281-1.314.281-2.012V135.5c0-13.51 10.991-24.5 24.5-24.5 4.142.0 7.5-3.357 7.5-7.5.0-4.143-3.358-7.5-7.5-7.5-9.25.0-17.761 3.205-24.5 8.551V39.5c0-13.51 10.991-24.5 24.5-24.5 15.046.0 33.891 6.631 53.033 18.311-13.657 3.284-25.516 12.559-31.782 25.462-1.81 3.727-.256 8.214 3.47 10.022 3.726 1.81 8.213.257 10.023-3.47C303.732 54.021 314.942 47 327.499 47c4.053.0 7.933.752 11.514 2.114.422.22.86.393 1.305.526 11.564 4.984 19.681 16.49 19.681 29.86.0 5.921-1.577 11.627-4.579 16.645-33.119 2.112-59.421 29.713-59.421 63.355.0 4.143 3.358 7.5 7.5 7.5 4.142.0 7.5-3.357 7.5-7.5.0-26.743 21.757-48.5 48.5-48.5 26.743.0 48.5 21.757 48.5 48.5.0 6.244-1.2 12.369-3.567 18.205-1.225 3.02-.36 6.484 2.14 8.574 11.075 9.257 17.427 22.825 17.427 37.221.0 26.743-21.757 48.5-48.5 48.5-4.142.0-7.5 3.357-7.5 7.5.0 4.143 3.358 7.5 7.5 7.5 16.064.0 30.743-6.008 41.939-15.879 4.306 7.365 6.561 15.68 6.561 24.379.0 19.126-11.32 36.518-28.839 44.307z" id="path28" /><path d="M359.5 240C343.964 240 330.946 229.039 327.755 214.446 358.881 210.384 383 183.715 383 151.5c0-4.143-3.358-7.5-7.5-7.5-4.142.0-7.5 3.357-7.5 7.5.0 26.743-21.757 48.5-48.5 48.5-13.143.0-25.447-5.171-34.646-14.561-2.898-2.958-7.647-3.007-10.606-.108-2.959 2.899-3.008 7.647-.109 10.606 10.402 10.617 23.839 17.103 38.395 18.677 3.444 22.829 23.192 40.386 46.966 40.386 4.142.0 7.5-3.357 7.5-7.5.0-4.143-3.358-7.5-7.5-7.5z" id="path30" /><path d="m335.5 328c-2.89.0-5.73.212-8.519.588.006-.363.019-.726.019-1.088.0-35.014-28.486-63.5-63.5-63.5-4.142.0-7.5 3.357-7.5 7.5.0 4.143 3.358 7.5 7.5 7.5 26.743.0 48.5 21.757 48.5 48.5.0 1.714-.091 3.434-.269 5.133C288.462 342.063 272 364.889 272 391.5c0 4.143 3.358 7.5 7.5 7.5 4.142.0 7.5-3.357 7.5-7.5.0-26.743 21.757-48.5 48.5-48.5 4.142.0 7.5-3.357 7.5-7.5.0-4.143-3.358-7.5-7.5-7.5z" id="path32" /></g><path transform="matrix(0.80946,0,0,0.9384,-239.94,-60.731)" d="m451.12 832.52c-2.06699-12.11203-7.37105-24.06132-11.73096-33.2466-19.33513-39.65693-8.52357-81.47235-17.18206-118.437-4.5892-19.457-6.0635-22.79-59.067-133.54-56.955-119.01-57.497-120.32-64.251-155.4-7.0167-36.445-9.0664-91.67-4.6372-124.94 13.592-102.1 73.145-172.49 174.29-206.01 87.876-29.125 172.21-26.754 242.5 6.8175 32.773 15.651 67.99 43.365 90.983 71.599 61.99 76.118 81.871 183.87 51.583 279.58-2.5702 8.1219-30.514 72.465-62.097 142.98l-57.424 128.22v42.711c-.0518 29.34043 1.78749 59.38851-16.6796 82.89-2.7758 3.4438-4.8096 7.7514-4.8096 10.186v4.2192l-41.828.90336c-71.158 1.5368-218.6 2.523-219.65 1.4692zm73.312-276.01c20.577-4.3593 41.272-16.779 52.507-31.512l5.6669-7.4309 4.0978 5.6569c6.8645 9.4761 19.839 20.055 31.331 25.546 37.734 18.03 83.511 10.743 111.63-17.77 7.2439-7.3452 12.68-11.379 18.124-13.447 17.98-6.8319 35.349-21.399 43.439-36.43 4.8936-9.093 8.8119-24.452 8.8441-34.666.0221-7.0278.23504-7.35 8.4673-12.814 29.559-19.62 38.986-53.916 22.9-83.309l-5.3082-9.6994 3.1402-4.41c15.202-21.349 12.551-53.962-6.0251-74.114l-6.2882-6.8219 1.7998-11.577c1.5371-9.8872 1.4229-13.104-.78273-22.042-6.0783-24.631-24.172-42.61-51.65-51.322-6.602-2.0931-8.3446-3.2924-7.9938-5.5014 2.3186-14.602 1.9974-23.206-1.1807-31.623-3.9149-10.369-14.612-22.158-24.72-27.245-3.7302-1.8771-12.461-6.8201-19.402-10.985-17.909-10.745-38.86-20.365-54.919-25.217-11.667-3.5249-16.798-4.196-33.002-4.3161-20.61-.1527-24.992 1.1098-37.865 10.91l-4.8626 3.702-7.0983-5.4183c-9.1091-6.9531-19.916-10.11-34.493-10.077-24.965.05727-57.445 10.945-86.831 29.108-5.9096 3.6526-14.114 8.3059-18.231 10.341-10.713 5.2943-23.009 17.505-27.173 26.986-3.324 7.5674-4.2977 19.803-2.6252 32.986.38906 3.0665-.82023 3.9429-9.5317 6.9074-21.068 7.1693-35.998 19.633-44.704 37.318-4.0554 8.2377-5.1026 12.445-5.6383 22.651-.36184 6.894.0374 15.053.88715 18.13 1.4512 5.2558 1.2227 5.9073-3.7622 10.727-2.919 2.8224-7.8534 10.276-10.965 16.564-5.3975 10.906-5.6581 12.15-5.6581 27.003.0 15.014.21047 15.985 5.8846 27.164l5.8846 11.594-3.8564 5.9174c-10.349 15.879-11.472 40.197-2.6815 58.053 5.5061 11.185 16.516 23.153 26.89 29.233l6.7541 3.9582.0761 9.918c.14045 18.3 5.7801 31.788 19.479 46.584 9.0724 9.7993 21.05 17.861 33.341 22.439 5.0398 1.8774 10.826 6.2091 18.42 13.789 22.189 22.149 55.296 31.422 87.686 24.561z" fill="#ff0" fill-opacity=".94118" stroke="#fe0700" stroke-linejoin="round" stroke-width=".30699" id="path36" sodipodi:nodetypes="cccccccccsccccscscccccscsccscscsscsssccccssscscsccsccscccsccccccsccccc" /><path transform="matrix(0.80946,0,0,0.9384,-239.94,-60.731)" d="m648.94 540.37c-26.852-4.77-48.13-22.341-54.756-45.216-.74056-2.5567-1.3334-69.506-1.3174-148.78.0287-142.41.0664-144.19 3.1635-149.2 4.2249-6.836 11.748-11.205 22.23-12.911 4.7859-.77892 9.6653-2.216 10.843-3.1934 3.6187-3.0032 2.6276-10.222-1.8018-13.124-3.4758-2.2774-5.1408-2.363-14.048-.72186-5.5574 1.024-12.038 2.8615-14.4 4.0833-2.3627 1.2218-4.6755 2.2214-5.1395 2.2214-.46404.0-.84371-16.267-.84371-36.148.0-38.544.3664-40.753 7.9337-47.818 8.7972-8.2139 20.528-9.8891 40.443-5.7754 15.101 3.1192 42.186 13.384 42.186 15.987.0.48972-3.4063 2.1002-7.5696 3.5789-9.2933 3.3007-21.559 12.781-26.153 20.213-4.0986 6.6316-3.2488 12.43 2.1845 14.906 5.5109 2.5109 10.655.48445 15.167-5.9751 6.8951-9.8702 21.488-17.296 33.988-17.296 21.565.0 40.923 18.743 38.802 37.567-1.1144 9.887-4.6425 14.622-10.894 14.622-2.7821.0-8.8102 1.102-13.396 2.4489-29.345 8.6194-51.171 32.433-53.23 58.076-.96589 12.033.62908 14.689 8.8207 14.689 7.2862.0 9.4523-2.6053 10.874-13.079 1.5689-11.562 6.896-21.324 16.353-29.966 12.138-11.093 21.931-14.419 42.615-14.473 15.804-.0409 17.538.26606 27.094 4.7934 23.634 11.197 36.125 34.687 29.876 56.181-3.7272 12.821-3.3414 14.486 5.1184 22.092 10.552 9.487 15.848 20.78 15.953 34.017.20859 26.317-20.853 47.01-51.847 50.939-13.666 1.7327-16.217 3.1992-16.217 9.3234.0 5.1494 4.8472 9.1089 11.151 9.1089 12.784.0 40.104-8.842 48.277-15.625 3.3665-2.794 8.6712 11.418 8.6966 23.3.0399 18.655-10.698 34.472-30.563 45.02l-9.1647 4.8664v15.35c0 13.377-.51977 16.458-4.0449 23.976-7.5092 16.015-21.401 28.171-39.365 34.449-8.46 2.9562-11.349 5.0137-19.102 13.604-5.0241 5.5667-12.065 11.838-15.646 13.937-14.953 8.7633-36.189 12.805-52.271 9.9477zm.14613-52.382c.94848-.75565 2.2002-4.96 2.7817-9.3431 1.6355-12.329 6.4572-21.712 15.601-30.36 10.208-9.6546 22.362-15.219 35.757-16.369 12.484-1.0726 17.047-3.633 17.047-9.5642.0-5.9206-3.5963-8.4953-12.088-8.6541l-7.0995-.13276-1.0924-8.7007c-.6008-4.7854-2.9688-12.686-5.2622-17.556-5.0232-10.668-19.54-25.558-30.754-31.544-15.617-8.3364-42.438-12.889-48.748-8.2751-3.0422 2.2245-3.7495 9.5098-1.1733 12.086.88794.88793 7.6001 2.5729 14.916 3.7444 7.3159 1.1715 17.014 3.8862 21.551 6.0326 17.064 8.0727 29.802 25.728 29.82 41.335l.009 7.6749-10.355 5.3024c-12.821 6.5648-26.263 19.878-31.722 31.417-5.2841 11.17-7.8614 24.705-5.6346 29.593 2.7217 5.9735 11.011 7.6443 16.446 3.3147zm99.2-155.05c3.3571-3.9674 3.3473-4.7478-.11313-9.0213-2.06-2.544-5.3103-3.8004-12.306-4.7572-12.041-1.6468-19.963-5.686-26.788-13.659-8.5813-10.025-8.3339-11.393 2.4639-13.623 29.287-6.049 53.36-29.577 57.655-56.348 1.8725-11.671-.11067-16.515-7.0373-17.186-8.0211-.7776-10.76 1.702-11.945 10.812-2.3732 18.259-13.673 33.231-31.479 41.708-9.3604 4.4563-11.069 4.75-27.629 4.75-16.025.0-18.478-.38686-26.613-4.1978-4.9282-2.3088-11.025-5.9351-13.549-8.0586-2.6117-2.1976-6.5214-3.8608-9.0755-3.8608-4.8807.0-10.627 4.6605-10.627 8.6191.0 6.9495 23.227 20.648 40.598 23.943 5.5307 1.0492 10.063 2.6135 10.071 3.4762.0403 4.2138 8.1072 18.133 13.82 23.846 10.752 10.752 33.929 19.515 46.029 17.404 2.1106-.36839 5.0462-2.0983 6.5236-3.8443z" fill="#0f0" fill-opacity=".94118" stroke="#fe0700" stroke-linejoin="round" stroke-width=".30699" id="path38" /><path transform="matrix(0.80946,0,0,0.9384,-239.94,-60.731)" d="m490.56 540.31c-18.768-3.2972-34.884-12.764-45.046-26.46-4.1857-5.6412-7.0677-7.7947-13.047-9.7494-22.593-7.3855-36.965-19.969-44.355-38.834-1.8578-4.7428-2.6495-11.009-2.604-20.611.0376-7.9297-.65721-14.668-1.6338-15.844-.93456-1.1261-4.6936-3.372-8.3535-4.9909-10.177-4.5017-21.072-15.609-25.931-26.435-3.6927-8.2285-4.1302-10.782-3.4803-20.314.40884-5.9966 1.9711-13.427 3.4716-16.512l2.7282-5.6093 9.3793 5.1095c15.837 8.6272 38.605 13.418 47.082 9.9068 5.8746-2.4333 7.5563-8.3399 3.5229-12.373-1.9913-1.9913-6.6491-3.3962-14.603-4.4047-22.706-2.8789-40.053-14.618-48.101-32.551-3.6794-8.1988-4.1318-10.816-3.5114-20.314.8864-13.57 4.6702-21.305 15.843-32.389 4.6083-4.5717 8.3788-9.2939 8.3788-10.494.0-1.2001-1.0361-4.6616-2.3025-7.6924-3.045-7.2878-2.9233-21.651.26307-31.046 3.6454-10.749 18.196-25.049 30.436-29.912 7.7088-3.063 11.967-3.6666 26.127-3.7031 16.034-.0414 17.447.21721 27.071 4.9553 18.074 8.8978 29.104 23.347 31.431 41.175 1.2691 9.7213 2.7214 11.388 9.924 11.388 4.611.0 6.4692-.84349 8.4211-3.8224 2.1409-3.2674 2.2601-5.2096.82138-13.378-3.7205-21.122-18.25-39.735-38.647-49.51-9.6008-4.6011-15.39-6.3217-31.569-9.383-5.7538-1.0887-9.4864-14.56-6.7462-24.347 8.1257-29.022 51.14-35.676 71.331-11.035 6.7682 8.2598 11.485 10.056 16.969 6.4633 6.221-4.0762 5.1123-9.9915-3.6745-19.606-6.9332-7.586-13.827-12.095-25.501-16.681l-4.6049-1.8088 9.2098-4.1798c38.757-17.59 67.619-17.991 78.804-1.0966l4.0842 6.1688.43925 54.074.43926 54.074-8.8816-3.6522c-10.662-4.3844-25-5.0397-28.727-1.313-3.0926 3.0926-3.0978 8.9227-.0107 11.485 1.321 1.0963 6.2174 2.5111 10.881 3.144 11.055 1.5002 19.856 7.3366 23.643 15.679 2.7642 6.0883 2.9175 11.443 2.9494 103.03l.0338 96.607-4.2212-3.96c-7.4804-7.0176-21.333-14.874-33.322-18.899-10.206-3.426-12.216-3.6716-15.853-1.9366-2.7981 1.3348-4.3273 3.3989-4.6596 6.2895-.65161 5.6679 1.7896 8.337 9.4996 10.387 10.037 2.6682 23.073 10.265 30.957 18.042 21.996 21.696 22.515 52.818 1.259 75.542-4.0401 4.3192-10.33 9.6019-13.977 11.739-14.087 8.2555-36.321 12.354-52.038 9.5927zm9.6253-35.76c4.1689-3.5859 4.1806-3.6526 2.46-14.036-.95083-5.738-3.5875-14.232-5.8592-18.875-5.5013-11.244-19.042-24.498-31.732-31.061l-10.319-5.3365.009-7.6749c.0278-22.891 22.752-43.39 52.446-47.311 9.8865-1.3053 12.746-2.2839 14.502-4.9637 3.0745-4.6923.4709-11.008-5.116-12.411-6.3116-1.5841-26.168 1.7646-37.599 6.3411-24.372 9.7567-44.208 35.122-44.208 56.532v5.5936l-7.6601-.17257c-8.956-.20178-12.295 1.9856-12.295 8.0552.0 5.8234 4.5461 8.5017 16.117 9.4954 14.099 1.2108 25.674 6.2986 35.929 15.793 9.8738 9.1414 14.759 18.408 16.657 31.594.93374 6.4882 1.9397 8.5158 4.9911 10.06 5.3396 2.7016 6.9 2.4845 11.677-1.6242zM469.2303 340.8c12.382-4.7124 27.042-18.993 30.933-30.132l2.7663-7.9201 9.1345-1.7971c16.14-3.1753 38.078-15.041 40.206-21.745 1.4347-4.5202-.60149-8.4962-5.3606-10.467-4.8502-2.009-5.9767-1.6234-17.371 5.9461-11.602 7.7072-20.404 10.141-36.441 10.074-17.49-.0721-28.26-3.7016-40.437-13.627-9.5568-7.79-17.892-22.604-17.892-31.798.0-4.4039-1.0366-7.1122-3.7676-9.8432-4.4023-4.4023-7.9691-4.7447-12.966-1.2447-3.3098 2.3183-3.5429 3.3454-2.8738 12.664 1.925 26.807 25.574 51.481 56.879 59.345 11.354 2.8521 11.711 4.0991 3.8892 13.588-5.8452 7.0912-16.847 12.721-27.519 14.081-4.548.57969-9.4778 1.6764-10.955 2.4372-3.4684 1.7861-3.5212 9.4308-.0889 12.863 3.5138 3.5138 19.449 2.3021 31.865-2.4231z" fill="#f0f" fill-opacity=".94118" stroke="#fe0700" stroke-linejoin="round" stroke-width=".30699" id="path40" /><path transform="matrix(0.80946,0,0,0.9384,-239.94,-60.731)" d="m463.82 898c-.68431-16.64114-1.043-30.84062-1.50173-47.536l3.3776-.40131c2.894-.34384 197.87-2.1048 226.91-2.0494l10.169.0194c-.1106 16.16874.23528 32.36723-.49833 48.522l-.49831 10.39-62.244.4669c-34.234.25679-87.666.59348-118.74.7482l-56.493.2813z" fill="#fca" fill-opacity=".94118" stroke="#fe0700" stroke-linejoin="round" stroke-width=".1535" id="path42" sodipodi:nodetypes="ccsscccsscc" /><path transform="matrix(0.80946,0,0,0.9384,-239.94,-60.731)" d="m474.54 924.92-4.6132-5.834c75.17826.0569 150.38287-1.88952 225.558-1.15991.0564.0543-2.4592 2.9628-5.5903 6.4633l-5.6929 6.3646h-205.05z" fill="#fca" fill-opacity=".94118" stroke="#fe0700" stroke-linejoin="round" stroke-width=".10854" id="path44" sodipodi:nodetypes="cccsccc" /><path transform="matrix(0.80946,0,0,0.9384,-239.94,-60.731)" d="m488.47 1054.4c-2.8459-2.4292-3.3768-3.169-3.603-5.0199-1.74983-36.0164-.74961-65.19866-2.8254-103.323l-.32317-5.096c65.66635 2.99799 133.79601-3.07859 199.208.99117.0159 38.92133-.30445 68.57813-.61215 110.47403l-9.6038 4.8233h-178.9z" fill="#fca" fill-opacity=".94118" stroke="#fe0700" stroke-linejoin="round" stroke-width=".10854" id="path46" sodipodi:nodetypes="ccccccccc" /><path transform="matrix(0.80946,0,0,0.9384,-239.94,-60.731)" d="m557.54 1081.6c-13.328-1.0908-26.868-4.1464-37.989-8.573-3.8803-1.5445-7.9098-3.2779-8.9545-3.8519-1.8824-1.0343-1.2933-1.0436 65.666-1.0368l67.565.01-2.701 1.0951c-4.8154 1.9524-22.593 6.8571-30.946 8.5377-19.188 3.8606-36.665 5.1295-52.641 3.822z" fill="#fca" fill-opacity=".94118" stroke="#fe0700" stroke-linejoin="round" stroke-width=".10854" id="path48" /></g></g></svg>