<?xml version="1.0" encoding="UTF-8" standalone="no"?>
<!-- Created with Inkscape (http://www.inkscape.org/) -->

<svg
   xmlns:dc="http://purl.org/dc/elements/1.1/"
   xmlns:cc="http://creativecommons.org/ns#"
   xmlns:rdf="http://www.w3.org/1999/02/22-rdf-syntax-ns#"
   xmlns:svg="http://www.w3.org/2000/svg"
   xmlns="http://www.w3.org/2000/svg"
   xmlns:sodipodi="http://sodipodi.sourceforge.net/DTD/sodipodi-0.dtd"
   xmlns:inkscape="http://www.inkscape.org/namespaces/inkscape"
   version="1.1"
   id="svg64"
   width="1144"
   height="1141"
   viewBox="0 0 1144 1141"
   sodipodi:docname="bulb-color.svg"
   inkscape:version="0.92.4 (33fec40, 2019-01-16)">
  <metadata
     id="metadata70">
    <rdf:RDF>
      <cc:Work
         rdf:about="">
        <dc:format>image/svg+xml</dc:format>
        <dc:type
           rdf:resource="http://purl.org/dc/dcmitype/StillImage" />
        <dc:title></dc:title>
      </cc:Work>
    </rdf:RDF>
  </metadata>
  <defs
     id="defs68" />
  <sodipodi:namedview
     pagecolor="#ffffff"
     bordercolor="#666666"
     borderopacity="1"
     objecttolerance="10"
     gridtolerance="10"
     guidetolerance="10"
     inkscape:pageopacity="0"
     inkscape:pageshadow="2"
     inkscape:window-width="1299"
     inkscape:window-height="713"
     id="namedview66"
     showgrid="false"
     inkscape:zoom="0.23033217"
     inkscape:cx="446.38408"
     inkscape:cy="586.54655"
     inkscape:window-x="67"
     inkscape:window-y="27"
     inkscape:window-maximized="1"
     inkscape:current-layer="g4889"
     inkscape:pagecheckerboard="true" />
  <g
     inkscape:groupmode="layer"
     id="layer2"
     inkscape:label="Layer 1"
     style="display:inline"
     transform="translate(0,-3)" />
  <g
     inkscape:groupmode="layer"
     id="layer4"
     inkscape:label="bulb"
     style="display:inline"
     transform="translate(0,-3)">
    <path
       style="fill:none;stroke:#e90000;stroke-width:10;stroke-linecap:butt;stroke-linejoin:miter;stroke-miterlimit:4;stroke-dasharray:none;stroke-opacity:1"
       d="M 853.11575,438.49715 Z"
       id="path892"
       inkscape:connector-curvature="0" />
    <g
       id="g4917">
      <path
         inkscape:connector-curvature="0"
         id="path890"
         d="m 479.6787,1053.4367 -3.06994,-117.42538 -17.65218,-22.2571 -2.30246,-69.07373 -11.44112,-10.15203 -0.0678,-9.63283 -22.38619,-47.21442 -1.62808,-77.60531 -9.15797,-37.85294 -107.66479,-224.69375 c 0,0 -104.5966,-307.28253 179.77532,-387.601316 284.37192,-80.318786 449.35105,175.833016 369.03226,388.569256"
         style="fill:none;stroke:#e90000;stroke-width:10;stroke-linecap:butt;stroke-linejoin:miter;stroke-miterlimit:4;stroke-dasharray:none;stroke-opacity:1" />
      <path
         inkscape:connector-curvature="0"
         id="path894"
         d="m 853.11575,438.49715 -112.88046,251.81025 1e-5,79.2334 c 0,0 -1.89944,32.83301 -21.97913,54.26945 l -1.35674,12.75332 -8.41176,12.48197 -1.08539,63.49526 -20.89374,23.60721 -1.08539,119.39279"
         style="fill:none;stroke:#e90000;stroke-width:10;stroke-linecap:butt;stroke-linejoin:miter;stroke-miterlimit:4;stroke-dasharray:none;stroke-opacity:1" />
      <path
         sodipodi:nodetypes="cc"
         inkscape:connector-curvature="0"
         id="path898"
         d="m 685.42315,1055.5408 c -66.40573,35.6948 -153.27535,49.3817 -205.74445,-2.1041"
         style="fill:none;stroke:#e90000;stroke-width:10;stroke-linecap:butt;stroke-linejoin:miter;stroke-miterlimit:4;stroke-dasharray:none;stroke-opacity:1" />
    </g>
    <path
       style="fill:none;stroke:#e90000;stroke-width:10;stroke-linecap:butt;stroke-linejoin:miter;stroke-miterlimit:4;stroke-dasharray:none;stroke-opacity:1"
       d="M 488.50479,1062.6465 H 673.85264"
       id="path900"
       inkscape:connector-curvature="0" />
    <path
       style="fill:none;stroke:#e90000;stroke-width:10;stroke-linecap:butt;stroke-linejoin:miter;stroke-miterlimit:4;stroke-dasharray:none;stroke-opacity:1"
       d="m 476.60876,936.01132 209.89978,0.13669"
       id="path904"
       inkscape:connector-curvature="0" />
    <path
       style="fill:none;stroke:#e90000;stroke-width:10;stroke-linecap:butt;stroke-linejoin:miter;stroke-miterlimit:4;stroke-dasharray:none;stroke-opacity:1"
       d="m 448.80835,839.00569 268.09108,-2.44212"
       id="path906"
       inkscape:connector-curvature="0"
       sodipodi:nodetypes="cc" />
    <path
       style="fill:none;stroke:#e90000;stroke-width:10;stroke-linecap:butt;stroke-linejoin:miter;stroke-miterlimit:4;stroke-dasharray:none;stroke-opacity:1"
       d="m 456.65412,844.68049 257.53184,-2.41863"
       id="path908"
       inkscape:connector-curvature="0" />
    <path
       style="fill:none;stroke:#e90000;stroke-width:10;stroke-linecap:butt;stroke-linejoin:miter;stroke-miterlimit:4;stroke-dasharray:none;stroke-opacity:1"
       d="m 458.95658,913.75422 248.4457,-1.21342"
       id="path910"
       inkscape:connector-curvature="0" />
    <g
       id="g4889"
       transform="matrix(1.2353856,0,0,1.0656391,296.4241,64.717261)"
       style="stroke-width:0.17431054;stroke-miterlimit:4;stroke-dasharray:none">
      <g
         id="g4829"
         style="stroke-width:0.17431054;stroke-miterlimit:4;stroke-dasharray:none">
	<path
   id="path4819"
   d="M 151.245,222.446 C 148.054,237.039 135.036,248 119.5,248 c -4.142,0 -7.5,3.357 -7.5,7.5 0,4.143 3.358,7.5 7.5,7.5 23.774,0 43.522,-17.557 46.966,-40.386 14.556,-1.574 27.993,-8.06 38.395,-18.677 2.899,-2.959 2.85,-7.708 -0.109,-10.606 -2.958,-2.897 -7.707,-2.851 -10.606,0.108 C 184.947,202.829 172.643,208 159.5,208 132.757,208 111,186.243 111,159.5 c 0,-4.143 -3.358,-7.5 -7.5,-7.5 -4.142,0 -7.5,3.357 -7.5,7.5 0,32.215 24.119,58.884 55.245,62.946 z"
   inkscape:connector-curvature="0"
   style="stroke-width:0.17431054;stroke-miterlimit:4;stroke-dasharray:none" />

	<path
   id="path4821"
   d="m 183,287.5 c 0,-4.143 -3.358,-7.5 -7.5,-7.5 -35.014,0 -63.5,28.486 -63.5,63.5 0,0.362 0.013,0.725 0.019,1.088 C 109.23,344.212 106.39,344 103.5,344 c -4.142,0 -7.5,3.357 -7.5,7.5 0,4.143 3.358,7.5 7.5,7.5 26.743,0 48.5,21.757 48.5,48.5 0,4.143 3.358,7.5 7.5,7.5 4.142,0 7.5,-3.357 7.5,-7.5 0,-26.611 -16.462,-49.437 -39.731,-58.867 -0.178,-1.699 -0.269,-3.418 -0.269,-5.133 0,-26.743 21.757,-48.5 48.5,-48.5 4.142,0 7.5,-3.357 7.5,-7.5 z"
   inkscape:connector-curvature="0"
   style="stroke-width:0.17431054;stroke-miterlimit:4;stroke-dasharray:none" />

	<path
   id="path4823"
   d="m 439,223.5 c 0,-17.075 -6.82,-33.256 -18.875,-45.156 C 422.034,172.236 423,165.918 423,159.5 423,128.626 400.848,102.841 371.606,97.171 373.841,91.6 375,85.628 375,79.5 375,59.943 363.117,43.113 346.194,35.839 317.999,13.383 287.162,0 263.5,0 250.347,0 238.683,6.468 231.5,16.384 224.317,6.468 212.653,0 199.5,0 175.838,0 145.001,13.383 116.806,35.839 99.883,43.113 88,59.943 88,79.5 88,85.628 89.159,91.6 91.394,97.171 62.152,102.841 40,128.626 40,159.5 c 0,6.418 0.965,12.735 2.875,18.844 C 30.82,190.244 24,206.425 24,223.5 c 0,13.348 4.149,25.741 11.213,35.975 C 27.872,270.087 24,282.466 24,295.5 c 0,23.088 12.587,44.242 32.516,55.396 -0.343,2.852 -0.516,5.73 -0.516,8.604 0,31.144 20.315,58.679 49.79,68.063 12.821,21.942 36.175,35.437 61.71,35.437 27.995,0 52.269,-16.181 64,-39.674 11.731,23.493 36.005,39.674 64,39.674 25.535,0 48.889,-13.495 61.71,-35.437 29.475,-9.385 49.79,-36.92 49.79,-68.063 0,-2.874 -0.173,-5.752 -0.516,-8.604 C 426.413,339.742 439,318.588 439,295.5 439,282.466 435.128,270.087 427.787,259.475 434.851,249.241 439,236.848 439,223.5 Z M 167.5,448 c -21.029,0 -40.191,-11.594 -50.009,-30.256 -0.973,-1.849 -2.671,-3.208 -4.688,-3.751 C 88.19,407.369 71,384.961 71,359.5 c 0,-3.81 0.384,-7.626 1.141,-11.344 0.702,-3.447 -1.087,-6.92 -4.302,-8.35 C 50.32,332.018 39,314.626 39,295.5 39,286.801 41.256,278.486 45.561,271.121 56.757,280.992 71.436,287 87.5,287 91.642,287 95,283.643 95,279.5 95,275.357 91.642,272 87.5,272 60.757,272 39,250.243 39,223.5 c 0,-14.396 6.352,-27.964 17.428,-37.221 2.5,-2.09 3.365,-5.555 2.14,-8.574 C 56.2,171.869 55,165.744 55,159.5 55,132.757 76.757,111 103.5,111 c 26.743,0 48.5,21.757 48.5,48.5 0,4.143 3.358,7.5 7.5,7.5 4.142,0 7.5,-3.357 7.5,-7.5 C 167,125.858 140.698,98.257 107.579,96.145 104.577,91.127 103,85.421 103,79.5 c 0,-13.369 8.116,-24.875 19.678,-29.859 0.447,-0.133 0.885,-0.307 1.308,-0.527 C 127.568,47.752 131.447,47 135.5,47 c 12.557,0 23.767,7.021 29.256,18.325 1.81,3.727 6.298,5.281 10.023,3.47 3.726,-1.809 5.28,-6.296 3.47,-10.022 C 171.983,45.87 160.124,36.596 146.467,33.311 165.609,21.631 184.454,15 199.5,15 213.009,15 224,25.99 224,39.5 v 97.051 C 217.261,131.205 208.75,128 199.5,128 c -4.142,0 -7.5,3.357 -7.5,7.5 0,4.143 3.358,7.5 7.5,7.5 13.509,0 24.5,10.99 24.5,24.5 v 180.279 c -9.325,-12.031 -22.471,-21.111 -37.935,-25.266 -3.999,-1.071 -8.114,1.297 -9.189,5.297 -1.075,4.001 1.297,8.115 5.297,9.189 C 206.8,343.616 224,366.027 224,391.5 224,422.654 198.654,448 167.5,448 Z M 395.161,339.807 c -3.215,1.43 -5.004,4.902 -4.302,8.35 0.757,3.718 1.141,7.534 1.141,11.344 0,25.461 -17.19,47.869 -41.803,54.493 -2.017,0.543 -3.716,1.902 -4.688,3.751 C 335.691,436.406 316.529,448 295.5,448 264.346,448 239,422.654 239,391.5 c 0,-2.109 -0.098,-4.2 -0.281,-6.271 0.178,-0.641 0.281,-1.314 0.281,-2.012 V 135.5 c 0,-13.51 10.991,-24.5 24.5,-24.5 4.142,0 7.5,-3.357 7.5,-7.5 0,-4.143 -3.358,-7.5 -7.5,-7.5 -9.25,0 -17.761,3.205 -24.5,8.551 V 39.5 C 239,25.99 249.991,15 263.5,15 c 15.046,0 33.891,6.631 53.033,18.311 -13.657,3.284 -25.516,12.559 -31.782,25.462 -1.81,3.727 -0.256,8.214 3.47,10.022 3.726,1.81 8.213,0.257 10.023,-3.47 C 303.733,54.021 314.943,47 327.5,47 c 4.053,0 7.933,0.752 11.514,2.114 0.422,0.22 0.86,0.393 1.305,0.526 C 351.883,54.624 360,66.13 360,79.5 c 0,5.921 -1.577,11.627 -4.579,16.645 C 322.302,98.257 296,125.858 296,159.5 c 0,4.143 3.358,7.5 7.5,7.5 4.142,0 7.5,-3.357 7.5,-7.5 0,-26.743 21.757,-48.5 48.5,-48.5 26.743,0 48.5,21.757 48.5,48.5 0,6.244 -1.2,12.369 -3.567,18.205 -1.225,3.02 -0.36,6.484 2.14,8.574 11.075,9.257 17.427,22.825 17.427,37.221 0,26.743 -21.757,48.5 -48.5,48.5 -4.142,0 -7.5,3.357 -7.5,7.5 0,4.143 3.358,7.5 7.5,7.5 16.064,0 30.743,-6.008 41.939,-15.879 4.306,7.365 6.561,15.68 6.561,24.379 0,19.126 -11.32,36.518 -28.839,44.307 z"
   inkscape:connector-curvature="0"
   style="stroke-width:0.17431054;stroke-miterlimit:4;stroke-dasharray:none" />

	<path
   id="path4825"
   d="M 359.5,240 C 343.964,240 330.946,229.039 327.755,214.446 358.881,210.384 383,183.715 383,151.5 c 0,-4.143 -3.358,-7.5 -7.5,-7.5 -4.142,0 -7.5,3.357 -7.5,7.5 0,26.743 -21.757,48.5 -48.5,48.5 -13.143,0 -25.447,-5.171 -34.646,-14.561 -2.898,-2.958 -7.647,-3.007 -10.606,-0.108 -2.959,2.899 -3.008,7.647 -0.109,10.606 10.402,10.617 23.839,17.103 38.395,18.677 3.444,22.829 23.192,40.386 46.966,40.386 4.142,0 7.5,-3.357 7.5,-7.5 0,-4.143 -3.358,-7.5 -7.5,-7.5 z"
   inkscape:connector-curvature="0"
   style="stroke-width:0.17431054;stroke-miterlimit:4;stroke-dasharray:none" />

	<path
   id="path4827"
   d="m 335.5,328 c -2.89,0 -5.73,0.212 -8.519,0.588 0.006,-0.363 0.019,-0.726 0.019,-1.088 0,-35.014 -28.486,-63.5 -63.5,-63.5 -4.142,0 -7.5,3.357 -7.5,7.5 0,4.143 3.358,7.5 7.5,7.5 26.743,0 48.5,21.757 48.5,48.5 0,1.714 -0.091,3.434 -0.269,5.133 C 288.462,342.063 272,364.889 272,391.5 c 0,4.143 3.358,7.5 7.5,7.5 4.142,0 7.5,-3.357 7.5,-7.5 0,-26.743 21.757,-48.5 48.5,-48.5 4.142,0 7.5,-3.357 7.5,-7.5 0,-4.143 -3.358,-7.5 -7.5,-7.5 z"
   inkscape:connector-curvature="0"
   style="stroke-width:0.17431054;stroke-miterlimit:4;stroke-dasharray:none" />

</g>
      <g
         id="g4831"
         style="stroke-width:0.17431054;stroke-miterlimit:4;stroke-dasharray:none">
</g>
      <g
         id="g4833"
         style="stroke-width:0.17431054;stroke-miterlimit:4;stroke-dasharray:none">
</g>
      <g
         id="g4835"
         style="stroke-width:0.17431054;stroke-miterlimit:4;stroke-dasharray:none">
</g>
      <g
         id="g4837"
         style="stroke-width:0.17431054;stroke-miterlimit:4;stroke-dasharray:none">
</g>
      <g
         id="g4839"
         style="stroke-width:0.17431054;stroke-miterlimit:4;stroke-dasharray:none">
</g>
      <g
         id="g4841"
         style="stroke-width:0.17431054;stroke-miterlimit:4;stroke-dasharray:none">
</g>
      <g
         id="g4843"
         style="stroke-width:0.17431054;stroke-miterlimit:4;stroke-dasharray:none">
</g>
      <g
         id="g4845"
         style="stroke-width:0.17431054;stroke-miterlimit:4;stroke-dasharray:none">
</g>
      <g
         id="g4847"
         style="stroke-width:0.17431054;stroke-miterlimit:4;stroke-dasharray:none">
</g>
      <g
         id="g4849"
         style="stroke-width:0.17431054;stroke-miterlimit:4;stroke-dasharray:none">
</g>
      <g
         id="g4851"
         style="stroke-width:0.17431054;stroke-miterlimit:4;stroke-dasharray:none">
</g>
      <g
         id="g4853"
         style="stroke-width:0.17431054;stroke-miterlimit:4;stroke-dasharray:none">
</g>
      <g
         id="g4855"
         style="stroke-width:0.17431054;stroke-miterlimit:4;stroke-dasharray:none">
</g>
      <g
         id="g4857"
         style="stroke-width:0.17431054;stroke-miterlimit:4;stroke-dasharray:none">
</g>
      <g
         id="g4859"
         style="stroke-width:0.17431054;stroke-miterlimit:4;stroke-dasharray:none">
</g>
      <path
         style="opacity:1;fill:#ffff00;fill-opacity:0.94117647;stroke:#fe0700;stroke-width:0.30699438;stroke-linejoin:round;stroke-miterlimit:4;stroke-dasharray:none;stroke-opacity:1"
         d="m 451.1187,832.5224 c -0.54998,-0.54998 -0.99996,-3.19803 -0.99996,-5.88455 0,-2.88034 -4.40331,-14.10739 -10.73138,-27.36164 l -10.73138,-22.47704 -0.87216,-38.00258 c -0.81169,-35.36744 -1.19853,-39.38628 -5.57888,-57.95722 -4.58925,-19.4566 -6.06346,-22.78961 -59.06689,-133.54255 -56.95472,-119.00936 -57.49659,-120.31998 -64.25076,-155.401 -7.01672,-36.44467 -9.06643,-91.67013 -4.63721,-124.94067 C 307.842,164.85798 367.39535,94.464606 468.5384,60.942502 c 87.87554,-29.124816 172.20745,-26.753993 242.50445,6.81753 32.77263,15.651124 67.99038,43.365448 90.9833,71.598608 61.99046,76.11843 81.87104,183.87304 51.58273,279.58323 -2.57023,8.12186 -30.51376,72.46459 -62.09675,142.98386 l -57.4236,128.21682 v 42.71098 c 0,33.58477 -0.50781,44.67066 -2.37657,51.8824 -3.19496,12.32981 -8.47579,23.77809 -14.3034,31.00827 -2.77575,3.44382 -4.80963,7.75143 -4.80963,10.18643 v 4.21921 l -41.82799,0.90336 c -71.15822,1.5368 -218.59845,2.52299 -219.65224,1.4692 z M 524.43047,556.508 c 20.57721,-4.35926 41.27159,-16.77903 52.5074,-31.51238 l 5.66688,-7.43092 4.09781,5.65688 c 6.86446,9.4761 19.83873,20.05474 31.33088,25.5458 37.73392,18.02961 83.51056,10.74259 111.62986,-17.76997 7.2439,-7.34521 12.68023,-11.37879 18.1235,-13.44707 17.98017,-6.83193 35.34935,-21.39866 43.43876,-36.43011 4.89356,-9.09305 8.81193,-24.45168 8.84407,-34.66577 0.0221,-7.02779 0.23504,-7.35 8.46728,-12.81425 29.55906,-19.62018 38.98612,-53.91572 22.89984,-83.3094 l -5.30819,-9.69943 3.1402,-4.41002 c 15.20194,-21.34915 12.55071,-53.96161 -6.0251,-74.11399 l -6.28817,-6.82186 1.79982,-11.57687 c 1.53713,-9.88724 1.4229,-13.10425 -0.78273,-22.04207 -6.07832,-24.63103 -24.17234,-42.61011 -51.64964,-51.32154 -6.60198,-2.0931 -8.34457,-3.29235 -7.99381,-5.50136 2.3186,-14.60199 1.99735,-23.20575 -1.18073,-31.62323 -3.91492,-10.36898 -14.61151,-22.15803 -24.72009,-27.24478 C 728.69814,104.0986 719.96719,99.155528 713.0262,94.991053 695.11712,84.245915 674.16627,74.625878 658.10743,69.773909 646.44075,66.248975 641.30926,65.577861 625.10553,65.457812 604.49548,65.305113 600.1139,66.567615 587.241,76.367995 l -4.86262,3.702014 -7.09834,-5.418277 c -9.10906,-6.953103 -19.91617,-10.110349 -34.49281,-10.076906 -24.96529,0.05727 -57.44527,10.945362 -86.83106,29.107909 -5.90964,3.652586 -14.11373,8.305925 -18.2313,10.340745 -10.7133,5.2943 -23.00869,17.50506 -27.17325,26.98622 -3.32396,7.56741 -4.29773,19.80328 -2.62517,32.98631 0.38906,3.06652 -0.82023,3.94286 -9.53172,6.90737 -21.0676,7.16929 -35.99778,19.63273 -44.70441,37.3184 -4.05538,8.23766 -5.1026,12.44474 -5.6383,22.65117 -0.36184,6.89397 0.0374,15.05256 0.88715,18.13018 1.4512,5.25583 1.2227,5.90734 -3.76225,10.72727 -2.919,2.82239 -7.85341,10.2763 -10.96535,16.56428 -5.39754,10.90627 -5.65806,12.14961 -5.65806,27.00318 0,15.01361 0.21047,15.98515 5.88462,27.16412 l 5.88462,11.59363 -3.85638,5.91738 c -10.34867,15.87937 -11.4719,40.19673 -2.68147,58.05263 5.50613,11.18454 16.51573,23.15344 26.89032,29.23336 l 6.75414,3.95818 0.0761,9.91801 c 0.14045,18.30045 5.78009,31.78777 19.47883,46.58404 9.07242,9.79931 21.05045,17.86075 33.34077,22.43899 5.03977,1.87735 10.82615,6.20907 18.41966,13.78907 22.18853,22.14907 55.29603,31.42245 87.68573,24.56073 z"
         id="path4961"
         inkscape:connector-curvature="0"
         transform="matrix(0.80946386,0,0,0.93840401,-239.9446,-60.730937)" />
      <path
         style="opacity:1;fill:#00ff00;fill-opacity:0.94117647;stroke:#fe0700;stroke-width:0.30699438;stroke-linejoin:round;stroke-miterlimit:4;stroke-dasharray:none;stroke-opacity:1"
         d="m 648.941,540.36726 c -26.85192,-4.77005 -48.13008,-22.34096 -54.75574,-45.21579 -0.74056,-2.55674 -1.33339,-69.50579 -1.3174,-148.77567 0.0287,-142.41039 0.0664,-144.18745 3.16348,-149.19863 4.22488,-6.83601 11.74779,-11.20545 22.22969,-12.91143 4.78591,-0.77892 9.66527,-2.21596 10.84302,-3.1934 3.61867,-3.00323 2.62763,-10.22173 -1.80182,-13.12402 -3.47583,-2.27744 -5.14083,-2.363 -14.04763,-0.72186 -5.55744,1.024 -12.03755,2.86146 -14.40024,4.08326 -2.3627,1.2218 -4.67548,2.22145 -5.13953,2.22145 -0.46404,0 -0.84371,-16.26663 -0.84371,-36.14806 0,-38.544431 0.3664,-40.752823 7.93371,-47.818384 8.79719,-8.213897 20.52784,-9.889073 40.44326,-5.77543 15.10095,3.119185 42.18637,13.383665 42.18637,15.987237 0,0.489717 -3.40631,2.100207 -7.56957,3.578867 -9.29334,3.3007 -21.55948,12.78097 -26.15267,20.21292 -4.09858,6.63163 -3.24881,12.42995 2.18447,14.90552 5.51089,2.51092 10.65494,0.48445 15.16748,-5.97514 6.89511,-9.87019 21.48784,-17.29646 33.98782,-17.29646 21.56455,0 40.92338,18.74267 38.80165,37.56665 -1.11441,9.887 -4.64248,14.6224 -10.8943,14.6224 -2.78213,0 -8.81015,1.10198 -13.39562,2.44886 -29.34506,8.61944 -51.17135,32.43277 -53.22971,58.07571 -0.96589,12.03295 0.62908,14.68905 8.82068,14.68905 7.28624,0 9.45232,-2.60534 10.87358,-13.07866 1.56894,-11.56161 6.89602,-21.32353 16.35259,-29.96631 12.13795,-11.0934 21.93106,-14.41931 42.61504,-14.47281 15.80354,-0.0409 17.53842,0.26606 27.09418,4.79341 23.63354,11.19718 36.12505,34.68681 29.87647,56.18118 -3.72715,12.82098 -3.34135,14.48616 5.11841,22.09222 10.55189,9.48705 15.84765,20.77961 15.95258,34.01682 0.20859,26.31709 -20.85279,47.00974 -51.84719,50.93945 -13.66622,1.73271 -16.21713,3.19925 -16.21713,9.32341 0,5.14943 4.84717,9.10892 11.15105,9.10892 12.7842,0 40.10409,-8.84204 48.27663,-15.62465 3.36653,-2.79397 8.67125,11.41814 8.69663,23.29951 0.0399,18.65454 -10.69816,34.47214 -30.56261,45.02014 l -9.16472,4.86644 v 15.34972 c 0,13.37725 -0.51977,16.45825 -4.04491,23.97628 -7.50922,16.01493 -21.40059,28.17138 -39.36491,34.44862 -8.46005,2.95615 -11.34921,5.01374 -19.10237,13.60415 -5.02412,5.56666 -12.06467,11.83825 -15.64566,13.93685 -14.95348,8.76332 -36.18889,12.8046 -52.27135,9.94766 z m 0.14613,-52.3815 c 0.94848,-0.75565 2.20023,-4.96003 2.78167,-9.34306 1.63549,-12.32899 6.45721,-21.71227 15.60081,-30.3599 10.20835,-9.65464 22.36194,-15.21853 35.75676,-16.36939 12.48381,-1.07259 17.04741,-3.63295 17.04741,-9.56424 0,-5.92055 -3.59629,-8.4953 -12.08762,-8.65409 l -7.09952,-0.13276 -1.09236,-8.70073 c -0.6008,-4.7854 -2.96877,-12.68568 -5.26216,-17.55619 -5.02321,-10.66789 -19.5403,-25.55773 -30.75416,-31.54384 -15.61666,-8.33639 -42.4379,-12.88936 -48.74824,-8.27511 -3.04225,2.22454 -3.74948,9.50982 -1.17327,12.08603 0.88794,0.88793 7.6001,2.57293 14.91591,3.74442 7.31581,1.17149 17.01376,3.88618 21.55101,6.03264 17.06431,8.07271 29.80153,25.72803 29.82048,41.33478 l 0.009,7.67486 -10.35539,5.30245 c -12.82075,6.56483 -26.26281,19.8777 -31.72169,31.41684 -5.28408,11.16961 -7.86137,24.70539 -5.63462,29.59257 2.72169,5.97346 11.01119,7.64427 16.44567,3.31472 z m 99.19989,-155.05303 c 3.35711,-3.96741 3.34731,-4.74783 -0.11313,-9.0213 -2.05996,-2.54396 -5.31028,-3.80044 -12.30601,-4.75717 -12.04137,-1.64675 -19.9629,-5.686 -26.7877,-13.65924 -8.58126,-10.02529 -8.3339,-11.39299 2.46387,-13.62324 29.28657,-6.04904 53.36004,-29.57688 57.65524,-56.34848 1.87253,-11.6713 -0.11067,-16.51468 -7.03726,-17.18616 -8.02112,-0.7776 -10.76046,1.70198 -11.94452,10.81185 -2.37324,18.259 -13.67311,33.2308 -31.4787,41.70776 -9.36035,4.45632 -11.06886,4.75005 -27.62949,4.75005 -16.02538,0 -18.47795,-0.38686 -26.61258,-4.19775 -4.92823,-2.30875 -11.02518,-5.93512 -13.54878,-8.0586 -2.61171,-2.1976 -6.52142,-3.86085 -9.07551,-3.86085 -4.88074,0 -10.62703,4.66052 -10.62703,8.61906 0,6.94953 23.22671,20.64751 40.5982,23.94285 5.53073,1.04916 10.06262,2.61347 10.07086,3.47623 0.0403,4.21385 8.10723,18.13324 13.81976,23.84576 10.7522,10.7522 33.92936,19.51546 46.02915,17.40357 2.11059,-0.36839 5.04622,-2.09834 6.52363,-3.84434 z"
         id="path4963"
         inkscape:connector-curvature="0"
         transform="matrix(0.80946386,0,0,0.93840401,-239.9446,-60.730937)" />
      <path
         style="opacity:1;fill:#ff00ff;fill-opacity:0.94117647;stroke:#fe0700;stroke-width:0.30699438;stroke-linejoin:round;stroke-miterlimit:4;stroke-dasharray:none;stroke-opacity:1"
         d="m 490.56016,540.31213 c -18.76792,-3.29722 -34.88411,-12.76363 -45.04633,-26.45957 -4.1857,-5.64119 -7.0677,-7.79474 -13.04726,-9.74941 -22.59301,-7.38548 -36.96504,-19.96866 -44.35514,-38.83439 -1.85785,-4.74278 -2.64949,-11.00881 -2.60398,-20.61129 0.0376,-7.92971 -0.65721,-14.66752 -1.63383,-15.84427 -0.93456,-1.12609 -4.69363,-3.372 -8.35349,-4.99093 -10.17676,-4.50166 -21.0722,-15.60904 -25.9306,-26.43501 -3.69273,-8.22849 -4.13019,-10.7819 -3.48027,-20.31429 0.40884,-5.99655 1.97106,-13.42703 3.47159,-16.51216 l 2.72825,-5.6093 9.3793,5.10947 c 15.8367,8.62722 38.60518,13.41808 47.08208,9.90683 5.87458,-2.43333 7.55629,-8.3399 3.5229,-12.37328 -1.99129,-1.99129 -6.64909,-3.39624 -14.60289,-4.40467 -22.70644,-2.8789 -40.05289,-14.6177 -48.10096,-32.55119 -3.67941,-8.19881 -4.13185,-10.8163 -3.51142,-20.3143 0.8864,-13.56953 4.67015,-21.30479 15.84329,-32.38899 4.60834,-4.57167 8.37881,-9.29393 8.37881,-10.49394 0,-1.20001 -1.03611,-4.66159 -2.30246,-7.69241 -3.04505,-7.28781 -2.92334,-21.65124 0.26307,-31.04649 3.6454,-10.74861 18.19609,-25.04876 30.43636,-29.9123 7.70882,-3.06302 11.96696,-3.66655 26.1268,-3.70311 16.03412,-0.0414 17.44689,0.21721 27.07126,4.95527 18.0739,8.89776 29.10383,23.34686 31.43128,41.17469 1.26912,9.72127 2.72145,11.38782 9.924,11.38782 4.61096,0 6.46921,-0.84349 8.42106,-3.82236 2.14089,-3.26742 2.26014,-5.20963 0.82138,-13.37759 -3.72048,-21.12153 -18.24981,-39.73498 -38.64652,-49.50984 -9.60083,-4.60107 -15.38985,-6.32169 -31.56931,-9.38304 -5.75377,-1.08869 -9.48641,-14.55982 -6.74617,-24.347 8.12567,-29.02203 51.13958,-35.67645 71.3312,-11.03522 6.76825,8.25975 11.48531,10.05641 16.9691,6.4633 6.221,-4.07616 5.11233,-9.99152 -3.67449,-19.60572 -6.93315,-7.58596 -13.82664,-12.09514 -25.50116,-16.68084 l -4.60492,-1.808789 9.20983,-4.179803 c 38.75737,-17.589701 67.61884,-17.991329 78.80429,-1.096616 l 4.08419,6.168848 0.43925,54.07385 0.43926,54.07385 -8.88161,-3.65221 c -10.66206,-4.38435 -24.99988,-5.03967 -28.72658,-1.31296 -3.09258,3.09257 -3.0978,8.92269 -0.0107,11.4851 1.32099,1.09632 6.21738,2.5111 10.88086,3.14395 11.0547,1.50016 19.85607,7.33655 23.64345,15.67852 2.76419,6.08834 2.91749,11.44295 2.94945,103.02877 l 0.0338,96.60666 -4.22117,-3.96001 c -7.48042,-7.01762 -21.33347,-14.87448 -33.32235,-18.89901 -10.20603,-3.42605 -12.21603,-3.6716 -15.85293,-1.93662 -2.79813,1.33482 -4.32733,3.39891 -4.65965,6.28953 -0.65161,5.6679 1.78955,8.33698 9.49956,10.38654 10.03744,2.66825 23.07322,10.26548 30.95676,18.0415 21.99611,21.69616 22.51481,52.81819 1.25901,75.54235 -4.04012,4.31922 -10.32979,9.60193 -13.97707,11.73938 -14.08699,8.25552 -36.32069,12.35405 -52.03848,9.5927 z m 9.62533,-35.76014 c 4.16887,-3.58591 4.18055,-3.6526 2.45999,-14.03586 -0.95083,-5.73804 -3.58746,-14.23184 -5.85919,-18.8751 -5.50126,-11.24417 -19.04173,-24.49826 -31.73179,-31.06065 l -10.31949,-5.33651 0.009,-7.67486 c 0.0278,-22.89117 22.75193,-43.39017 52.44608,-47.31058 9.88654,-1.30528 12.74567,-2.28391 14.50151,-4.96367 3.07452,-4.69231 0.4709,-11.00834 -5.11595,-12.41055 -6.31155,-1.58409 -26.16755,1.7646 -37.59945,6.34111 -24.37182,9.75668 -44.20754,35.12247 -44.20754,56.53226 v 5.5936 l -7.66009,-0.17257 c -8.95605,-0.20178 -12.29454,1.98556 -12.29454,8.05525 0,5.82339 4.54611,8.5017 16.1172,9.49538 14.099,1.21076 25.67374,6.29862 35.92899,15.79318 9.87379,9.1414 14.75942,18.40816 16.65707,31.59415 0.93374,6.4882 1.93974,8.5158 4.99113,10.05964 5.33965,2.70158 6.9,2.48454 11.67671,-1.62422 z M 469.23083,340.79801 c 12.38248,-4.71238 27.04217,-18.99256 30.93287,-30.1321 l 2.76627,-7.9201 9.13452,-1.7971 c 16.13977,-3.1753 38.07833,-15.04062 40.2063,-21.74529 1.43467,-4.52023 -0.60149,-8.49616 -5.36061,-10.46745 -4.85016,-2.00901 -5.97673,-1.6234 -17.37147,5.94609 -11.60203,7.70715 -20.40399,10.14056 -36.44076,10.07449 -17.49001,-0.0721 -28.2602,-3.70157 -40.43679,-13.62705 -9.5568,-7.79 -17.89214,-22.60381 -17.89214,-31.79843 0,-4.40394 -1.03661,-7.11215 -3.76765,-9.8432 -4.40229,-4.40228 -7.96909,-4.7447 -12.96597,-1.24474 -3.3098,2.31827 -3.5429,3.34544 -2.87375,12.66351 1.92505,26.80686 25.57431,51.48149 56.87879,59.34492 11.3541,2.85207 11.71102,4.09908 3.88925,13.58824 -5.84518,7.09122 -16.84722,12.72071 -27.51921,14.08094 -4.54798,0.57969 -9.47785,1.67644 -10.95526,2.43725 -3.46836,1.78607 -3.52122,9.4308 -0.0889,12.86309 3.51378,3.51378 19.4486,2.30206 31.86455,-2.42307 z"
         id="path4965"
         inkscape:connector-curvature="0"
         transform="matrix(0.80946386,0,0,0.93840401,-239.9446,-60.730937)" />
      <path
         style="opacity:1;fill:#ffccaa;fill-opacity:0.94117647;stroke:#fe0700;stroke-width:0.15349719;stroke-linejoin:round;stroke-miterlimit:4;stroke-dasharray:none;stroke-opacity:1"
         d="m 463.81639,897.99976 c -0.26537,-5.74293 -0.71183,-18.78791 -0.99212,-28.98883 l -0.50961,-18.54714 3.37763,-0.40131 c 2.89395,-0.34384 197.86771,-2.10477 226.90791,-2.04935 l 10.16919,0.0194 v 19.0658 c 0,10.48619 -0.22425,23.7415 -0.49833,29.45625 l -0.49831,10.39045 -62.24366,0.4669 c -34.23401,0.25679 -87.66563,0.59348 -118.73693,0.7482 l -56.49327,0.2813 z"
         id="path4967"
         inkscape:connector-curvature="0"
         transform="matrix(0.80946386,0,0,0.93840401,-239.9446,-60.730937)" />
      <path
         style="opacity:1;fill:#ffccaa;fill-opacity:0.94117647;stroke:#fe0700;stroke-width:0.1085389;stroke-linejoin:round;stroke-miterlimit:4;stroke-dasharray:none;stroke-opacity:1"
         d="m 474.53546,924.92181 -4.61317,-5.83397 13.68848,-0.12591 c 23.94391,-0.22026 211.76765,-1.13686 211.87454,-1.03397 0.0564,0.0543 -2.45924,2.96276 -5.59033,6.46326 l -5.69289,6.36456 H 581.67537 479.14864 Z"
         id="path4969"
         inkscape:connector-curvature="0"
         transform="matrix(0.80946386,0,0,0.93840401,-239.9446,-60.730937)" />
      <path
         style="opacity:1;fill:#ffccaa;fill-opacity:0.94117647;stroke:#fe0700;stroke-width:0.1085389;stroke-linejoin:round;stroke-miterlimit:4;stroke-dasharray:none;stroke-opacity:1"
         d="m 488.47128,1054.3544 c -2.84589,-2.4292 -3.37685,-3.169 -3.60296,-5.0199 -0.14586,-1.1939 -0.76853,-23.7836 -1.38371,-50.19922 -0.61518,-26.41565 -1.26394,-50.32168 -1.44168,-53.1245 l -0.32317,-5.09604 99.50512,0.40066 c 54.72781,0.22037 99.59414,0.4861 99.70293,0.59051 0.1088,0.10441 0.0156,25.00386 -0.20716,55.3321 l -0.40499,55.14229 -4.80191,2.4116 -4.80191,2.4117 h -89.4514 -89.4514 z"
         id="path4971"
         inkscape:connector-curvature="0"
         transform="matrix(0.80946386,0,0,0.93840401,-239.9446,-60.730937)" />
      <path
         style="opacity:1;fill:#ffccaa;fill-opacity:0.94117647;stroke:#fe0700;stroke-width:0.1085389;stroke-linejoin:round;stroke-miterlimit:4;stroke-dasharray:none;stroke-opacity:1"
         d="m 557.53835,1081.5715 c -13.32755,-1.0908 -26.86778,-4.1464 -37.98862,-8.573 -3.88026,-1.5445 -7.90977,-3.2779 -8.95446,-3.8519 -1.88239,-1.0343 -1.29329,-1.0436 65.66604,-1.0368 l 67.56546,0.01 -2.70096,1.0951 c -4.81543,1.9524 -22.5931,6.8571 -30.9461,8.5377 -19.18788,3.8606 -36.66518,5.1295 -52.64136,3.822 z"
         id="path4973"
         inkscape:connector-curvature="0"
         transform="matrix(0.80946386,0,0,0.93840401,-239.9446,-60.730937)" />
    </g>
  </g>
</svg>
