
<svg width="804" height="248" viewBox="0 0 804 248" fill="none" xmlns="http://www.w3.org/2000/svg">
<path fill-rule="evenodd" clip-rule="evenodd" d="M125.153 0C194.335 0 250.306 55.4556 250.306 124C250.306 192.544 194.335 248 125.153 248C55.9712 248 0 192.544 0 124C0 105.228 4.17177 87.3167 11.82 71.4722C12.5153 75.6056 13.5582 79.7389 15.2965 83.5278C18.0777 90.0722 21.9018 95.7556 26.9427 100.75C31.8097 105.572 37.7197 109.533 44.325 112.289C50.5827 114.872 57.5356 116.25 64.6624 116.25H75.4394H78.2206V113.494V92.6556V89.9H75.4394H64.6624C61.0121 89.9 57.5356 89.2111 54.5806 87.8333C51.278 86.4556 48.323 84.5611 45.8894 82.15C43.4559 79.7389 41.37 76.8111 39.9794 73.5389C38.7627 70.4389 37.8935 67.1667 37.8935 63.7222V63.55V63.3778C37.8935 59.9333 38.5888 56.4889 39.9794 53.5611C41.37 50.2889 43.2821 47.3611 45.7156 44.95C48.1491 42.5389 51.1041 40.4722 54.4068 39.2667C57.5356 38.0611 61.0121 37.2 64.4886 37.2C68.1388 37.2 71.4415 37.8889 74.5703 39.2667C77.873 40.6444 80.828 42.5389 83.2615 44.95C85.695 47.3611 87.7809 50.2889 88.9977 53.5611C90.2144 56.6611 91.0836 60.1056 91.0836 63.55V103.161V142.772C91.0836 149.833 92.4742 156.722 95.0815 162.922C97.8627 169.467 101.687 175.15 106.728 180.144C111.595 184.967 117.505 188.928 124.11 191.683C130.368 194.267 137.321 195.644 144.447 195.644C151.574 195.644 158.527 194.267 164.785 191.683C171.216 188.928 177.126 185.139 182.167 180.144C187.034 175.322 191.032 169.467 193.813 162.922C196.073 157.583 197.464 151.728 197.811 145.528H197.985V142.772V141.739V141.05C197.811 134.506 196.421 128.478 193.987 122.622C191.206 116.25 187.382 110.394 182.341 105.4C177.474 100.578 171.564 96.6167 164.959 93.8611C158.701 91.2778 151.748 89.9 144.621 89.9H133.844H131.063V92.6556V113.494V116.25H133.844H144.621C148.272 116.25 151.748 116.939 154.703 118.317C158.006 119.694 160.961 121.589 163.394 124.172C165.828 126.583 167.914 129.511 169.304 132.783C170.521 135.883 171.39 139.156 171.39 142.6V142.772V142.944C171.39 146.389 170.695 149.833 169.304 152.761C167.914 156.033 166.002 158.961 163.568 161.372C161.134 163.783 158.179 165.85 154.877 167.056C151.748 168.261 148.272 169.122 144.795 169.122C141.319 169.122 137.842 168.433 134.713 167.056C131.411 165.678 128.456 163.783 126.022 161.372C123.589 158.961 121.503 156.033 120.286 152.761C119.069 149.661 118.2 146.217 118.2 142.772V103.161V63.55C118.2 56.4889 116.809 49.6 114.202 43.4C111.421 36.8556 107.597 31.1722 102.556 26.1778C97.6889 21.3556 91.7789 17.3944 85.1736 14.6389C81.5233 13.0889 77.5253 12.0556 73.5274 11.3667C88.9977 3.96111 106.554 0 125.153 0Z" fill="#4250E4"/>
<path d="M557.452 157.757C571.532 157.757 583.004 148.629 583.004 130.201C583.004 112.807 570.836 102.818 555.366 102.818C548.413 102.818 543.025 104.368 537.636 107.812V148.801C541.808 153.279 548.935 157.757 557.452 157.757ZM512.779 90.5899C521.644 85.0788 538.158 79.9121 554.149 79.9121C588.393 79.9121 609.773 100.234 609.773 131.923C609.773 160.34 592.391 181.007 563.536 181.007C553.106 181.007 543.894 177.39 537.81 172.568V221.651H512.779V90.5899Z" fill="white"/>
<path d="M340.347 102.989C354.426 102.989 365.899 112.117 365.899 130.544C365.899 147.939 353.731 157.928 338.261 157.928C331.308 157.928 325.919 156.378 320.531 152.933V112.117C324.702 107.467 331.829 102.989 340.347 102.989ZM295.674 170.328C304.539 175.839 321.052 181.006 337.044 181.006C371.287 181.006 392.667 160.683 392.667 128.994C392.667 100.578 375.285 79.9111 346.43 79.9111C336.001 79.9111 326.788 83.5278 320.704 88.35V46.5H295.848V170.328H295.674Z" fill="white"/>
<path d="M453.333 100.405C467.586 100.405 475.756 109.533 475.582 121.416H427.781C430.388 108.844 438.384 100.405 453.333 100.405ZM483.578 152.761C477.842 156.722 468.629 160.338 457.678 160.338C442.382 160.338 430.736 152.416 428.476 137.777H498.875C499.918 134.161 500.439 130.544 500.439 124.516C500.439 97.4772 479.406 79.7383 454.376 79.7383C422.392 79.7383 402.924 102.299 402.924 130.372C402.924 160.855 423.957 181.005 455.245 181.005C468.803 181.005 482.709 177.216 492.443 168.949L483.578 152.761Z" fill="white"/>
<path d="M623.854 178.595H648.71V131.751V113.84V106.779H690.08V82.1507H671.655C660.878 82.1507 651.665 89.3841 648.71 99.2007V91.4507V81.9785H623.854V178.595Z" fill="white"/>
<path fill-rule="evenodd" clip-rule="evenodd" d="M723.802 130.372C723.802 146.216 734.058 157.927 750.049 157.927C766.041 157.927 776.297 146.216 776.297 130.372C776.297 114.527 766.041 102.816 750.049 102.816C734.231 102.816 723.802 114.699 723.802 130.372ZM697.207 130.372C697.207 159.305 717.892 181.005 750.223 181.005C782.381 181.005 803.24 159.305 803.24 130.372C803.24 101.438 782.554 79.7383 750.223 79.7383C717.892 79.9105 697.207 101.438 697.207 130.372Z" fill="white"/>
</svg>
