<?xml version="1.0" standalone="yes"?>
<svg xmlns="http://www.w3.org/2000/svg" width="512" height="512">
<path style="fill:#010101; stroke:none;" d="M0 0L0 232L1 232C1.06169 209.644 12.1624 189.597 13.9066 168C17.9142 118.378 14 66.8018 14 17L112 17L161 16.8148L232 1L210 0L163 0L0 0z"/>
<path style="fill:#ffffff; stroke:none;" d="M14 17C14 66.472 17.8876 117.707 13.9066 167C12.8119 180.555 6.07182 194.461 3.6142 208C-0.133203 228.645 -0.0335888 249.105 0 270C0.0275077 287.112 3.7344 304.465 7.87346 321C9.67766 328.208 13.3085 335.594 13.9066 343C17.9407 392.95 14 444.869 14 495C63.1423 495 114.035 491.139 163 495.093C172.027 495.822 181.256 500.484 190 502.849C205.814 507.125 222.618 510 239 510L239 511L0 511L0 512L512 512L512 0L508 0L508 213L507 213L498.04 171L498 17C449.707 17 399.054 21.4411 351 16.8958C337.486 15.6176 323.466 8.0784 310 5.21066C286.654 0.238831 263.753 -0.0380859 240 0C222.102 0.028717 203.172 3.83069 186 8.70987C177.573 11.1044 168.642 15.7384 160 16.8148C144.145 18.7896 126.982 17 111 17L14 17z"/>
<path style="fill:#010101; stroke:none;" d="M278 0L278 1C294.314 1.01074 311.416 5.07736 327 9.72067C334.435 11.9359 342.266 16.1643 350 16.8958C398.381 21.472 449.378 17 498 17C498 68.45 493.953 121.736 498.093 173C499.187 186.537 506.404 199.159 507 213L508 213L508 0L278 0z"/>
<path style="fill:#9ad529; stroke:none;" d="M246 17.5293C214.433 24.7737 226.502 71.7518 258 64.4707C288.038 57.527 275.559 10.7458 246 17.5293M359 44.6381C328.963 53.2719 343.198 99.7765 373 91.2106C402.942 82.6046 389.132 35.9769 359 44.6381M135 48.4645C102.953 54.232 113.483 101.31 145 95.6705C174.515 90.3888 164.695 43.1202 135 48.4645M439 120.468C407.429 126.411 417.518 173.204 449 167.671C479.206 162.363 468.672 114.881 439 120.468M60 123.613C30.1866 131.511 44.4489 178.704 74 170.211C104.464 161.454 90.5571 115.518 60 123.613z"/>
<path style="fill:#ef477b; stroke:none;" d="M180 130L180 263C180 299.531 178.677 334.441 200.347 366C226.115 403.525 288.958 410.479 326 385.48C349.198 369.824 365.065 339.648 367.829 312C371.644 273.854 357.323 238.412 322 220.259C299.345 208.617 271.062 205.667 247 215.004C242.177 216.876 231.986 218.946 229.028 223.418C224.617 230.086 228 248.067 228 256C252.88 248.835 271.108 234.135 298 245.876C342.048 265.107 344.854 332.65 305 358.452C273.155 379.069 230.138 363.14 219.439 327C212.924 304.993 216 279.692 216 257L216 130L180 130z"/>
<path style="fill:#f7a0bb; stroke:none;" d="M270 209L270 210L274 210L270 209M278 209L278 210L289 210L278 209M265 210L265 211L268 211L265 210M292 210L292 211L295 211L292 210M259.667 211.333L260.333 211.667L259.667 211.333M298.667 211.333L299.333 211.667L298.667 211.333M253 212L253 213L256 213L253 212M302.667 212.333L303.333 212.667L302.667 212.333M250 213L251 214L250 213M305.667 213.333L306.333 213.667L305.667 213.333M247.667 214.333L248.333 214.667L247.667 214.333M308.667 214.333L309.333 214.667L308.667 214.333M245 215L246 216L245 215M311 215L312 216L311 215M242.667 216.333L243.333 216.667L242.667 216.333M313.667 216.333L314.333 216.667L313.667 216.333M240 217L241 218L240 217M316 217L317 218L316 217M237.667 218.333L238.333 218.667L237.667 218.333M318 218L319 219L318 218M235 219L236 220L235 219M320 219L321 220L320 219M232.667 220.333L233.333 220.667L232.667 220.333M322 220L323 221L322 220M230 221L231 222L230 221M324 221L325 222L324 221M228 222L229 223L228 222M326 222L327 223L326 222M327 223L328 224L327 223M329 224L330 225L329 224M330 225L331 226L330 225M332 226L333 227L332 226M333 227L334 228L333 227z"/>
<path style="fill:#9ad529; stroke:none;" d="M31 229.532C0.31369 236.843 15.978 282.716 46 275.467C62.7523 271.422 67.5973 249.564 57.4707 237.04C51.2239 229.314 40.4084 227.291 31 229.532z"/>
<path style="fill:#f7a0bb; stroke:none;" d="M336 229L337 230L336 229M337 230L338 231L337 230M338 231L339 232L338 231z"/>
<path style="fill:#9ad529; stroke:none;" d="M468 231.519C436.783 238.291 449.095 285.679 480 278.316C510.128 271.139 497.947 225.021 468 231.519z"/>
<path style="fill:#f7a0bb; stroke:none;" d="M269 241L269 242L283 242L269 241M262.667 242.333L263.333 242.667L262.667 242.333M286.667 242.333L287.333 242.667L286.667 242.333M257 243L257 244L260 244L257 243M290.667 243.333L291.333 243.667L290.667 243.333M350 243L351 244L350 243M254 244L255 245L254 244M293.667 244.333L294.333 244.667L293.667 244.333M351 244L352 245L351 244M251.667 245.333L252.333 245.667L251.667 245.333M296.667 245.333L297.333 245.667L296.667 245.333M352 245L353 246L352 245M249.667 246.333L250.333 246.667L249.667 246.333M299 246L300 247L299 246M247 247L248 248L247 247M301 247L302 248L301 247M353 247L354 248L353 247M245 248L246 249L245 248M303 248L304 249L303 248M354 248L355 249L354 248M242.667 249.333L243.333 249.667L242.667 249.333M240 250L241 251L240 250M306 250L307 251L306 250M356 251L357 252L356 251M236.667 252.333L237.333 252.667L236.667 252.333M309 252L310 253L309 252M234 253L235 254L234 253M310 253L311 254L310 253M357 253L358 254L357 253M232 254L233 255L232 254M312 254L313 255L312 254M358 254L359 255L358 254M230 255L231 256L230 255M313 255L314 256L313 255M314 256L315 257L314 256M359 256L360 257L359 256M315 257L316 258L315 257M360 258L361 259L360 258M361 260L362 261L361 260M319 261L320 262L319 261M320 262L321 263L320 262M321 263L322 264L321 263M362 263L363 264L362 263M322 265L323 266L322 265M363 265L364 266L363 265M323 266L324 267L323 266M324 268L325 269L324 268M364 268L365 269L364 268M325 269L326 270L325 269M326 271L327 272L326 271M365.333 271.667L365.667 272.333L365.333 271.667M327.333 273.667L327.667 274.333L327.333 273.667M366 275L366 278L367 278L366 275M328 276L329 277L328 276z"/>
<path style="fill:#010101; stroke:none;" d="M0 278L0 511L239 511L239 510C222.676 510 205.72 506.945 190 502.576C181.6 500.241 172.694 495.796 164 495.093C114.707 491.112 63.4721 495 14 495L14 393L13.8156 341L5.65123 311L0 278z"/>
<path style="fill:#f7a0bb; stroke:none;" d="M329.333 278.667L329.667 279.333L329.333 278.667M367 280L367 283L368 283L367 280M330 282L331 283L330 282M331 285L331 288L332 288L331 285M368 288L368 309L369 309L368 288M332 291L332 295L333 295L332 291z"/>
<path style="fill:#010101; stroke:none;" d="M507 298C506.406 311.787 499.184 324.436 498.093 338C493.943 389.598 498 443.216 498 495C448.198 495 396.622 491.086 347 495.093C338.627 495.77 330.126 499.979 322 502.116C305.399 506.481 288.219 510 271 510L271 511L508 511L508 361L508 318L507 298z"/>
<path style="fill:#f7a0bb; stroke:none;" d="M216 306L216 311L217 311L216 306M332 307L332 310L333 310L332 307M180 310L180 315L181 315L180 310M331 314L331 318L332 318L331 314M367 314L367 317L368 317L367 314M217 316L217 319L218 319L217 316M181 318L181 321L182 321L181 318M366 319L366 322L367 322L366 319M330.333 320.667L330.667 321.333L330.333 320.667M218.333 322.667L218.667 323.333L218.333 322.667M182.333 324.667L182.667 325.333L182.333 324.667M329 324L330 325L329 324M365.333 324.667L365.667 325.333L365.333 324.667M219.333 326.667L219.667 327.333L219.333 326.667M328 327L329 328L328 327M183.333 328.667L183.667 329.333L183.333 328.667M364.333 328.667L364.667 329.333L364.333 328.667M220.333 329.667L220.667 330.333L220.333 329.667M327 330L328 331L327 330M184.333 332.667L184.667 333.333L184.333 332.667M221 332L222 333L221 332M326 332L327 333L326 332M363 332L364 333L363 332z"/>
<path style="fill:#9ad529; stroke:none;" d="M59 333.465C26.8842 339.245 37.2408 386.393 69 380.671C98.4436 375.366 88.5923 328.139 59 333.465z"/>
<path style="fill:#f7a0bb; stroke:none;" d="M325 334L326 335L325 334M185.333 335.667L185.667 336.333L185.333 335.667M222 335L223 336L222 335M362 335L363 336L362 335M324 336L325 337L324 336M223 337L224 338L223 337M361.333 337.667L361.667 338.333L361.333 337.667M186 338L187 339L186 338M323 338L324 339L323 338z"/>
<path style="fill:#9ad529; stroke:none;" d="M441 338.519C409.6 345.331 421.957 392.647 453 385.471C482.866 378.567 470.784 332.057 441 338.519z"/>
<path style="fill:#f7a0bb; stroke:none;" d="M224 339L225 340L224 339M360 340L361 341L360 340M187 341L188 342L187 341M321 341L322 342L321 341M226 342L227 343L226 342M359 342L360 343L359 342M188.333 343.667L188.667 344.333L188.333 343.667M227 344L228 345L227 344M319 344L320 345L319 344M358 344L359 345L358 344M228 345L229 346L228 345M318 345L319 346L318 345M189 346L190 347L189 346M317 346L318 347L317 346M357 346L358 347L357 346M190 348L191 349L190 348M230 348L231 349L230 348M356 348L357 349L356 348M231 349L232 350L231 349M191 350L192 351L191 350M232 350L233 351L232 350M314 350L315 351L314 350M355 350L356 351L355 350M233 351L234 352L233 351M313 351L314 352L313 351M192 352L193 353L192 352M234 352L235 353L234 352M312 352L313 353L312 352M354 352L355 353L354 352M235 353L236 354L235 353M311 353L312 354L311 353M193 354L194 355L193 354M236 354L237 355L236 354M310 354L311 355L310 354M353 354L354 355L353 354M237 355L238 356L237 355M309 355L310 356L309 355M194 356L195 357L194 356M238 356L239 357L238 356M352 356L353 357L352 356M306 357L307 358L306 357M351 357L352 358L351 357M195 358L196 359L195 358M241 358L242 359L241 358M305 358L306 359L305 358M242 359L243 360L242 359M303 359L304 360L303 359M350 359L351 360L350 359M244 360L245 361L244 360M301 360L302 361L301 360M349 360L350 361L349 360M197 361L198 362L197 361M246 361L247 362L246 361M299 361L300 362L299 361M248 362L249 363L248 362M297 362L298 363L297 362M348 362L349 363L348 362M198 363L199 364L198 363M250 363L251 364L250 363M294 363L295 364L294 363M347 363L348 364L347 363M199 364L200 365L199 364M253 364L254 365L253 364M291 364L292 365L291 364M256.667 365.333L257.333 365.667L256.667 365.333M287.667 365.333L288.333 365.667L287.667 365.333M346 365L347 366L346 365M200 366L201 367L200 366M261.667 366.333L262.333 366.667L261.667 366.333M282 366L282 367L285 367L282 366M345 366L346 367L345 366M201 367L202 368L201 367M203 370L204 371L203 370M342 370L343 371L342 370M204 371L205 372L204 371M341 371L342 372L341 371M205 372L206 373L205 372M340 372L341 373L340 372M339 373L340 374L339 373M208 376L209 377L208 376M209 377L210 378L209 377M210 378L211 379L210 378M334 378L335 379L334 378M333 379L334 380L333 379M332 380L333 381L332 380M214 381L215 382L214 381M331 381L332 382L331 381M215 382L216 383L215 382M216 383L217 384L216 383M328 383L329 384L328 383M327 384L328 385L327 384M219 385L220 386L219 385M324 386L325 387L324 386M222 387L223 388L222 387M322 387L323 388L322 387M224 388L225 389L224 388M321 388L322 389L321 388M226 389L227 390L226 389M319 389L320 390L319 389M228 390L229 391L228 390M317 390L318 391L317 390M230 391L231 392L230 391M314.667 391.333L315.333 391.667L314.667 391.333M232.667 392.333L233.333 392.667L232.667 392.333M312 392L313 393L312 392M235 393L236 394L235 393M309.667 393.333L310.333 393.667L309.667 393.333M237.667 394.333L238.333 394.667L237.667 394.333M307 394L308 395L307 394M241 395L242 396L241 395M303.667 395.333L304.333 395.667L303.667 395.333M244.667 396.333L245.333 396.667L244.667 396.333M300.667 396.333L301.333 396.667L300.667 396.333M248.667 397.333L249.333 397.667L248.667 397.333M295 397L295 398L298 398L295 397M253 398L253 399L257 399L253 398M289 398L289 399L293 399L289 398M262 399L262 400L284 400L262 399z"/>
<path style="fill:#9ad529; stroke:none;" d="M134 416.529C103.293 423.578 115.258 470.575 146 463.471C176.534 456.414 164.261 409.583 134 416.529M361 420.468C328.62 426.524 339.712 474.643 372 467.61C401.226 461.243 389.879 415.066 361 420.468M247 447.529C216.936 454.479 229.909 501.184 259 494.471C290.619 487.174 278.512 440.245 247 447.529z"/>
</svg>
