<svg id="svg" version="1.1" xmlns="http://www.w3.org/2000/svg" xmlns:xlink="http://www.w3.org/1999/xlink" width="400" height="400" viewBox="0, 0, 400,400"><g id="svgg"><path id="path0" d="M190.995 14.372 C 181.246 17.845,176.029 26.595,178.052 36.080 C 182.463 56.760,212.597 55.064,215.007 34.000 C 216.459 21.304,202.825 10.159,190.995 14.372 M281.200 34.965 C 267.135 39.171,262.707 55.986,272.966 66.230 C 283.014 76.262,299.896 71.894,303.812 58.248 C 307.749 44.528,294.577 30.965,281.200 34.965 M105.000 38.229 C 89.973 41.824,84.937 59.308,95.939 69.687 C 106.387 79.543,122.454 75.104,126.759 61.172 C 130.612 48.699,117.782 35.171,105.000 38.229 M342.139 94.568 C 328.160 97.959,323.099 115.185,333.025 125.592 C 342.473 135.497,359.154 131.986,363.941 119.085 C 368.980 105.504,356.219 91.153,342.139 94.568 M47.610 96.641 C 33.955 100.311,29.473 118.180,39.729 128.061 C 50.159 138.111,68.153 132.756,70.797 118.816 C 73.490 104.615,61.304 92.961,47.610 96.641 M25.912 179.212 C 19.874 180.229,14.412 185.377,12.157 192.176 C 9.125 201.320,14.367 211.061,24.519 215.149 C 25.134 215.397,27.691 215.600,30.200 215.600 C 32.709 215.600,35.266 215.397,35.881 215.149 C 49.480 209.673,53.212 194.315,43.400 184.208 C 38.972 179.647,33.170 177.989,25.912 179.212 M363.945 181.564 C 353.358 184.951,348.493 197.273,353.508 208.000 C 358.464 218.602,374.454 221.002,383.115 212.444 C 397.038 198.686,382.687 175.569,363.945 181.564 M44.349 261.175 C 29.376 264.096,25.733 285.701,38.757 294.335 C 40.918 295.767,41.699 296.177,44.119 297.150 C 47.995 298.709,56.036 297.249,59.931 294.279 C 76.792 281.424,65.334 257.081,44.349 261.175 M344.349 264.775 C 335.388 266.523,328.698 276.832,330.521 286.085 C 335.060 309.124,367.917 305.414,367.138 281.950 C 366.750 270.288,356.334 262.437,344.349 264.775 M104.400 325.771 C 90.514 329.621,85.951 346.838,96.140 356.932 C 107.934 368.615,127.876 360.419,127.982 343.846 C 128.060 331.754,116.042 322.542,104.400 325.771 M280.176 329.152 C 264.496 333.199,262.179 357.016,276.800 363.857 C 280.262 365.477,280.871 365.600,285.400 365.600 C 287.909 365.600,290.466 365.397,291.081 365.149 C 304.873 359.595,308.410 343.964,298.189 333.738 C 294.059 329.606,286.185 327.601,280.176 329.152 M193.589 349.767 C 180.873 352.560,175.288 368.844,183.547 379.046 C 189.951 386.956,200.548 388.740,208.526 383.251 C 225.935 371.273,214.311 345.217,193.589 349.767 " stroke="none" fill="#9cd425" fill-rule="evenodd"></path><path id="path1" d="M140.945 171.700 C 141.056 218.306,141.254 242.527,141.543 244.800 C 142.105 249.223,143.221 255.129,144.000 257.800 C 144.256 258.680,144.562 259.897,144.679 260.505 C 144.796 261.113,145.051 261.708,145.246 261.829 C 145.441 261.949,145.600 262.399,145.600 262.829 C 145.600 263.259,145.759 263.923,145.953 264.305 C 146.285 264.958,146.719 265.984,147.556 268.100 C 148.752 271.121,153.098 279.720,154.611 282.059 C 155.595 283.580,156.400 284.907,156.400 285.008 C 156.400 285.109,156.660 285.508,156.978 285.895 C 157.295 286.283,158.420 287.770,159.478 289.200 C 164.909 296.546,172.460 302.139,182.800 306.474 C 183.350 306.705,184.113 307.052,184.495 307.247 C 184.877 307.441,185.541 307.600,185.971 307.600 C 186.401 307.600,186.864 307.780,187.000 308.000 C 187.136 308.220,187.676 308.400,188.200 308.400 C 188.724 308.400,189.264 308.580,189.400 308.800 C 189.536 309.020,190.141 309.200,190.744 309.200 C 191.347 309.200,192.011 309.362,192.220 309.559 C 192.429 309.756,193.320 310.019,194.200 310.142 C 195.080 310.266,197.150 310.593,198.800 310.870 C 200.737 311.196,205.838 311.371,213.200 311.364 C 223.988 311.353,226.704 311.156,232.200 309.983 C 233.300 309.748,234.787 309.456,235.504 309.334 C 236.221 309.212,236.906 308.951,237.027 308.756 C 237.148 308.560,237.676 308.400,238.200 308.400 C 238.724 308.400,239.264 308.220,239.400 308.000 C 239.536 307.780,239.999 307.600,240.429 307.600 C 240.859 307.600,241.523 307.441,241.905 307.247 C 242.287 307.052,243.050 306.714,243.600 306.496 C 253.717 302.472,262.079 295.959,269.144 286.600 C 270.307 285.060,271.515 283.483,271.829 283.095 C 272.143 282.708,272.400 282.247,272.400 282.071 C 272.400 281.895,272.715 281.393,273.100 280.955 C 273.757 280.208,274.059 279.735,275.300 277.500 C 275.575 277.005,275.900 276.510,276.022 276.400 C 277.584 274.996,283.758 259.820,285.136 254.000 C 286.021 250.260,286.711 245.617,287.216 240.000 C 288.155 229.555,287.080 219.060,284.128 209.834 C 282.437 204.551,279.256 197.691,278.300 197.267 C 278.135 197.193,278.000 196.923,277.999 196.667 C 277.999 196.410,277.459 195.570,276.800 194.800 C 276.141 194.030,275.601 193.241,275.601 193.047 C 275.600 192.853,275.283 192.403,274.896 192.047 C 274.508 191.691,273.723 190.770,273.151 190.000 C 272.090 188.572,267.326 183.816,264.800 181.662 C 264.030 181.005,262.950 180.077,262.400 179.599 C 261.850 179.121,260.905 178.437,260.300 178.079 C 259.695 177.720,259.200 177.286,259.200 177.114 C 259.200 176.941,258.964 176.800,258.675 176.800 C 258.387 176.800,257.793 176.485,257.355 176.100 C 256.608 175.443,256.135 175.141,253.900 173.900 C 253.405 173.625,252.910 173.310,252.800 173.200 C 252.207 172.607,242.670 168.439,239.800 167.518 C 233.514 165.503,229.783 164.819,222.600 164.366 C 214.546 163.858,211.664 163.970,207.800 164.942 C 207.360 165.053,205.875 165.336,204.500 165.572 C 203.125 165.807,200.875 166.204,199.500 166.453 C 197.490 166.816,190.905 169.151,184.900 171.629 C 184.405 171.833,183.550 172.180,183.000 172.400 C 180.640 173.344,179.765 173.710,179.200 173.990 C 178.689 174.243,178.584 176.167,178.494 186.972 L 178.389 199.658 179.294 199.383 C 179.792 199.233,181.190 198.617,182.400 198.016 C 188.518 194.975,191.554 193.600,192.146 193.600 C 192.506 193.600,192.800 193.420,192.800 193.200 C 192.800 192.980,193.053 192.800,193.362 192.800 C 193.671 192.800,194.706 192.414,195.662 191.943 C 202.495 188.574,216.029 187.027,223.400 188.771 C 224.500 189.031,225.987 189.344,226.704 189.466 C 227.421 189.588,228.106 189.849,228.227 190.044 C 228.348 190.240,228.876 190.400,229.400 190.400 C 229.924 190.400,230.464 190.580,230.600 190.800 C 230.736 191.020,231.171 191.200,231.567 191.200 C 232.352 191.200,237.317 193.613,237.533 194.100 C 237.607 194.265,237.844 194.400,238.061 194.400 C 238.486 194.400,241.858 196.626,242.729 197.481 C 243.019 197.766,243.411 198.000,243.599 198.000 C 245.995 198.000,257.200 213.147,257.200 216.386 C 257.200 216.808,257.359 217.251,257.552 217.370 C 257.746 217.490,258.024 218.086,258.170 218.694 C 258.316 219.302,258.619 220.520,258.843 221.400 C 260.321 227.207,260.960 234.912,260.367 239.774 C 260.124 241.768,259.836 244.390,259.727 245.600 C 259.619 246.810,259.365 247.971,259.165 248.180 C 258.964 248.389,258.800 249.006,258.800 249.552 C 258.800 250.556,258.693 250.952,257.160 255.600 C 253.907 265.470,245.104 277.035,237.800 281.036 C 237.360 281.277,236.351 281.845,235.557 282.299 C 226.226 287.626,207.035 288.867,196.600 284.818 C 193.042 283.437,187.610 280.356,187.267 279.523 C 187.193 279.345,186.949 279.200,186.723 279.200 C 185.378 279.200,175.600 267.612,175.600 266.018 C 175.600 265.788,175.464 265.600,175.298 265.600 C 175.131 265.600,174.758 265.015,174.467 264.300 C 174.177 263.585,173.593 262.308,173.170 261.462 C 172.746 260.616,172.400 259.592,172.400 259.186 C 172.400 258.780,172.241 258.349,172.048 258.230 C 171.854 258.110,171.597 257.604,171.476 257.106 C 171.355 256.608,171.064 255.480,170.829 254.600 C 168.424 245.581,168.403 244.855,168.401 170.100 L 168.400 102.000 154.590 102.000 L 140.781 102.000 140.945 171.700 " stroke="none" fill="#ec447c" fill-rule="evenodd"></path><path id="path2" d="M177.500 0.274 C 175.575 0.360,174.000 0.604,174.000 0.816 C 174.000 1.027,172.740 1.200,171.200 1.200 C 169.600 1.200,168.400 1.371,168.400 1.600 C 168.400 1.825,167.275 2.000,165.824 2.000 C 164.407 2.000,163.136 2.180,163.000 2.400 C 162.864 2.620,161.953 2.800,160.976 2.800 C 159.999 2.800,159.200 2.980,159.200 3.200 C 159.200 3.420,158.480 3.600,157.600 3.600 C 156.720 3.600,156.000 3.780,156.000 4.000 C 156.000 4.220,155.100 4.400,154.000 4.400 C 152.900 4.400,152.000 4.580,152.000 4.800 C 152.000 5.020,151.280 5.200,150.400 5.200 C 149.520 5.200,148.800 5.380,148.800 5.600 C 148.800 5.820,148.170 6.000,147.400 6.000 C 146.630 6.000,146.000 6.180,146.000 6.400 C 146.000 6.620,145.460 6.800,144.800 6.800 C 144.140 6.800,143.600 6.980,143.600 7.200 C 143.600 7.420,142.880 7.600,142.000 7.600 C 141.120 7.600,140.400 7.780,140.400 8.000 C 140.400 8.220,139.860 8.400,139.200 8.400 C 138.540 8.400,138.000 8.580,138.000 8.800 C 138.000 9.020,137.460 9.200,136.800 9.200 C 136.140 9.200,135.600 9.356,135.600 9.546 C 135.600 9.736,134.788 10.003,133.795 10.139 C 132.802 10.275,131.239 10.749,130.320 11.193 C 129.401 11.637,128.324 12.000,127.925 12.000 C 127.526 12.000,127.200 12.180,127.200 12.400 C 127.200 12.620,126.660 12.800,126.000 12.800 C 125.340 12.800,124.800 12.980,124.800 13.200 C 124.800 13.420,124.440 13.600,124.000 13.600 C 123.560 13.600,123.200 13.780,123.200 14.000 C 123.200 14.220,122.840 14.400,122.400 14.400 C 121.960 14.400,121.600 14.580,121.600 14.800 C 121.600 15.020,121.060 15.200,120.400 15.200 C 119.740 15.200,119.200 15.380,119.200 15.600 C 119.200 15.820,118.840 16.000,118.400 16.000 C 117.960 16.000,117.600 16.180,117.600 16.400 C 117.600 16.620,117.240 16.800,116.800 16.800 C 116.360 16.800,116.000 16.980,116.000 17.200 C 116.000 17.420,115.640 17.600,115.200 17.600 C 114.760 17.600,114.400 17.780,114.400 18.000 C 114.400 18.220,113.950 18.400,113.400 18.400 C 112.850 18.400,112.400 18.580,112.400 18.800 C 112.400 19.020,112.040 19.200,111.600 19.200 C 111.160 19.200,110.800 19.380,110.800 19.600 C 110.800 19.820,110.440 20.000,110.000 20.000 C 109.560 20.000,109.200 20.180,109.200 20.400 C 109.200 20.620,108.880 20.800,108.488 20.800 C 108.097 20.800,107.517 21.160,107.200 21.600 C 106.883 22.040,106.303 22.400,105.912 22.400 C 105.520 22.400,105.200 22.580,105.200 22.800 C 105.200 23.020,104.840 23.200,104.400 23.200 C 103.960 23.200,103.600 23.380,103.600 23.600 C 103.600 23.820,103.240 24.000,102.800 24.000 C 102.360 24.000,102.000 24.180,102.000 24.400 C 102.000 24.620,101.640 24.800,101.200 24.800 C 100.760 24.800,100.400 24.980,100.400 25.200 C 100.400 25.420,100.080 25.600,99.688 25.600 C 99.297 25.600,98.717 25.960,98.400 26.400 C 98.083 26.840,97.545 27.200,97.205 27.200 C 96.864 27.200,95.923 27.650,95.114 28.200 C 94.305 28.750,93.493 29.200,93.310 29.200 C 93.126 29.200,92.717 29.560,92.400 30.000 C 92.083 30.440,91.503 30.800,91.112 30.800 C 90.720 30.800,90.400 30.980,90.400 31.200 C 90.400 31.420,90.080 31.600,89.688 31.600 C 89.297 31.600,88.717 31.960,88.400 32.400 C 88.083 32.840,87.575 33.200,87.272 33.200 C 86.969 33.200,86.217 33.740,85.600 34.400 C 84.983 35.060,84.231 35.600,83.928 35.600 C 83.625 35.600,83.117 35.960,82.800 36.400 C 82.483 36.840,82.020 37.200,81.771 37.200 C 81.522 37.200,80.754 37.740,80.063 38.400 C 79.372 39.060,78.698 39.600,78.564 39.600 C 78.430 39.600,77.817 40.140,77.200 40.800 C 76.583 41.460,75.875 42.000,75.625 42.000 C 75.376 42.000,74.773 42.364,74.286 42.809 C 71.684 45.184,70.681 46.000,70.366 46.000 C 70.174 46.000,69.027 46.990,67.817 48.200 C 66.607 49.410,65.478 50.402,65.309 50.404 C 65.139 50.406,63.977 51.441,62.726 52.704 C 59.821 55.637,55.637 59.821,52.704 62.726 C 51.441 63.977,50.406 65.139,50.404 65.309 C 50.402 65.478,49.410 66.607,48.200 67.817 C 46.990 69.027,46.000 70.174,46.000 70.366 C 46.000 70.681,45.184 71.684,42.809 74.286 C 42.364 74.773,42.000 75.376,42.000 75.625 C 42.000 75.875,41.460 76.583,40.800 77.200 C 40.140 77.817,39.600 78.430,39.600 78.564 C 39.600 78.698,39.060 79.372,38.400 80.063 C 37.740 80.754,37.200 81.522,37.200 81.771 C 37.200 82.020,36.840 82.483,36.400 82.800 C 35.960 83.117,35.600 83.625,35.600 83.928 C 35.600 84.231,35.060 84.983,34.400 85.600 C 33.740 86.217,33.200 86.969,33.200 87.272 C 33.200 87.575,32.840 88.083,32.400 88.400 C 31.960 88.717,31.600 89.297,31.600 89.688 C 31.600 90.080,31.420 90.400,31.200 90.400 C 30.980 90.400,30.800 90.720,30.800 91.112 C 30.800 91.503,30.440 92.083,30.000 92.400 C 29.560 92.717,29.200 93.126,29.200 93.310 C 29.200 93.493,28.750 94.305,28.200 95.114 C 27.650 95.923,27.200 96.864,27.200 97.205 C 27.200 97.545,26.840 98.083,26.400 98.400 C 25.960 98.717,25.600 99.297,25.600 99.688 C 25.600 100.080,25.420 100.400,25.200 100.400 C 24.980 100.400,24.800 100.760,24.800 101.200 C 24.800 101.640,24.620 102.000,24.400 102.000 C 24.180 102.000,24.000 102.360,24.000 102.800 C 24.000 103.240,23.820 103.600,23.600 103.600 C 23.380 103.600,23.200 103.960,23.200 104.400 C 23.200 104.840,23.020 105.200,22.800 105.200 C 22.580 105.200,22.400 105.520,22.400 105.912 C 22.400 106.303,22.040 106.883,21.600 107.200 C 21.160 107.517,20.800 108.097,20.800 108.488 C 20.800 108.880,20.620 109.200,20.400 109.200 C 20.180 109.200,20.000 109.560,20.000 110.000 C 20.000 110.440,19.820 110.800,19.600 110.800 C 19.380 110.800,19.200 111.160,19.200 111.600 C 19.200 112.040,19.020 112.400,18.800 112.400 C 18.580 112.400,18.400 112.850,18.400 113.400 C 18.400 113.950,18.220 114.400,18.000 114.400 C 17.780 114.400,17.600 114.760,17.600 115.200 C 17.600 115.640,17.420 116.000,17.200 116.000 C 16.980 116.000,16.800 116.360,16.800 116.800 C 16.800 117.240,16.620 117.600,16.400 117.600 C 16.180 117.600,16.000 117.960,16.000 118.400 C 16.000 118.840,15.820 119.200,15.600 119.200 C 15.380 119.200,15.200 119.740,15.200 120.400 C 15.200 121.060,15.020 121.600,14.800 121.600 C 14.580 121.600,14.400 121.960,14.400 122.400 C 14.400 122.840,14.220 123.200,14.000 123.200 C 13.780 123.200,13.600 123.560,13.600 124.000 C 13.600 124.440,13.420 124.800,13.200 124.800 C 12.980 124.800,12.800 125.340,12.800 126.000 C 12.800 126.660,12.620 127.200,12.400 127.200 C 12.180 127.200,12.000 127.526,12.000 127.925 C 12.000 128.324,11.637 129.401,11.193 130.320 C 10.749 131.239,10.275 132.802,10.139 133.795 C 10.003 134.788,9.736 135.600,9.546 135.600 C 9.356 135.600,9.200 136.140,9.200 136.800 C 9.200 137.460,9.020 138.000,8.800 138.000 C 8.580 138.000,8.400 138.540,8.400 139.200 C 8.400 139.860,8.220 140.400,8.000 140.400 C 7.780 140.400,7.600 141.120,7.600 142.000 C 7.600 142.880,7.420 143.600,7.200 143.600 C 6.980 143.600,6.800 144.140,6.800 144.800 C 6.800 145.460,6.620 146.000,6.400 146.000 C 6.180 146.000,6.000 146.630,6.000 147.400 C 6.000 148.170,5.820 148.800,5.600 148.800 C 5.380 148.800,5.200 149.520,5.200 150.400 C 5.200 151.280,5.020 152.000,4.800 152.000 C 4.580 152.000,4.400 152.900,4.400 154.000 C 4.400 155.100,4.220 156.000,4.000 156.000 C 3.780 156.000,3.600 156.720,3.600 157.600 C 3.600 158.480,3.420 159.200,3.200 159.200 C 2.980 159.200,2.800 159.999,2.800 160.976 C 2.800 161.953,2.620 162.864,2.400 163.000 C 2.180 163.136,2.000 164.407,2.000 165.824 C 2.000 167.275,1.825 168.400,1.600 168.400 C 1.372 168.400,1.200 169.589,1.200 171.167 C 1.200 173.024,1.036 173.988,0.700 174.100 C 0.307 174.231,0.200 179.689,0.200 199.600 C 0.200 219.511,0.307 224.969,0.700 225.100 C 1.036 225.212,1.200 226.176,1.200 228.033 C 1.200 229.611,1.372 230.800,1.600 230.800 C 1.822 230.800,2.000 231.867,2.000 233.200 C 2.000 234.533,2.178 235.600,2.400 235.600 C 2.620 235.600,2.800 236.500,2.800 237.600 C 2.800 238.700,2.980 239.600,3.200 239.600 C 3.420 239.600,3.600 240.410,3.600 241.400 C 3.600 242.390,3.780 243.200,4.000 243.200 C 4.220 243.200,4.400 243.920,4.400 244.800 C 4.400 245.680,4.580 246.400,4.800 246.400 C 5.020 246.400,5.200 247.120,5.200 248.000 C 5.200 248.880,5.380 249.600,5.600 249.600 C 5.820 249.600,6.000 250.320,6.000 251.200 C 6.000 252.080,6.180 252.800,6.400 252.800 C 6.620 252.800,6.800 253.419,6.800 254.176 C 6.800 254.933,6.980 255.664,7.200 255.800 C 7.420 255.936,7.600 256.577,7.600 257.224 C 7.600 257.871,7.780 258.400,8.000 258.400 C 8.220 258.400,8.400 258.850,8.400 259.400 C 8.400 259.950,8.580 260.400,8.800 260.400 C 9.020 260.400,9.200 260.940,9.200 261.600 C 9.200 262.260,9.359 262.800,9.554 262.800 C 9.749 262.800,10.031 263.787,10.182 264.994 C 10.333 266.200,10.623 267.291,10.828 267.417 C 11.033 267.544,11.200 267.991,11.200 268.411 C 11.200 268.832,11.560 269.817,12.000 270.600 C 12.440 271.383,12.800 272.368,12.800 272.789 C 12.800 273.209,12.980 273.664,13.200 273.800 C 13.420 273.936,13.600 274.487,13.600 275.024 C 13.600 275.561,13.780 276.000,14.000 276.000 C 14.220 276.000,14.400 276.360,14.400 276.800 C 14.400 277.240,14.580 277.600,14.800 277.600 C 15.020 277.600,15.200 277.960,15.200 278.400 C 15.200 278.840,15.380 279.200,15.600 279.200 C 15.820 279.200,16.000 279.639,16.000 280.176 C 16.000 280.713,16.180 281.264,16.400 281.400 C 16.620 281.536,16.800 281.997,16.800 282.424 C 16.800 282.851,16.980 283.200,17.200 283.200 C 17.420 283.200,17.600 283.560,17.600 284.000 C 17.600 284.440,17.780 284.800,18.000 284.800 C 18.220 284.800,18.400 285.160,18.400 285.600 C 18.400 286.040,18.580 286.400,18.800 286.400 C 19.020 286.400,19.200 286.760,19.200 287.200 C 19.200 287.640,19.380 288.000,19.600 288.000 C 19.820 288.000,20.000 288.360,20.000 288.800 C 20.000 289.240,20.180 289.600,20.400 289.600 C 20.620 289.600,20.800 289.960,20.800 290.400 C 20.800 290.840,20.980 291.200,21.200 291.200 C 21.420 291.200,21.600 291.470,21.600 291.800 C 21.600 292.130,21.780 292.400,22.000 292.400 C 22.220 292.400,22.400 292.760,22.400 293.200 C 22.400 293.640,22.580 294.000,22.800 294.000 C 23.020 294.000,23.200 294.360,23.200 294.800 C 23.200 295.240,23.380 295.600,23.600 295.600 C 23.820 295.600,24.000 295.920,24.000 296.312 C 24.000 296.703,24.360 297.283,24.800 297.600 C 25.240 297.917,25.600 298.497,25.600 298.888 C 25.600 299.280,25.780 299.600,26.000 299.600 C 26.220 299.600,26.400 299.960,26.400 300.400 C 26.400 300.840,26.546 301.200,26.725 301.200 C 26.904 301.200,27.433 302.076,27.900 303.146 C 28.367 304.217,28.986 305.342,29.275 305.646 C 29.564 305.951,30.069 306.740,30.397 307.400 C 30.726 308.060,31.311 308.891,31.697 309.247 C 32.084 309.603,32.400 310.116,32.400 310.386 C 32.400 310.657,32.940 311.383,33.600 312.000 C 34.260 312.617,34.800 313.369,34.800 313.672 C 34.800 313.975,35.160 314.483,35.600 314.800 C 36.040 315.117,36.400 315.625,36.400 315.928 C 36.400 316.231,36.940 316.983,37.600 317.600 C 38.260 318.217,38.800 318.937,38.800 319.200 C 38.800 319.463,39.340 320.183,40.000 320.800 C 40.660 321.417,41.200 322.092,41.200 322.301 C 41.200 322.510,41.740 323.246,42.400 323.937 C 43.060 324.628,43.600 325.370,43.600 325.586 C 43.600 325.802,44.410 326.789,45.400 327.779 C 46.390 328.769,47.200 329.746,47.200 329.949 C 47.200 330.248,51.474 334.618,59.179 342.200 C 59.626 342.640,61.787 344.845,63.982 347.100 C 66.177 349.355,68.157 351.200,68.384 351.200 C 68.611 351.200,69.715 352.100,70.839 353.200 C 71.962 354.300,73.043 355.200,73.240 355.200 C 73.438 355.200,74.341 355.920,75.248 356.800 C 76.155 357.680,77.047 358.400,77.230 358.400 C 77.414 358.400,78.014 358.850,78.564 359.400 C 79.114 359.950,79.770 360.400,80.021 360.400 C 80.273 360.400,80.983 360.940,81.600 361.600 C 82.217 362.260,82.969 362.800,83.272 362.800 C 83.575 362.800,84.083 363.160,84.400 363.600 C 84.717 364.040,85.257 364.400,85.600 364.400 C 85.943 364.400,86.483 364.760,86.800 365.200 C 87.117 365.640,87.657 366.000,88.000 366.000 C 88.343 366.000,88.883 366.360,89.200 366.800 C 89.517 367.240,90.057 367.600,90.400 367.600 C 90.743 367.600,91.283 367.960,91.600 368.400 C 91.917 368.840,92.497 369.200,92.888 369.200 C 93.280 369.200,93.600 369.380,93.600 369.600 C 93.600 369.820,93.788 370.000,94.017 370.000 C 94.246 370.000,94.820 370.360,95.292 370.800 C 95.764 371.240,96.387 371.600,96.675 371.600 C 96.964 371.600,97.200 371.780,97.200 372.000 C 97.200 372.220,97.560 372.400,98.000 372.400 C 98.440 372.400,98.800 372.542,98.800 372.716 C 98.800 373.138,102.901 375.200,103.740 375.200 C 104.103 375.200,104.400 375.380,104.400 375.600 C 104.400 375.820,104.720 376.000,105.112 376.000 C 105.503 376.000,106.083 376.360,106.400 376.800 C 106.717 377.240,107.297 377.600,107.688 377.600 C 108.080 377.600,108.400 377.780,108.400 378.000 C 108.400 378.220,108.760 378.400,109.200 378.400 C 109.640 378.400,110.000 378.580,110.000 378.800 C 110.000 379.020,110.360 379.200,110.800 379.200 C 111.240 379.200,111.600 379.380,111.600 379.600 C 111.600 379.820,112.050 380.000,112.600 380.000 C 113.150 380.000,113.600 380.180,113.600 380.400 C 113.600 380.620,113.960 380.800,114.400 380.800 C 114.840 380.800,115.200 380.980,115.200 381.200 C 115.200 381.420,115.560 381.600,116.000 381.600 C 116.440 381.600,116.800 381.780,116.800 382.000 C 116.800 382.220,117.160 382.400,117.600 382.400 C 118.040 382.400,118.400 382.580,118.400 382.800 C 118.400 383.020,118.760 383.200,119.200 383.200 C 119.640 383.200,120.000 383.380,120.000 383.600 C 120.000 383.820,120.540 384.000,121.200 384.000 C 121.860 384.000,122.400 384.180,122.400 384.400 C 122.400 384.620,122.760 384.800,123.200 384.800 C 123.640 384.800,124.000 384.980,124.000 385.200 C 124.000 385.420,124.540 385.600,125.200 385.600 C 125.860 385.600,126.400 385.780,126.400 386.000 C 126.400 386.220,126.760 386.400,127.200 386.400 C 127.640 386.400,128.000 386.580,128.000 386.800 C 128.000 387.020,128.439 387.200,128.976 387.200 C 129.513 387.200,130.064 387.380,130.200 387.600 C 130.336 387.820,130.887 388.000,131.424 388.000 C 131.961 388.000,132.400 388.180,132.400 388.400 C 132.400 388.620,132.940 388.800,133.600 388.800 C 134.260 388.800,134.800 388.980,134.800 389.200 C 134.800 389.420,135.340 389.600,136.000 389.600 C 136.660 389.600,137.200 389.780,137.200 390.000 C 137.200 390.220,137.740 390.400,138.400 390.400 C 139.060 390.400,139.600 390.566,139.600 390.768 C 139.600 390.971,140.770 391.262,142.200 391.415 C 143.630 391.568,144.800 391.852,144.800 392.047 C 144.800 392.241,145.340 392.400,146.000 392.400 C 146.660 392.400,147.200 392.580,147.200 392.800 C 147.200 393.020,147.920 393.200,148.800 393.200 C 149.680 393.200,150.400 393.380,150.400 393.600 C 150.400 393.820,151.120 394.000,152.000 394.000 C 152.880 394.000,153.600 394.180,153.600 394.400 C 153.600 394.620,154.500 394.800,155.600 394.800 C 156.700 394.800,157.600 394.980,157.600 395.200 C 157.600 395.420,158.410 395.600,159.400 395.600 C 160.390 395.600,161.200 395.780,161.200 396.000 C 161.200 396.222,162.267 396.400,163.600 396.400 C 164.933 396.400,166.000 396.578,166.000 396.800 C 166.000 397.022,167.067 397.200,168.400 397.200 C 169.733 397.200,170.800 397.378,170.800 397.600 C 170.800 397.833,172.133 398.000,174.000 398.000 C 175.867 398.000,177.200 398.167,177.200 398.400 C 177.200 398.643,179.000 398.800,181.800 398.800 C 184.600 398.800,186.400 398.957,186.400 399.200 C 186.400 399.458,190.933 399.600,199.200 399.600 C 207.467 399.600,212.000 399.458,212.000 399.200 C 212.000 398.956,213.867 398.800,216.800 398.800 C 219.733 398.800,221.600 398.644,221.600 398.400 C 221.600 398.169,222.867 398.000,224.600 398.000 C 226.333 398.000,227.600 397.831,227.600 397.600 C 227.600 397.371,228.800 397.200,230.400 397.200 C 232.000 397.200,233.200 397.029,233.200 396.800 C 233.200 396.580,234.179 396.400,235.376 396.400 C 236.573 396.400,237.664 396.220,237.800 396.000 C 237.936 395.780,238.847 395.600,239.824 395.600 C 240.801 395.600,241.600 395.420,241.600 395.200 C 241.600 394.980,242.320 394.800,243.200 394.800 C 244.080 394.800,244.800 394.620,244.800 394.400 C 244.800 394.180,245.520 394.000,246.400 394.000 C 247.280 394.000,248.000 393.820,248.000 393.600 C 248.000 393.380,248.720 393.200,249.600 393.200 C 250.480 393.200,251.200 393.020,251.200 392.800 C 251.200 392.580,251.920 392.400,252.800 392.400 C 253.680 392.400,254.400 392.238,254.400 392.039 C 254.400 391.841,255.480 391.553,256.801 391.400 C 258.121 391.247,259.302 390.959,259.424 390.761 C 259.547 390.562,260.076 390.400,260.600 390.400 C 261.124 390.400,261.664 390.220,261.800 390.000 C 261.936 389.780,262.577 389.600,263.224 389.600 C 263.871 389.600,264.400 389.420,264.400 389.200 C 264.400 388.980,264.839 388.800,265.376 388.800 C 265.913 388.800,266.464 388.620,266.600 388.400 C 266.736 388.180,267.276 388.000,267.800 388.000 C 268.324 388.000,268.864 387.820,269.000 387.600 C 269.136 387.380,269.597 387.200,270.024 387.200 C 270.451 387.200,270.800 387.020,270.800 386.800 C 270.800 386.580,271.239 386.400,271.776 386.400 C 272.313 386.400,272.864 386.220,273.000 386.000 C 273.136 385.780,273.597 385.600,274.024 385.600 C 274.451 385.600,274.800 385.420,274.800 385.200 C 274.800 384.980,275.250 384.800,275.800 384.800 C 276.350 384.800,276.800 384.620,276.800 384.400 C 276.800 384.180,277.160 384.000,277.600 384.000 C 278.040 384.000,278.400 383.820,278.400 383.600 C 278.400 383.380,278.760 383.200,279.200 383.200 C 279.640 383.200,280.000 383.020,280.000 382.800 C 280.000 382.580,280.540 382.400,281.200 382.400 C 281.860 382.400,282.400 382.220,282.400 382.000 C 282.400 381.780,282.760 381.600,283.200 381.600 C 283.640 381.600,284.000 381.420,284.000 381.200 C 284.000 380.980,284.360 380.800,284.800 380.800 C 285.240 380.800,285.600 380.620,285.600 380.400 C 285.600 380.180,285.960 380.000,286.400 380.000 C 286.840 380.000,287.200 379.820,287.200 379.600 C 287.200 379.380,287.560 379.200,288.000 379.200 C 288.440 379.200,288.800 379.020,288.800 378.800 C 288.800 378.580,289.160 378.400,289.600 378.400 C 290.040 378.400,290.400 378.220,290.400 378.000 C 290.400 377.780,290.670 377.600,291.000 377.600 C 291.330 377.600,291.600 377.420,291.600 377.200 C 291.600 376.980,291.960 376.800,292.400 376.800 C 292.840 376.800,293.200 376.620,293.200 376.400 C 293.200 376.180,293.560 376.000,294.000 376.000 C 294.440 376.000,294.800 375.820,294.800 375.600 C 294.800 375.380,295.147 375.200,295.571 375.200 C 295.996 375.200,296.613 374.930,296.943 374.600 C 297.273 374.270,297.811 374.000,298.138 374.000 C 298.465 374.000,298.793 373.865,298.867 373.700 C 298.940 373.535,299.855 372.967,300.900 372.437 C 301.945 371.908,302.800 371.323,302.800 371.137 C 302.800 370.952,303.160 370.800,303.600 370.800 C 304.040 370.800,304.400 370.620,304.400 370.400 C 304.400 370.180,304.642 370.000,304.938 370.000 C 305.234 370.000,305.802 369.640,306.200 369.200 C 306.598 368.760,307.165 368.400,307.459 368.400 C 307.753 368.400,308.218 368.040,308.493 367.600 C 308.768 367.160,309.269 366.800,309.608 366.800 C 309.946 366.800,310.483 366.440,310.800 366.000 C 311.117 365.560,311.657 365.200,312.000 365.200 C 312.343 365.200,312.883 364.840,313.200 364.400 C 313.517 363.960,314.025 363.600,314.328 363.600 C 314.631 363.600,315.383 363.060,316.000 362.400 C 316.617 361.740,317.337 361.200,317.600 361.200 C 317.863 361.200,318.583 360.660,319.200 360.000 C 319.817 359.340,320.531 358.800,320.787 358.800 C 321.300 358.800,323.714 356.930,325.823 354.900 C 326.566 354.185,327.368 353.600,327.606 353.600 C 327.844 353.600,329.281 352.340,330.800 350.800 C 332.319 349.260,333.753 348.000,333.986 348.000 C 334.542 348.000,348.000 334.542,348.000 333.986 C 348.000 333.753,349.260 332.319,350.800 330.800 C 352.340 329.281,353.600 327.844,353.600 327.606 C 353.600 327.368,354.185 326.566,354.900 325.823 C 356.930 323.714,358.800 321.300,358.800 320.787 C 358.800 320.531,359.340 319.817,360.000 319.200 C 360.660 318.583,361.200 317.863,361.200 317.600 C 361.200 317.337,361.740 316.617,362.400 316.000 C 363.060 315.383,363.600 314.631,363.600 314.328 C 363.600 314.025,363.960 313.517,364.400 313.200 C 364.840 312.883,365.200 312.343,365.200 312.000 C 365.200 311.657,365.560 311.117,366.000 310.800 C 366.440 310.483,366.800 309.946,366.800 309.608 C 366.800 309.269,367.160 308.768,367.600 308.493 C 368.040 308.218,368.400 307.753,368.400 307.459 C 368.400 307.165,368.760 306.598,369.200 306.200 C 369.640 305.802,370.000 305.234,370.000 304.938 C 370.000 304.642,370.180 304.400,370.400 304.400 C 370.620 304.400,370.800 304.040,370.800 303.600 C 370.800 303.160,370.952 302.800,371.137 302.800 C 371.323 302.800,371.908 301.945,372.437 300.900 C 372.967 299.855,373.535 298.940,373.700 298.867 C 373.865 298.793,374.000 298.465,374.000 298.138 C 374.000 297.811,374.270 297.273,374.600 296.943 C 374.930 296.613,375.200 295.996,375.200 295.571 C 375.200 295.147,375.380 294.800,375.600 294.800 C 375.820 294.800,376.000 294.440,376.000 294.000 C 376.000 293.560,376.180 293.200,376.400 293.200 C 376.620 293.200,376.800 292.840,376.800 292.400 C 376.800 291.960,376.980 291.600,377.200 291.600 C 377.420 291.600,377.600 291.330,377.600 291.000 C 377.600 290.670,377.780 290.400,378.000 290.400 C 378.220 290.400,378.400 290.040,378.400 289.600 C 378.400 289.160,378.580 288.800,378.800 288.800 C 379.020 288.800,379.200 288.440,379.200 288.000 C 379.200 287.560,379.380 287.200,379.600 287.200 C 379.820 287.200,380.000 286.840,380.000 286.400 C 380.000 285.960,380.180 285.600,380.400 285.600 C 380.620 285.600,380.800 285.240,380.800 284.800 C 380.800 284.360,380.980 284.000,381.200 284.000 C 381.420 284.000,381.600 283.640,381.600 283.200 C 381.600 282.760,381.780 282.400,382.000 282.400 C 382.220 282.400,382.400 281.860,382.400 281.200 C 382.400 280.540,382.580 280.000,382.800 280.000 C 383.020 280.000,383.200 279.640,383.200 279.200 C 383.200 278.760,383.380 278.400,383.600 278.400 C 383.820 278.400,384.000 278.040,384.000 277.600 C 384.000 277.160,384.180 276.800,384.400 276.800 C 384.620 276.800,384.800 276.350,384.800 275.800 C 384.800 275.250,384.980 274.800,385.200 274.800 C 385.420 274.800,385.600 274.451,385.600 274.024 C 385.600 273.597,385.780 273.136,386.000 273.000 C 386.220 272.864,386.400 272.313,386.400 271.776 C 386.400 271.239,386.580 270.800,386.800 270.800 C 387.020 270.800,387.200 270.451,387.200 270.024 C 387.200 269.597,387.380 269.136,387.600 269.000 C 387.820 268.864,388.000 268.324,388.000 267.800 C 388.000 267.276,388.180 266.736,388.400 266.600 C 388.620 266.464,388.800 265.913,388.800 265.376 C 388.800 264.839,388.980 264.400,389.200 264.400 C 389.420 264.400,389.600 263.871,389.600 263.224 C 389.600 262.577,389.780 261.936,390.000 261.800 C 390.220 261.664,390.400 261.124,390.400 260.600 C 390.400 260.076,390.562 259.547,390.761 259.424 C 390.959 259.302,391.247 258.121,391.400 256.801 C 391.553 255.480,391.841 254.400,392.039 254.400 C 392.238 254.400,392.400 253.680,392.400 252.800 C 392.400 251.920,392.580 251.200,392.800 251.200 C 393.020 251.200,393.200 250.480,393.200 249.600 C 393.200 248.720,393.380 248.000,393.600 248.000 C 393.820 248.000,394.000 247.280,394.000 246.400 C 394.000 245.520,394.180 244.800,394.400 244.800 C 394.620 244.800,394.800 244.080,394.800 243.200 C 394.800 242.320,394.980 241.600,395.200 241.600 C 395.420 241.600,395.600 240.801,395.600 239.824 C 395.600 238.847,395.780 237.936,396.000 237.800 C 396.220 237.664,396.400 236.573,396.400 235.376 C 396.400 234.179,396.580 233.200,396.800 233.200 C 397.029 233.200,397.200 232.000,397.200 230.400 C 397.200 228.800,397.371 227.600,397.600 227.600 C 397.831 227.600,398.000 226.333,398.000 224.600 C 398.000 222.867,398.169 221.600,398.400 221.600 C 398.644 221.600,398.800 219.733,398.800 216.800 C 398.800 213.867,398.956 212.000,399.200 212.000 C 399.458 212.000,399.600 207.467,399.600 199.200 C 399.600 190.933,399.458 186.400,399.200 186.400 C 398.957 186.400,398.800 184.600,398.800 181.800 C 398.800 179.000,398.643 177.200,398.400 177.200 C 398.167 177.200,398.000 175.867,398.000 174.000 C 398.000 172.133,397.833 170.800,397.600 170.800 C 397.378 170.800,397.200 169.733,397.200 168.400 C 397.200 167.067,397.022 166.000,396.800 166.000 C 396.578 166.000,396.400 164.933,396.400 163.600 C 396.400 162.267,396.222 161.200,396.000 161.200 C 395.780 161.200,395.600 160.390,395.600 159.400 C 395.600 158.410,395.420 157.600,395.200 157.600 C 394.980 157.600,394.800 156.700,394.800 155.600 C 394.800 154.500,394.620 153.600,394.400 153.600 C 394.180 153.600,394.000 152.880,394.000 152.000 C 394.000 151.120,393.820 150.400,393.600 150.400 C 393.380 150.400,393.200 149.680,393.200 148.800 C 393.200 147.920,393.020 147.200,392.800 147.200 C 392.580 147.200,392.400 146.660,392.400 146.000 C 392.400 145.340,392.241 144.800,392.047 144.800 C 391.852 144.800,391.568 143.630,391.415 142.200 C 391.262 140.770,390.971 139.600,390.768 139.600 C 390.566 139.600,390.400 139.060,390.400 138.400 C 390.400 137.740,390.220 137.200,390.000 137.200 C 389.780 137.200,389.600 136.660,389.600 136.000 C 389.600 135.340,389.420 134.800,389.200 134.800 C 388.980 134.800,388.800 134.260,388.800 133.600 C 388.800 132.940,388.620 132.400,388.400 132.400 C 388.180 132.400,388.000 131.961,388.000 131.424 C 388.000 130.887,387.820 130.336,387.600 130.200 C 387.380 130.064,387.200 129.513,387.200 128.976 C 387.200 128.439,387.020 128.000,386.800 128.000 C 386.580 128.000,386.400 127.640,386.400 127.200 C 386.400 126.760,386.220 126.400,386.000 126.400 C 385.780 126.400,385.600 125.860,385.600 125.200 C 385.600 124.540,385.420 124.000,385.200 124.000 C 384.980 124.000,384.800 123.640,384.800 123.200 C 384.800 122.760,384.620 122.400,384.400 122.400 C 384.180 122.400,384.000 121.860,384.000 121.200 C 384.000 120.540,383.820 120.000,383.600 120.000 C 383.380 120.000,383.200 119.640,383.200 119.200 C 383.200 118.760,383.020 118.400,382.800 118.400 C 382.580 118.400,382.400 118.040,382.400 117.600 C 382.400 117.160,382.220 116.800,382.000 116.800 C 381.780 116.800,381.600 116.440,381.600 116.000 C 381.600 115.560,381.420 115.200,381.200 115.200 C 380.980 115.200,380.800 114.840,380.800 114.400 C 380.800 113.960,380.620 113.600,380.400 113.600 C 380.180 113.600,380.000 113.150,380.000 112.600 C 380.000 112.050,379.820 111.600,379.600 111.600 C 379.380 111.600,379.200 111.240,379.200 110.800 C 379.200 110.360,379.020 110.000,378.800 110.000 C 378.580 110.000,378.400 109.640,378.400 109.200 C 378.400 108.760,378.220 108.400,378.000 108.400 C 377.780 108.400,377.600 108.080,377.600 107.688 C 377.600 107.297,377.240 106.717,376.800 106.400 C 376.360 106.083,376.000 105.503,376.000 105.112 C 376.000 104.720,375.820 104.400,375.600 104.400 C 375.380 104.400,375.200 104.103,375.200 103.740 C 375.200 102.901,373.138 98.800,372.716 98.800 C 372.542 98.800,372.400 98.440,372.400 98.000 C 372.400 97.560,372.220 97.200,372.000 97.200 C 371.780 97.200,371.600 96.964,371.600 96.675 C 371.600 96.387,371.240 95.764,370.800 95.292 C 370.360 94.820,370.000 94.246,370.000 94.017 C 370.000 93.788,369.820 93.600,369.600 93.600 C 369.380 93.600,369.200 93.280,369.200 92.888 C 369.200 92.497,368.840 91.917,368.400 91.600 C 367.960 91.283,367.600 90.743,367.600 90.400 C 367.600 90.057,367.240 89.517,366.800 89.200 C 366.360 88.883,366.000 88.343,366.000 88.000 C 366.000 87.657,365.640 87.117,365.200 86.800 C 364.760 86.483,364.400 85.943,364.400 85.600 C 364.400 85.257,364.040 84.717,363.600 84.400 C 363.160 84.083,362.800 83.575,362.800 83.272 C 362.800 82.969,362.260 82.217,361.600 81.600 C 360.940 80.983,360.400 80.273,360.400 80.021 C 360.400 79.770,359.950 79.114,359.400 78.564 C 358.850 78.014,358.400 77.414,358.400 77.230 C 358.400 77.047,357.680 76.155,356.800 75.248 C 355.920 74.341,355.200 73.438,355.200 73.240 C 355.200 73.043,354.300 71.962,353.200 70.839 C 352.100 69.715,351.200 68.611,351.200 68.384 C 351.200 68.157,349.355 66.177,347.100 63.982 C 344.845 61.787,342.640 59.626,342.200 59.179 C 334.618 51.474,330.248 47.200,329.949 47.200 C 329.746 47.200,328.769 46.390,327.779 45.400 C 326.789 44.410,325.802 43.600,325.586 43.600 C 325.370 43.600,324.628 43.060,323.937 42.400 C 323.246 41.740,322.510 41.200,322.301 41.200 C 322.092 41.200,321.417 40.660,320.800 40.000 C 320.183 39.340,319.463 38.800,319.200 38.800 C 318.937 38.800,318.217 38.260,317.600 37.600 C 316.983 36.940,316.231 36.400,315.928 36.400 C 315.625 36.400,315.117 36.040,314.800 35.600 C 314.483 35.160,313.975 34.800,313.672 34.800 C 313.369 34.800,312.617 34.260,312.000 33.600 C 311.383 32.940,310.657 32.400,310.386 32.400 C 310.116 32.400,309.603 32.084,309.247 31.697 C 308.891 31.311,308.060 30.726,307.400 30.397 C 306.740 30.069,305.951 29.564,305.646 29.275 C 305.342 28.986,304.217 28.367,303.146 27.900 C 302.076 27.433,301.200 26.904,301.200 26.725 C 301.200 26.546,300.840 26.400,300.400 26.400 C 299.960 26.400,299.600 26.220,299.600 26.000 C 299.600 25.780,299.280 25.600,298.888 25.600 C 298.497 25.600,297.917 25.240,297.600 24.800 C 297.283 24.360,296.703 24.000,296.312 24.000 C 295.920 24.000,295.600 23.820,295.600 23.600 C 295.600 23.380,295.240 23.200,294.800 23.200 C 294.360 23.200,294.000 23.020,294.000 22.800 C 294.000 22.580,293.640 22.400,293.200 22.400 C 292.760 22.400,292.400 22.220,292.400 22.000 C 292.400 21.780,292.130 21.600,291.800 21.600 C 291.470 21.600,291.200 21.420,291.200 21.200 C 291.200 20.980,290.840 20.800,290.400 20.800 C 289.960 20.800,289.600 20.620,289.600 20.400 C 289.600 20.180,289.240 20.000,288.800 20.000 C 288.360 20.000,288.000 19.820,288.000 19.600 C 288.000 19.380,287.640 19.200,287.200 19.200 C 286.760 19.200,286.400 19.020,286.400 18.800 C 286.400 18.580,286.040 18.400,285.600 18.400 C 285.160 18.400,284.800 18.220,284.800 18.000 C 284.800 17.780,284.440 17.600,284.000 17.600 C 283.560 17.600,283.200 17.420,283.200 17.200 C 283.200 16.980,282.851 16.800,282.424 16.800 C 281.997 16.800,281.536 16.620,281.400 16.400 C 281.264 16.180,280.713 16.000,280.176 16.000 C 279.639 16.000,279.200 15.820,279.200 15.600 C 279.200 15.380,278.840 15.200,278.400 15.200 C 277.960 15.200,277.600 15.020,277.600 14.800 C 277.600 14.580,277.240 14.400,276.800 14.400 C 276.360 14.400,276.000 14.220,276.000 14.000 C 276.000 13.780,275.561 13.600,275.024 13.600 C 274.487 13.600,273.936 13.420,273.800 13.200 C 273.664 12.980,273.209 12.800,272.789 12.800 C 272.368 12.800,271.383 12.440,270.600 12.000 C 269.817 11.560,268.832 11.200,268.411 11.200 C 267.991 11.200,267.544 11.033,267.417 10.828 C 267.291 10.623,266.200 10.333,264.994 10.182 C 263.787 10.031,262.800 9.749,262.800 9.554 C 262.800 9.359,262.260 9.200,261.600 9.200 C 260.940 9.200,260.400 9.020,260.400 8.800 C 260.400 8.580,259.950 8.400,259.400 8.400 C 258.850 8.400,258.400 8.220,258.400 8.000 C 258.400 7.780,257.871 7.600,257.224 7.600 C 256.577 7.600,255.936 7.420,255.800 7.200 C 255.664 6.980,254.933 6.800,254.176 6.800 C 253.419 6.800,252.800 6.620,252.800 6.400 C 252.800 6.180,252.080 6.000,251.200 6.000 C 250.320 6.000,249.600 5.820,249.600 5.600 C 249.600 5.380,248.880 5.200,248.000 5.200 C 247.120 5.200,246.400 5.020,246.400 4.800 C 246.400 4.580,245.680 4.400,244.800 4.400 C 243.920 4.400,243.200 4.220,243.200 4.000 C 243.200 3.780,242.390 3.600,241.400 3.600 C 240.410 3.600,239.600 3.420,239.600 3.200 C 239.600 2.980,238.700 2.800,237.600 2.800 C 236.500 2.800,235.600 2.620,235.600 2.400 C 235.600 2.178,234.533 2.000,233.200 2.000 C 231.867 2.000,230.800 1.822,230.800 1.600 C 230.800 1.372,229.611 1.200,228.033 1.200 C 226.227 1.200,225.211 1.032,225.106 0.717 C 224.946 0.239,186.269 -0.121,177.500 0.274 M201.000 13.600 C 201.136 13.820,201.616 14.000,202.068 14.000 C 206.234 14.000,213.456 21.484,214.983 27.384 C 219.869 46.264,195.488 59.908,182.591 45.511 C 179.596 42.167,178.893 40.978,177.662 37.172 C 174.861 28.511,182.956 14.000,190.588 14.000 C 190.899 14.000,191.264 13.820,191.400 13.600 C 191.541 13.371,193.596 13.200,196.200 13.200 C 198.804 13.200,200.859 13.371,201.000 13.600 M293.093 35.156 C 308.246 41.202,309.143 63.117,294.527 70.202 C 293.247 70.822,291.887 71.480,291.505 71.665 C 289.824 72.476,281.330 72.048,279.043 71.036 C 262.016 63.506,263.156 39.823,280.800 34.544 C 283.482 33.741,290.412 34.087,293.093 35.156 M117.206 39.266 C 119.849 40.555,124.000 43.972,124.000 44.859 C 124.000 45.015,124.226 45.381,124.502 45.671 C 124.992 46.186,126.241 48.663,127.149 50.919 C 128.158 53.423,127.620 61.655,126.281 64.200 C 126.050 64.640,125.487 65.697,125.030 66.550 C 124.109 68.269,119.411 72.800,118.549 72.800 C 118.247 72.800,118.000 72.959,118.000 73.153 C 118.000 73.348,117.685 73.611,117.300 73.739 C 116.915 73.867,115.880 74.245,115.000 74.580 C 111.806 75.794,104.045 75.436,100.875 73.927 C 91.033 69.243,86.931 57.889,91.509 48.000 C 92.282 46.331,95.350 42.447,96.549 41.620 C 97.017 41.297,97.640 40.798,97.934 40.511 C 101.273 37.248,111.689 36.575,117.206 39.266 M351.172 94.057 C 365.986 98.797,370.449 115.721,359.674 126.294 C 349.836 135.946,332.199 131.941,328.438 119.200 C 328.146 118.210,327.748 116.878,327.553 116.240 C 325.009 107.890,331.474 97.555,341.400 94.102 C 343.049 93.529,349.428 93.499,351.172 94.057 M59.200 96.507 C 75.144 102.484,76.235 124.267,60.978 132.011 L 58.242 133.400 52.621 133.400 C 32.140 133.400,25.915 106.328,44.325 97.321 C 47.924 95.560,55.559 95.143,59.200 96.507 M168.735 101.722 C 169.042 102.091,169.212 123.157,169.317 173.622 C 169.426 225.924,169.590 245.588,169.931 247.200 C 170.188 248.410,170.602 250.390,170.852 251.600 C 173.749 265.624,182.394 277.307,194.057 282.958 C 204.803 288.165,222.328 287.653,235.069 281.758 C 246.259 276.582,256.360 261.453,258.809 246.200 C 259.056 244.660,259.425 242.425,259.629 241.233 C 260.637 235.344,259.709 226.374,257.288 218.600 C 252.782 204.136,240.712 193.617,224.000 189.589 C 221.344 188.949,207.957 188.908,205.944 189.534 C 205.205 189.764,203.520 190.164,202.200 190.424 C 199.760 190.904,199.180 191.110,195.088 192.957 C 193.817 193.531,192.683 194.000,192.570 194.000 C 192.385 194.000,190.104 195.061,182.200 198.822 C 177.788 200.922,178.200 202.152,178.200 186.888 L 178.200 173.575 186.200 170.380 C 198.311 165.542,196.593 166.004,210.565 163.820 C 219.843 162.369,234.562 164.190,242.600 167.783 C 243.260 168.078,245.150 168.887,246.800 169.581 C 256.666 173.733,268.665 182.775,274.254 190.270 C 274.882 191.111,275.501 191.890,275.630 192.000 C 277.046 193.208,282.080 202.144,283.869 206.625 C 289.662 221.137,289.789 242.585,284.184 259.800 C 281.144 269.135,274.379 281.706,269.243 287.561 C 268.779 288.090,268.396 288.630,268.390 288.761 C 268.373 289.195,262.243 295.508,259.815 297.592 C 256.175 300.717,246.978 306.400,245.562 306.400 C 245.358 306.400,244.428 306.745,243.496 307.167 C 239.651 308.905,233.575 310.589,227.200 311.685 C 223.078 312.393,202.815 312.389,199.000 311.679 C 193.123 310.586,187.338 309.043,183.800 307.627 C 183.360 307.451,182.550 307.125,182.000 306.902 C 173.236 303.357,164.096 296.608,159.382 290.200 C 158.734 289.320,158.104 288.510,157.982 288.400 C 156.167 286.772,148.882 273.569,146.836 268.200 C 146.334 266.880,145.771 265.440,145.587 265.000 C 143.991 261.186,142.109 253.488,140.942 246.000 C 140.629 243.991,140.275 102.503,140.581 101.705 C 140.869 100.955,168.112 100.971,168.735 101.722 M38.574 180.017 C 41.643 181.497,44.511 184.108,46.521 187.250 C 56.759 203.254,38.951 222.840,21.719 214.528 C 18.468 212.960,12.400 206.641,12.400 204.823 C 12.400 204.584,12.242 204.077,12.049 203.695 C 10.776 201.174,10.333 195.200,11.250 192.919 C 11.497 192.303,11.834 191.440,11.999 191.000 C 15.988 180.345,28.517 175.167,38.574 180.017 M376.886 181.321 C 381.731 183.185,385.914 187.391,387.903 192.400 C 388.122 192.950,388.503 193.903,388.750 194.519 C 389.307 195.905,389.348 203.062,388.800 203.400 C 388.580 203.536,388.400 204.012,388.400 204.458 C 388.400 207.064,384.251 212.808,380.561 215.312 C 376.282 218.216,367.634 219.064,362.759 217.059 C 346.415 210.336,347.080 187.300,363.800 180.951 C 366.066 180.091,374.293 180.323,376.886 181.321 M53.523 260.433 C 59.517 261.817,63.814 265.283,66.647 271.017 L 68.200 274.161 68.200 279.181 C 68.199 287.222,64.325 293.254,56.981 296.647 C 53.792 298.120,46.364 298.623,43.719 297.544 C 40.743 296.330,39.892 295.871,38.116 294.521 C 21.469 281.868,33.270 255.757,53.523 260.433 M354.154 264.482 C 371.009 269.416,372.818 292.421,356.967 300.255 L 353.841 301.800 348.800 301.800 C 326.665 301.800,322.275 271.446,343.400 264.460 C 345.107 263.895,352.200 263.910,354.154 264.482 M114.372 325.257 C 118.767 326.664,121.982 328.820,124.281 331.904 C 124.894 332.727,125.489 333.490,125.603 333.600 C 125.717 333.710,126.198 334.610,126.672 335.600 C 130.201 342.981,128.813 351.045,122.993 356.960 C 114.277 365.819,100.579 364.812,93.613 354.800 C 93.077 354.030,92.529 353.310,92.394 353.200 C 90.245 351.439,89.418 340.902,91.129 337.081 C 93.732 331.266,97.965 327.332,103.800 325.302 C 105.449 324.729,112.625 324.698,114.372 325.257 M289.681 328.358 C 290.187 328.555,291.320 328.930,292.200 329.191 C 304.841 332.936,308.614 350.739,298.863 360.634 C 281.112 378.649,254.349 352.176,271.761 333.825 C 274.148 331.310,278.170 328.808,279.849 328.794 C 280.262 328.791,280.870 328.613,281.200 328.400 C 281.957 327.911,288.452 327.879,289.681 328.358 M205.479 349.931 C 220.702 355.675,221.411 377.824,206.600 384.971 C 205.280 385.608,203.887 386.280,203.505 386.465 C 201.968 387.207,194.228 386.849,191.953 385.931 C 178.393 380.457,174.727 365.004,184.508 354.548 C 189.471 349.243,198.428 347.271,205.479 349.931 " stroke="none" fill="#fbfbfb" fill-rule="evenodd"></path><path id="path3" d="M140.503 172.500 C 140.624 237.934,140.689 243.724,141.338 247.600 C 142.210 252.805,144.157 260.870,145.167 263.458 C 145.583 264.526,146.328 266.480,146.822 267.800 C 150.139 276.669,157.622 288.667,163.797 295.015 C 182.910 314.667,226.337 318.376,252.600 302.599 C 267.040 293.924,281.013 273.609,285.387 254.929 C 285.739 253.428,286.183 251.570,286.374 250.800 C 286.777 249.173,287.466 244.295,287.898 240.000 C 288.289 236.113,287.842 222.891,287.215 219.798 C 285.935 213.490,284.505 208.121,283.918 207.420 C 283.743 207.211,283.597 206.761,283.594 206.420 C 283.586 205.539,280.461 199.451,278.334 196.173 C 270.854 184.643,258.010 174.080,245.487 169.158 C 244.339 168.707,242.860 168.098,242.200 167.805 C 235.746 164.940,218.324 162.415,213.092 163.586 C 212.161 163.794,209.870 164.172,208.000 164.424 C 206.130 164.677,203.880 165.033,203.000 165.215 C 202.120 165.397,200.245 165.769,198.833 166.042 C 196.691 166.456,180.115 172.728,178.500 173.735 C 178.117 173.974,178.000 177.076,178.000 187.024 C 178.000 201.990,177.609 200.919,182.246 198.657 C 183.761 197.918,186.672 196.526,188.717 195.562 C 190.761 194.599,192.249 193.750,192.024 193.675 C 191.655 193.552,188.702 194.884,182.400 198.016 C 181.190 198.617,179.792 199.233,179.294 199.383 L 178.389 199.658 178.494 186.972 C 178.584 176.167,178.689 174.243,179.200 173.990 C 179.812 173.687,181.283 173.076,182.900 172.454 C 183.395 172.263,184.250 171.916,184.800 171.682 C 189.926 169.504,197.473 166.820,199.500 166.453 C 200.875 166.204,203.125 165.807,204.500 165.572 C 205.875 165.336,207.360 165.053,207.800 164.942 C 211.664 163.970,214.546 163.858,222.600 164.366 C 229.783 164.819,233.514 165.503,239.800 167.518 C 242.670 168.439,252.207 172.607,252.800 173.200 C 252.910 173.310,253.405 173.625,253.900 173.900 C 256.135 175.141,256.608 175.443,257.355 176.100 C 257.793 176.485,258.387 176.800,258.675 176.800 C 258.964 176.800,259.200 176.941,259.200 177.114 C 259.200 177.286,259.695 177.721,260.300 178.080 C 261.297 178.671,262.012 179.242,265.200 181.995 C 267.489 183.971,272.184 188.698,273.151 190.000 C 273.723 190.770,274.508 191.691,274.896 192.047 C 275.283 192.403,275.600 192.853,275.601 193.047 C 275.601 193.241,276.141 194.030,276.800 194.800 C 277.459 195.570,277.999 196.410,277.999 196.667 C 278.000 196.923,278.135 197.193,278.300 197.267 C 281.672 198.765,286.902 217.081,287.418 229.200 C 287.653 234.706,287.229 242.213,286.401 247.200 C 285.666 251.632,285.554 252.234,285.136 254.000 C 283.758 259.820,277.584 274.996,276.022 276.400 C 275.900 276.510,275.575 277.005,275.300 277.500 C 274.059 279.735,273.757 280.208,273.100 280.955 C 272.715 281.393,272.400 281.895,272.400 282.071 C 272.400 282.247,272.143 282.708,271.829 283.095 C 271.515 283.483,270.307 285.060,269.144 286.600 C 262.079 295.959,253.717 302.472,243.600 306.496 C 243.050 306.714,242.287 307.052,241.905 307.247 C 241.523 307.441,240.859 307.600,240.429 307.600 C 239.999 307.600,239.536 307.780,239.400 308.000 C 239.264 308.220,238.724 308.400,238.200 308.400 C 237.676 308.400,237.148 308.560,237.027 308.756 C 236.906 308.951,236.221 309.212,235.504 309.334 C 234.787 309.456,233.300 309.748,232.200 309.983 C 226.704 311.156,223.988 311.353,213.200 311.364 C 205.838 311.371,200.737 311.196,198.800 310.870 C 197.150 310.593,195.080 310.266,194.200 310.142 C 193.320 310.019,192.429 309.756,192.220 309.559 C 192.011 309.362,191.347 309.200,190.744 309.200 C 190.141 309.200,189.536 309.020,189.400 308.800 C 189.264 308.580,188.724 308.400,188.200 308.400 C 187.676 308.400,187.136 308.220,187.000 308.000 C 186.864 307.780,186.401 307.600,185.971 307.600 C 185.541 307.600,184.877 307.441,184.495 307.247 C 184.113 307.052,183.350 306.705,182.800 306.474 C 172.460 302.139,164.909 296.546,159.478 289.200 C 158.420 287.770,157.295 286.283,156.978 285.895 C 156.660 285.508,156.400 285.109,156.400 285.008 C 156.400 284.907,155.595 283.580,154.611 282.059 C 153.626 280.537,151.717 276.977,150.367 274.146 C 148.028 269.242,147.605 268.303,146.700 266.000 C 146.484 265.450,146.148 264.687,145.953 264.305 C 145.759 263.923,145.600 263.259,145.600 262.829 C 145.600 262.399,145.441 261.949,145.246 261.829 C 145.051 261.708,144.796 261.113,144.679 260.505 C 144.562 259.897,144.256 258.680,144.000 257.800 C 143.743 256.920,143.363 255.300,143.154 254.200 C 142.945 253.100,142.594 251.300,142.375 250.200 C 141.188 244.264,141.107 239.775,140.945 171.700 L 140.781 102.000 154.590 102.000 L 168.400 102.000 168.401 170.100 C 168.403 244.855,168.424 245.581,170.829 254.600 C 171.064 255.480,171.355 256.608,171.476 257.106 C 171.597 257.604,171.854 258.110,172.048 258.230 C 172.241 258.349,172.400 258.780,172.400 259.186 C 172.400 259.592,172.746 260.616,173.170 261.462 C 173.593 262.308,174.177 263.585,174.467 264.300 C 174.758 265.015,175.131 265.600,175.298 265.600 C 175.464 265.600,175.600 265.788,175.600 266.018 C 175.600 267.612,185.378 279.200,186.723 279.200 C 186.949 279.200,187.193 279.345,187.267 279.523 C 187.610 280.356,193.042 283.437,196.600 284.818 C 207.035 288.867,226.226 287.626,235.557 282.299 C 236.351 281.845,237.360 281.277,237.800 281.036 C 245.104 277.035,253.907 265.470,257.160 255.600 C 258.693 250.952,258.800 250.556,258.800 249.552 C 258.800 249.006,258.964 248.389,259.165 248.180 C 259.365 247.971,259.619 246.810,259.727 245.600 C 259.836 244.390,260.124 241.768,260.367 239.774 C 260.960 234.912,260.321 227.207,258.843 221.400 C 258.619 220.520,258.316 219.302,258.170 218.694 C 258.024 218.086,257.746 217.490,257.552 217.370 C 257.359 217.251,257.200 216.808,257.200 216.386 C 257.200 213.147,245.995 198.000,243.599 198.000 C 243.411 198.000,243.019 197.766,242.729 197.481 C 241.858 196.626,238.486 194.400,238.061 194.400 C 237.844 194.400,237.607 194.265,237.533 194.100 C 237.317 193.613,232.352 191.200,231.567 191.200 C 231.171 191.200,230.736 191.020,230.600 190.800 C 230.464 190.580,229.924 190.400,229.400 190.400 C 228.876 190.400,228.348 190.240,228.227 190.044 C 228.106 189.849,227.421 189.588,226.704 189.466 C 225.987 189.344,224.500 189.031,223.400 188.771 C 216.029 187.027,202.495 188.574,195.662 191.943 C 194.706 192.414,193.671 192.800,193.362 192.800 C 193.053 192.800,192.800 192.980,192.800 193.200 C 192.800 193.749,192.743 193.764,196.265 192.269 C 199.058 191.084,200.396 190.660,204.000 189.815 C 226.720 184.490,250.504 197.150,257.325 218.200 C 265.958 244.844,253.607 275.208,230.697 283.663 C 205.190 293.078,180.563 282.135,172.491 257.800 C 168.714 246.411,168.802 248.505,168.801 169.500 L 168.800 101.600 154.585 101.600 L 140.371 101.600 140.503 172.500 " stroke="none" fill="#f4769d" fill-rule="evenodd"></path><path id="path4" d="M191.400 13.600 C 191.264 13.820,190.899 14.000,190.588 14.000 C 182.956 14.000,174.861 28.511,177.662 37.172 C 178.893 40.978,179.596 42.167,182.591 45.511 C 193.792 58.016,215.527 49.370,215.590 32.384 C 215.620 24.333,208.020 14.000,202.068 14.000 C 201.616 14.000,201.136 13.820,201.000 13.600 C 200.859 13.371,198.804 13.200,196.200 13.200 C 193.596 13.200,191.541 13.371,191.400 13.600 M201.138 14.245 C 215.092 18.223,219.763 34.845,209.800 45.061 C 199.254 55.875,181.184 50.763,178.052 36.080 C 175.184 22.632,188.010 10.502,201.138 14.245 M280.800 34.544 C 263.156 39.823,262.016 63.506,279.043 71.036 C 281.330 72.048,289.824 72.476,291.505 71.665 C 291.887 71.480,293.247 70.822,294.527 70.202 C 309.143 63.117,308.246 41.202,293.093 35.156 C 290.412 34.087,283.482 33.741,280.800 34.544 M292.191 35.388 C 306.672 40.521,308.873 60.412,295.891 68.833 C 285.051 75.865,270.343 69.434,267.642 56.480 C 264.802 42.860,278.958 30.696,292.191 35.388 M103.400 37.958 C 101.769 38.385,98.589 39.871,97.934 40.511 C 97.640 40.798,97.017 41.297,96.549 41.620 C 85.679 49.117,88.193 67.892,100.875 73.927 C 104.045 75.436,111.806 75.794,115.000 74.580 C 115.880 74.245,116.915 73.867,117.300 73.739 C 117.685 73.611,118.000 73.348,118.000 73.153 C 118.000 72.959,118.247 72.800,118.549 72.800 C 119.411 72.800,124.109 68.269,125.030 66.550 C 125.487 65.697,126.050 64.640,126.281 64.200 C 127.620 61.655,128.158 53.423,127.149 50.919 C 126.241 48.663,124.992 46.186,124.502 45.671 C 124.226 45.381,124.000 45.015,124.000 44.859 C 124.000 43.972,119.849 40.555,117.206 39.266 C 114.064 37.734,106.857 37.051,103.400 37.958 M116.890 39.750 C 131.121 46.578,130.623 66.772,116.058 73.504 C 111.954 75.400,104.918 75.356,101.012 73.410 C 84.677 65.270,87.261 42.473,105.000 38.229 C 107.759 37.569,114.011 38.369,116.890 39.750 M341.400 94.102 C 331.474 97.555,325.009 107.890,327.553 116.240 C 327.748 116.878,328.146 118.210,328.438 119.200 C 332.199 131.941,349.836 135.946,359.674 126.294 C 370.449 115.721,365.986 98.797,351.172 94.057 C 349.428 93.499,343.049 93.529,341.400 94.102 M350.748 94.581 C 365.384 98.477,369.900 116.422,358.787 126.535 C 347.787 136.546,330.499 130.210,328.004 115.254 C 325.910 102.705,338.449 91.308,350.748 94.581 M48.173 95.940 C 36.214 98.105,29.711 113.563,36.142 124.538 C 39.745 130.685,44.793 133.400,52.621 133.400 L 58.242 133.400 60.978 132.011 C 76.235 124.267,75.144 102.484,59.200 96.507 C 57.539 95.885,50.484 95.521,48.173 95.940 M57.386 96.613 C 71.156 100.200,75.953 117.730,65.910 127.761 C 55.225 138.432,36.780 132.724,34.360 117.999 C 32.120 104.367,44.174 93.172,57.386 96.613 M147.474 101.499 C 151.255 101.565,157.555 101.565,161.474 101.499 C 165.393 101.434,162.300 101.380,154.600 101.380 C 146.900 101.380,143.693 101.434,147.474 101.499 M168.995 170.600 C 168.995 208.440,169.043 223.861,169.100 204.868 C 169.157 185.876,169.157 154.916,169.100 136.068 C 169.042 117.221,168.995 132.760,168.995 170.600 M218.711 163.493 C 219.651 163.578,221.091 163.577,221.911 163.491 C 222.730 163.405,221.960 163.336,220.200 163.337 C 218.440 163.339,217.770 163.409,218.711 163.493 M25.200 178.740 C 19.715 179.925,14.243 185.008,11.999 191.000 C 11.834 191.440,11.497 192.303,11.250 192.919 C 10.333 195.200,10.776 201.174,12.049 203.695 C 12.242 204.077,12.400 204.584,12.400 204.823 C 12.400 206.641,18.468 212.960,21.719 214.528 C 38.951 222.840,56.759 203.254,46.521 187.250 C 42.064 180.283,33.633 176.917,25.200 178.740 M34.180 179.194 C 50.760 181.909,54.057 206.643,38.798 213.849 C 35.361 215.473,34.737 215.600,30.200 215.600 C 27.691 215.600,25.134 215.397,24.519 215.149 C 10.346 209.442,6.929 194.010,17.544 183.643 C 21.716 179.569,27.317 178.071,34.180 179.194 M363.800 180.951 C 347.080 187.300,346.415 210.336,362.759 217.059 C 367.634 219.064,376.282 218.216,380.561 215.312 C 384.251 212.808,388.400 207.064,388.400 204.458 C 388.400 204.012,388.580 203.536,388.800 203.400 C 389.348 203.062,389.307 195.905,388.750 194.519 C 388.503 193.903,388.122 192.950,387.903 192.400 C 385.914 187.391,381.731 183.185,376.886 181.321 C 374.293 180.323,366.066 180.091,363.800 180.951 M375.608 181.440 C 388.845 185.370,393.028 202.648,383.115 212.444 C 374.454 221.002,358.464 218.602,353.508 208.000 C 346.332 192.650,359.613 176.689,375.608 181.440 M214.700 188.682 C 215.195 188.778,216.005 188.778,216.500 188.682 C 216.995 188.587,216.590 188.509,215.600 188.509 C 214.610 188.509,214.205 188.587,214.700 188.682 M211.105 189.083 C 211.602 189.179,212.322 189.175,212.705 189.075 C 213.087 188.975,212.680 188.896,211.800 188.901 C 210.920 188.905,210.607 188.987,211.105 189.083 M218.505 189.087 C 219.114 189.179,220.014 189.177,220.505 189.082 C 220.997 188.987,220.500 188.911,219.400 188.914 C 218.300 188.917,217.897 188.995,218.505 189.087 M288.151 232.400 C 288.151 234.930,288.216 235.965,288.296 234.700 C 288.375 233.435,288.375 231.365,288.296 230.100 C 288.216 228.835,288.151 229.870,288.151 232.400 M260.124 235.800 C 260.126 237.120,260.201 237.612,260.290 236.893 C 260.379 236.174,260.377 235.094,260.286 234.493 C 260.195 233.892,260.122 234.480,260.124 235.800 M140.520 240.400 C 140.520 241.610,140.595 242.105,140.687 241.500 C 140.778 240.895,140.778 239.905,140.687 239.300 C 140.595 238.695,140.520 239.190,140.520 240.400 M169.309 241.200 C 169.309 242.190,169.387 242.595,169.482 242.100 C 169.578 241.605,169.578 240.795,169.482 240.300 C 169.387 239.805,169.309 240.210,169.309 241.200 M44.600 260.498 C 28.754 264.428,24.929 284.498,38.116 294.521 C 39.892 295.871,40.743 296.330,43.719 297.544 C 46.364 298.623,53.792 298.120,56.981 296.647 C 64.325 293.254,68.199 287.222,68.200 279.181 L 68.200 274.161 66.647 271.017 C 63.072 263.782,56.806 259.904,48.923 260.051 C 47.425 260.078,45.480 260.280,44.600 260.498 M55.686 261.663 C 75.285 268.041,69.861 297.600,49.092 297.600 C 45.512 297.600,44.697 297.446,42.000 296.261 C 29.762 290.884,26.729 275.631,36.002 266.096 C 40.847 261.113,48.619 259.363,55.686 261.663 M343.400 264.460 C 326.435 270.070,324.750 292.406,340.697 300.287 C 343.750 301.796,343.773 301.800,348.800 301.800 L 353.841 301.800 356.967 300.255 C 372.818 292.421,371.009 269.416,354.154 264.482 C 352.200 263.910,345.107 263.895,343.400 264.460 M353.816 265.017 C 369.667 269.119,372.186 291.453,357.685 299.319 C 348.728 304.178,336.924 300.713,332.458 291.915 C 324.901 277.027,337.741 260.857,353.816 265.017 M243.387 275.700 L 241.000 278.200 243.500 275.813 C 244.875 274.499,246.000 273.374,246.000 273.313 C 246.000 273.017,245.605 273.378,243.387 275.700 M209.900 286.698 C 211.715 286.772,214.685 286.772,216.500 286.698 C 218.315 286.623,216.830 286.563,213.200 286.563 C 209.570 286.563,208.085 286.623,209.900 286.698 M103.800 325.302 C 97.965 327.332,93.732 331.266,91.129 337.081 C 89.418 340.902,90.245 351.439,92.394 353.200 C 92.529 353.310,93.077 354.030,93.613 354.800 C 100.579 364.812,114.277 365.819,122.993 356.960 C 128.813 351.045,130.201 342.981,126.672 335.600 C 126.198 334.610,125.717 333.710,125.603 333.600 C 125.489 333.490,124.894 332.727,124.281 331.904 C 120.029 326.200,110.267 323.053,103.800 325.302 M113.813 325.787 C 129.750 329.938,133.171 350.295,119.452 359.339 C 111.928 364.299,102.605 363.336,96.140 356.932 C 82.766 343.683,95.612 321.046,113.813 325.787 M281.200 328.400 C 280.870 328.613,280.262 328.791,279.849 328.794 C 278.170 328.808,274.148 331.310,271.761 333.825 C 254.349 352.176,281.112 378.649,298.863 360.634 C 308.614 350.739,304.841 332.936,292.200 329.191 C 291.320 328.930,290.187 328.555,289.681 328.358 C 288.452 327.879,281.957 327.911,281.200 328.400 M293.564 330.366 C 308.586 338.043,307.112 358.694,291.081 365.149 C 290.466 365.397,287.909 365.600,285.400 365.600 C 280.871 365.600,280.262 365.477,276.800 363.857 C 263.636 357.698,263.746 336.839,276.976 330.426 C 281.479 328.243,289.355 328.215,293.564 330.366 M193.600 349.213 C 177.812 352.528,173.854 373.892,187.285 383.300 C 191.819 386.475,200.125 388.096,203.505 386.465 C 203.887 386.280,205.280 385.608,206.600 384.971 C 227.162 375.049,216.055 344.497,193.600 349.213 M203.000 349.745 C 218.670 353.945,221.977 373.996,208.526 383.251 C 194.505 392.898,175.377 378.848,180.330 362.540 C 183.253 352.917,193.420 347.178,203.000 349.745 " stroke="none" fill="#d8e0a5" fill-rule="evenodd"></path></g></svg>