<?xml version="1.0" standalone="no"?>
<!DOCTYPE svg PUBLIC "-//W3C//DTD SVG 20010904//EN"
 "http://www.w3.org/TR/2001/REC-SVG-20010904/DTD/svg10.dtd">
<svg version="1.0" xmlns="http://www.w3.org/2000/svg"
 width="1700.000000pt" height="1700.000000pt" viewBox="0 0 1700.000000 1700.000000"
 preserveAspectRatio="xMidYMid meet">

<g transform="translate(0.000000,1700.000000) scale(0.100000,-0.100000)"
fill="#000000" stroke="none">
<path d="M5973 9713 c2 -2776 4 -2977 20 -3108 62 -487 176 -872 377 -1280
352 -714 749 -1116 1350 -1363 261 -108 479 -168 770 -214 134 -21 178 -23
565 -23 383 0 433 2 562 22 668 103 1183 348 1583 753 351 355 704 943 864
1438 68 212 122 462 153 712 22 183 25 668 5 835 -60 488 -184 845 -417 1195
-117 177 -198 275 -359 435 -304 302 -632 526 -983 671 -48 20 -108 45 -133
57 -182 82 -525 163 -790 186 -160 14 -440 16 -530 3 -41 -6 -196 -31 -345
-57 l-270 -46 -412 -162 -413 -162 0 -562 c0 -310 3 -563 6 -563 16 0 179 73
220 99 26 17 58 31 71 31 21 0 70 24 83 41 3 3 124 58 270 121 254 110 272
116 440 151 329 67 653 70 905 8 139 -35 335 -101 409 -138 181 -91 416 -262
561 -408 321 -322 498 -781 521 -1350 5 -138 3 -169 -30 -390 -50 -334 -100
-514 -211 -752 -116 -248 -396 -594 -615 -759 -158 -120 -464 -248 -730 -306
-97 -21 -129 -23 -410 -23 -345 0 -423 10 -649 84 -584 192 -1024 732 -1166
1433 -63 314 -59 76 -62 3366 l-3 2992 -605 0 -605 0 3 -2967z"/>
</g>
</svg>
