<?xml version="1.0" standalone="no"?><!DOCTYPE svg PUBLIC "-//W3C//DTD SVG 1.1//EN" "http://www.w3.org/Graphics/SVG/1.1/DTD/svg11.dtd"><svg t="1689581278256" class="icon" viewBox="0 0 1024 1024" version="1.1" xmlns="http://www.w3.org/2000/svg" p-id="5180" xmlns:xlink="http://www.w3.org/1999/xlink" width="200" height="200"><path d="M512 512m-512 0a512 512 0 1 0 1024 0 512 512 0 1 0-1024 0Z" fill="#32BEA6" p-id="5181"></path><path d="M586.472727 214.109091c-22.062545 0-43.380364 3.165091-63.488 9.216C430.545455 250.693818 363.054545 336.244364 363.054545 437.527273c0 2.327273 0 4.654545 0.186182 6.981818a221.993891 221.993891 0 0 0 36.882618 116.140218l-183.519418 195.584a9.309091 9.309091 0 0 0 0.484073 13.153746l40.922764 38.018327a9.309091 9.309091 0 0 0 13.153745-0.484073l179.926109-191.748654A222.263855 222.263855 0 0 0 586.472727 660.945455c123.345455 0 223.418182-100.072727 223.418182-223.418182S709.818182 214.109091 586.472727 214.109091z" fill="#F0F1F1" p-id="5182"></path><path d="M400.114036 560.649309l-183.519418 195.584a9.309091 9.309091 0 0 0 0.484073 13.153746l16.123345 14.978327 192.148946-192.148946a224.442182 224.442182 0 0 1-25.236946-31.567127z" fill="#FFFFFF" p-id="5183"></path><path d="M809.890909 437.527273c0 123.345455-100.072727 223.418182-223.418182 223.418182-121.018182 0-219.601455-96.256-223.232-216.436364-0.186182-2.327273-0.186182-4.654545-0.186182-6.981818 0-101.282909 67.490909-186.833455 159.930182-214.202182 20.107636-6.050909 41.425455-9.216 63.488-9.216 123.345455 0 223.418182 100.072727 223.418182 223.418182z" fill="#DF2C2C" p-id="5184"></path><path d="M586.472727 214.109091c-22.062545 0-43.380364 3.165091-63.488 9.216C430.545455 250.693818 363.054545 336.244364 363.054545 437.527273c0 2.327273 0 4.654545 0.186182 6.981818a222.431418 222.431418 0 0 0 62.110255 147.698036l315.782982-315.792291C700.983855 237.865891 646.507055 214.109091 586.472727 214.109091z" fill="#FA5655" p-id="5185"></path><path d="M768.093091 427.194182c0 51.944727-20.293818 100.817455-57.064727 137.588363a163.486255 163.486255 0 0 1-116.549819 48.314182c-43.938909 0-85.364364-17.128727-116.456727-48.314182a139.133673 139.133673 0 0 1-41.146182-99.141818c0-37.515636 14.615273-72.704 41.146182-99.234909a119.342545 119.342545 0 0 1 84.992-35.188363c32.023273 0 62.277818 12.474182 84.992 35.188363 21.801891 21.885673 45.540073 86.137018-13.833309 138.509964a28.411345 28.411345 0 0 1-36.994327 0.530618 18.7392 18.7392 0 0 1 0.847127-29.426036c31.380945-23.272727 18.599564-88.948364-35.011491-88.948364-17.221818 0-33.326545 6.702545-45.521454 18.804364a84.005236 84.005236 0 0 0-24.762182 59.764363c0 22.528 8.843636 43.752727 24.762182 59.671273 20.573091 20.573091 47.941818 31.930182 76.986181 31.930182 29.137455 0 56.506182-11.357091 77.079273-31.930182 26.158545-26.251636 40.680727-61.067636 40.680727-98.117818 0-37.050182-14.522182-71.959273-40.680727-98.117818-68.328727-68.328727-179.386182-68.328727-247.621818 0-31.930182 31.930182-52.875636 71.959273-60.695273 115.432727-0.186182-2.327273-0.186182-4.654545-0.186182-6.981818 0-101.282909 67.490909-186.833455 159.930182-214.202182 67.118545-7.168 136.750545 14.894545 188.043637 66.187636 36.770909 36.770909 57.064727 85.643636 57.064727 137.681455z" fill="#FACB1B" p-id="5186"></path><path d="M492.730182 465.640727c0-22.621091 8.843636-43.845818 24.762182-59.764363a64.158255 64.158255 0 0 1 45.521454-18.804364c21.206109 0 35.914473 10.333091 44.143709 24.203636l42.747346-42.747345c-0.633018-0.698182-1.266036-1.489455-1.889746-2.122473a119.510109 119.510109 0 0 0-84.992-35.188363c-32.116364 0-62.277818 12.474182-84.992 35.188363a139.357091 139.357091 0 0 0-41.146182 99.234909c0 31.613673 10.528582 61.635491 29.761164 86.146328l39.917382-39.917382a83.781818 83.781818 0 0 1-13.833309-46.228946z" fill="#FBE158" p-id="5187"></path><path d="M711.028364 289.512727c-51.293091-51.293091-120.925091-73.355636-188.043637-66.187636C430.545455 250.693818 363.054545 336.244364 363.054545 437.527273c0 2.327273 0 4.654545 0.186182 6.981818 7.819636-43.473455 28.765091-83.502545 60.695273-115.432727 68.235636-68.328727 179.293091-68.328727 247.621818 0 2.988218 2.988218 5.780945 6.125382 8.461964 9.327709l39.517091-39.517091c-2.783418-3.155782-5.501673-6.367418-8.508509-9.374255z" fill="#FBE158" p-id="5188"></path></svg>