<?xml version="1.0" encoding="UTF-8"?><svg xmlns="http://www.w3.org/2000/svg" viewBox="0 0 122.88 122.88"><path d="M43.86,82.96l-21.13,10.2,2.97-13.64c.02-.08-.04-.28-.07-.35-.05-.1-.25-.07-.43-.06l-13.68.86,4.42-10.32,9.8,9.29c.17.16.44.12.72,0l24.57-10.93-7.18,14.95Z" style="fill:#1d4991;"/><polygon points="38.68 48.59 38.41 49.68 32.86 62.76 31.31 66.2 15.99 69.43 28.76 39.26 38.68 48.59" style="fill:#0aa9fc;"/><path d="M84.31,74.52l1.94,26.06c.05.68.12,1.19,0,1.71-.44-.1-.64-.35-.93-.81l-16.98-26.67,11.51-5.55,4.46,5.27Z" style="fill:#1d4991;"/><polygon points="38.88 48.66 36.83 20.19 54.78 48.32 43.28 53.87 38.88 48.66" style="fill:#3bdbfe;"/><path d="M101.37,67.33l-14.79,35.02c-.11.25-.36.14-.33-.07.12-.52.05-1.02,0-1.71l-1.94-26.06c.1-.14.26-.3.19-.45.53.02.92-.18,1.43-.39l15.45-6.35Z" style="fill:#0aa9fc;"/><path d="M101.51,67.04l-.14.29-15.45,6.35c-.5.21-.9.41-1.43.39l12.68-29.78c.02.52.09.99.2,1.61l3.79,20.83c.04.24.29.33.34.32Z" style="fill:#3bdbfe;"/><path d="M72.35,43.5l-1.4,12.11-19.07,8.48c-.26.12-.71.25-.91.16l5.02-12.86,16.37-7.89Z" style="fill:#0aa9fc;"/><path d="M97.24,43.66c-.33-.1-.54-.38-.8-.7l-5.75-7.18c-.23-.28-.38-.52-.44-.89l30.23-14.58-22.38,22.66c-.34.34-.54.54-.86.7Z" style="fill:#0aa9fc;"/><path d="M111.01,44.52l-13.69-.61-.08-.25c.31-.15.52-.36.86-.7l22.38-22.66c.19-.09.44-.38.86-.14l-10.33,24.35Z" style="fill:#1d4991;"/><path d="M66.66,71.93c-.64,0-1.26-.14-1.95-.36l-13.34-3.56,20.69-9.34,5.71,7.99-11.11,5.27Z" style="fill:#0aa9fc;"/><path d="M89.75,35.13c0,.45-.21.82-.43,1.28l-5.79,12.37c-.23.49-.42.9-.37,1.42l-12.21,5.41,1.4-12.11,17.4-8.37Z" style="fill:#1d4991;"/><path d="M111.01,44.52l-9.5,22.52c-.06.02-.3-.07-.34-.32l-3.79-20.83c-.11-.61-.18-1.08-.2-1.61.11,0,.14-.11.13-.18,0-.06.03-.14.01-.2l13.69.61Z" style="fill:#0aa9fc;"/><path d="M25.7,79.52c-.56.03-.78.4-1.21.83L2.93,101.82c-.3.3-.49.44-.83.51l9.42-22.36,13.68-.86c.18-.01.38-.04.43.06.04.07.09.27.07.35Z" style="fill:#3bdbfe;"/><polygon points="38.88 48.66 38.68 48.59 28.76 39.26 36.83 20.19 38.88 48.66" style="fill:#1d4991;"/><path d="M25.7,79.52l-2.97,13.64-18.72,9.02c-.71.34-1.27.68-2.05.55.02-.18.17-.31.14-.4.35-.07.54-.22.83-.51l21.56-21.47c.43-.43.65-.8,1.21-.83Z" style="fill:#0aa9fc;"/><path d="M51.37,68.01l13.34,3.56c.7.22,1.32.35,1.95.36l-5.77,2.87-17.04,8.17,7.18-14.95c.1-.04.26-.1.33,0Z" style="fill:#3bdbfe;"/><path d="M31.31,66.2c-1.89,4.2-3.51,8.53-5.56,12.74l-9.8-9.29c.06-.03.09-.13.05-.22l15.31-3.23Z" style="fill:#3bdbfe;"/><path d="M90.26,34.89c.06.37.22.6.44.89l5.75,7.18c.26.32.47.6.8.7l.08.25c.02.06-.01.14-.01.2-.6-.11-1.06.26-1.66.53l-12.48,5.56c-.05-.52.14-.93.37-1.42l5.79-12.37c.22-.46.43-.83.43-1.28l.51-.24Z" style="fill:#3bdbfe;"/><polygon points="55.99 51.39 50.97 64.25 45.36 56.49 55.99 51.39" style="fill:#3bdbfe;"/></svg>
