<svg xmlns="http://www.w3.org/2000/svg" xmlns:xlink="http://www.w3.org/1999/xlink" width="500" zoomAndPan="magnify" viewBox="0 0 375 374.999991" height="500" preserveAspectRatio="xMidYMid meet" version="1.0"><defs><filter x="0%" y="0%" width="100%" height="100%" id="id1"><feColorMatrix values="0 0 0 0 1 0 0 0 0 1 0 0 0 0 1 0 0 0 1 0" color-interpolation-filters="sRGB"/></filter><g/><clipPath id="id2"><path d="M 0.265625 0.265625 L 374.734375 0.265625 L 374.734375 374.734375 L 0.265625 374.734375 Z M 0.265625 0.265625 " clip-rule="nonzero"/></clipPath><linearGradient x1="-38.250965" gradientTransform="matrix(0.119959, 0, 0, 0.119959, 0.0000045, 0)" y1="3083.176699" x2="3092.705301" gradientUnits="userSpaceOnUse" y2="-29.151128" id="id3"><stop stop-opacity="1" stop-color="rgb(0%, 0%, 0%)" offset="0"/><stop stop-opacity="1" stop-color="rgb(0%, 0%, 0%)" offset="0.125"/><stop stop-opacity="1" stop-color="rgb(0%, 0%, 0%)" offset="0.15625"/><stop stop-opacity="1" stop-color="rgb(0.062561%, 0.0656128%, 0.0808716%)" offset="0.164062"/><stop stop-opacity="1" stop-color="rgb(0.227356%, 0.234985%, 0.288391%)" offset="0.171875"/><stop stop-opacity="1" stop-color="rgb(0.430298%, 0.442505%, 0.544739%)" offset="0.179687"/><stop stop-opacity="1" stop-color="rgb(0.63324%, 0.65155%, 0.799561%)" offset="0.1875"/><stop stop-opacity="1" stop-color="rgb(0.836182%, 0.860596%, 1.055908%)" offset="0.195312"/><stop stop-opacity="1" stop-color="rgb(1.037598%, 1.068115%, 1.31073%)" offset="0.203125"/><stop stop-opacity="1" stop-color="rgb(1.24054%, 1.277161%, 1.567078%)" offset="0.210938"/><stop stop-opacity="1" stop-color="rgb(1.443481%, 1.48468%, 1.823425%)" offset="0.21875"/><stop stop-opacity="1" stop-color="rgb(1.644897%, 1.693726%, 2.078247%)" offset="0.226562"/><stop stop-opacity="1" stop-color="rgb(1.847839%, 1.902771%, 2.334595%)" offset="0.234375"/><stop stop-opacity="1" stop-color="rgb(2.050781%, 2.110291%, 2.589417%)" offset="0.242188"/><stop stop-opacity="1" stop-color="rgb(2.253723%, 2.319336%, 2.845764%)" offset="0.25"/><stop stop-opacity="1" stop-color="rgb(2.455139%, 2.526855%, 3.102112%)" offset="0.257812"/><stop stop-opacity="1" stop-color="rgb(2.658081%, 2.735901%, 3.356934%)" offset="0.265625"/><stop stop-opacity="1" stop-color="rgb(2.861023%, 2.944946%, 3.613281%)" offset="0.273438"/><stop stop-opacity="1" stop-color="rgb(3.062439%, 3.152466%, 3.868103%)" offset="0.28125"/><stop stop-opacity="1" stop-color="rgb(3.265381%, 3.361511%, 4.124451%)" offset="0.289062"/><stop stop-opacity="1" stop-color="rgb(3.468323%, 3.569031%, 4.380798%)" offset="0.296875"/><stop stop-opacity="1" stop-color="rgb(3.671265%, 3.778076%, 4.63562%)" offset="0.304687"/><stop stop-opacity="1" stop-color="rgb(3.872681%, 3.987122%, 4.891968%)" offset="0.3125"/><stop stop-opacity="1" stop-color="rgb(4.075623%, 4.194641%, 5.14679%)" offset="0.320312"/><stop stop-opacity="1" stop-color="rgb(4.278564%, 4.403687%, 5.403137%)" offset="0.328125"/><stop stop-opacity="1" stop-color="rgb(4.481506%, 4.611206%, 5.659485%)" offset="0.335938"/><stop stop-opacity="1" stop-color="rgb(4.682922%, 4.820251%, 5.914307%)" offset="0.34375"/><stop stop-opacity="1" stop-color="rgb(4.885864%, 5.029297%, 6.170654%)" offset="0.351562"/><stop stop-opacity="1" stop-color="rgb(5.088806%, 5.236816%, 6.425476%)" offset="0.359375"/><stop stop-opacity="1" stop-color="rgb(5.290222%, 5.445862%, 6.681824%)" offset="0.367187"/><stop stop-opacity="1" stop-color="rgb(5.493164%, 5.653381%, 6.936646%)" offset="0.375"/><stop stop-opacity="1" stop-color="rgb(5.696106%, 5.862427%, 7.192993%)" offset="0.382813"/><stop stop-opacity="1" stop-color="rgb(5.899048%, 6.069946%, 7.449341%)" offset="0.390625"/><stop stop-opacity="1" stop-color="rgb(6.100464%, 6.278992%, 7.704163%)" offset="0.398438"/><stop stop-opacity="1" stop-color="rgb(6.303406%, 6.488037%, 7.96051%)" offset="0.40625"/><stop stop-opacity="1" stop-color="rgb(6.506348%, 6.695557%, 8.215332%)" offset="0.414062"/><stop stop-opacity="1" stop-color="rgb(6.707764%, 6.904602%, 8.47168%)" offset="0.421875"/><stop stop-opacity="1" stop-color="rgb(6.910706%, 7.112122%, 8.728027%)" offset="0.429688"/><stop stop-opacity="1" stop-color="rgb(7.113647%, 7.321167%, 8.982849%)" offset="0.4375"/><stop stop-opacity="1" stop-color="rgb(7.316589%, 7.530212%, 9.239197%)" offset="0.445312"/><stop stop-opacity="1" stop-color="rgb(7.518005%, 7.737732%, 9.494019%)" offset="0.453125"/><stop stop-opacity="1" stop-color="rgb(7.720947%, 7.946777%, 9.750366%)" offset="0.460937"/><stop stop-opacity="1" stop-color="rgb(7.923889%, 8.154297%, 10.006714%)" offset="0.46875"/><stop stop-opacity="1" stop-color="rgb(8.125305%, 8.363342%, 10.261536%)" offset="0.476562"/><stop stop-opacity="1" stop-color="rgb(8.328247%, 8.572388%, 10.517883%)" offset="0.484375"/><stop stop-opacity="1" stop-color="rgb(8.531189%, 8.779907%, 10.772705%)" offset="0.492188"/><stop stop-opacity="1" stop-color="rgb(8.734131%, 8.988953%, 11.029053%)" offset="0.498508"/><stop stop-opacity="1" stop-color="rgb(8.834839%, 9.092712%, 11.157227%)" offset="0.5"/><stop stop-opacity="1" stop-color="rgb(8.935547%, 9.196472%, 11.2854%)" offset="0.501492"/><stop stop-opacity="1" stop-color="rgb(9.037781%, 9.301758%, 11.413574%)" offset="0.507812"/><stop stop-opacity="1" stop-color="rgb(9.138489%, 9.405518%, 11.540222%)" offset="0.515625"/><stop stop-opacity="1" stop-color="rgb(9.341431%, 9.614563%, 11.79657%)" offset="0.523438"/><stop stop-opacity="1" stop-color="rgb(9.542847%, 9.822083%, 12.051392%)" offset="0.53125"/><stop stop-opacity="1" stop-color="rgb(9.745789%, 10.031128%, 12.307739%)" offset="0.539062"/><stop stop-opacity="1" stop-color="rgb(9.94873%, 10.238647%, 12.564087%)" offset="0.546875"/><stop stop-opacity="1" stop-color="rgb(10.151672%, 10.447693%, 12.818909%)" offset="0.554688"/><stop stop-opacity="1" stop-color="rgb(10.353088%, 10.656738%, 13.075256%)" offset="0.5625"/><stop stop-opacity="1" stop-color="rgb(10.55603%, 10.864258%, 13.330078%)" offset="0.570313"/><stop stop-opacity="1" stop-color="rgb(10.758972%, 11.073303%, 13.586426%)" offset="0.578125"/><stop stop-opacity="1" stop-color="rgb(10.960388%, 11.280823%, 13.841248%)" offset="0.585938"/><stop stop-opacity="1" stop-color="rgb(11.16333%, 11.489868%, 14.097595%)" offset="0.59375"/><stop stop-opacity="1" stop-color="rgb(11.366272%, 11.697388%, 14.353943%)" offset="0.601563"/><stop stop-opacity="1" stop-color="rgb(11.569214%, 11.906433%, 14.608765%)" offset="0.609375"/><stop stop-opacity="1" stop-color="rgb(11.77063%, 12.115479%, 14.865112%)" offset="0.617188"/><stop stop-opacity="1" stop-color="rgb(11.973572%, 12.322998%, 15.119934%)" offset="0.625"/><stop stop-opacity="1" stop-color="rgb(12.176514%, 12.532043%, 15.376282%)" offset="0.632812"/><stop stop-opacity="1" stop-color="rgb(12.37793%, 12.739563%, 15.632629%)" offset="0.640625"/><stop stop-opacity="1" stop-color="rgb(12.580872%, 12.948608%, 15.887451%)" offset="0.648438"/><stop stop-opacity="1" stop-color="rgb(12.783813%, 13.157654%, 16.143799%)" offset="0.65625"/><stop stop-opacity="1" stop-color="rgb(12.986755%, 13.365173%, 16.398621%)" offset="0.664062"/><stop stop-opacity="1" stop-color="rgb(13.188171%, 13.574219%, 16.654968%)" offset="0.671875"/><stop stop-opacity="1" stop-color="rgb(13.391113%, 13.781738%, 16.911316%)" offset="0.679688"/><stop stop-opacity="1" stop-color="rgb(13.594055%, 13.990784%, 17.166138%)" offset="0.6875"/><stop stop-opacity="1" stop-color="rgb(13.894653%, 14.294434%, 17.54303%)" offset="0.691406"/><stop stop-opacity="1" stop-color="rgb(14.094543%, 14.494324%, 17.793274%)" offset="0.695312"/><stop stop-opacity="1" stop-color="rgb(14.295959%, 14.69574%, 18.043518%)" offset="0.699219"/><stop stop-opacity="1" stop-color="rgb(14.497375%, 14.897156%, 18.295288%)" offset="0.703125"/><stop stop-opacity="1" stop-color="rgb(14.698792%, 15.098572%, 18.547058%)" offset="0.707031"/><stop stop-opacity="1" stop-color="rgb(14.900208%, 15.299988%, 18.798828%)" offset="0.710938"/><stop stop-opacity="1" stop-color="rgb(15.101624%, 15.501404%, 19.049072%)" offset="0.714844"/><stop stop-opacity="1" stop-color="rgb(15.30304%, 15.70282%, 19.300842%)" offset="0.71875"/><stop stop-opacity="1" stop-color="rgb(15.504456%, 15.904236%, 19.552612%)" offset="0.722656"/><stop stop-opacity="1" stop-color="rgb(15.705872%, 16.105652%, 19.804382%)" offset="0.726562"/><stop stop-opacity="1" stop-color="rgb(15.907288%, 16.307068%, 20.054626%)" offset="0.730469"/><stop stop-opacity="1" stop-color="rgb(16.108704%, 16.508484%, 20.306396%)" offset="0.734375"/><stop stop-opacity="1" stop-color="rgb(16.31012%, 16.7099%, 20.558167%)" offset="0.738281"/><stop stop-opacity="1" stop-color="rgb(16.511536%, 16.911316%, 20.809937%)" offset="0.742187"/><stop stop-opacity="1" stop-color="rgb(16.712952%, 17.112732%, 21.060181%)" offset="0.746094"/><stop stop-opacity="1" stop-color="rgb(16.914368%, 17.314148%, 21.311951%)" offset="0.75"/><stop stop-opacity="1" stop-color="rgb(17.115784%, 17.515564%, 21.563721%)" offset="0.753906"/><stop stop-opacity="1" stop-color="rgb(17.3172%, 17.71698%, 21.815491%)" offset="0.757813"/><stop stop-opacity="1" stop-color="rgb(17.518616%, 17.918396%, 22.065735%)" offset="0.761719"/><stop stop-opacity="1" stop-color="rgb(17.720032%, 18.119812%, 22.317505%)" offset="0.765625"/><stop stop-opacity="1" stop-color="rgb(17.921448%, 18.321228%, 22.569275%)" offset="0.769531"/><stop stop-opacity="1" stop-color="rgb(18.122864%, 18.522644%, 22.821045%)" offset="0.773438"/><stop stop-opacity="1" stop-color="rgb(18.32428%, 18.72406%, 23.071289%)" offset="0.777344"/><stop stop-opacity="1" stop-color="rgb(18.525696%, 18.925476%, 23.323059%)" offset="0.78125"/><stop stop-opacity="1" stop-color="rgb(18.727112%, 19.126892%, 23.574829%)" offset="0.785156"/><stop stop-opacity="1" stop-color="rgb(18.928528%, 19.328308%, 23.826599%)" offset="0.789062"/><stop stop-opacity="1" stop-color="rgb(19.129944%, 19.529724%, 24.076843%)" offset="0.792969"/><stop stop-opacity="1" stop-color="rgb(19.33136%, 19.73114%, 24.328613%)" offset="0.796875"/><stop stop-opacity="1" stop-color="rgb(19.532776%, 19.932556%, 24.580383%)" offset="0.800781"/><stop stop-opacity="1" stop-color="rgb(19.734192%, 20.133972%, 24.832153%)" offset="0.804688"/><stop stop-opacity="1" stop-color="rgb(19.935608%, 20.335388%, 25.082397%)" offset="0.808594"/><stop stop-opacity="1" stop-color="rgb(20.137024%, 20.536804%, 25.334167%)" offset="0.8125"/><stop stop-opacity="1" stop-color="rgb(20.33844%, 20.73822%, 25.585938%)" offset="0.816406"/><stop stop-opacity="1" stop-color="rgb(20.539856%, 20.939636%, 25.837708%)" offset="0.820312"/><stop stop-opacity="1" stop-color="rgb(20.741272%, 21.141052%, 26.087952%)" offset="0.824219"/><stop stop-opacity="1" stop-color="rgb(20.942688%, 21.342468%, 26.339722%)" offset="0.828125"/><stop stop-opacity="1" stop-color="rgb(21.144104%, 21.543884%, 26.591492%)" offset="0.832031"/><stop stop-opacity="1" stop-color="rgb(21.34552%, 21.7453%, 26.843262%)" offset="0.835938"/><stop stop-opacity="1" stop-color="rgb(21.546936%, 21.946716%, 27.093506%)" offset="0.839844"/><stop stop-opacity="1" stop-color="rgb(21.748352%, 22.148132%, 27.345276%)" offset="0.84375"/><stop stop-opacity="1" stop-color="rgb(21.949768%, 22.349548%, 27.597046%)" offset="0.847656"/><stop stop-opacity="1" stop-color="rgb(22.151184%, 22.550964%, 27.848816%)" offset="0.851562"/><stop stop-opacity="1" stop-color="rgb(22.3526%, 22.75238%, 28.09906%)" offset="0.855469"/><stop stop-opacity="1" stop-color="rgb(22.554016%, 22.953796%, 28.35083%)" offset="0.859375"/><stop stop-opacity="1" stop-color="rgb(22.755432%, 23.155212%, 28.6026%)" offset="0.863281"/><stop stop-opacity="1" stop-color="rgb(22.956848%, 23.356628%, 28.85437%)" offset="0.867188"/><stop stop-opacity="1" stop-color="rgb(23.156738%, 23.558044%, 29.104614%)" offset="0.871094"/><stop stop-opacity="1" stop-color="rgb(23.358154%, 23.75946%, 29.356384%)" offset="0.875"/><stop stop-opacity="1" stop-color="rgb(23.55957%, 23.960876%, 29.608154%)" offset="0.878906"/><stop stop-opacity="1" stop-color="rgb(23.760986%, 24.162292%, 29.859924%)" offset="0.882812"/><stop stop-opacity="1" stop-color="rgb(23.962402%, 24.363708%, 30.110168%)" offset="0.886719"/><stop stop-opacity="1" stop-color="rgb(24.163818%, 24.565125%, 30.361938%)" offset="0.890625"/><stop stop-opacity="1" stop-color="rgb(24.365234%, 24.766541%, 30.613708%)" offset="0.894531"/><stop stop-opacity="1" stop-color="rgb(24.56665%, 24.967957%, 30.865479%)" offset="0.898437"/><stop stop-opacity="1" stop-color="rgb(24.768066%, 25.169373%, 31.115723%)" offset="0.902344"/><stop stop-opacity="1" stop-color="rgb(24.969482%, 25.370789%, 31.367493%)" offset="0.90625"/><stop stop-opacity="1" stop-color="rgb(25.170898%, 25.570679%, 31.619263%)" offset="0.910156"/><stop stop-opacity="1" stop-color="rgb(25.372314%, 25.772095%, 31.871033%)" offset="0.914062"/><stop stop-opacity="1" stop-color="rgb(25.57373%, 25.973511%, 32.121277%)" offset="0.917969"/><stop stop-opacity="1" stop-color="rgb(25.775146%, 26.174927%, 32.373047%)" offset="0.921875"/><stop stop-opacity="1" stop-color="rgb(25.976562%, 26.376343%, 32.624817%)" offset="0.925781"/><stop stop-opacity="1" stop-color="rgb(26.177979%, 26.577759%, 32.876587%)" offset="0.929687"/><stop stop-opacity="1" stop-color="rgb(26.379395%, 26.779175%, 33.126831%)" offset="0.933594"/><stop stop-opacity="1" stop-color="rgb(26.580811%, 26.980591%, 33.378601%)" offset="0.9375"/><stop stop-opacity="1" stop-color="rgb(26.782227%, 27.182007%, 33.630371%)" offset="0.941406"/><stop stop-opacity="1" stop-color="rgb(26.983643%, 27.383423%, 33.882141%)" offset="0.945313"/><stop stop-opacity="1" stop-color="rgb(27.185059%, 27.584839%, 34.132385%)" offset="0.949219"/><stop stop-opacity="1" stop-color="rgb(27.386475%, 27.786255%, 34.384155%)" offset="0.953125"/><stop stop-opacity="1" stop-color="rgb(27.587891%, 27.987671%, 34.635925%)" offset="0.957031"/><stop stop-opacity="1" stop-color="rgb(27.789307%, 28.189087%, 34.887695%)" offset="0.960938"/><stop stop-opacity="1" stop-color="rgb(27.793884%, 28.193665%, 34.893799%)" offset="0.96875"/><stop stop-opacity="1" stop-color="rgb(27.799988%, 28.199768%, 34.899902%)" offset="1"/></linearGradient><mask id="id4"><g filter="url(#id1)"><rect x="-37.5" width="450" fill="#000000" y="-37.499999" height="449.999989" fill-opacity="0.298"/></g></mask><clipPath id="id5"><path d="M 0.953125 0 L 373.703125 0 L 373.703125 367.5 L 0.953125 367.5 Z M 0.953125 0 " clip-rule="nonzero"/></clipPath><clipPath id="id6"><rect x="0" width="374" y="0" height="368"/></clipPath><mask id="id7"><g filter="url(#id1)"><rect x="-37.5" width="450" fill="#000000" y="-37.499999" height="449.999989" fill-opacity="0.5294"/></g></mask><clipPath id="id8"><rect x="0" width="375" y="0" height="375"/></clipPath><clipPath id="id9"><path d="M 123.683594 43.5 L 251.183594 43.5 L 251.183594 203.25 L 123.683594 203.25 Z M 123.683594 43.5 " clip-rule="nonzero"/></clipPath><clipPath id="id10"><path d="M 212.597656 168.945312 L 212.597656 144.316406 L 153.175781 144.316406 L 153.175781 158.523438 C 156.8125 159.195312 159.796875 161.71875 161.117188 165.082031 L 183.097656 165.082031 C 184.300781 163.414062 186.261719 162.328125 188.476562 162.328125 C 192.132812 162.328125 195.097656 165.292969 195.097656 168.945312 C 195.097656 172.601562 192.132812 175.5625 188.476562 175.5625 C 186.261719 175.5625 184.300781 174.480469 183.097656 172.808594 L 161.117188 172.808594 C 160.328125 174.824219 158.941406 176.535156 157.179688 177.726562 C 158.144531 179.660156 159.417969 181.417969 160.933594 182.933594 C 164.527344 186.527344 169.484375 188.757812 174.933594 188.757812 L 214.671875 188.757812 C 216.21875 184.816406 220.058594 182.023438 224.550781 182.023438 C 229.042969 182.023438 232.882812 184.816406 234.425781 188.757812 L 234.429688 188.757812 C 234.898438 189.953125 235.15625 191.257812 235.15625 192.621094 C 235.15625 198.476562 230.40625 203.21875 224.550781 203.21875 C 220.058594 203.21875 216.21875 200.429688 214.671875 196.484375 L 174.933594 196.484375 C 167.347656 196.484375 160.457031 193.390625 155.464844 188.398438 C 152.90625 185.839844 150.84375 182.785156 149.441406 179.390625 C 145.027344 178.636719 141.542969 175.15625 140.789062 170.742188 C 137.394531 169.339844 134.332031 167.28125 131.773438 164.722656 C 126.78125 159.734375 123.683594 152.847656 123.683594 145.269531 C 123.683594 140.175781 125.089844 135.390625 127.53125 131.28125 C 128.230469 130.109375 129.007812 128.996094 129.867188 127.945312 C 129.496094 126.863281 129.292969 125.707031 129.292969 124.503906 C 129.292969 122.722656 129.734375 121.042969 130.511719 119.574219 C 129.398438 118.300781 128.398438 116.929688 127.53125 115.472656 C 125.089844 111.359375 123.683594 106.574219 123.683594 101.480469 C 123.683594 93.902344 126.78125 87.015625 131.773438 82.027344 C 134.332031 79.46875 137.394531 77.410156 140.789062 76.007812 C 141.542969 71.59375 145.027344 68.113281 149.441406 67.359375 C 150.84375 63.96875 152.90625 60.910156 155.464844 58.351562 C 160.457031 53.363281 167.347656 50.265625 174.933594 50.265625 L 214.671875 50.265625 C 216.21875 46.324219 220.058594 43.53125 224.550781 43.53125 C 229.042969 43.53125 232.882812 46.324219 234.425781 50.265625 L 234.429688 50.265625 C 234.898438 51.460938 235.15625 52.765625 235.15625 54.128906 C 235.15625 55.492188 234.898438 56.796875 234.429688 57.992188 L 234.425781 57.992188 C 232.882812 61.9375 229.042969 64.726562 224.550781 64.726562 C 220.058594 64.726562 216.21875 61.933594 214.671875 57.992188 L 174.933594 57.992188 C 169.484375 57.992188 164.527344 60.222656 160.933594 63.816406 C 159.417969 65.332031 158.144531 67.089844 157.179688 69.023438 C 158.941406 70.21875 160.328125 71.929688 161.117188 73.941406 L 183.097656 73.941406 C 184.300781 72.273438 186.261719 71.1875 188.476562 71.1875 C 192.132812 71.1875 195.097656 74.148438 195.097656 77.804688 C 195.097656 81.460938 192.132812 84.421875 188.476562 84.421875 C 186.261719 84.421875 184.300781 83.335938 183.097656 81.667969 L 161.117188 81.667969 C 159.796875 85.03125 156.8125 87.558594 153.175781 88.226562 L 153.175781 102.4375 L 198.921875 102.4375 C 199.707031 100.316406 201.746094 98.808594 204.140625 98.808594 C 207.210938 98.808594 209.703125 101.296875 209.703125 104.367188 C 209.703125 105.046875 209.578125 105.699219 209.355469 106.300781 C 208.570312 108.417969 206.53125 109.925781 204.140625 109.925781 C 201.746094 109.925781 199.707031 108.417969 198.921875 106.300781 L 149.304688 106.300781 L 149.304688 88.226562 C 146.460938 87.703125 144.015625 86.042969 142.453125 83.738281 C 140.515625 84.703125 138.757812 85.976562 137.242188 87.492188 C 133.648438 91.085938 131.417969 96.035156 131.417969 101.480469 C 131.417969 105.152344 132.425781 108.597656 134.179688 111.546875 C 134.808594 112.601562 135.53125 113.597656 136.339844 114.519531 C 137.453125 114.121094 138.652344 113.90625 139.898438 113.90625 C 145.09375 113.90625 149.417969 117.640625 150.328125 122.570312 L 222.414062 122.570312 L 222.414062 83.019531 C 220.292969 82.234375 218.785156 80.195312 218.785156 77.804688 C 218.785156 74.734375 221.273438 72.246094 224.347656 72.246094 C 227.417969 72.246094 229.910156 74.734375 229.910156 77.804688 C 229.910156 80.195312 228.398438 82.234375 226.28125 83.019531 L 226.28125 102.4375 L 240.402344 102.4375 C 241.1875 100.316406 243.226562 98.808594 245.621094 98.808594 C 248.691406 98.808594 251.183594 101.296875 251.183594 104.367188 C 251.183594 107.4375 248.691406 109.925781 245.621094 109.925781 C 243.226562 109.925781 241.1875 108.417969 240.402344 106.300781 L 226.28125 106.300781 L 226.28125 126.4375 L 150.328125 126.4375 C 149.417969 131.367188 145.097656 135.101562 139.898438 135.101562 C 138.136719 135.101562 136.476562 134.671875 135.015625 133.914062 C 134.722656 134.332031 134.441406 134.765625 134.179688 135.207031 C 132.425781 138.15625 131.417969 141.597656 131.417969 145.269531 C 131.417969 150.714844 133.648438 155.667969 137.242188 159.257812 C 138.757812 160.773438 140.515625 162.046875 142.453125 163.011719 C 144.015625 160.707031 146.460938 159.050781 149.308594 158.523438 L 149.308594 140.453125 L 230.625 140.453125 C 231.410156 138.332031 233.449219 136.824219 235.839844 136.824219 C 238.234375 136.824219 240.273438 138.332031 241.058594 140.453125 C 241.28125 141.054688 241.402344 141.703125 241.402344 142.382812 C 241.402344 143.0625 241.28125 143.710938 241.058594 144.316406 C 240.273438 146.433594 238.234375 147.941406 235.839844 147.941406 C 233.449219 147.941406 231.410156 146.433594 230.625 144.316406 L 216.464844 144.316406 L 216.464844 167.015625 L 240.402344 167.015625 C 241.1875 164.898438 243.226562 163.386719 245.621094 163.386719 C 248.691406 163.386719 251.183594 165.875 251.183594 168.945312 C 251.183594 172.015625 248.691406 174.503906 245.621094 174.503906 C 243.226562 174.503906 241.1875 172.996094 240.402344 170.878906 L 212.597656 170.878906 Z M 212.597656 168.945312 " clip-rule="evenodd"/></clipPath><linearGradient x1="1088.807736" gradientTransform="matrix(0.018219, 0, 0, 0.0182067, 123.682192, 43.531069)" y1="9361.583712" x2="6356.906562" gradientUnits="userSpaceOnUse" y2="-347.950894" id="id11"><stop stop-opacity="1" stop-color="rgb(18.502808%, 37.637329%, 66.957092%)" offset="0"/><stop stop-opacity="1" stop-color="rgb(18.55011%, 37.89978%, 67.13562%)" offset="0.00390625"/><stop stop-opacity="1" stop-color="rgb(18.598938%, 38.163757%, 67.314148%)" offset="0.0078125"/><stop stop-opacity="1" stop-color="rgb(18.64624%, 38.426208%, 67.492676%)" offset="0.0117188"/><stop stop-opacity="1" stop-color="rgb(18.695068%, 38.690186%, 67.671204%)" offset="0.015625"/><stop stop-opacity="1" stop-color="rgb(18.743896%, 38.952637%, 67.849731%)" offset="0.0195312"/><stop stop-opacity="1" stop-color="rgb(18.792725%, 39.215088%, 68.028259%)" offset="0.0234375"/><stop stop-opacity="1" stop-color="rgb(18.840027%, 39.477539%, 68.206787%)" offset="0.0273438"/><stop stop-opacity="1" stop-color="rgb(18.888855%, 39.741516%, 68.385315%)" offset="0.03125"/><stop stop-opacity="1" stop-color="rgb(18.936157%, 40.003967%, 68.563843%)" offset="0.0351562"/><stop stop-opacity="1" stop-color="rgb(18.984985%, 40.267944%, 68.742371%)" offset="0.0390625"/><stop stop-opacity="1" stop-color="rgb(19.032288%, 40.530396%, 68.920898%)" offset="0.0429687"/><stop stop-opacity="1" stop-color="rgb(19.081116%, 40.792847%, 69.099426%)" offset="0.046875"/><stop stop-opacity="1" stop-color="rgb(19.129944%, 41.055298%, 69.277954%)" offset="0.0507812"/><stop stop-opacity="1" stop-color="rgb(19.178772%, 41.319275%, 69.456482%)" offset="0.0546875"/><stop stop-opacity="1" stop-color="rgb(19.226074%, 41.581726%, 69.633484%)" offset="0.0585938"/><stop stop-opacity="1" stop-color="rgb(19.274902%, 41.845703%, 69.812012%)" offset="0.0625"/><stop stop-opacity="1" stop-color="rgb(19.322205%, 42.108154%, 69.99054%)" offset="0.0664062"/><stop stop-opacity="1" stop-color="rgb(19.371033%, 42.370605%, 70.169067%)" offset="0.0703125"/><stop stop-opacity="1" stop-color="rgb(19.419861%, 42.633057%, 70.347595%)" offset="0.0742188"/><stop stop-opacity="1" stop-color="rgb(19.468689%, 42.897034%, 70.526123%)" offset="0.078125"/><stop stop-opacity="1" stop-color="rgb(19.515991%, 43.159485%, 70.704651%)" offset="0.0820313"/><stop stop-opacity="1" stop-color="rgb(19.564819%, 43.423462%, 70.883179%)" offset="0.0859375"/><stop stop-opacity="1" stop-color="rgb(19.612122%, 43.685913%, 71.061707%)" offset="0.0898437"/><stop stop-opacity="1" stop-color="rgb(19.66095%, 43.948364%, 71.240234%)" offset="0.09375"/><stop stop-opacity="1" stop-color="rgb(19.709778%, 44.210815%, 71.418762%)" offset="0.0976562"/><stop stop-opacity="1" stop-color="rgb(19.758606%, 44.474792%, 71.59729%)" offset="0.101562"/><stop stop-opacity="1" stop-color="rgb(19.805908%, 44.737244%, 71.775818%)" offset="0.105469"/><stop stop-opacity="1" stop-color="rgb(19.854736%, 45.001221%, 71.954346%)" offset="0.109375"/><stop stop-opacity="1" stop-color="rgb(19.902039%, 45.263672%, 72.132874%)" offset="0.113281"/><stop stop-opacity="1" stop-color="rgb(19.950867%, 45.527649%, 72.311401%)" offset="0.117188"/><stop stop-opacity="1" stop-color="rgb(19.999695%, 45.7901%, 72.489929%)" offset="0.121094"/><stop stop-opacity="1" stop-color="rgb(20.048523%, 46.052551%, 72.668457%)" offset="0.125"/><stop stop-opacity="1" stop-color="rgb(20.095825%, 46.315002%, 72.845459%)" offset="0.128906"/><stop stop-opacity="1" stop-color="rgb(20.144653%, 46.578979%, 73.023987%)" offset="0.132812"/><stop stop-opacity="1" stop-color="rgb(20.191956%, 46.841431%, 73.202515%)" offset="0.136719"/><stop stop-opacity="1" stop-color="rgb(20.240784%, 47.105408%, 73.381042%)" offset="0.140625"/><stop stop-opacity="1" stop-color="rgb(20.288086%, 47.367859%, 73.55957%)" offset="0.144531"/><stop stop-opacity="1" stop-color="rgb(20.336914%, 47.63031%, 73.738098%)" offset="0.148438"/><stop stop-opacity="1" stop-color="rgb(20.385742%, 47.892761%, 73.916626%)" offset="0.152344"/><stop stop-opacity="1" stop-color="rgb(20.43457%, 48.156738%, 74.095154%)" offset="0.15625"/><stop stop-opacity="1" stop-color="rgb(20.481873%, 48.419189%, 74.273682%)" offset="0.160156"/><stop stop-opacity="1" stop-color="rgb(20.530701%, 48.683167%, 74.452209%)" offset="0.164062"/><stop stop-opacity="1" stop-color="rgb(20.578003%, 48.945618%, 74.630737%)" offset="0.167969"/><stop stop-opacity="1" stop-color="rgb(20.626831%, 49.208069%, 74.809265%)" offset="0.171875"/><stop stop-opacity="1" stop-color="rgb(20.675659%, 49.47052%, 74.987793%)" offset="0.175781"/><stop stop-opacity="1" stop-color="rgb(20.724487%, 49.734497%, 75.166321%)" offset="0.179688"/><stop stop-opacity="1" stop-color="rgb(20.77179%, 49.996948%, 75.344849%)" offset="0.183594"/><stop stop-opacity="1" stop-color="rgb(20.820618%, 50.260925%, 75.523376%)" offset="0.1875"/><stop stop-opacity="1" stop-color="rgb(20.86792%, 50.523376%, 75.701904%)" offset="0.191406"/><stop stop-opacity="1" stop-color="rgb(20.916748%, 50.785828%, 75.880432%)" offset="0.195312"/><stop stop-opacity="1" stop-color="rgb(20.965576%, 51.048279%, 76.057434%)" offset="0.199219"/><stop stop-opacity="1" stop-color="rgb(21.014404%, 51.312256%, 76.235962%)" offset="0.203125"/><stop stop-opacity="1" stop-color="rgb(21.061707%, 51.574707%, 76.41449%)" offset="0.207031"/><stop stop-opacity="1" stop-color="rgb(21.110535%, 51.838684%, 76.593018%)" offset="0.210938"/><stop stop-opacity="1" stop-color="rgb(21.157837%, 52.101135%, 76.771545%)" offset="0.214844"/><stop stop-opacity="1" stop-color="rgb(21.206665%, 52.363586%, 76.950073%)" offset="0.21875"/><stop stop-opacity="1" stop-color="rgb(21.255493%, 52.626038%, 77.128601%)" offset="0.222656"/><stop stop-opacity="1" stop-color="rgb(21.304321%, 52.890015%, 77.307129%)" offset="0.226563"/><stop stop-opacity="1" stop-color="rgb(21.351624%, 53.152466%, 77.485657%)" offset="0.230469"/><stop stop-opacity="1" stop-color="rgb(21.400452%, 53.416443%, 77.664185%)" offset="0.234375"/><stop stop-opacity="1" stop-color="rgb(21.447754%, 53.678894%, 77.842712%)" offset="0.238281"/><stop stop-opacity="1" stop-color="rgb(21.496582%, 53.941345%, 78.02124%)" offset="0.242187"/><stop stop-opacity="1" stop-color="rgb(21.543884%, 54.203796%, 78.199768%)" offset="0.246094"/><stop stop-opacity="1" stop-color="rgb(21.592712%, 54.467773%, 78.378296%)" offset="0.25"/><stop stop-opacity="1" stop-color="rgb(21.620178%, 54.606628%, 78.471375%)" offset="0.257812"/><stop stop-opacity="1" stop-color="rgb(21.673584%, 54.878235%, 78.652954%)" offset="0.265625"/><stop stop-opacity="1" stop-color="rgb(21.723938%, 55.140686%, 78.82843%)" offset="0.273437"/><stop stop-opacity="1" stop-color="rgb(21.775818%, 55.404663%, 79.005432%)" offset="0.28125"/><stop stop-opacity="1" stop-color="rgb(21.826172%, 55.667114%, 79.182434%)" offset="0.289062"/><stop stop-opacity="1" stop-color="rgb(21.878052%, 55.931091%, 79.35791%)" offset="0.296875"/><stop stop-opacity="1" stop-color="rgb(21.929932%, 56.193542%, 79.534912%)" offset="0.302121"/><stop stop-opacity="1" stop-color="rgb(21.955872%, 56.324768%, 79.623413%)" offset="0.304687"/><stop stop-opacity="1" stop-color="rgb(21.980286%, 56.455994%, 79.710388%)" offset="0.3125"/><stop stop-opacity="1" stop-color="rgb(22.032166%, 56.719971%, 79.88739%)" offset="0.320312"/><stop stop-opacity="1" stop-color="rgb(22.084045%, 56.982422%, 80.062866%)" offset="0.328125"/><stop stop-opacity="1" stop-color="rgb(22.134399%, 57.246399%, 80.239868%)" offset="0.335937"/><stop stop-opacity="1" stop-color="rgb(22.186279%, 57.50885%, 80.415344%)" offset="0.34375"/><stop stop-opacity="1" stop-color="rgb(22.236633%, 57.772827%, 80.592346%)" offset="0.351562"/><stop stop-opacity="1" stop-color="rgb(22.288513%, 58.035278%, 80.767822%)" offset="0.359375"/><stop stop-opacity="1" stop-color="rgb(22.340393%, 58.299255%, 80.944824%)" offset="0.367188"/><stop stop-opacity="1" stop-color="rgb(22.390747%, 58.561707%, 81.1203%)" offset="0.375"/><stop stop-opacity="1" stop-color="rgb(22.442627%, 58.825684%, 81.297302%)" offset="0.382812"/><stop stop-opacity="1" stop-color="rgb(22.494507%, 59.088135%, 81.474304%)" offset="0.390625"/><stop stop-opacity="1" stop-color="rgb(22.544861%, 59.350586%, 81.64978%)" offset="0.398438"/><stop stop-opacity="1" stop-color="rgb(22.596741%, 59.614563%, 81.826782%)" offset="0.40625"/><stop stop-opacity="1" stop-color="rgb(22.647095%, 59.877014%, 82.002258%)" offset="0.414062"/><stop stop-opacity="1" stop-color="rgb(22.698975%, 60.140991%, 82.17926%)" offset="0.421875"/><stop stop-opacity="1" stop-color="rgb(22.750854%, 60.403442%, 82.354736%)" offset="0.429688"/><stop stop-opacity="1" stop-color="rgb(22.801208%, 60.667419%, 82.531738%)" offset="0.4375"/><stop stop-opacity="1" stop-color="rgb(22.853088%, 60.929871%, 82.707214%)" offset="0.445312"/><stop stop-opacity="1" stop-color="rgb(22.904968%, 61.193848%, 82.884216%)" offset="0.453125"/><stop stop-opacity="1" stop-color="rgb(22.955322%, 61.456299%, 83.059692%)" offset="0.460937"/><stop stop-opacity="1" stop-color="rgb(23.007202%, 61.71875%, 83.236694%)" offset="0.46875"/><stop stop-opacity="1" stop-color="rgb(23.057556%, 61.982727%, 83.413696%)" offset="0.476562"/><stop stop-opacity="1" stop-color="rgb(23.109436%, 62.245178%, 83.589172%)" offset="0.484375"/><stop stop-opacity="1" stop-color="rgb(23.161316%, 62.509155%, 83.766174%)" offset="0.492188"/><stop stop-opacity="1" stop-color="rgb(23.21167%, 62.771606%, 83.94165%)" offset="0.5"/><stop stop-opacity="1" stop-color="rgb(23.26355%, 63.035583%, 84.118652%)" offset="0.507812"/><stop stop-opacity="1" stop-color="rgb(23.31543%, 63.298035%, 84.294128%)" offset="0.515625"/><stop stop-opacity="1" stop-color="rgb(23.365784%, 63.562012%, 84.47113%)" offset="0.523437"/><stop stop-opacity="1" stop-color="rgb(23.417664%, 63.824463%, 84.646606%)" offset="0.53125"/><stop stop-opacity="1" stop-color="rgb(23.468018%, 64.08844%, 84.823608%)" offset="0.539062"/><stop stop-opacity="1" stop-color="rgb(23.519897%, 64.350891%, 84.999084%)" offset="0.546875"/><stop stop-opacity="1" stop-color="rgb(23.571777%, 64.613342%, 85.176086%)" offset="0.554687"/><stop stop-opacity="1" stop-color="rgb(23.622131%, 64.877319%, 85.351562%)" offset="0.5625"/><stop stop-opacity="1" stop-color="rgb(23.674011%, 65.139771%, 85.528564%)" offset="0.570312"/><stop stop-opacity="1" stop-color="rgb(23.725891%, 65.403748%, 85.705566%)" offset="0.578125"/><stop stop-opacity="1" stop-color="rgb(23.776245%, 65.666199%, 85.881042%)" offset="0.585938"/><stop stop-opacity="1" stop-color="rgb(23.828125%, 65.930176%, 86.058044%)" offset="0.59375"/><stop stop-opacity="1" stop-color="rgb(23.880005%, 66.192627%, 86.233521%)" offset="0.601562"/><stop stop-opacity="1" stop-color="rgb(23.930359%, 66.456604%, 86.410522%)" offset="0.609375"/><stop stop-opacity="1" stop-color="rgb(23.982239%, 66.719055%, 86.585999%)" offset="0.617187"/><stop stop-opacity="1" stop-color="rgb(24.032593%, 66.981506%, 86.763%)" offset="0.625"/><stop stop-opacity="1" stop-color="rgb(24.084473%, 67.245483%, 86.938477%)" offset="0.632812"/><stop stop-opacity="1" stop-color="rgb(24.136353%, 67.507935%, 87.115479%)" offset="0.640625"/><stop stop-opacity="1" stop-color="rgb(24.186707%, 67.771912%, 87.290955%)" offset="0.648438"/><stop stop-opacity="1" stop-color="rgb(24.238586%, 68.034363%, 87.467957%)" offset="0.65625"/><stop stop-opacity="1" stop-color="rgb(24.290466%, 68.29834%, 87.644958%)" offset="0.664062"/><stop stop-opacity="1" stop-color="rgb(24.34082%, 68.560791%, 87.820435%)" offset="0.671875"/><stop stop-opacity="1" stop-color="rgb(24.3927%, 68.824768%, 87.997437%)" offset="0.679687"/><stop stop-opacity="1" stop-color="rgb(24.443054%, 69.087219%, 88.172913%)" offset="0.6875"/><stop stop-opacity="1" stop-color="rgb(24.494934%, 69.351196%, 88.349915%)" offset="0.695312"/><stop stop-opacity="1" stop-color="rgb(24.546814%, 69.613647%, 88.525391%)" offset="0.697879"/><stop stop-opacity="1" stop-color="rgb(24.572754%, 69.744873%, 88.613892%)" offset="0.703125"/><stop stop-opacity="1" stop-color="rgb(24.597168%, 69.876099%, 88.702393%)" offset="0.710938"/><stop stop-opacity="1" stop-color="rgb(24.649048%, 70.140076%, 88.877869%)" offset="0.71875"/><stop stop-opacity="1" stop-color="rgb(24.700928%, 70.402527%, 89.054871%)" offset="0.726562"/><stop stop-opacity="1" stop-color="rgb(24.751282%, 70.666504%, 89.230347%)" offset="0.734375"/><stop stop-opacity="1" stop-color="rgb(24.803162%, 70.928955%, 89.407349%)" offset="0.742187"/><stop stop-opacity="1" stop-color="rgb(24.853516%, 71.192932%, 89.582825%)" offset="0.75"/><stop stop-opacity="1" stop-color="rgb(24.905396%, 71.455383%, 89.759827%)" offset="0.757812"/><stop stop-opacity="1" stop-color="rgb(24.957275%, 71.71936%, 89.936829%)" offset="0.765625"/><stop stop-opacity="1" stop-color="rgb(25.007629%, 71.981812%, 90.112305%)" offset="0.773437"/><stop stop-opacity="1" stop-color="rgb(25.059509%, 72.244263%, 90.289307%)" offset="0.78125"/><stop stop-opacity="1" stop-color="rgb(25.111389%, 72.50824%, 90.464783%)" offset="0.789062"/><stop stop-opacity="1" stop-color="rgb(25.161743%, 72.770691%, 90.641785%)" offset="0.796875"/><stop stop-opacity="1" stop-color="rgb(25.213623%, 73.034668%, 90.817261%)" offset="0.804687"/><stop stop-opacity="1" stop-color="rgb(25.263977%, 73.297119%, 90.994263%)" offset="0.8125"/><stop stop-opacity="1" stop-color="rgb(25.315857%, 73.561096%, 91.169739%)" offset="0.820312"/><stop stop-opacity="1" stop-color="rgb(25.367737%, 73.823547%, 91.346741%)" offset="0.828125"/><stop stop-opacity="1" stop-color="rgb(25.418091%, 74.087524%, 91.522217%)" offset="0.835937"/><stop stop-opacity="1" stop-color="rgb(25.469971%, 74.349976%, 91.699219%)" offset="0.84375"/><stop stop-opacity="1" stop-color="rgb(25.497437%, 74.490356%, 91.793823%)" offset="0.875"/><stop stop-opacity="1" stop-color="rgb(25.498962%, 74.499512%, 91.799927%)" offset="1"/></linearGradient></defs><rect x="-37.5" width="450" fill="#ffffff" y="-37.499999" height="449.999989" fill-opacity="1"/><rect x="-37.5" width="450" fill="#efefef" y="-37.499999" height="449.999989" fill-opacity="1"/><rect x="-37.5" width="450" fill="#ffffff" y="-37.499999" height="449.999989" fill-opacity="1"/><rect x="-37.5" width="450" fill="#efefef" y="-37.499999" height="449.999989" fill-opacity="1"/><g clip-path="url(#id2)"><path fill="url(#id3)" d="M 0.265625 0.265625 L 0.265625 374.734375 L 374.734375 374.734375 L 374.734375 0.265625 Z M 0.265625 0.265625 " fill-rule="nonzero"/></g><path stroke-linecap="butt" transform="matrix(0.119959, 0, 0, 0.119959, 0.0000045, 0)" fill="none" stroke-linejoin="miter" d="M 2.214269 2.214307 L 3123.865984 2.214307 L 3123.865984 3123.866022 L 2.214269 3123.866022 Z M 2.214269 2.214307 " stroke="#332c2b" stroke-width="4.41" stroke-opacity="1" stroke-miterlimit="22.926001"/><g mask="url(#id4)"><g transform="matrix(1, 0, 0, 1, 1, 0)"><g clip-path="url(#id6)"><path fill="#9aa7b2" d="M 288.855469 155.808594 C 291.464844 155.808594 287.015625 157.652344 288.855469 155.808594 Z M 288.855469 155.808594 " fill-opacity="1" fill-rule="nonzero"/><g clip-path="url(#id5)"><path fill="#9aa7b2" d="M 350.992188 155.183594 C 352.394531 155.03125 353.796875 155.109375 354.886719 155.183594 C 355.199219 156.585938 351.460938 164.839844 345 169.511719 C 346.875 169.714844 347.828125 170.085938 348.800781 170.386719 C 348.957031 170.355469 349.117188 170.324219 349.28125 170.292969 C 349.214844 170.351562 349.144531 170.410156 349.078125 170.46875 C 349.144531 170.488281 349.210938 170.503906 349.28125 170.523438 C 348.269531 173.328125 336.898438 185.394531 334.175781 185.628906 C 336.277344 186.011719 340.257812 186.746094 341.574219 187.652344 C 342.816406 188.511719 331.0625 199.40625 322.886719 200.5 C 325.367188 201.585938 332.039062 202.535156 331.839844 203.535156 C 331.683594 204.546875 322.027344 213.890625 314.320312 213.96875 C 316.421875 216.070312 320.625 215.757812 321.484375 217.472656 C 322.339844 219.183594 309.957031 226.113281 301.316406 227.203125 C 301.625 228.296875 306.542969 229.308594 308.324219 230.085938 C 310.113281 230.863281 303.027344 239.039062 289.246094 238.105469 C 290.257812 239.660156 293.683594 241.296875 294.074219 242.230469 C 294.851562 243.945312 287.84375 247.367188 277.410156 249.3125 C 278.734375 251.027344 282.625 250.40625 282.316406 252.507812 C 282.003906 254.609375 272.972656 259.4375 263.703125 259.28125 C 264.175781 260.601562 266.117188 261.773438 266.042969 263.40625 C 265.976562 264.8125 257.394531 266.621094 252.316406 268.382812 C 252.394531 268.941406 251.761719 269.632812 251.328125 270.386719 C 251.625 270.585938 251.894531 270.757812 252.089844 271 C 257.769531 267.835938 262.171875 266.675781 262.539062 267.84375 C 262.773438 268.546875 261.683594 270.804688 261.914062 272.046875 C 268.359375 265.605469 275.71875 266.40625 275.035156 267.769531 C 275.046875 267.769531 275.058594 267.765625 275.074219 267.765625 C 275.058594 267.773438 275.042969 267.78125 275.023438 267.789062 C 274.421875 268.996094 272.511719 271.523438 272.816406 272.203125 C 277.644531 268.933594 286.988281 266.988281 287.300781 268.234375 C 287.609375 269.480469 285.351562 271.195312 285.195312 273.214844 C 289.167969 269.871094 298.125 270.335938 298.667969 270.804688 C 299.210938 271.195312 296.253906 274.617188 295.476562 276.253906 C 300.070312 273.214844 310.816406 273.527344 310.582031 274.539062 C 310.269531 275.554688 308.789062 277.421875 307.703125 278.824219 C 309.101562 277.734375 320.160156 278.824219 321.949219 279.835938 C 321.484375 280.457031 321.25 281.160156 320.238281 282.25 C 325.53125 281.78125 331.0625 284.273438 331.527344 285.128906 C 331.515625 285.144531 331.5 285.160156 331.488281 285.175781 C 331.527344 285.183594 331.566406 285.195312 331.605469 285.207031 C 331.542969 285.21875 331.488281 285.230469 331.429688 285.242188 C 330.964844 285.757812 330.308594 286.335938 329.582031 286.84375 C 333.609375 287.074219 352.28125 291.007812 355.230469 293.269531 C 355.273438 293.28125 355.3125 293.292969 355.355469 293.304688 C 355.316406 293.3125 355.277344 293.320312 355.238281 293.332031 C 352.242188 295.511719 333.457031 298.753906 329.347656 298.832031 C 330.125 299.378906 330.828125 300 331.292969 300.546875 C 330.75 301.324219 325.144531 303.660156 319.847656 303.035156 C 320.761719 304.089844 320.976562 304.703125 321.355469 305.328125 C 321.425781 305.367188 321.492188 305.40625 321.5625 305.449219 C 321.515625 305.445312 321.46875 305.441406 321.425781 305.4375 C 321.445312 305.46875 321.460938 305.5 321.484375 305.527344 C 319.691406 306.542969 308.554688 307.242188 307.152344 306.074219 C 307.542969 306.574219 310.074219 309.910156 309.875 310.507812 C 309.878906 310.507812 309.878906 310.511719 309.878906 310.511719 C 309.878906 310.511719 309.878906 310.511719 309.875 310.511719 C 309.558594 311.4375 299.25 311.285156 294.851562 308.175781 C 295.628906 309.878906 298.597656 313.550781 297.847656 313.800781 C 297.863281 313.824219 297.875 313.839844 297.886719 313.859375 C 297.863281 313.847656 297.839844 313.832031 297.8125 313.820312 C 296.761719 314.253906 288.203125 314.304688 284.496094 310.902344 C 284.574219 312.925781 286.832031 314.722656 286.441406 315.960938 C 286.132812 317.207031 276.789062 314.949219 272.117188 311.523438 C 271.726562 312.148438 273.675781 314.871094 274.21875 316.117188 C 274.761719 317.285156 267.519531 318.0625 261.214844 311.289062 C 260.980469 312.457031 261.914062 314.871094 261.683594 315.492188 C 261.292969 316.738281 256.308594 315.183594 250.15625 311.289062 C 250.003906 312.75 252.195312 314.207031 251.136719 315.066406 C 251.148438 315.082031 251.160156 315.089844 251.167969 315.105469 C 251.152344 315.097656 251.132812 315.089844 251.113281 315.085938 C 249.738281 316.003906 243.144531 314.015625 238.867188 309.886719 C 238.640625 310.566406 238.78125 311.484375 238.582031 312.238281 C 238.597656 312.257812 238.613281 312.28125 238.632812 312.300781 C 238.613281 312.292969 238.589844 312.285156 238.570312 312.273438 C 238.273438 313.351562 237.757812 313.246094 236.367188 312.679688 C 235.988281 313.140625 234.625 313.769531 234.273438 314.402344 C 240.382812 313.953125 244.003906 317.652344 242.949219 318.113281 C 242.960938 318.125 242.976562 318.132812 242.992188 318.140625 C 242.960938 318.136719 242.929688 318.136719 242.898438 318.136719 C 241.941406 318.503906 239.953125 318.875 239.878906 319.386719 C 243.851562 319.855469 249.535156 323.046875 249.144531 323.824219 C 248.753906 324.605469 246.808594 324.449219 245.796875 325.460938 C 249.378906 325.460938 253.816406 329.820312 253.894531 330.289062 C 253.972656 330.753906 250.9375 331.222656 249.765625 331.6875 C 253.417969 332.144531 259.109375 337.210938 258.308594 337.667969 C 258.320312 337.675781 258.324219 337.679688 258.332031 337.683594 C 258.316406 337.683594 258.304688 337.683594 258.289062 337.679688 C 257.644531 338.035156 256.078125 338.320312 254.984375 338.539062 C 256.230469 338.617188 261.449219 344.144531 261.914062 345.46875 C 261.878906 345.480469 261.84375 345.492188 261.808594 345.503906 C 261.820312 345.519531 261.828125 345.53125 261.835938 345.546875 C 261.148438 345.65625 261.027344 345.855469 259.96875 345.9375 C 262.929688 348.117188 264.640625 351.855469 264.484375 352.554688 C 264.019531 352.554688 263.394531 352.632812 262.695312 352.554688 C 264.726562 354.515625 272.664062 365.015625 273.128906 367.503906 C 270.636719 367.347656 259.34375 360.496094 257.167969 358.707031 C 257.320312 359.328125 257.320312 359.949219 257.398438 360.496094 C 256.777344 360.730469 252.804688 359.40625 250.390625 356.679688 C 250.390625 357.695312 250.238281 358.160156 250.160156 358.707031 C 250.136719 358.699219 250.105469 358.691406 250.082031 358.683594 L 250.082031 358.707031 C 245.324219 355.933594 242.664062 353.242188 242.527344 352.554688 C 242.449219 353.722656 242.292969 355.433594 241.984375 356.058594 C 241.667969 356.679688 236.0625 351.777344 235.207031 348.117188 C 234.816406 349.285156 234.738281 352.398438 234.273438 352.398438 C 233.808594 352.398438 229.054688 348.425781 228.667969 344.847656 C 227.808594 345.9375 228.121094 347.804688 227.421875 348.273438 C 226.71875 348.738281 222.90625 343.367188 221.96875 339.472656 C 221.503906 339.628906 221.269531 341.96875 221.035156 342.820312 C 220.800781 343.679688 216.675781 340.796875 216.441406 334.492188 C 215.738281 335.035156 215.195312 336.671875 214.808594 336.90625 C 214.027344 337.371094 212.160156 334.335938 210.757812 329.585938 C 210.121094 330.222656 210.421875 333.730469 208.273438 330.941406 C 208.269531 331.007812 208.269531 331.074219 208.265625 331.144531 C 207.75 330.0625 205.890625 327.589844 205.539062 323.824219 C 204.691406 324.3125 204 326.128906 202.980469 324.15625 C 202.976562 324.226562 202.972656 324.296875 202.972656 324.367188 C 202.183594 322.933594 201.40625 319.925781 200.324219 318.0625 C 199.699219 318.53125 199.933594 319.234375 199.078125 319.234375 C 197.363281 319.15625 196.738281 311.054688 196.507812 310.042969 C 195.785156 310.765625 195.347656 311.984375 194.804688 311.5 C 194.800781 311.507812 194.796875 311.515625 194.792969 311.523438 C 193.5 309.671875 193.726562 310.328125 193.089844 307.445312 C 191.863281 303.632812 190.363281 297.988281 188.988281 293.949219 C 183.949219 335.421875 190.957031 333.1875 189.421875 361.820312 L 185.761719 361.820312 C 186.800781 346.410156 183.191406 327.246094 183.191406 320.242188 C 183.191406 313.519531 184.398438 302.042969 185.179688 295.292969 C 182.222656 303.015625 181.421875 311.800781 180.074219 311.425781 C 180.050781 311.460938 180.027344 311.492188 180 311.523438 C 179.964844 311.464844 179.933594 311.40625 179.902344 311.351562 C 179.570312 311.132812 179.425781 310.558594 178.753906 309.886719 C 178.46875 311.117188 177.902344 319.457031 175.96875 319.054688 C 175.960938 319.089844 175.957031 319.121094 175.949219 319.15625 C 175.9375 319.117188 175.929688 319.082031 175.914062 319.046875 C 175.375 318.90625 175.484375 318.316406 174.9375 317.910156 C 173 321.089844 172.472656 325.9375 170.839844 324.609375 C 170.804688 324.683594 170.769531 324.761719 170.734375 324.839844 C 170.730469 324.722656 170.722656 324.613281 170.71875 324.503906 C 170.382812 324.195312 170.09375 323.808594 169.71875 323.667969 C 169.339844 327.773438 166.640625 332.136719 165.5625 331.828125 C 165.546875 331.859375 165.53125 331.890625 165.515625 331.921875 C 165.515625 331.882812 165.515625 331.847656 165.515625 331.8125 C 164.898438 331.574219 165.207031 330.0625 164.503906 329.429688 C 162.867188 334.257812 161 337.292969 160.222656 336.90625 C 159.832031 336.671875 159.210938 335.035156 158.585938 334.488281 C 158.351562 340.875 154.304688 343.679688 153.992188 342.820312 C 153.757812 341.964844 153.523438 339.628906 153.058594 339.472656 C 152.121094 343.367188 148.386719 348.738281 147.605469 348.269531 C 146.828125 347.804688 147.21875 345.855469 146.359375 344.847656 C 145.972656 348.347656 141.222656 352.320312 140.753906 352.398438 C 140.289062 352.398438 140.132812 349.363281 139.820312 348.117188 C 138.984375 351.691406 133.332031 356.84375 132.996094 355.941406 C 132.984375 355.957031 132.976562 355.96875 132.96875 355.980469 C 132.972656 355.953125 132.976562 355.925781 132.980469 355.902344 C 132.710938 355.191406 132.574219 353.707031 132.5 352.554688 C 132.269531 353.800781 126.191406 358.390625 124.871094 358.703125 C 124.863281 358.667969 124.859375 358.632812 124.855469 358.59375 C 124.832031 358.605469 124.8125 358.617188 124.792969 358.625 C 124.683594 357.382812 124.636719 357.394531 124.636719 356.679688 C 122.144531 359.40625 118.253906 360.730469 117.628906 360.496094 C 117.628906 360.027344 117.707031 359.40625 117.859375 358.703125 C 115.683594 360.496094 104.390625 367.347656 101.898438 367.503906 C 101.90625 367.457031 101.921875 367.410156 101.9375 367.359375 C 101.847656 367.40625 101.757812 367.457031 101.664062 367.503906 C 101.851562 367.242188 107.800781 356.910156 112.332031 352.554688 C 111.78125 352.621094 111.164062 352.628906 110.710938 352.574219 C 110.609375 352.59375 110.5 352.613281 110.386719 352.632812 C 110.582031 351.542969 112.238281 348.015625 115.058594 345.9375 C 113.824219 345.839844 114.015625 345.632812 112.957031 345.546875 C 114.21875 343.449219 118.878906 338.613281 120.042969 338.539062 C 118.910156 338.3125 117.335938 338.011719 116.675781 337.636719 C 116.605469 337.652344 116.535156 337.667969 116.460938 337.683594 C 116.503906 337.644531 116.546875 337.609375 116.589844 337.570312 C 116.308594 336.996094 121.527344 332.222656 125.261719 331.6875 C 124.140625 331.242188 121.296875 330.792969 121.140625 330.34375 C 121.085938 330.351562 121.03125 330.359375 120.976562 330.367188 C 121.035156 330.320312 121.09375 330.277344 121.152344 330.234375 C 121.480469 329.558594 125.757812 325.535156 129.230469 325.460938 C 128.316406 324.550781 126.445312 324.597656 125.921875 323.875 C 125.855469 323.886719 125.792969 323.890625 125.726562 323.902344 C 125.777344 323.863281 125.824219 323.828125 125.875 323.792969 C 125.640625 322.964844 131.230469 319.847656 135.148438 319.386719 C 134.996094 318.933594 132.855469 318.476562 132.023438 318.09375 C 131.957031 318.117188 131.890625 318.140625 131.800781 318.140625 C 131.835938 318.105469 131.871094 318.074219 131.925781 318.042969 C 131.1875 317.574219 134.453125 313.941406 140.753906 314.40625 C 140.3125 313.742188 138.894531 313.011719 138.613281 312.605469 C 137.121094 313.230469 136.542969 313.398438 136.222656 312.273438 C 136.199219 312.285156 136.179688 312.292969 136.160156 312.300781 C 136.175781 312.28125 136.195312 312.261719 136.214844 312.238281 C 136.011719 311.488281 136.152344 310.566406 135.925781 309.886719 C 131.367188 314.292969 124.589844 315.996094 123.679688 315.085938 C 123.660156 315.09375 123.640625 315.101562 123.625 315.105469 C 123.636719 315.09375 123.648438 315.082031 123.65625 315.070312 C 122.597656 314.207031 124.792969 312.75 124.636719 311.289062 C 118.484375 315.183594 113.5 316.738281 113.113281 315.492188 C 112.878906 314.871094 113.8125 312.457031 113.578125 311.289062 C 107.496094 317.820312 100.546875 317.332031 100.546875 316.238281 C 100.546875 315.742188 103.109375 312.214844 102.675781 311.523438 C 98.007812 314.949219 88.664062 317.207031 88.351562 315.960938 C 87.960938 314.71875 90.21875 312.925781 90.296875 310.902344 C 86.589844 314.304688 78.035156 314.253906 76.980469 313.820312 C 76.953125 313.832031 76.929688 313.847656 76.902344 313.859375 C 76.917969 313.839844 76.929688 313.824219 76.945312 313.800781 C 76.242188 313.453125 79.144531 309.925781 79.941406 308.175781 C 75.542969 311.285156 65.238281 311.4375 64.917969 310.511719 C 64.910156 310.511719 64.914062 310.507812 64.917969 310.507812 C 64.71875 309.914062 67.253906 306.566406 67.636719 306.074219 C 66.269531 307.214844 55.625 306.574219 53.457031 305.597656 C 53.40625 305.601562 53.359375 305.605469 53.3125 305.605469 C 53.335938 305.59375 53.359375 305.578125 53.382812 305.566406 C 53.359375 305.550781 53.332031 305.542969 53.3125 305.527344 C 53.777344 304.828125 53.933594 304.203125 54.945312 303.039062 C 49.648438 303.660156 44.042969 301.324219 43.5 300.546875 C 43.964844 300 44.667969 299.378906 45.445312 298.832031 C 41.335938 298.753906 22.558594 295.515625 19.554688 293.332031 C 19.515625 293.324219 19.480469 293.316406 19.4375 293.304688 C 19.480469 293.292969 19.519531 293.28125 19.5625 293.269531 C 22.511719 291.007812 41.183594 287.074219 45.210938 286.84375 C 44.488281 286.335938 43.828125 285.757812 43.367188 285.242188 C 43.304688 285.230469 43.25 285.21875 43.1875 285.207031 C 43.226562 285.195312 43.265625 285.1875 43.304688 285.175781 C 43.292969 285.160156 43.277344 285.144531 43.265625 285.132812 C 43.734375 284.273438 49.261719 281.78125 54.558594 282.25 C 53.539062 281.15625 53.300781 280.441406 52.84375 279.835938 C 54.636719 278.824219 65.691406 277.734375 67.09375 278.824219 C 66.003906 277.421875 64.523438 275.554688 64.210938 274.539062 C 63.980469 273.53125 74.722656 273.21875 79.316406 276.253906 C 78.539062 274.617188 75.578125 271.195312 76.125 270.804688 C 76.671875 270.335938 85.625 269.871094 89.597656 273.21875 C 89.4375 271.195312 87.183594 269.480469 87.496094 268.234375 C 87.804688 266.988281 97.148438 268.933594 101.976562 272.207031 C 102.28125 271.527344 100.386719 269.015625 99.773438 267.800781 C 99.753906 267.792969 99.738281 267.777344 99.71875 267.769531 C 99.730469 267.765625 99.746094 267.765625 99.757812 267.765625 C 99.09375 266.433594 106.390625 265.5625 112.878906 272.050781 C 113.089844 270.925781 112.222656 268.976562 112.222656 268.089844 C 112.222656 265.78125 120.132812 269.574219 122.605469 270.945312 C 122.800781 270.683594 123.09375 270.503906 123.410156 270.296875 C 122.964844 269.554688 122.367188 268.878906 122.488281 268.339844 C 117.417969 266.5625 108.742188 264.742188 108.675781 263.332031 C 108.597656 261.695312 110.464844 260.527344 111.007812 259.203125 C 101.742188 259.28125 92.710938 254.53125 92.402344 252.429688 C 92.085938 250.328125 95.980469 250.953125 97.304688 249.238281 C 86.792969 247.289062 79.785156 243.867188 80.5625 242.15625 C 80.953125 241.21875 84.457031 239.585938 85.390625 238.027344 C 71.609375 238.960938 64.523438 230.789062 66.3125 230.007812 C 68.105469 229.230469 73.011719 228.21875 73.324219 227.125 C 64.757812 226.035156 52.296875 219.109375 53.15625 217.394531 C 53.933594 215.757812 58.214844 215.992188 60.320312 213.890625 C 52.609375 213.816406 42.953125 204.46875 42.796875 203.457031 C 42.566406 202.449219 49.261719 201.511719 51.753906 200.421875 C 43.65625 199.332031 31.820312 188.433594 33.066406 187.574219 C 34.3125 186.71875 37.894531 186.019531 40.460938 185.550781 C 37.738281 185.398438 26.289062 173.328125 25.355469 170.445312 C 26.523438 170.214844 27.460938 169.667969 29.640625 169.4375 C 23.175781 164.761719 19.4375 156.511719 19.75 155.109375 C 19.8125 155.105469 19.882812 155.101562 19.945312 155.09375 C 19.933594 155.074219 19.917969 155.054688 19.90625 155.03125 C 19.941406 155.054688 19.96875 155.070312 20.003906 155.09375 C 21.054688 155.023438 22.347656 154.964844 23.644531 155.109375 C 19.207031 150.828125 1.917969 127.9375 0.984375 122.644531 C 1.039062 122.644531 1.09375 122.652344 1.152344 122.660156 C 1.148438 122.65625 1.144531 122.648438 1.140625 122.644531 C 1.152344 122.652344 1.164062 122.65625 1.171875 122.664062 C 6.976562 123.359375 31.015625 137.871094 35.636719 141.796875 C 35.324219 140.472656 35.246094 139.070312 35.167969 137.984375 C 36.570312 137.511719 45.136719 140.394531 50.507812 146.3125 C 50.507812 144.054688 50.972656 143.121094 51.128906 141.953125 C 51.183594 141.964844 51.238281 141.976562 51.300781 141.996094 C 51.296875 141.980469 51.292969 141.96875 51.289062 141.953125 C 51.304688 141.972656 51.324219 141.992188 51.34375 142.007812 C 54.667969 143.015625 67.335938 152.753906 67.796875 155.34375 C 68.027344 152.773438 68.339844 149.113281 69.042969 147.792969 C 69.742188 146.46875 81.808594 157.054688 83.757812 165.078125 C 84.558594 162.34375 84.765625 155.480469 85.933594 155.832031 C 85.933594 155.824219 85.9375 155.816406 85.9375 155.808594 C 85.941406 155.816406 85.941406 155.824219 85.945312 155.832031 C 87.382812 156.253906 97.246094 164.613281 98.085938 172.160156 C 99.953125 169.824219 99.332031 165.621094 100.886719 164.609375 C 102.445312 163.597656 110.699219 175.199219 112.644531 183.683594 C 113.65625 183.292969 114.125 178.3125 114.746094 176.441406 C 115.371094 174.574219 124.246094 180.804688 124.714844 194.582031 C 126.195312 193.492188 127.363281 189.910156 128.296875 189.367188 C 129.929688 188.433594 134.058594 194.972656 137.097656 205.25 C 138.644531 203.777344 137.683594 199.699219 139.820312 200.125 L 139.820312 200.109375 L 139.828125 200.125 C 141.996094 200.492188 147.542969 208.871094 148.386719 217.941406 C 149.632812 217.238281 150.566406 215.214844 152.203125 215.136719 C 152.820312 215.109375 153.691406 216.699219 154.667969 218.90625 C 155.191406 219.046875 155.773438 219.171875 156.484375 219.03125 C 154.929688 213.738281 147.761719 201.902344 149.085938 200.5 C 150.410156 199.097656 152.980469 199.953125 154.535156 199.332031 C 147.140625 191.3125 144.183594 179.636719 145.738281 177.6875 C 147.296875 175.742188 149.789062 179.714844 152.359375 179.480469 C 145.738281 168.734375 143.246094 159.9375 145.351562 159.234375 C 146.519531 158.925781 150.566406 160.636719 152.746094 160.246094 C 141.324219 149.203125 142.316406 136.113281 144.945312 137.382812 C 144.945312 137.324219 144.953125 137.261719 144.957031 137.203125 C 144.992188 137.292969 145.03125 137.367188 145.070312 137.445312 C 147.304688 138.570312 151.640625 141.765625 152.746094 141.175781 C 147.046875 133.042969 142.964844 116.320312 145.511719 115.835938 C 145.507812 115.820312 145.507812 115.804688 145.507812 115.792969 C 145.515625 115.804688 145.523438 115.816406 145.535156 115.828125 C 147.703125 115.460938 150.742188 119.148438 154.148438 119.375 C 148.078125 112.523438 148.699219 96.796875 149.476562 95.785156 C 150.253906 94.769531 156.253906 99.832031 159.210938 101.234375 C 153.800781 93.347656 153.792969 74.214844 155.867188 74.804688 C 155.863281 74.789062 155.863281 74.777344 155.863281 74.761719 C 155.875 74.78125 155.886719 74.796875 155.894531 74.8125 C 157.730469 75.332031 161.003906 77.859375 163.335938 79.667969 C 161.390625 77.097656 162.949219 57.632812 164.738281 54.519531 C 164.765625 54.539062 164.792969 54.554688 164.820312 54.570312 C 164.820312 54.554688 164.816406 54.539062 164.816406 54.519531 C 164.832031 54.546875 164.847656 54.574219 164.867188 54.601562 C 165.992188 55.328125 167.144531 55.75 169.019531 57.476562 C 168.007812 48.132812 172.292969 38.402344 173.773438 37.546875 L 173.8125 37.589844 C 173.828125 37.550781 173.835938 37.507812 173.851562 37.46875 C 173.867188 37.542969 173.886719 37.605469 173.90625 37.679688 C 174.746094 38.519531 175.847656 39.640625 176.808594 40.96875 C 176.964844 33.730469 183.429688 0.640625 187.320312 -4.417969 C 187.335938 -4.398438 187.351562 -4.375 187.363281 -4.355469 C 187.375 -4.402344 187.386719 -4.449219 187.398438 -4.496094 C 187.421875 -4.402344 187.441406 -4.308594 187.464844 -4.214844 C 191.371094 1.449219 197.601562 33.820312 197.832031 40.96875 C 198.84375 39.570312 200.011719 38.402344 200.871094 37.546875 C 202.273438 38.402344 206.632812 48.132812 205.617188 57.476562 C 207.523438 55.726562 208.683594 55.3125 209.828125 54.566406 C 209.851562 54.523438 209.875 54.484375 209.902344 54.441406 C 209.902344 54.464844 209.898438 54.492188 209.898438 54.519531 C 209.898438 54.519531 209.898438 54.519531 209.902344 54.519531 C 211.695312 57.632812 213.25 77.097656 211.300781 79.664062 C 213.761719 77.824219 217.050781 75.226562 218.859375 74.78125 C 218.882812 74.75 218.910156 74.71875 218.933594 74.683594 C 218.929688 74.710938 218.921875 74.738281 218.917969 74.765625 C 220.652344 73.898438 220.996094 93.046875 215.429688 101.234375 C 218.261719 99.933594 224.171875 94.949219 225.117188 95.738281 C 225.132812 95.730469 225.148438 95.714844 225.164062 95.707031 C 225.15625 95.722656 225.144531 95.738281 225.136719 95.757812 C 225.988281 96.890625 226.519531 112.574219 220.492188 119.371094 C 223.917969 119.222656 226.972656 115.496094 229.140625 115.839844 C 229.164062 115.824219 229.1875 115.808594 229.210938 115.792969 C 229.203125 115.808594 229.195312 115.832031 229.183594 115.847656 C 231.609375 116.371094 227.605469 132.949219 221.894531 141.171875 C 223.027344 141.777344 227.527344 138.5 229.714844 137.378906 C 229.753906 137.320312 229.796875 137.265625 229.835938 137.203125 C 229.832031 137.242188 229.824219 137.285156 229.820312 137.324219 C 232.214844 136.328125 233.371094 149.152344 221.894531 160.246094 C 223.925781 160.625 227.851562 158.960938 229.164062 159.203125 L 229.210938 159.15625 C 229.207031 159.175781 229.203125 159.195312 229.195312 159.210938 C 231.613281 159.816406 228.53125 169.257812 222.28125 179.480469 C 224.773438 179.636719 227.34375 175.742188 228.898438 177.6875 C 230.457031 179.636719 227.5 191.3125 220.101562 199.332031 C 221.28125 199.746094 222.996094 199.402344 224.367188 199.816406 C 224.375 199.808594 224.378906 199.804688 224.386719 199.800781 C 224.382812 199.804688 224.382812 199.8125 224.378906 199.820312 C 224.8125 199.953125 225.214844 200.160156 225.554688 200.5 C 226.957031 201.898438 219.714844 213.734375 218.15625 219.027344 C 218.921875 219.183594 219.546875 219.019531 220.097656 218.871094 C 220.097656 218.871094 220.878906 217.082031 220.878906 217.082031 C 221.035156 216.851562 221.117188 216.695312 221.273438 216.460938 C 221.273438 216.476562 221.269531 216.492188 221.269531 216.507812 C 223.128906 213.308594 224.660156 217.179688 226.332031 218.019531 C 227.148438 208.410156 232.65625 202.007812 232.792969 201.746094 L 232.792969 201.808594 C 236.988281 197.015625 236.140625 203.917969 237.625 205.328125 C 240.804688 194.46875 245.054688 188.183594 246.480469 189.40625 C 246.488281 189.390625 246.492188 189.378906 246.5 189.367188 L 246.5 189.421875 C 247.421875 190.109375 248.566406 193.449219 250.003906 194.582031 C 250.46875 180.789062 259.410156 174.476562 259.988281 176.5 C 260.007812 176.480469 260.027344 176.457031 260.046875 176.441406 C 260.03125 176.476562 260.015625 176.511719 260.003906 176.542969 C 260.609375 178.484375 261.078125 183.300781 262.074219 183.683594 C 264.019531 175.195312 272.195312 163.59375 273.828125 164.609375 C 275.464844 165.621094 274.765625 169.824219 276.632812 172.160156 C 277.488281 164.460938 287.757812 155.886719 288.859375 155.808594 C 289.949219 155.734375 290.179688 162.425781 290.960938 165.074219 C 292.90625 157.058594 304.820312 146.542969 305.601562 147.867188 C 305.601562 147.871094 305.601562 147.875 305.601562 147.875 C 305.628906 147.847656 305.65625 147.820312 305.679688 147.789062 C 305.667969 147.84375 305.65625 147.898438 305.644531 147.953125 C 306.386719 149.339844 306.617188 152.898438 306.847656 155.421875 C 307.390625 152.773438 320.550781 142.730469 323.511719 142.027344 C 323.539062 142 323.558594 141.980469 323.585938 141.949219 C 323.566406 142.015625 323.550781 142.082031 323.535156 142.144531 C 323.769531 143.257812 324.132812 144.203125 324.132812 146.386719 C 329.382812 140.609375 337.675781 137.800781 339.359375 138.039062 C 339.398438 138.019531 339.433594 138 339.472656 137.980469 C 339.453125 138.003906 339.4375 138.027344 339.417969 138.050781 C 339.4375 138.050781 339.457031 138.054688 339.472656 138.058594 C 339.394531 139.070312 339.316406 140.472656 339.003906 141.875 C 343.625 137.949219 367.742188 123.433594 373.46875 122.742188 C 373.53125 122.707031 373.59375 122.675781 373.65625 122.644531 C 373.636719 122.671875 373.617188 122.699219 373.601562 122.726562 C 373.617188 122.726562 373.640625 122.722656 373.65625 122.722656 C 372.71875 128.089844 355.433594 150.980469 350.992188 155.183594 Z M 350.992188 155.183594 " fill-opacity="1" fill-rule="nonzero"/></g></g></g></g><g mask="url(#id7)"><g transform="matrix(1, 0, 0, 1, 0, 0)"><g clip-path="url(#id8)"><path fill="#23242c" d="M 370.320312 350.195312 C 370.320312 360.957031 360.957031 369.695312 350.972656 369.695312 L 19.5 369.695312 C 16.695312 369.695312 13.886719 369.070312 11.390625 367.980469 C 14.664062 371.410156 19.191406 373.441406 25.261719 373.441406 L 355.65625 373.441406 C 365.484375 373.441406 373.597656 365.328125 373.597656 355.5 L 373.597656 24.804688 C 373.597656 20.28125 371.878906 16.226562 369.226562 13.105469 C 370.007812 15.132812 370.320312 17.316406 370.320312 19.5 L 370.320312 350.195312 " fill-opacity="1" fill-rule="nonzero"/><path fill="#23242c" d="M 19.5 368.136719 L 350.660156 368.136719 C 360.492188 368.136719 368.601562 360.023438 368.601562 350.195312 L 368.601562 19.5 C 368.601562 9.671875 360.492188 1.558594 350.660156 1.558594 L 19.5 1.558594 C 9.671875 1.558594 1.558594 9.671875 1.558594 19.5 L 1.558594 350.195312 C 1.558594 360.179688 9.671875 368.136719 19.5 368.136719 " fill-opacity="1" fill-rule="nonzero"/><path fill="#23242c" d="M 367.199219 9.203125 C 363.765625 3.746094 357.683594 0 350.660156 0 L 19.5 0 C 8.738281 0 0 8.738281 0 19.5 L 0 350.195312 C 0 356.589844 3.121094 362.207031 7.800781 365.796875 C 11.234375 371.253906 17.316406 375 25.585938 375 L 355.5 375 C 366.261719 375 375 366.261719 375 355.5 L 375 24.804688 C 375 18.410156 371.878906 12.792969 367.199219 9.203125 M 1.558594 350.195312 L 1.558594 19.5 C 1.558594 9.671875 9.671875 1.558594 19.5 1.558594 L 350.660156 1.558594 C 360.492188 1.558594 368.601562 9.671875 368.601562 19.5 L 368.601562 350.195312 C 368.601562 360.023438 360.492188 368.136719 350.660156 368.136719 L 19.5 368.136719 C 9.671875 368.136719 1.558594 360.179688 1.558594 350.195312 M 373.597656 355.5 C 373.597656 365.328125 365.328125 373.441406 355.5 373.441406 L 25.585938 373.441406 C 19.34375 373.441406 14.820312 371.410156 11.546875 367.980469 C 14.042969 369.070312 16.695312 369.695312 19.65625 369.695312 L 350.816406 369.695312 C 361.582031 369.695312 370.320312 360.957031 370.320312 350.195312 L 370.320312 19.5 C 370.320312 17.316406 369.851562 15.132812 369.226562 13.105469 C 371.878906 16.226562 373.597656 20.28125 373.597656 24.804688 L 373.597656 355.5 " fill-opacity="1" fill-rule="nonzero"/></g></g></g><g clip-path="url(#id9)"><g clip-path="url(#id10)"><path fill="url(#id11)" d="M 123.683594 43.53125 L 123.683594 203.21875 L 251.183594 203.21875 L 251.183594 43.53125 Z M 123.683594 43.53125 " fill-rule="nonzero"/></g></g><g fill="#ffffff" fill-opacity="1"><g transform="translate(63.352605, 248.705887)"><g><path d="M 13.296875 0.3125 C 11.046875 0.3125 9.015625 -0.175781 7.203125 -1.15625 C 5.390625 -2.144531 3.96875 -3.507812 2.9375 -5.25 C 1.914062 -6.988281 1.40625 -8.945312 1.40625 -11.125 C 1.40625 -13.3125 1.921875 -15.273438 2.953125 -17.015625 C 3.992188 -18.753906 5.421875 -20.113281 7.234375 -21.09375 C 9.046875 -22.082031 11.078125 -22.578125 13.328125 -22.578125 C 15.148438 -22.578125 16.8125 -22.257812 18.3125 -21.625 C 19.820312 -20.988281 21.09375 -20.066406 22.125 -18.859375 L 19.453125 -16.34375 C 17.847656 -18.082031 15.867188 -18.953125 13.515625 -18.953125 C 11.984375 -18.953125 10.613281 -18.617188 9.40625 -17.953125 C 8.195312 -17.285156 7.253906 -16.359375 6.578125 -15.171875 C 5.898438 -13.984375 5.5625 -12.632812 5.5625 -11.125 C 5.5625 -9.625 5.898438 -8.28125 6.578125 -7.09375 C 7.253906 -5.90625 8.195312 -4.976562 9.40625 -4.3125 C 10.613281 -3.644531 11.984375 -3.3125 13.515625 -3.3125 C 15.867188 -3.3125 17.847656 -4.191406 19.453125 -5.953125 L 22.125 -3.40625 C 21.09375 -2.195312 19.816406 -1.273438 18.296875 -0.640625 C 16.785156 -0.00390625 15.117188 0.3125 13.296875 0.3125 Z M 13.296875 0.3125 "/></g></g></g><g fill="#ffffff" fill-opacity="1"><g transform="translate(96.711722, 248.705887)"><g><path d="M 17.421875 -5.15625 L 6.296875 -5.15625 L 4.109375 0 L -0.15625 0 L 9.859375 -22.265625 L 13.921875 -22.265625 L 23.96875 0 L 19.65625 0 Z M 16.0625 -8.390625 L 11.859375 -18.125 L 7.6875 -8.390625 Z M 16.0625 -8.390625 "/></g></g></g><g fill="#ffffff" fill-opacity="1"><g transform="translate(130.770416, 248.705887)"><g><path d="M 22.765625 -22.265625 L 22.765625 0 L 19.359375 0 L 7.09375 -15.078125 L 7.09375 0 L 2.984375 0 L 2.984375 -22.265625 L 6.390625 -22.265625 L 18.671875 -7.1875 L 18.671875 -22.265625 Z M 22.765625 -22.265625 "/></g></g></g><g fill="#ffffff" fill-opacity="1"><g transform="translate(166.768814, 248.705887)"><g><path d="M 22.765625 -22.265625 L 22.765625 0 L 19.359375 0 L 7.09375 -15.078125 L 7.09375 0 L 2.984375 0 L 2.984375 -22.265625 L 6.390625 -22.265625 L 18.671875 -7.1875 L 18.671875 -22.265625 Z M 22.765625 -22.265625 "/></g></g></g><g fill="#ffffff" fill-opacity="1"><g transform="translate(202.767212, 248.705887)"><g><path d="M 17.421875 -5.15625 L 6.296875 -5.15625 L 4.109375 0 L -0.15625 0 L 9.859375 -22.265625 L 13.921875 -22.265625 L 23.96875 0 L 19.65625 0 Z M 16.0625 -8.390625 L 11.859375 -18.125 L 7.6875 -8.390625 Z M 16.0625 -8.390625 "/></g></g></g><g fill="#ffffff" fill-opacity="1"><g transform="translate(236.825907, 248.705887)"><g><path d="M 18.765625 -11.578125 C 19.992188 -11.171875 20.96875 -10.492188 21.6875 -9.546875 C 22.40625 -8.609375 22.765625 -7.441406 22.765625 -6.046875 C 22.765625 -4.109375 22.019531 -2.613281 20.53125 -1.5625 C 19.050781 -0.519531 16.890625 0 14.046875 0 L 2.984375 0 L 2.984375 -22.265625 L 13.421875 -22.265625 C 16.046875 -22.265625 18.066406 -21.75 19.484375 -20.71875 C 20.910156 -19.6875 21.625 -18.269531 21.625 -16.46875 C 21.625 -15.363281 21.367188 -14.390625 20.859375 -13.546875 C 20.347656 -12.703125 19.648438 -12.046875 18.765625 -11.578125 Z M 7.125 -19.015625 L 7.125 -12.875 L 12.96875 -12.875 C 14.414062 -12.875 15.523438 -13.132812 16.296875 -13.65625 C 17.066406 -14.175781 17.453125 -14.9375 17.453125 -15.9375 C 17.453125 -16.945312 17.066406 -17.710938 16.296875 -18.234375 C 15.523438 -18.753906 14.414062 -19.015625 12.96875 -19.015625 Z M 13.796875 -3.25 C 16.992188 -3.25 18.59375 -4.316406 18.59375 -6.453125 C 18.59375 -8.597656 16.992188 -9.671875 13.796875 -9.671875 L 7.125 -9.671875 L 7.125 -3.25 Z M 13.796875 -3.25 "/></g></g></g><g fill="#ffffff" fill-opacity="1"><g transform="translate(271.266172, 248.705887)"><g><path d="M 2.984375 -22.265625 L 7.125 -22.265625 L 7.125 0 L 2.984375 0 Z M 2.984375 -22.265625 "/></g></g></g><g fill="#ffffff" fill-opacity="1"><g transform="translate(291.651528, 248.705887)"><g><path d="M 9.890625 0.3125 C 8.171875 0.3125 6.507812 0.0703125 4.90625 -0.40625 C 3.3125 -0.894531 2.046875 -1.546875 1.109375 -2.359375 L 2.546875 -5.5625 C 3.453125 -4.84375 4.566406 -4.253906 5.890625 -3.796875 C 7.222656 -3.335938 8.554688 -3.109375 9.890625 -3.109375 C 11.546875 -3.109375 12.78125 -3.375 13.59375 -3.90625 C 14.40625 -4.4375 14.8125 -5.140625 14.8125 -6.015625 C 14.8125 -6.648438 14.582031 -7.171875 14.125 -7.578125 C 13.675781 -7.992188 13.097656 -8.316406 12.390625 -8.546875 C 11.691406 -8.785156 10.742188 -9.050781 9.546875 -9.34375 C 7.847656 -9.75 6.472656 -10.148438 5.421875 -10.546875 C 4.367188 -10.953125 3.46875 -11.582031 2.71875 -12.4375 C 1.96875 -13.300781 1.59375 -14.46875 1.59375 -15.9375 C 1.59375 -17.164062 1.925781 -18.28125 2.59375 -19.28125 C 3.257812 -20.289062 4.265625 -21.09375 5.609375 -21.6875 C 6.953125 -22.28125 8.601562 -22.578125 10.5625 -22.578125 C 11.914062 -22.578125 13.25 -22.40625 14.5625 -22.0625 C 15.875 -21.726562 17.007812 -21.242188 17.96875 -20.609375 L 16.65625 -17.390625 C 15.6875 -17.960938 14.671875 -18.394531 13.609375 -18.6875 C 12.546875 -18.988281 11.519531 -19.140625 10.53125 -19.140625 C 8.894531 -19.140625 7.675781 -18.863281 6.875 -18.3125 C 6.082031 -17.757812 5.6875 -17.03125 5.6875 -16.125 C 5.6875 -15.488281 5.914062 -14.96875 6.375 -14.5625 C 6.832031 -14.15625 7.410156 -13.835938 8.109375 -13.609375 C 8.804688 -13.378906 9.757812 -13.113281 10.96875 -12.8125 C 12.625 -12.425781 13.976562 -12.023438 15.03125 -11.609375 C 16.09375 -11.203125 17 -10.570312 17.75 -9.71875 C 18.507812 -8.875 18.890625 -7.734375 18.890625 -6.296875 C 18.890625 -5.066406 18.554688 -3.953125 17.890625 -2.953125 C 17.222656 -1.960938 16.207031 -1.171875 14.84375 -0.578125 C 13.488281 0.015625 11.835938 0.3125 9.890625 0.3125 Z M 9.890625 0.3125 "/></g></g></g><g fill="#ffffff" fill-opacity="1"><g transform="translate(86.866455, 293.234032)"><g><path d="M 18.1875 -11.390625 L 22.09375 -11.390625 L 22.09375 -2.515625 C 20.945312 -1.597656 19.609375 -0.894531 18.078125 -0.40625 C 16.554688 0.0703125 14.992188 0.3125 13.390625 0.3125 C 11.117188 0.3125 9.070312 -0.175781 7.25 -1.15625 C 5.425781 -2.144531 3.992188 -3.507812 2.953125 -5.25 C 1.921875 -6.988281 1.40625 -8.945312 1.40625 -11.125 C 1.40625 -13.3125 1.921875 -15.273438 2.953125 -17.015625 C 3.992188 -18.753906 5.429688 -20.113281 7.265625 -21.09375 C 9.097656 -22.082031 11.160156 -22.578125 13.453125 -22.578125 C 15.316406 -22.578125 17.007812 -22.269531 18.53125 -21.65625 C 20.0625 -21.039062 21.347656 -20.140625 22.390625 -18.953125 L 19.78125 -16.40625 C 18.082031 -18.101562 16.035156 -18.953125 13.640625 -18.953125 C 12.066406 -18.953125 10.671875 -18.625 9.453125 -17.96875 C 8.234375 -17.3125 7.28125 -16.390625 6.59375 -15.203125 C 5.90625 -14.015625 5.5625 -12.65625 5.5625 -11.125 C 5.5625 -9.644531 5.90625 -8.3125 6.59375 -7.125 C 7.28125 -5.9375 8.234375 -5.003906 9.453125 -4.328125 C 10.671875 -3.648438 12.054688 -3.3125 13.609375 -3.3125 C 15.347656 -3.3125 16.875 -3.691406 18.1875 -4.453125 Z M 18.1875 -11.390625 "/></g></g></g><g fill="#ffffff" fill-opacity="1"><g transform="translate(121.656509, 293.234032)"><g><path d="M 19.6875 -3.46875 L 19.6875 0 L 2.984375 0 L 2.984375 -22.265625 L 19.234375 -22.265625 L 19.234375 -18.796875 L 7.125 -18.796875 L 7.125 -13 L 17.875 -13 L 17.875 -9.609375 L 7.125 -9.609375 L 7.125 -3.46875 Z M 19.6875 -3.46875 "/></g></g></g><g fill="#ffffff" fill-opacity="1"><g transform="translate(153.203117, 293.234032)"><g><path d="M 22.765625 -22.265625 L 22.765625 0 L 19.359375 0 L 7.09375 -15.078125 L 7.09375 0 L 2.984375 0 L 2.984375 -22.265625 L 6.390625 -22.265625 L 18.671875 -7.1875 L 18.671875 -22.265625 Z M 22.765625 -22.265625 "/></g></g></g><g fill="#ffffff" fill-opacity="1"><g transform="translate(189.201515, 293.234032)"><g><path d="M 13.390625 0.3125 C 11.117188 0.3125 9.070312 -0.175781 7.25 -1.15625 C 5.425781 -2.144531 3.992188 -3.515625 2.953125 -5.265625 C 1.921875 -7.015625 1.40625 -8.96875 1.40625 -11.125 C 1.40625 -13.289062 1.921875 -15.25 2.953125 -17 C 3.992188 -18.75 5.425781 -20.113281 7.25 -21.09375 C 9.070312 -22.082031 11.117188 -22.578125 13.390625 -22.578125 C 15.648438 -22.578125 17.691406 -22.082031 19.515625 -21.09375 C 21.347656 -20.113281 22.78125 -18.753906 23.8125 -17.015625 C 24.851562 -15.273438 25.375 -13.3125 25.375 -11.125 C 25.375 -8.945312 24.851562 -6.988281 23.8125 -5.25 C 22.78125 -3.507812 21.347656 -2.144531 19.515625 -1.15625 C 17.691406 -0.175781 15.648438 0.3125 13.390625 0.3125 Z M 13.390625 -3.3125 C 14.867188 -3.3125 16.203125 -3.644531 17.390625 -4.3125 C 18.578125 -4.976562 19.507812 -5.910156 20.1875 -7.109375 C 20.863281 -8.304688 21.203125 -9.644531 21.203125 -11.125 C 21.203125 -12.613281 20.863281 -13.957031 20.1875 -15.15625 C 19.507812 -16.351562 18.578125 -17.285156 17.390625 -17.953125 C 16.203125 -18.617188 14.867188 -18.953125 13.390625 -18.953125 C 11.898438 -18.953125 10.5625 -18.617188 9.375 -17.953125 C 8.1875 -17.285156 7.253906 -16.351562 6.578125 -15.15625 C 5.898438 -13.957031 5.5625 -12.613281 5.5625 -11.125 C 5.5625 -9.644531 5.898438 -8.304688 6.578125 -7.109375 C 7.253906 -5.910156 8.1875 -4.976562 9.375 -4.3125 C 10.5625 -3.644531 11.898438 -3.3125 13.390625 -3.3125 Z M 13.390625 -3.3125 "/></g></g></g><g fill="#ffffff" fill-opacity="1"><g transform="translate(226.217459, 293.234032)"><g><path d="M 23.4375 0 L 23.40625 -14.75 L 16.09375 -2.546875 L 14.25 -2.546875 L 6.9375 -14.5625 L 6.9375 0 L 2.984375 0 L 2.984375 -22.265625 L 6.390625 -22.265625 L 15.234375 -7.5 L 23.90625 -22.265625 L 27.3125 -22.265625 L 27.34375 0 Z M 23.4375 0 "/></g></g></g><g fill="#ffffff" fill-opacity="1"><g transform="translate(266.826637, 293.234032)"><g><path d="M 19.6875 -3.46875 L 19.6875 0 L 2.984375 0 L 2.984375 -22.265625 L 19.234375 -22.265625 L 19.234375 -18.796875 L 7.125 -18.796875 L 7.125 -13 L 17.875 -13 L 17.875 -9.609375 L 7.125 -9.609375 L 7.125 -3.46875 Z M 19.6875 -3.46875 "/></g></g></g><g fill="#ffffff" fill-opacity="1"><g transform="translate(131.846309, 330.124945)"><g><path d="M 2.3125 -19.5625 L 11.203125 -19.5625 C 13.328125 -19.5625 15.203125 -19.15625 16.828125 -18.34375 C 18.460938 -17.539062 19.734375 -16.398438 20.640625 -14.921875 C 21.546875 -13.453125 22 -11.738281 22 -9.78125 C 22 -7.820312 21.546875 -6.109375 20.640625 -4.640625 C 19.734375 -3.171875 18.460938 -2.03125 16.828125 -1.21875 C 15.203125 -0.40625 13.328125 0 11.203125 0 L 2.3125 0 Z M 10.984375 -3.71875 C 12.941406 -3.71875 14.503906 -4.257812 15.671875 -5.34375 C 16.835938 -6.4375 17.421875 -7.914062 17.421875 -9.78125 C 17.421875 -11.644531 16.835938 -13.117188 15.671875 -14.203125 C 14.503906 -15.296875 12.941406 -15.84375 10.984375 -15.84375 L 6.84375 -15.84375 L 6.84375 -3.71875 Z M 10.984375 -3.71875 "/></g></g></g><g fill="#ffffff" fill-opacity="1"><g transform="translate(176.552325, 330.124945)"><g><path d="M 15.203125 -4.1875 L 6.125 -4.1875 L 4.390625 0 L -0.25 0 L 8.46875 -19.5625 L 12.9375 -19.5625 L 21.6875 0 L 16.9375 0 Z M 13.78125 -7.625 L 10.671875 -15.125 L 7.578125 -7.625 Z M 13.78125 -7.625 "/></g></g></g><g fill="#ffffff" fill-opacity="1"><g transform="translate(219.582349, 330.124945)"><g><path d="M 11.796875 0.328125 C 9.765625 0.328125 7.929688 -0.109375 6.296875 -0.984375 C 4.671875 -1.859375 3.394531 -3.0625 2.46875 -4.59375 C 1.550781 -6.132812 1.09375 -7.863281 1.09375 -9.78125 C 1.09375 -11.695312 1.550781 -13.425781 2.46875 -14.96875 C 3.394531 -16.507812 4.671875 -17.71875 6.296875 -18.59375 C 7.929688 -19.46875 9.765625 -19.90625 11.796875 -19.90625 C 13.828125 -19.90625 15.648438 -19.46875 17.265625 -18.59375 C 18.890625 -17.71875 20.164062 -16.507812 21.09375 -14.96875 C 22.03125 -13.425781 22.5 -11.695312 22.5 -9.78125 C 22.5 -7.863281 22.03125 -6.132812 21.09375 -4.59375 C 20.164062 -3.0625 18.890625 -1.859375 17.265625 -0.984375 C 15.648438 -0.109375 13.828125 0.328125 11.796875 0.328125 Z M 11.796875 -3.515625 C 12.953125 -3.515625 13.992188 -3.78125 14.921875 -4.3125 C 15.859375 -4.84375 16.59375 -5.582031 17.125 -6.53125 C 17.65625 -7.488281 17.921875 -8.570312 17.921875 -9.78125 C 17.921875 -10.988281 17.65625 -12.066406 17.125 -13.015625 C 16.59375 -13.972656 15.859375 -14.71875 14.921875 -15.25 C 13.992188 -15.78125 12.953125 -16.046875 11.796875 -16.046875 C 10.640625 -16.046875 9.59375 -15.78125 8.65625 -15.25 C 7.726562 -14.71875 7 -13.972656 6.46875 -13.015625 C 5.9375 -12.066406 5.671875 -10.988281 5.671875 -9.78125 C 5.671875 -8.570312 5.9375 -7.488281 6.46875 -6.53125 C 7 -5.582031 7.726562 -4.84375 8.65625 -4.3125 C 9.59375 -3.78125 10.640625 -3.515625 11.796875 -3.515625 Z M 11.796875 -3.515625 "/></g></g></g></svg>