<svg viewBox="0 0 50 50" xmlns="http://www.w3.org/2000/svg" xmlns:xlink="http://www.w3.org/1999/xlink"><defs><path id="a" d="M0 0h48.15v48.318H0z"/></defs><g fill="none" fill-rule="evenodd"><g transform="translate(.123 .127)"><mask id="b" fill="#fff"><use xlink:href="#a"/></mask><path d="M48.15 24.159c0 13.343-10.779 24.159-24.075 24.159S0 37.502 0 24.159C0 10.816 10.779 0 24.075 0S48.15 10.816 48.15 24.159" fill="#8150E6" fill-rule="nonzero" mask="url(#b)"/></g><path d="m47.373 30.85-17.14-16.926-9.767-1.83-5.716 21.584 14.423 14.249c8.775-1.85 15.791-8.495 18.2-17.078" fill="#3C176B" fill-rule="nonzero"/><path d="M22.12 31.786V18.43h3.363c1.13 0 2.17.144 3.115.432a6.572 6.572 0 0 1 2.457 1.344c.095.083.186.171.276.262.012-1.81-.642-3.615-1.567-5.246a11.552 11.552 0 0 0-3.17-.44h-8.16v16.987c1.24.014 2.451.115 3.685.017" fill="#6B42BD" fill-rule="nonzero"/><path d="M36.247 21.102c-.585-1.418-1.365-2.597-2.34-3.536a9.432 9.432 0 0 0-3.364-2.096 11.478 11.478 0 0 0-.779-.248c.925 1.631 1.578 3.435 1.567 5.246.561.568.92 2.774 1.256 3.62l-10.468 9.59v-1.892c-1.234.098-2.445-.003-3.685-.017v5.557h7.722c1.248 0 2.52-.229 3.817-.688a10.835 10.835 0 0 0 3.54-2.08c1.062-.928 1.93-2.1 2.602-3.52.673-1.418 1.01-3.098 1.01-5.04 0-1.92-.293-3.477-.878-4.896" fill="#9B74EC" fill-rule="nonzero"/><path d="M21.184 30.025c1.15 0 2.238-.144 3.261-.432 1.024-.288 1.916-.736 2.677-1.344.76-.608 1.36-1.397 1.799-2.368.438-.97.658-2.149.658-3.536 0-1.365-.195-2.427-.585-3.408-.39-.981-.932-1.776-1.624-2.384a6.57 6.57 0 0 0-2.457-1.344c-.946-.288-1.984-.432-3.115-.432h-3.363v15.248h2.749ZM14.749 11.13h8.16c1.365 0 2.682.23 3.95.688a9.43 9.43 0 0 1 3.363 2.096c.975.939 1.755 2.117 2.34 3.536s.878 2.976.878 4.896c0 1.942-.337 3.622-1.01 5.04-.672 1.42-1.54 2.592-2.603 3.52a10.836 10.836 0 0 1-3.539 2.08c-1.297.46-2.57.688-3.817.688h-7.722V11.13Z" fill="#FFF" fill-rule="nonzero"/></g></svg>