<svg width="30" height="30" viewBox="0 0 30 30" fill="none" xmlns="http://www.w3.org/2000/svg">
<mask id="mask0_43_27784" style="mask-type:alpha" maskUnits="userSpaceOnUse" x="0" y="0" width="30" height="30">
<circle cx="15" cy="15" r="15" fill="#F8CF3C"/>
</mask>
<g mask="url(#mask0_43_27784)">
<circle cx="15" cy="15" r="15" fill="black"/>
<path fill-rule="evenodd" clip-rule="evenodd" d="M7.74141 4.8815H7.73506C7.72208 4.88649 7.71131 4.89597 7.70471 4.9082C7.69811 4.92044 7.6961 4.93463 7.69905 4.94822C7.8166 5.57924 7.71656 6.23147 7.41528 6.79825C7.114 7.36502 6.62932 7.81279 6.0405 8.06832C6.02776 8.07265 6.0169 8.08126 6.00979 8.09268C6.00237 8.10394 5.99901 8.11739 6.00025 8.13081V8.13081V8.15093C6.00662 8.16177 6.01626 8.17029 6.02779 8.17529C6.03982 8.17933 6.05283 8.17933 6.06486 8.17529C6.69727 8.05715 7.35105 8.15761 7.91882 8.46017C8.48659 8.76272 8.93458 9.24937 9.1892 9.84019C9.19439 9.85326 9.20406 9.86405 9.21648 9.87064C9.22889 9.87724 9.24325 9.87921 9.25698 9.8762H9.26439C9.27173 9.87403 9.27857 9.87043 9.28451 9.86561C9.29051 9.86098 9.29555 9.85523 9.29934 9.84867C9.30327 9.84182 9.30579 9.83426 9.30676 9.82643C9.30835 9.81874 9.30835 9.81081 9.30676 9.80313C9.1892 9.17211 9.28924 8.51988 9.59052 7.9531C9.8918 7.38633 10.3765 6.93856 10.9653 6.68303C10.9775 6.67842 10.9879 6.6699 10.9948 6.65879C11.0017 6.64768 11.0047 6.63461 11.0034 6.6216V6.6216V6.60042C10.9972 6.58924 10.9875 6.58033 10.9759 6.575C10.9638 6.57111 10.9509 6.57111 10.9388 6.575C10.3075 6.6926 9.65504 6.59233 9.08819 6.29063C8.52134 5.98892 8.07374 5.50366 7.81872 4.91433C7.81353 4.90127 7.80386 4.89048 7.79144 4.88389C7.77903 4.87729 7.76468 4.87532 7.75094 4.87832L7.74141 4.8815Z" fill="#F8CF3C"/>
<path fill-rule="evenodd" clip-rule="evenodd" d="M2.5528 13.879C2.54887 13.8807 2.5456 13.8836 2.54351 13.8874C2.54202 13.8916 2.54202 13.8962 2.54351 13.9004C2.58144 14.103 2.54932 14.3126 2.45242 14.4946C2.35551 14.6766 2.19958 14.8202 2.01025 14.9018C2.00645 14.9033 2.00321 14.9059 2.00096 14.9093C1.99968 14.9132 1.99968 14.9174 2.00096 14.9214V14.9214C2.003 14.9251 2.00628 14.9281 2.01025 14.9297C2.01417 14.931 2.0184 14.931 2.02233 14.9297C2.22594 14.8917 2.43642 14.9244 2.6189 15.0224C2.80137 15.1204 2.94489 15.2778 3.02567 15.4685C3.02748 15.4729 3.03077 15.4765 3.03496 15.4788C3.03918 15.4802 3.04374 15.4802 3.04796 15.4788C3.05247 15.4773 3.05629 15.4742 3.05868 15.4701C3.06108 15.466 3.06189 15.4611 3.06097 15.4565C3.02351 15.2546 3.05556 15.0459 3.1519 14.8645C3.24823 14.6832 3.40317 14.5398 3.59144 14.4578C3.59543 14.4564 3.59885 14.4537 3.6012 14.4502C3.60355 14.4467 3.60468 14.4425 3.60445 14.4383C3.60421 14.4357 3.60347 14.4332 3.60227 14.4309C3.60107 14.4286 3.59943 14.4266 3.59744 14.425C3.59545 14.4233 3.59316 14.4221 3.5907 14.4214C3.58823 14.4206 3.58564 14.4204 3.58308 14.4206C3.38081 14.458 3.17185 14.4257 2.9903 14.329C2.80875 14.2323 2.66533 14.077 2.58345 13.8883C2.58187 13.8841 2.57893 13.8805 2.57509 13.8781C2.57088 13.8766 2.56629 13.8766 2.56209 13.8781L2.5528 13.879Z" fill="#F8CF3C"/>
<path fill-rule="evenodd" clip-rule="evenodd" d="M21.6925 7.87695C21.6875 7.87911 21.6834 7.88292 21.6808 7.88774C21.6783 7.89257 21.6774 7.89813 21.6785 7.90349C21.7261 8.15601 21.6864 8.41722 21.5658 8.64416C21.4453 8.87109 21.2511 9.05024 21.0151 9.15212C21.0104 9.15415 21.0064 9.1576 21.0037 9.162C21.001 9.16636 20.9997 9.17145 21.0001 9.17657V9.17657V9.18333C21.0026 9.18787 21.0066 9.19145 21.0114 9.19351C21.0162 9.19558 21.0215 9.19602 21.0266 9.19478C21.2794 9.14729 21.5408 9.18732 21.7677 9.30827C21.9947 9.42923 22.1737 9.62389 22.2752 9.86019C22.2772 9.86561 22.2811 9.87013 22.2862 9.8729C22.2912 9.87567 22.2972 9.87652 22.3028 9.87528H22.3059C22.3114 9.87338 22.3161 9.86953 22.3189 9.86445C22.3218 9.85937 22.3227 9.85342 22.3215 9.84771C22.2739 9.59519 22.3136 9.33397 22.4342 9.10704C22.5547 8.8801 22.7489 8.70096 22.9849 8.59908C22.9896 8.59705 22.9936 8.59359 22.9963 8.58919C22.999 8.58484 23.0003 8.57974 22.9999 8.57463V8.57463V8.56578C22.9974 8.56144 22.9936 8.55799 22.989 8.5559C22.9843 8.55438 22.9792 8.55438 22.9745 8.5559C22.7219 8.60354 22.4607 8.56381 22.2338 8.44325C22.0068 8.32269 21.8277 8.12848 21.7258 7.89256C21.7237 7.88725 21.7199 7.88284 21.7149 7.88007C21.7097 7.87829 21.704 7.87829 21.6988 7.88007L21.6925 7.87695Z" fill="#F8CF3C"/>
<path fill-rule="evenodd" clip-rule="evenodd" d="M27.0399 13.877C27.0322 13.8806 27.0261 13.8867 27.0225 13.8943C27.0197 13.9022 27.0197 13.9108 27.0225 13.9187C27.0935 14.298 27.0334 14.6902 26.852 15.0308C26.6706 15.3715 26.3788 15.6403 26.0244 15.7931C26.0169 15.7957 26.0105 15.8007 26.0061 15.8073C26.0017 15.8139 25.9996 15.8217 26.0001 15.8296C26.0039 15.8367 26.01 15.8422 26.0174 15.8453C26.0248 15.8478 26.0327 15.8478 26.0401 15.8453C26.4211 15.7741 26.8151 15.8354 27.1566 16.0188C27.4982 16.2022 27.7668 16.4968 27.918 16.8538C27.9214 16.8617 27.9273 16.8682 27.9349 16.8723C27.9425 16.8764 27.9512 16.8779 27.9597 16.8764V16.8764C27.9677 16.8735 27.9745 16.868 27.9788 16.8607C27.982 16.8523 27.982 16.843 27.9788 16.8347C27.9087 16.4567 27.9687 16.0662 28.149 15.7268C28.3293 15.3873 28.6193 15.119 28.9717 14.9654C28.9788 14.9627 28.9848 14.9579 28.9891 14.9515C28.9911 14.9447 28.9911 14.9375 28.9891 14.9307V14.9307C28.9886 14.9259 28.9872 14.9212 28.985 14.9169C28.9827 14.9127 28.9797 14.9089 28.9759 14.9058C28.9722 14.9027 28.9679 14.9004 28.9633 14.899C28.9587 14.8976 28.9539 14.8971 28.9491 14.8976V14.8976C28.5705 14.9676 28.1794 14.9072 27.8396 14.7262C27.4998 14.5453 27.2314 14.2545 27.0781 13.9013C27.075 13.8935 27.0694 13.887 27.0621 13.8829C27.0548 13.8788 27.0464 13.8773 27.0381 13.8787V13.8787L27.0399 13.877Z" fill="#F8CF3C"/>
<path d="M8.01739 31.1853L7.91334 31.0868L7.27138 30.455C7.36429 31.175 7.64299 31.6776 8.40014 31.5643L8.01739 31.1853ZM22.3243 14.684C22.0355 14.7196 21.7433 14.6539 21.4976 14.498C21.2519 14.3421 21.068 14.1058 20.9772 13.8293C20.4725 12.8366 19.7178 11.9924 18.7876 11.3801C17.8573 10.7678 16.7836 10.4084 15.6722 10.3373C14.5607 10.2662 13.45 10.4859 12.4493 10.9748C11.4487 11.4636 10.5926 12.2048 9.96554 13.1251C9.70354 13.6873 9.26019 14.145 8.70671 14.4249C8.15323 14.7048 7.52176 14.7905 6.91371 14.6682C6.10547 14.5595 5.77381 14.9683 5.7896 15.783C5.82119 17.6216 5.79982 19.4666 5.79982 21.3051V29.016L7.26395 30.456C7.21473 30.0121 7.20261 29.565 7.22772 29.1191C7.23329 28.793 7.24909 28.4688 7.24909 28.1641V16.1537H8.65191V31.6312L10.1021 32.0028L10.1746 32.0344V26.3256H11.5477V32.4905L13.0341 31.9461L13.1112 31.8997V26.2949H14.4954C14.4954 26.5736 14.4954 26.8393 14.5001 27.1134C14.5103 28.1594 14.5363 29.186 14.4852 30.2061C14.475 30.4653 14.4592 30.7291 14.4388 30.9883C14.4396 30.9991 14.4377 31.01 14.4332 31.0199L16.2671 31.424C16.0063 31.101 15.8739 30.6931 15.8955 30.2785C15.8954 30.1847 15.906 30.0912 15.9271 29.9998C15.9995 29.0309 15.9679 28.0572 15.9577 27.0716C15.9475 26.8124 15.9475 26.5587 15.9475 26.294H17.3354V31.7046L18.8377 32.7609L18.9148 32.6931V26.2949H20.2981V26.9684C20.3083 28.3099 20.3399 29.6366 20.2767 30.9474C20.2721 31.175 20.2619 31.398 20.2461 31.6256L21.7102 31.6405L21.7882 31.5058V16.1537H23.1911V18.0759C23.1911 21.019 23.1864 23.9566 23.2013 26.8941C23.2013 27.4515 23.2013 28.0089 23.2068 28.5664C23.2068 28.6444 23.2068 28.7215 23.2013 28.7995C23.2031 28.8963 23.1997 28.993 23.1911 29.0894L24.5641 29.0169L24.6468 28.6899V26.8681C24.6369 23.5887 24.6369 20.3061 24.6468 17.0205C24.6468 14.4759 24.8438 14.6162 22.3243 14.6831V14.684ZM11.5402 24.7564L10.1569 24.7611V16.8644C10.1488 15.7405 10.517 14.6462 11.203 13.7559C11.2646 13.6486 11.3118 13.5337 11.3433 13.4141L11.5402 13.5488V24.7564ZM14.4685 24.7564H13.0582V13.3193C13.0582 12.0242 13.0582 12.0242 14.4676 11.91L14.4685 24.7564ZM16.0227 24.7611V11.9035C17.4107 12.0484 17.4107 12.0484 17.4107 13.349V24.762L16.0227 24.7611ZM20.2869 24.7351H18.9138V13.401C19.3235 13.7806 19.6542 14.2373 19.8871 14.7449C20.12 15.2524 20.2505 15.801 20.2711 16.359C20.3213 19.134 20.2851 21.8997 20.2851 24.7341L20.2869 24.7351Z" fill="#F8CF3C"/>
<path d="M20.4507 -2.48667C18.7969 -2.90782 17.097 -3.12159 15.3904 -3.12305C11.7839 -3.11195 8.24459 -2.14749 5.13112 -0.32743C2.01765 1.49263 -0.559231 4.10356 -2.33826 7.24065C-4.11729 10.3777 -5.03521 13.9295 -4.99897 17.5357C-4.96272 21.1419 -3.97359 24.6745 -2.13187 27.7752C-1.84573 28.2546 -1.53172 28.7423 -1.19542 29.2068C0.694005 31.8463 3.18461 33.9982 6.07047 35.4844C8.95632 36.9706 12.1545 37.7485 15.4006 37.7538H15.434C18.8669 37.7629 22.2461 36.9023 25.2563 35.2523C28.2666 33.6022 30.8098 31.2165 32.6487 28.3177C32.7017 28.2388 32.7509 28.1645 32.7965 28.0901C34.4941 25.3614 35.5234 22.2704 35.8007 19.0687C36.078 15.867 35.5955 12.645 34.3923 9.66504C33.1891 6.68508 31.2993 4.0313 28.8766 1.91971C26.454 -0.191889 23.5671 -1.70164 20.4507 -2.48667V-2.48667ZM31.3481 28.2778C29.567 30.8573 27.1862 32.9659 24.4103 34.4223C21.6344 35.8787 18.5465 36.6393 15.4117 36.639H15.3885C12.2227 36.6407 9.10471 35.866 6.30786 34.3827C3.51101 32.8994 1.12063 30.7528 -0.653799 28.131L-0.691889 28.0753L-0.685386 27.9517C-0.357442 26.5758 0.418289 26.3334 1.01379 26.3724C1.86756 26.4198 2.38409 27.0413 2.4677 28.1236V28.1496C2.45725 28.3993 2.50512 28.6481 2.60752 28.8761C2.70991 29.1041 2.86403 29.3051 3.05763 29.4632C3.27572 29.5742 3.51655 29.6331 3.76123 29.6353C4.00591 29.6376 4.24778 29.5831 4.46788 29.4762C4.71834 29.3574 4.9926 29.2972 5.26981 29.3003C5.54701 29.3033 5.81988 29.3695 6.06765 29.4939L6.11039 29.5227C6.31412 29.6948 6.47664 29.9104 6.58597 30.1537C6.69531 30.397 6.74867 30.6617 6.74212 30.9283C6.72025 31.1942 6.76278 31.4614 6.86612 31.7074C6.96946 31.9534 7.13055 32.1708 7.33576 32.3413C7.57525 32.4489 7.83562 32.5021 8.09811 32.4969C8.36061 32.4918 8.61869 32.4285 8.85378 32.3116L8.91138 32.2893C9.22426 32.1539 9.57393 32.1292 9.90274 32.2192C10.2316 32.3092 10.5199 32.5086 10.7202 32.7845C10.8699 33.008 11.0688 33.1944 11.3017 33.3294C11.5345 33.4643 11.7951 33.5442 12.0635 33.563C12.621 33.5156 12.9879 33.0427 13.3121 32.5615L13.3428 32.516C13.5341 32.1806 13.812 31.9028 14.1473 31.7114C14.4014 31.5621 14.6827 31.4649 14.9748 31.4257C15.2669 31.3865 15.5639 31.4059 15.8484 31.4829C16.1375 31.5612 16.4084 31.6959 16.6453 31.8792C16.8822 32.0626 17.0806 32.291 17.2289 32.5513C17.5076 32.9703 17.8504 33.5017 18.4245 33.5537C18.9086 33.5964 19.2904 33.2991 19.7837 32.777L19.8264 32.725C20.0483 32.4438 20.3602 32.2476 20.7098 32.1693C21.0593 32.0909 21.4251 32.1353 21.7458 32.2949L21.8173 32.3265C22.0527 32.4604 22.3174 32.5347 22.5881 32.543C22.8588 32.5513 23.1275 32.4932 23.3706 32.3738C23.567 32.1986 23.7196 31.9799 23.8164 31.7352C23.9132 31.4906 23.9514 31.2266 23.928 30.9645V30.8855C23.9113 30.5711 23.9926 30.2593 24.1607 29.993C24.3288 29.7268 24.5753 29.5193 24.8664 29.3991C25.0613 29.32 25.27 29.2809 25.4804 29.2839C25.6907 29.2869 25.8983 29.3321 26.0908 29.4168C26.3345 29.5423 26.6041 29.6093 26.8783 29.6126C27.1524 29.6158 27.4235 29.5551 27.6701 29.4354C27.8745 29.2465 28.0314 29.0122 28.1283 28.7513C28.2251 28.4905 28.2591 28.2105 28.2275 27.9341C28.2228 27.551 28.3615 27.18 28.6165 26.8941C28.8715 26.6082 29.2242 26.428 29.6053 26.3891H29.6369C29.8401 26.3702 30.0451 26.3918 30.2399 26.4525C30.4348 26.5133 30.6157 26.612 30.7722 26.743C30.9287 26.8741 31.0577 27.0348 31.1518 27.2159C31.2458 27.3971 31.3031 27.595 31.3202 27.7984C31.3335 27.9009 31.3536 28.0024 31.3806 28.1022L31.4076 28.1998L31.3481 28.2778ZM32.4871 26.4067L32.3115 26.7356L32.109 26.4235C31.8307 25.9914 31.4376 25.6453 30.9738 25.4239C30.5099 25.2026 29.9936 25.1147 29.4826 25.1702C28.8031 25.2353 28.1724 25.5521 27.7143 26.0582C27.2563 26.5644 27.0039 27.2235 27.0068 27.9062C27.0003 28.0065 26.9957 28.0753 26.9901 28.1338L26.965 28.4004L26.6686 28.3131C26.6222 28.3001 26.5692 28.2852 26.5098 28.2639C26.0233 28.0567 25.4863 27.9985 24.9667 28.0966C24.7685 28.1313 24.5747 28.1877 24.3888 28.2648C24.1096 28.3815 23.8523 28.5448 23.628 28.7479C23.3111 29.0287 23.0626 29.3783 22.9015 29.7698C22.7521 30.1416 22.6837 30.541 22.7008 30.9413C22.7024 30.9839 22.6999 31.0265 22.6934 31.0686L22.6469 31.3649L22.3784 31.2311C22.3515 31.2176 22.3235 31.2061 22.2948 31.1968L22.267 31.1856C21.7006 30.9082 21.0567 30.8322 20.4413 30.9702C19.826 31.1082 19.2761 31.4519 18.8825 31.9446C18.8491 31.9846 18.8184 32.0152 18.7896 32.0431C18.7736 32.0587 18.7584 32.0751 18.7441 32.0923L18.5667 32.32L18.3939 32.0886C18.3482 32.0271 18.3057 31.9632 18.2666 31.8972C17.8038 31.1028 17.0453 30.5239 16.1568 30.2873C16.1386 30.2833 16.1206 30.2783 16.1029 30.2724C15.6757 30.1652 15.2315 30.1434 14.7958 30.2083C14.3503 30.2703 13.9213 30.4193 13.5333 30.6468L13.4831 30.6756C12.9893 30.9746 12.5777 31.3919 12.2856 31.8898L12.2298 31.9716C12.1899 32.031 12.1546 32.0821 12.1221 32.1221L11.9697 32.3135L11.796 32.1407C11.7635 32.1091 11.7319 32.0728 11.6919 32.0292L11.6511 31.9837C11.3294 31.5601 10.8875 31.2434 10.3829 31.0751V31.0751C10.1029 30.9785 9.8087 30.9293 9.51246 30.9292C9.33181 30.9292 9.15162 30.9473 8.97455 30.9831C8.79053 31.0221 8.61093 31.0797 8.43851 31.155C8.41188 31.1664 8.38418 31.1751 8.35583 31.181L8.30845 31.1996L8.01859 31.3157L7.98236 31.037C7.98236 31.01 7.97772 30.9822 7.97586 30.9534V30.9097C7.96867 30.8761 7.96617 30.8418 7.96843 30.8075C7.96135 30.166 7.74106 29.545 7.34227 29.0424C7.17783 28.827 6.98285 28.6367 6.76349 28.4775C6.53338 28.344 6.28616 28.2424 6.02863 28.1756C5.38657 28.0039 4.70557 28.0513 4.09349 28.3103L3.98944 28.3438L3.75068 28.4181L3.70702 28.1719C3.69853 28.1222 3.69418 28.0718 3.69401 28.0214C3.71422 27.3 3.45484 26.5987 2.97007 26.0641C2.48531 25.5294 1.81268 25.2029 1.09276 25.1526C0.615315 25.1103 0.135548 25.2022 -0.292405 25.4181C-0.720358 25.6339 -1.07946 25.9651 -1.3292 26.3742L-1.52986 26.7031L-1.71102 26.3631C-3.28896 23.4055 -4.07348 20.0895 -3.98808 16.7384C-3.90268 13.3873 -2.95026 10.1155 -1.22372 7.24215C0.502818 4.36878 2.94455 1.99191 5.86334 0.343339C8.78213 -1.30524 12.0784 -2.16924 15.4305 -2.16442C18.7827 -2.15959 22.0764 -1.2861 24.9905 0.370875C27.9045 2.02785 30.3394 4.41174 32.0576 7.29006C33.7759 10.1684 34.7189 13.4429 34.7946 16.7942C34.8704 20.1455 34.0763 23.4593 32.4899 26.4123L32.4871 26.4067Z" fill="#F8CF3C"/>
</g>
</svg>
