<svg width="42.5" height="48" viewBox="0 0 107 113" fill="none" xmlns="http://www.w3.org/2000/svg">
<path data-type='invert' d="M53.1181 17.27C51.4706 17.27 49.8601 17.7586 48.4902 18.6739C47.1203 19.5892 46.0527 20.8902 45.4222 22.4123C44.7917 23.9344 44.6267 25.6093 44.9481 27.2251C45.2696 28.841 46.0629 30.3252 47.2279 31.4902C48.3929 32.6552 49.8771 33.4485 51.493 33.77C53.1089 34.0914 54.7837 33.9264 56.3058 33.2959C57.828 32.6655 59.1289 31.5978 60.0442 30.2279C60.9595 28.8581 61.4481 27.2475 61.4481 25.6C61.4481 23.3908 60.5705 21.272 59.0083 19.7098C57.4461 18.1476 55.3273 17.27 53.1181 17.27Z" fill="black"/>
<path data-type='invert' d="M18.3681 22.3599C17.7272 22.3599 17.1008 22.5499 16.568 22.9059C16.0352 23.2619 15.6199 23.7679 15.3747 24.36C15.1295 24.952 15.0653 25.6035 15.1903 26.232C15.3153 26.8605 15.6239 27.4378 16.077 27.8909C16.5301 28.344 17.1075 28.6526 17.736 28.7776C18.3645 28.9026 19.0159 28.8385 19.6079 28.5932C20.2 28.348 20.706 27.9327 21.062 27.3999C21.418 26.8671 21.6081 26.2407 21.6081 25.5999C21.6081 24.7406 21.2667 23.9165 20.6591 23.3088C20.0515 22.7012 19.2274 22.3599 18.3681 22.3599Z" fill="black"/>
<path data-type='invert' d="M88.0181 22.3599C87.3773 22.3599 86.7508 22.5499 86.218 22.9059C85.6852 23.2619 85.2699 23.7679 85.0247 24.36C84.7795 24.952 84.7153 25.6035 84.8403 26.232C84.9654 26.8605 85.2739 27.4378 85.7271 27.8909C86.1802 28.344 86.7575 28.6526 87.386 28.7776C88.0145 28.9026 88.6659 28.8385 89.258 28.5932C89.85 28.348 90.356 27.9327 90.712 27.3999C91.0681 26.8671 91.2581 26.2407 91.2581 25.5999C91.2581 24.7406 90.9167 23.9165 90.3091 23.3088C89.7015 22.7012 88.8774 22.3599 88.0181 22.3599Z" fill="black"/>
<path data-type='invert' d="M35.898 25.6C35.9047 22.1525 36.9437 18.7859 38.8811 15.9342C40.8185 13.0825 43.5654 10.8764 46.768 9.60002L24.748 1.62481e-05H24.138C18.5852 -0.00642772 13.2003 1.90405 8.89316 5.4087C4.586 8.91334 1.6206 13.7973 0.497938 19.2355C-0.624728 24.6736 0.164162 30.3327 2.73133 35.2564C5.2985 40.1802 9.48658 44.067 14.588 46.26L37.018 31.76C36.2727 29.792 35.8931 27.7044 35.898 25.6ZM18.398 33.93C16.7505 33.93 15.14 33.4415 13.7701 32.5262C12.4003 31.6108 11.3326 30.3099 10.7021 28.7878C10.0716 27.2657 9.90666 25.5908 10.2281 23.9749C10.5495 22.3591 11.3428 20.8748 12.5078 19.7098C13.6728 18.5448 15.1571 17.7515 16.7729 17.4301C18.3888 17.1087 20.0637 17.2736 21.5858 17.9041C23.1079 18.5346 24.4088 19.6023 25.3242 20.9721C26.2395 22.342 26.728 23.9525 26.728 25.6C26.728 27.8093 25.8504 29.928 24.2882 31.4902C22.726 33.0524 20.6073 33.93 18.398 33.93Z" fill="black"/>
<path d="M53.148 8.35002C55.4218 8.34794 57.6735 8.79672 59.7727 9.6704C61.872 10.5441 63.7771 11.8253 65.378 13.44L85.768 0.270019C84.5733 0.0887691 83.3665 -0.00149041 82.158 1.8611e-05H24.748L46.748 9.57002C48.7853 8.76332 50.9569 8.34937 53.148 8.35002Z" fill="#00A79D"/>
<path d="M88.018 33.9301C85.8088 33.9301 83.69 33.0525 82.1278 31.4903C80.5656 29.9281 79.688 27.8093 79.688 25.6001C79.6898 25.043 79.7434 24.4873 79.848 23.9401L69.248 19.3301C70.0642 21.4463 70.4555 23.7026 70.3997 25.9701C70.3439 28.2376 69.842 30.4719 68.9227 32.5454C68.0034 34.619 66.6847 36.4911 65.0419 38.055C63.399 39.6189 61.4643 40.8439 59.348 41.6601C55.0741 43.3084 50.3203 43.1914 46.1327 41.3348C41.945 39.4782 38.6663 36.034 37.018 31.7601L14.588 46.2601C17.0039 47.303 19.5749 47.9415 22.198 48.1501C22.7485 48.301 23.2343 48.6281 23.5811 49.0815C23.9278 49.5348 24.1165 50.0893 24.118 50.6601V89.5401C24.118 90.5267 24.5099 91.4729 25.2076 92.1705C25.9052 92.8681 26.8514 93.2601 27.838 93.2601C28.8246 93.2601 29.7708 92.8681 30.4685 92.1705C31.1661 91.4729 31.558 90.5267 31.558 89.5401V61.2301C31.5359 60.8731 31.5872 60.5153 31.7086 60.1789C31.83 59.8424 32.0191 59.5344 32.264 59.2738C32.509 59.0132 32.8048 58.8055 33.1331 58.6635C33.4614 58.5215 33.8153 58.4483 34.173 58.4483C34.5307 58.4483 34.8846 58.5215 35.2129 58.6635C35.5412 58.8055 35.837 59.0132 36.082 59.2738C36.327 59.5344 36.516 59.8424 36.6374 60.1789C36.7589 60.5153 36.8101 60.8731 36.788 61.2301V63.0901V99.1901C36.8375 100.145 37.2515 101.044 37.9447 101.702C38.6378 102.36 39.5572 102.727 40.513 102.727C41.4688 102.727 42.3882 102.36 43.0814 101.702C43.7745 101.044 44.1885 100.145 44.238 99.1901V59.0601C44.238 58.3679 44.513 57.704 45.0025 57.2145C45.4919 56.7251 46.1558 56.4501 46.848 56.4501C47.5402 56.4501 48.2041 56.7251 48.6936 57.2145C49.183 57.704 49.458 58.3679 49.458 59.0601V109.11C49.458 109.599 49.5542 110.082 49.7412 110.534C49.9281 110.985 50.2021 111.395 50.5476 111.741C50.893 112.086 51.3031 112.36 51.7544 112.547C52.2058 112.734 52.6895 112.83 53.178 112.83C53.6665 112.83 54.1503 112.734 54.6016 112.547C55.0529 112.36 55.463 112.086 55.8084 111.741C56.1539 111.395 56.4279 110.985 56.6148 110.534C56.8018 110.082 56.898 109.599 56.898 109.11V61.0001V57.7101C56.9392 57.0445 57.2326 56.4196 57.7185 55.9629C58.2044 55.5061 58.8462 55.2519 59.513 55.2519C60.1799 55.2519 60.8216 55.5061 61.3075 55.9629C61.7934 56.4196 62.0868 57.0445 62.128 57.7101V92.3701C62.128 93.3567 62.5199 94.3029 63.2176 95.0005C63.9152 95.6981 64.8614 96.0901 65.848 96.0901C66.8346 96.0901 67.7808 95.6981 68.4784 95.0005C69.1761 94.3029 69.568 93.3567 69.568 92.3701V61.0801C69.6092 60.4145 69.9026 59.7896 70.3885 59.3329C70.8744 58.8762 71.5162 58.6219 72.183 58.6219C72.8499 58.6219 73.4916 58.8762 73.9775 59.3329C74.4634 59.7896 74.7568 60.4145 74.798 61.0801V64.0801V84.2101C74.8475 85.1646 75.2615 86.0638 75.9547 86.7219C76.6478 87.3801 77.5672 87.747 78.523 87.747C79.4788 87.747 80.3982 87.3801 81.0914 86.7219C81.7845 86.0638 82.1985 85.1646 82.248 84.2101V50.8501C82.2467 50.5065 82.3132 50.166 82.4438 49.8482C82.5744 49.5304 82.7664 49.2415 83.0089 48.9981C83.2514 48.7546 83.5396 48.5615 83.8569 48.4297C84.1742 48.2979 84.5144 48.2301 84.858 48.2301H82.438C86.9578 48.1773 91.3717 46.8556 95.1767 44.4156C98.9816 41.9757 102.024 38.5157 103.958 34.4301L94.748 30.4301C93.984 31.5051 92.9753 32.3832 91.8051 32.9917C90.635 33.6002 89.3369 33.9219 88.018 33.9301Z" fill="#DA1C5C"/>
<path d="M85.7681 0.27002L65.3781 13.44C67.0446 15.1204 68.3482 17.1251 69.2081 19.33L79.8081 23.94C80.2119 21.9088 81.358 20.1008 83.0227 18.8687C84.6874 17.6367 86.7513 17.069 88.812 17.2763C90.8726 17.4836 92.7821 18.4511 94.168 19.99C95.5539 21.529 96.3169 23.529 96.3081 25.6C96.3092 27.3341 95.7633 29.0243 94.7481 30.43L103.958 34.43C105.563 31.0308 106.352 27.3036 106.262 23.5454C106.172 19.7873 105.204 16.1023 103.438 12.7842C101.671 9.46607 99.153 6.60667 96.0852 4.43398C93.0175 2.26129 89.4845 0.835403 85.7681 0.27002Z" fill="#FBB040"/>
</svg>
