<?xml version="1.0" encoding="UTF-8" standalone="no"?>
<svg xmlns:dc="http://purl.org/dc/elements/1.1/" xmlns:cc="http://creativecommons.org/ns#" xmlns:rdf="http://www.w3.org/1999/02/22-rdf-syntax-ns#" xmlns:svg="http://www.w3.org/2000/svg" xmlns="http://www.w3.org/2000/svg" viewBox="0 0 679.85468 679.88269" height="679.88269" width="679.85468" xml:space="preserve" id="svg2" version="1.1"><metadata id="metadata8"><rdf:RDF><cc:Work rdf:about=""><dc:format>image/svg+xml</dc:format><dc:type rdf:resource="http://purl.org/dc/dcmitype/StillImage"/></cc:Work></rdf:RDF></metadata><defs id="defs6"><clipPath id="clipPath20" clipPathUnits="userSpaceOnUse"><path id="path18" d="M 0,509.912 H 509.891 V 0 H 0 Z"/></clipPath></defs><g transform="matrix(1.3333333,0,0,-1.3333333,0,679.88267)" id="g10"><path id="path12" style="fill:#465ca6;fill-opacity:1;fill-rule:nonzero;stroke:none" d="M 0,0 H 509.891 V 509.911 H 0 Z"/><g id="g14"><g clip-path="url(#clipPath20)" id="g16"><g transform="translate(47.9717,254.9438)" id="g22"><path id="path24" style="fill:#d0a55f;fill-opacity:1;fill-rule:nonzero;stroke:none" d="m 0,0 c 0,114.123 92.82,206.964 206.997,206.964 h 95.628 63.356 0.591 47.376 47.971 v 48.004 h -47.971 -47.376 -63.947 -95.628 c -17.493,0 -34.523,-1.798 -51,-5.159 C 39.763,226.155 -47.972,123.149 -47.972,0 v -206.972 -47.972 H 0 206.997 c 140.535,0 254.922,114.392 254.922,254.944 v 111.025 48.004 H 413.948 365.981 279.493 244.852 206.997 C 119.293,159.029 47.967,87.666 47.967,0 v -159.001 h 159.03 c 87.656,0 158.984,71.312 158.984,159.001 V 28.891 H 318.03 V 0 c 0,-61.232 -49.834,-111.034 -111.033,-111.034 H 95.921 V 0 c 0,61.224 49.818,111.025 111.076,111.025 h 37.855 34.641 38.537 47.951 47.967 V 0 c 0,-114.131 -92.842,-206.972 -206.951,-206.972 H 47.967 0 v 47.971 z"/></g><g transform="translate(256.2397,219.4116)" id="g26"><path id="path28" style="fill:#d0a55f;fill-opacity:1;fill-rule:nonzero;stroke:none" d="m 0,0 c -19.214,0 -34.785,15.576 -34.785,34.785 0,19.208 15.571,34.782 34.785,34.782 19.213,0 34.782,-15.574 34.782,-34.782 C 34.782,15.576 19.213,0 0,0 m 0,73.197 c -21.182,0 -38.413,-17.234 -38.413,-38.412 0,-21.181 17.231,-38.415 38.413,-38.415 21.18,0 38.414,17.234 38.414,38.415 C 38.414,55.963 21.18,73.197 0,73.197"/></g><g transform="translate(263.9683,264.4878)" id="g30"><path id="path32" style="fill:#d0a55f;fill-opacity:1;fill-rule:nonzero;stroke:none" d="M 0,0 C 0,1.583 -0.357,2.927 -1.062,4.021 -1.774,5.109 -2.961,5.901 -4.627,6.379 -5.146,6.522 -5.735,6.627 -6.394,6.694 -7.05,6.753 -7.91,6.786 -8.973,6.786 h -4.533 V -6.846 h 5.249 c 1.419,0 2.645,0.173 3.673,0.518 1.033,0.341 1.896,0.819 2.58,1.438 0.688,0.614 1.193,1.337 1.516,2.171 C -0.161,-1.885 0,-0.98 0,0 m 8.1,-28.419 c 0,-0.166 -0.034,-0.312 -0.096,-0.441 -0.066,-0.122 -0.199,-0.227 -0.406,-0.311 -0.213,-0.081 -0.502,-0.145 -0.877,-0.188 -0.374,-0.04 -0.874,-0.061 -1.5,-0.061 -0.543,0 -0.985,0.021 -1.33,0.061 -0.346,0.043 -0.621,0.109 -0.828,0.205 -0.209,0.093 -0.37,0.224 -0.484,0.39 -0.114,0.165 -0.218,0.375 -0.296,0.622 l -3.724,9.539 c -0.434,1.082 -0.889,2.08 -1.358,2.985 -0.472,0.909 -1.027,1.688 -1.674,2.346 -0.646,0.656 -1.405,1.17 -2.278,1.531 -0.882,0.369 -1.933,0.551 -3.161,0.551 h -3.594 v -17.229 c 0,-0.166 -0.047,-0.312 -0.142,-0.441 -0.096,-0.122 -0.239,-0.224 -0.438,-0.294 -0.199,-0.075 -0.471,-0.135 -0.814,-0.189 -0.346,-0.052 -0.774,-0.077 -1.293,-0.077 -0.526,0 -0.957,0.025 -1.303,0.077 -0.34,0.054 -0.615,0.114 -0.826,0.189 -0.209,0.07 -0.357,0.172 -0.439,0.294 -0.084,0.129 -0.126,0.275 -0.126,0.441 V 9.034 c 0,0.812 0.217,1.382 0.644,1.706 0.429,0.324 0.879,0.486 1.354,0.486 h 8.604 c 1.021,0 1.87,-0.029 2.55,-0.08 0.674,-0.051 1.282,-0.107 1.83,-0.172 1.559,-0.269 2.941,-0.694 4.137,-1.28 C 1.43,9.108 2.437,8.366 3.249,7.475 4.064,6.576 4.67,5.551 5.076,4.393 5.482,3.238 5.687,1.958 5.687,0.562 5.687,-0.793 5.506,-2.005 5.145,-3.076 4.778,-4.155 4.248,-5.103 3.563,-5.922 2.879,-6.748 2.049,-7.465 1.094,-8.064 0.135,-8.672 -0.938,-9.183 -2.129,-9.598 c 0.668,-0.295 1.275,-0.661 1.817,-1.109 0.541,-0.453 1.044,-0.99 1.513,-1.608 0.473,-0.628 0.914,-1.347 1.331,-2.159 0.415,-0.813 0.831,-1.73 1.249,-2.752 l 3.627,-8.911 c 0.292,-0.751 0.481,-1.279 0.564,-1.582 0.081,-0.299 0.128,-0.534 0.128,-0.7"/></g></g></g></g></svg>