<svg width="851" height="850" viewBox="0 0 851 850" fill="none" xmlns="http://www.w3.org/2000/svg">
<path d="M295.723 131.863V480.873C295.723 544 245.094 595.17 182.219 596.36C182.956 596.36 183.636 596.473 184.373 596.473C248.212 596.473 300.032 544.737 300.032 480.873V131.863H295.723Z" fill="#F89B73"/>
<path d="M68.7718 131.863H64.4629V480.873C64.4629 544.68 116.226 596.473 180.122 596.473C180.859 596.473 181.539 596.36 182.276 596.36C245.152 595.227 295.781 544 295.781 480.873V131.863H68.7718Z" fill="url(#paint0_linear_6850_3048)"/>
<path d="M539.175 68.5117V131.582V131.808V480.592H539.005C539.062 482.632 539.175 484.672 539.175 486.712C539.175 617.045 434.062 722.785 303.945 723.918C304.682 723.918 305.419 723.975 306.156 723.975C437.237 723.975 543.541 617.782 543.541 486.712C543.541 484.672 543.427 482.632 543.371 480.592H543.541V131.808V131.582V68.5117H539.175Z" fill="#FD8465"/>
<path d="M73.1374 531.873C68.6584 520.597 65.7102 508.47 64.8031 495.833C64.5763 493 64.5763 493.907 64.6897 497.193C64.7464 498.327 64.8031 499.46 64.8598 500.593C72.0601 625.147 175.416 723.917 301.79 723.917C302.471 723.917 303.208 723.86 303.888 723.86C189.307 722.84 94.1147 640.56 73.1374 531.873Z" fill="#FFAF81"/>
<path d="M312.222 68.5117H307.913V131.582V131.808V249.618V486.995C307.913 553.465 254.562 607.412 188.285 608.545C187.605 608.545 186.868 608.658 186.188 608.658C134.821 608.658 90.9958 576.868 73.1367 531.875C94.1141 640.562 189.306 722.842 303.944 723.862C434.061 722.728 539.174 616.988 539.174 486.655C539.174 484.615 539.061 482.575 539.004 480.535H539.174V131.808V131.582V68.5117H312.222Z" fill="url(#paint1_linear_6850_3048)"/>
<path d="M783.022 5.38281V131.919V480.929H782.965C782.965 482.006 783.022 483.139 783.022 484.216C783.022 681.869 623.254 842.179 425.727 843.256C426.464 843.256 427.257 843.313 427.994 843.313C626.429 843.313 787.274 682.549 787.274 484.216C787.274 483.083 787.217 482.006 787.217 480.929H787.274V131.919V5.38281H783.022Z" fill="#D05A4F"/>
<path d="M556.07 496.796C556.07 494.699 555.956 492.603 555.899 490.506H556.07V148.636V132.316V131.919V5.38281H551.761V131.919V132.316V148.636V490.563H551.591C551.647 492.659 551.761 494.699 551.761 496.853C551.761 630.416 444.153 738.876 310.805 740.293C311.315 740.293 311.882 740.349 312.392 740.349C446.987 740.349 556.07 631.323 556.07 496.796Z" fill="#FF958A"/>
<path d="M88.7844 602.368C81.414 587.124 75.461 571.144 71.3789 554.371C104.036 719.101 249.346 843.314 423.742 843.314C424.422 843.314 425.102 843.258 425.726 843.258C269.757 842.294 137.429 741.938 88.7844 602.368Z" fill="#FF7E69"/>
<path d="M783.022 484.216C783.022 483.083 782.965 482.006 782.965 480.929H783.022V131.919V5.38281H556.07V131.919V132.316V148.636V490.563H555.9C555.956 492.659 556.07 494.699 556.07 496.853C556.07 631.323 446.988 740.406 312.392 740.406C311.882 740.406 311.315 740.349 310.805 740.349C309.898 740.349 308.991 740.406 308.084 740.406C211.418 740.406 128.075 684.023 88.7285 602.423C137.373 741.993 269.701 842.349 425.727 843.313C623.254 842.179 783.022 681.869 783.022 484.216Z" fill="url(#paint2_linear_6850_3048)"/>
<path d="M418.412 428.456V412.759V404.996V400.859H418.129V404.996V412.759V428.456C418.129 432.819 414.614 436.389 410.248 436.503C410.305 436.503 410.361 436.503 410.418 436.503C414.784 436.503 418.412 432.933 418.412 428.456Z" fill="#FFC7AB"/>
<defs>
<linearGradient id="paint0_linear_6850_3048" x1="23.0047" y1="173.27" x2="336.989" y2="487.415" gradientUnits="userSpaceOnUse">
<stop stop-color="#FFE0BD"/>
<stop offset="0.2642" stop-color="#FFCE9A"/>
<stop offset="0.9737" stop-color="#FFC38D"/>
</linearGradient>
<linearGradient id="paint1_linear_6850_3048" x1="176.777" y1="199.577" x2="550.553" y2="573.543" gradientUnits="userSpaceOnUse">
<stop stop-color="#FFAF81"/>
<stop offset="0.606347" stop-color="#FFAD7F"/>
<stop offset="0.9737" stop-color="#FF9A6D"/>
</linearGradient>
<linearGradient id="paint2_linear_6850_3048" x1="334.024" y1="227.287" x2="761.229" y2="654.709" gradientUnits="userSpaceOnUse">
<stop stop-color="#FF8F76"/>
<stop offset="0.616" stop-color="#FF7E69"/>
<stop offset="1" stop-color="#FD6C57"/>
</linearGradient>
</defs>
</svg>
