<?xml version="1.0" standalone="no"?>
<!DOCTYPE svg PUBLIC "-//W3C//DTD SVG 20010904//EN"
 "http://www.w3.org/TR/2001/REC-SVG-20010904/DTD/svg10.dtd">
<svg version="1.0" xmlns="http://www.w3.org/2000/svg"
 width="256.000000pt" height="256.000000pt" viewBox="0 0 256.000000 256.000000"
 preserveAspectRatio="xMidYMid meet">

<g transform="translate(0.000000,256.000000) scale(0.100000,-0.100000)"
fill="#000000" stroke="none">
<path d="M1096 2367 c-12 -9 -25 -42 -35 -91 l-17 -78 -52 -18 c-29 -10 -84
-33 -123 -51 -49 -23 -75 -30 -84 -23 -8 5 -38 26 -68 48 -44 30 -59 36 -73
28 -41 -23 -264 -258 -264 -278 0 -11 18 -46 40 -78 22 -31 40 -61 40 -65 0
-5 -15 -42 -34 -84 -19 -41 -40 -95 -47 -119 -7 -23 -13 -44 -14 -45 0 -1 -34
-7 -75 -14 -113 -17 -110 -10 -110 -225 0 -214 -4 -205 115 -225 l72 -11 12
-47 c6 -25 29 -81 51 -124 l38 -78 -49 -65 c-27 -36 -49 -72 -49 -81 0 -9 57
-74 127 -145 149 -150 154 -152 246 -85 l59 42 66 -32 c37 -18 92 -40 122 -49
30 -9 56 -17 57 -18 1 -1 7 -35 14 -76 6 -41 16 -81 21 -87 8 -10 61 -13 204
-13 l194 0 10 25 c5 13 14 53 20 88 l11 64 48 12 c26 6 82 29 126 50 l78 39
56 -44 c85 -67 91 -65 235 79 67 67 125 130 129 139 4 12 -10 41 -42 89 l-48
72 31 61 c18 35 40 89 51 122 11 32 21 61 22 63 2 3 36 8 76 13 107 11 107 11
107 228 0 141 -3 180 -14 189 -8 7 -50 20 -95 29 -76 16 -80 18 -85 47 -3 16
-26 73 -49 126 l-43 96 42 54 c24 30 43 65 44 79 0 19 -30 56 -128 153 -78 78
-135 127 -147 127 -11 0 -49 -19 -83 -41 l-63 -41 -77 35 c-42 19 -95 40 -117
47 -58 18 -62 24 -70 96 -11 104 -12 104 -218 104 -129 0 -178 -3 -191 -13z
m371 -79 c16 -15 23 -33 23 -58 0 -83 7 -95 68 -115 31 -9 84 -31 118 -47 l62
-30 60 42 c45 32 66 41 84 37 24 -6 258 -236 258 -254 0 -6 -21 -39 -46 -73
l-46 -62 35 -77 c19 -42 40 -94 47 -117 l12 -40 72 -13 c40 -6 78 -17 84 -23
8 -8 12 -67 12 -185 0 -200 2 -196 -106 -208 l-61 -7 -13 -41 c-7 -23 -28 -77
-47 -120 l-36 -77 42 -59 c22 -33 41 -67 41 -77 0 -17 -66 -94 -80 -94 -3 0
-6 9 -7 21 -1 13 3 19 11 16 14 -6 66 41 66 58 0 5 -7 0 -15 -13 -12 -16 -24
-21 -46 -18 -16 1 -32 5 -35 9 -3 3 -13 3 -22 0 -10 -4 -14 -3 -10 2 4 4 3 14
-3 22 -14 16 2 18 18 2 9 -9 10 -7 6 9 -3 12 -10 19 -15 16 -17 -10 -37 28
-27 53 5 13 4 25 -1 28 -6 4 -10 15 -10 26 0 11 4 18 10 14 5 -3 7 -12 3 -20
-3 -8 0 -15 6 -15 6 0 11 12 11 26 0 17 -4 23 -12 18 -8 -5 -9 -1 -4 12 8 22
2 15 -37 -38 -15 -20 -27 -40 -27 -45 0 -4 -12 -16 -26 -27 -26 -18 -26 -18
-16 1 6 11 17 25 25 32 9 6 30 36 48 66 23 39 36 51 42 42 6 -8 7 -7 3 5 -3
10 6 42 19 72 42 96 57 173 58 301 0 225 -69 398 -223 555 -124 127 -275 201
-464 230 -235 35 -516 -72 -673 -258 -131 -154 -190 -301 -200 -499 -5 -88 -8
-109 -18 -100 -7 7 -9 14 -4 15 5 2 9 17 9 33 0 26 -2 28 -19 20 -10 -6 -21
-7 -25 -4 -3 3 -6 -1 -6 -10 0 -10 -4 -17 -10 -17 -5 0 -10 7 -10 15 0 12 -5
13 -26 4 -35 -13 -41 -6 -9 11 14 7 25 17 25 22 0 5 9 6 20 3 11 -4 20 -2 20
4 0 6 -7 11 -15 11 -8 0 -15 5 -15 11 0 6 7 9 15 5 8 -3 15 -1 15 4 0 6 -7 10
-15 10 -8 0 -24 9 -34 19 -20 20 -41 11 -41 -16 0 -7 -9 -13 -21 -13 -16 0
-19 5 -15 23 l6 22 -12 -23 c-12 -25 -35 -24 -30 1 1 8 -2 18 -8 22 -6 4 -10
-9 -10 -34 0 -32 4 -41 18 -42 16 -1 16 -2 -1 -6 -15 -4 -17 -17 -17 -93 0
-74 3 -91 17 -99 10 -6 13 -11 7 -11 -28 0 -33 31 -34 195 -2 163 -1 170 20
187 15 12 39 18 74 18 28 0 56 4 63 8 6 4 19 30 28 57 9 28 30 80 47 116 l30
66 -41 58 c-23 32 -41 68 -41 79 0 31 228 256 259 256 13 0 46 -18 73 -40 28
-22 55 -40 60 -40 5 0 28 10 51 22 23 12 73 33 112 48 l69 27 11 65 c15 95 18
97 148 101 62 1 136 4 166 5 44 2 59 -2 78 -20z m-387 -597 c0 -40 0 -40 42
-43 41 -3 42 -3 42 -43 1 -40 1 -40 44 -43 42 -3 42 -3 42 -43 l0 -39 46 0 46
0 -4 40 -3 39 40 3 c39 3 40 4 43 46 3 42 3 42 43 42 39 0 39 0 39 40 l0 40
165 0 166 0 -2 -410 -2 -410 -86 2 -86 2 80 5 c60 5 80 10 80 20 0 21 -24 26
-31 7 -3 -9 -10 -16 -16 -16 -5 0 -6 4 -3 10 3 6 -1 7 -10 4 -17 -7 -59 29
-48 40 4 3 -5 6 -18 6 -22 1 -23 2 -6 14 16 12 16 14 1 20 -8 3 -24 6 -35 6
-21 0 -25 15 -7 26 6 4 8 3 5 -2 -3 -6 5 -11 19 -12 13 -1 24 3 24 8 0 5 -7 7
-15 4 -8 -4 -15 -1 -15 5 0 15 -37 14 -44 -1 -3 -7 -4 -1 -1 15 4 20 1 27 -10
27 -8 0 -15 4 -15 9 0 19 -47 18 -59 -1 -22 -36 -31 -6 -31 103 l0 109 -45 0
-45 0 0 -39 c0 -39 -1 -40 -37 -43 -37 -3 -38 -4 -41 -46 -3 -43 -3 -43 -40
-40 -36 3 -37 4 -40 46 -3 42 -3 42 -43 42 -39 0 -39 0 -39 40 l0 40 -45 0
-45 0 0 -205 0 -205 -47 2 -48 1 43 4 43 4 -3 70 c-1 39 -7 70 -13 71 -5 0
-14 2 -20 3 -5 2 -21 4 -35 5 -23 1 -23 2 -5 9 11 5 23 7 28 4 18 -11 4 40
-17 60 -20 19 -21 24 -10 35 17 15 0 57 -18 46 -6 -4 -8 -3 -5 3 3 5 -3 17
-14 26 -10 9 -19 24 -19 33 0 12 -6 14 -28 9 -27 -5 -28 -4 -30 32 -5 104 -7
122 -15 114 -4 -4 -10 -21 -12 -37 -2 -16 -4 -31 -4 -34 -1 -3 -6 2 -11 10 -5
8 -7 22 -5 30 4 11 -4 15 -30 16 -27 0 -35 -4 -38 -20 -2 -12 -4 -4 -4 17 0
22 3 33 8 25 12 -19 22 -3 14 23 -5 14 -10 18 -15 10 -9 -16 -20 73 -20 172
l0 77 165 0 165 0 0 -39z m-573 -553 c-3 -7 -5 -2 -5 12 0 14 2 19 5 13 2 -7
2 -19 0 -25z m10 -40 c-3 -8 -6 -5 -6 6 -1 11 2 17 5 13 3 -3 4 -12 1 -19z
m473 2 c0 -5 -5 -10 -11 -10 -5 0 -7 5 -4 10 3 6 8 10 11 10 2 0 4 -4 4 -10z
m587 -32 c-3 -7 -5 -2 -5 12 0 14 2 19 5 13 2 -7 2 -19 0 -25z m-943 -249 c-3
-5 -12 -9 -20 -9 -11 0 -13 4 -6 16 7 12 2 29 -14 58 -37 65 -28 66 11 2 19
-32 32 -62 29 -67z m906 98 c21 -4 20 -4 -7 -6 -25 -1 -33 3 -33 17 0 11 3 13
8 6 4 -7 18 -14 32 -17z m-732 -4 c-10 -2 -28 -2 -40 0 -13 2 -5 4 17 4 22 1
32 -1 23 -4z m-243 -23 c-3 -5 -10 -10 -16 -10 -5 0 -9 5 -9 10 0 6 7 10 16
10 8 0 12 -4 9 -10z m248 -235 c74 -56 145 -93 250 -130 101 -36 94 -42 -9 -9
-129 42 -223 98 -317 186 -31 30 -59 53 -61 50 -12 -12 -46 12 -46 32 0 41 13
37 67 -23 29 -33 81 -81 116 -106z m-296 133 c-11 -18 -12 -28 -2 -45 8 -17
15 -19 23 -11 15 15 29 -39 15 -61 -16 -25 -59 -32 -78 -11 -15 17 -14 20 10
43 18 16 23 27 16 31 -6 4 -11 0 -11 -9 0 -11 -5 -15 -16 -11 -8 3 -12 2 -9
-4 3 -6 1 -10 -4 -10 -23 0 -9 -33 36 -83 l46 -52 -56 57 c-65 64 -65 68 -3
140 45 53 53 59 33 26z m48 -7 c-3 -6 -11 -11 -17 -11 -6 0 -6 6 2 15 14 17
26 13 15 -4z m1385 -21 c0 -5 -4 -10 -10 -10 -5 0 -10 5 -10 10 0 6 5 10 10
10 6 0 10 -4 10 -10z m-1290 -36 c0 -8 -4 -12 -10 -9 -5 3 -10 10 -10 16 0 5
5 9 10 9 6 0 10 -7 10 -16z m1183 -8 c-4 -7 -24 -26 -43 -42 -35 -27 -35 -27
5 14 41 44 52 52 38 28z m-133 -110 c0 -2 -7 -7 -16 -10 -8 -3 -12 -2 -9 4 6
10 25 14 25 6z m-155 -76 c-27 -12 -43 -12 -25 0 8 5 22 9 30 9 10 0 8 -3 -5
-9z m-60 -20 c-27 -12 -43 -12 -25 0 8 5 22 9 30 9 10 0 8 -3 -5 -9z m-786
-81 c-7 -4 -21 -3 -31 2 -25 14 -23 16 13 11 21 -3 27 -7 18 -13z m420 -176
c2 -2 -3 -3 -11 -3 -9 0 -19 7 -22 16 -6 15 -4 15 11 3 10 -7 20 -15 22 -16z"/>
<path d="M380 1420 c-13 -8 -12 -10 3 -10 9 0 17 5 17 10 0 12 -1 12 -20 0z"/>
<path d="M380 1394 c0 -3 7 -13 16 -21 13 -14 17 -14 24 -2 6 8 4 16 -3 21
-14 9 -37 10 -37 2z"/>
<path d="M470 1340 c0 -5 5 -10 10 -10 6 0 10 5 10 10 0 6 -4 10 -10 10 -5 0
-10 -4 -10 -10z"/>
<path d="M810 1469 c0 -5 5 -7 10 -4 6 3 10 8 10 11 0 2 -4 4 -10 4 -5 0 -10
-5 -10 -11z"/>
<path d="M900 1336 c0 -2 7 -7 16 -10 8 -3 12 -2 9 4 -6 10 -25 14 -25 6z"/>
<path d="M1726 1114 c-4 -9 -4 -19 -1 -22 2 -3 7 3 11 12 4 9 4 19 1 22 -2 3
-7 -3 -11 -12z"/>
<path d="M1040 1116 c0 -2 7 -9 15 -16 9 -7 15 -8 15 -2 0 5 -7 12 -15 16 -8
3 -15 4 -15 2z"/>
<path d="M1680 1080 c0 -5 5 -10 11 -10 5 0 7 5 4 10 -3 6 -8 10 -11 10 -2 0
-4 -4 -4 -10z"/>
<path d="M650 770 c0 -5 7 -10 16 -10 8 0 12 5 9 10 -3 6 -10 10 -16 10 -5 0
-9 -4 -9 -10z"/>
</g>
</svg>
