<svg xmlns="http://www.w3.org/2000/svg" width="250" height="250" viewBox="0 0 250 250" version="1.1"><path d="M 81.005 114.495 L 59.527 135.991 69.995 146.495 C 75.753 152.273, 80.922 156.981, 81.482 156.957 C 82.042 156.933, 87.225 152.205, 93 146.451 L 103.500 135.987 113.845 146.494 C 119.535 152.272, 124.569 157, 125.033 157 C 125.496 157, 130.344 152.500, 135.806 147 C 141.267 141.500, 146.236 137, 146.846 137 C 147.457 137, 152.607 141.725, 158.291 147.499 L 168.626 157.998 179.063 147.532 C 184.803 141.776, 189.500 136.583, 189.500 135.993 C 189.500 134.832, 148.111 93, 146.962 93 C 146.579 93, 141.756 97.500, 136.244 103 C 130.733 108.500, 125.774 113, 125.224 113 C 124.674 113, 119.668 108.500, 114.098 103 C 108.529 97.500, 103.637 93, 103.227 93 C 102.818 93, 92.817 102.673, 81.005 114.495" stroke="none" fill="#fafafa" fill-rule="evenodd"/><path d="M 0 125.004 L 0 250.008 125.250 249.754 L 250.500 249.500 250.754 124.750 L 251.008 0 125.504 0 L 0 0 0 125.004 M 0.485 125.500 C 0.485 194.250, 0.604 222.228, 0.750 187.672 C 0.896 153.117, 0.896 96.867, 0.750 62.672 C 0.604 28.478, 0.485 56.750, 0.485 125.500 M 81.005 114.495 L 59.527 135.991 69.995 146.495 C 75.753 152.273, 80.922 156.981, 81.482 156.957 C 82.042 156.933, 87.225 152.205, 93 146.451 L 103.500 135.987 113.845 146.494 C 119.535 152.272, 124.569 157, 125.033 157 C 125.496 157, 130.344 152.500, 135.806 147 C 141.267 141.500, 146.236 137, 146.846 137 C 147.457 137, 152.607 141.725, 158.291 147.499 L 168.626 157.998 179.063 147.532 C 184.803 141.776, 189.500 136.583, 189.500 135.993 C 189.500 134.832, 148.111 93, 146.962 93 C 146.579 93, 141.756 97.500, 136.244 103 C 130.733 108.500, 125.774 113, 125.224 113 C 124.674 113, 119.668 108.500, 114.098 103 C 108.529 97.500, 103.637 93, 103.227 93 C 102.818 93, 92.817 102.673, 81.005 114.495" stroke="none" fill="#745ceb" fill-rule="evenodd"/></svg>