<?xml version="1.0" standalone="no"?>
<!DOCTYPE svg PUBLIC "-//W3C//DTD SVG 20010904//EN"
 "http://www.w3.org/TR/2001/REC-SVG-20010904/DTD/svg10.dtd">
<svg version="1.0" xmlns="http://www.w3.org/2000/svg"
 width="887.000000pt" height="887.000000pt" viewBox="0 0 887.000000 887.000000"
 preserveAspectRatio="xMidYMid meet">

<g transform="translate(0.000000,887.000000) scale(0.100000,-0.100000)"
fill="#2486F5" stroke="none">
<path d="M1 6773 c1 -1154 5 -2053 10 -1998 43 553 193 1107 434 1600 696
1420 2080 2363 3650 2484 55 5 -844 9 -1997 10 l-2098 1 1 -2097z"/>
<path d="M4710 8864 c19 -2 91 -9 160 -15 175 -15 456 -63 645 -111 1073 -268
2017 -939 2628 -1869 409 -621 661 -1357 716 -2084 5 -63 9 787 10 1988 l1
2097 -2097 -2 c-1154 0 -2082 -3 -2063 -4z"/>
<path d="M6430 6576 c0 -4 -7 -6 -15 -2 -8 3 -15 1 -15 -4 0 -5 -7 -7 -15 -4
-8 4 -15 1 -15 -4 0 -6 -8 -10 -17 -10 -30 2 -163 -42 -163 -53 0 -6 -7 -9
-15 -5 -8 3 -15 1 -15 -5 0 -6 -7 -9 -15 -5 -8 3 -15 1 -15 -5 0 -6 -6 -9 -14
-6 -8 3 -17 3 -20 -1 -4 -3 -13 -7 -22 -8 -8 -1 -36 -12 -60 -23 -25 -12 -49
-19 -54 -16 -5 3 -12 0 -15 -6 -4 -5 -14 -8 -22 -5 -9 4 -11 2 -7 -6 5 -8 2
-9 -9 -5 -10 4 -17 2 -17 -4 0 -6 -7 -9 -15 -6 -8 4 -17 2 -20 -4 -4 -5 -11
-7 -16 -4 -5 4 -9 2 -9 -3 0 -10 -65 -27 -87 -23 -7 1 -13 -3 -13 -10 0 -6 -7
-9 -15 -5 -8 3 -15 1 -15 -4 0 -5 -7 -7 -15 -4 -8 4 -15 2 -15 -4 0 -9 -47
-26 -75 -27 -5 0 -13 -4 -16 -8 -4 -5 -18 -10 -33 -10 -14 -1 -26 -6 -26 -11
0 -4 -6 -6 -14 -3 -8 3 -16 2 -18 -3 -2 -4 -16 -10 -33 -13 -16 -3 -46 -12
-66 -21 -20 -8 -39 -12 -43 -9 -3 4 -6 2 -6 -4 0 -10 -51 -27 -77 -26 -7 0
-13 -2 -13 -6 0 -4 -6 -8 -12 -9 -30 -2 -73 -14 -85 -23 -7 -6 -17 -8 -23 -4
-5 3 -10 1 -10 -5 0 -6 -4 -8 -10 -5 -5 3 -10 1 -10 -5 0 -7 -7 -10 -15 -7 -8
4 -17 2 -21 -4 -3 -6 -12 -8 -20 -5 -8 3 -14 1 -14 -5 0 -6 -7 -9 -15 -5 -8 3
-15 2 -15 -3 0 -10 -71 -32 -82 -25 -4 3 -8 0 -8 -6 0 -7 -7 -10 -15 -6 -8 3
-15 1 -15 -5 0 -6 -7 -8 -16 -5 -9 4 -13 2 -8 -5 4 -7 0 -9 -14 -5 -11 4 -23
2 -27 -4 -3 -6 -11 -8 -16 -5 -5 4 -9 2 -9 -4 0 -6 -7 -8 -15 -5 -8 4 -15 1
-15 -5 0 -6 -7 -8 -15 -5 -8 4 -15 1 -15 -6 0 -7 -7 -10 -15 -6 -8 3 -15 1
-15 -5 0 -6 -7 -9 -15 -5 -8 3 -15 1 -15 -5 0 -6 -7 -9 -15 -5 -8 3 -15 1 -15
-5 0 -6 -4 -8 -9 -5 -5 4 -22 1 -38 -6 -15 -6 -31 -11 -35 -10 -5 1 -8 -2 -8
-8 0 -5 -9 -10 -20 -10 -11 0 -20 -4 -20 -10 0 -5 -7 -10 -15 -10 -8 0 -15 5
-15 11 0 5 -5 7 -10 4 -6 -4 -17 -2 -24 4 -7 6 -21 9 -30 5 -9 -4 -16 -1 -16
6 0 7 -7 10 -15 7 -8 -4 -17 -2 -20 2 -3 5 -15 7 -27 3 -15 -4 -19 -2 -13 7 5
10 2 11 -14 6 -13 -4 -21 -2 -21 5 0 7 -8 9 -20 5 -11 -3 -20 -2 -20 3 0 6
-10 8 -22 4 -15 -4 -19 -2 -13 7 5 10 2 11 -13 7 -11 -4 -23 -2 -26 3 -4 6
-13 8 -21 4 -8 -3 -15 0 -15 7 0 7 -8 9 -20 5 -12 -4 -20 -2 -20 5 0 6 -5 8
-10 5 -6 -4 -17 -1 -25 5 -8 6 -19 9 -25 5 -5 -3 -10 -1 -10 5 0 7 -8 9 -20 5
-12 -4 -20 -2 -20 5 0 7 -8 9 -20 5 -11 -3 -20 -2 -20 3 0 5 -13 9 -30 10 -16
0 -35 4 -42 8 -7 4 -26 9 -42 11 -17 2 -34 7 -39 12 -5 5 -16 7 -23 4 -8 -3
-14 -1 -14 3 0 5 -14 10 -32 11 -17 1 -34 7 -38 13 -4 6 -14 8 -23 4 -10 -3
-17 -1 -17 6 0 7 -8 9 -20 5 -11 -4 -20 -2 -20 4 0 6 -7 8 -15 5 -8 -4 -15 -1
-15 6 0 7 -8 9 -20 5 -12 -4 -20 -2 -20 5 0 7 -8 9 -20 5 -11 -4 -20 -2 -20 4
0 6 -6 8 -13 5 -8 -3 -27 1 -43 7 -16 7 -35 11 -41 10 -7 -1 -13 2 -13 7 0 4
-16 8 -36 9 -20 1 -39 5 -43 10 -3 4 -10 8 -16 8 -31 1 -95 18 -95 25 0 4 -9
6 -20 3 -12 -3 -20 0 -20 7 0 7 -8 9 -20 5 -11 -4 -20 -2 -20 4 0 6 -7 8 -15
5 -8 -4 -15 -1 -15 6 0 7 -8 9 -20 5 -11 -3 -20 -2 -20 3 0 6 -9 8 -20 5 -12
-3 -20 0 -20 7 0 7 -8 9 -20 5 -11 -4 -20 -2 -20 4 0 6 -6 8 -14 5 -8 -3 -17
0 -21 5 -3 6 -10 9 -15 6 -5 -3 -21 0 -37 6 -15 7 -36 11 -45 10 -10 -1 -18 2
-18 8 0 6 -6 8 -14 5 -8 -3 -17 -1 -20 5 -4 6 -13 8 -21 4 -8 -3 -15 0 -15 7
0 7 -8 9 -20 5 -11 -3 -20 -2 -20 3 0 6 -9 8 -20 5 -12 -3 -20 0 -20 7 0 7 -7
10 -15 6 -8 -3 -15 -1 -15 4 0 5 -7 7 -15 4 -8 -4 -21 -1 -29 5 -7 6 -15 8
-18 6 -3 -3 -18 0 -34 6 -16 7 -37 11 -47 10 -9 -1 -17 3 -17 9 0 6 -5 8 -10
5 -6 -4 -16 -3 -23 3 -7 5 -20 12 -29 15 -17 6 -18 -99 -18 -2112 0 -1876 2
-2118 15 -2118 8 0 15 4 15 9 0 5 4 7 10 3 5 -3 16 5 24 17 9 13 32 36 53 53
23 17 32 21 23 10 -8 -11 1 -6 21 10 20 17 35 32 33 35 -1 4 6 12 18 19 16 10
19 10 13 -1 -3 -7 0 -5 8 5 8 9 18 17 22 17 4 0 27 19 51 43 25 23 49 42 55
42 5 0 14 7 19 15 5 8 10 11 10 6 0 -4 19 10 41 33 23 22 48 41 55 41 8 0 14
3 14 8 1 4 33 30 72 57 39 28 82 61 95 74 12 13 23 21 23 17 0 -4 12 6 26 21
15 15 21 19 14 8 -7 -11 2 -4 21 16 19 19 27 26 19 15 -8 -12 9 1 37 29 42 40
50 52 40 64 -9 12 -9 13 1 7 9 -6 12 237 12 1202 0 1138 1 1210 17 1217 10 3
19 2 21 -4 2 -5 9 -8 17 -5 7 3 16 1 19 -5 4 -6 13 -8 21 -4 8 3 15 0 15 -7 0
-7 8 -9 20 -5 11 3 20 2 20 -3 0 -5 14 -9 31 -10 18 0 36 -5 42 -11 5 -5 16
-7 23 -4 8 3 14 0 14 -6 0 -6 6 -8 14 -5 8 3 17 1 20 -5 4 -6 13 -8 21 -4 8 3
15 0 15 -7 0 -7 8 -9 20 -5 12 4 20 2 20 -5 0 -7 8 -9 20 -5 11 4 20 2 20 -4
0 -6 7 -8 15 -5 8 4 15 1 15 -6 0 -7 8 -9 20 -5 12 4 20 2 20 -5 0 -7 7 -10
15 -7 8 4 17 2 21 -4 3 -6 12 -8 20 -5 8 3 14 1 14 -5 0 -6 9 -8 19 -4 11 3
22 1 25 -4 4 -6 13 -8 21 -4 8 3 15 0 15 -7 0 -7 7 -10 15 -6 8 3 15 1 15 -3
0 -5 9 -7 20 -4 12 3 20 0 20 -7 0 -7 8 -10 20 -7 11 3 20 1 20 -5 0 -6 7 -8
15 -4 8 3 15 1 15 -5 0 -6 9 -8 20 -4 20 6 20 2 20 -1404 0 -1012 3 -1411 11
-1411 6 0 18 8 27 18 10 10 15 13 12 7 -3 -6 4 -1 15 12 12 13 24 23 29 23 4
0 15 8 24 18 10 11 13 12 8 2 -5 -8 1 -5 15 8 13 12 44 38 69 57 25 19 52 41
60 48 8 6 18 12 21 12 4 0 21 12 37 27 17 14 33 24 35 21 3 -3 12 4 19 16 7
12 17 21 21 21 5 0 22 14 39 30 16 17 33 28 38 25 5 -3 10 -2 12 2 5 12 99 87
141 112 20 12 37 27 37 32 0 5 4 8 9 6 5 -1 17 7 26 18 9 11 14 13 10 5 -3 -8
8 1 26 20 17 19 28 28 24 20 -4 -8 3 -4 15 10 12 14 18 18 14 10 -4 -8 3 -5
17 7 13 13 34 31 46 41 l23 19 2 1084 3 1084 23 -2 c16 -2 21 1 16 9 -5 7 -2
9 8 5 9 -3 21 0 27 6 6 6 11 7 11 3 0 -5 11 -1 24 8 14 8 39 18 57 21 18 3 39
11 46 16 7 6 18 7 24 3 7 -4 9 -3 6 3 -7 10 45 28 71 24 6 -1 12 3 12 8 0 6 7
8 15 5 8 -4 15 -1 15 6 0 7 6 10 14 7 8 -3 20 1 27 9 7 8 18 13 25 10 7 -3 14
-1 16 4 2 6 15 11 31 12 15 1 27 6 27 9 0 4 15 11 33 15 17 4 35 9 40 10 4 1
9 3 12 4 3 1 8 3 13 5 4 1 20 7 35 13 16 7 30 12 33 12 2 0 4 -254 4 -565 l0
-566 23 12 c12 7 23 11 25 10 2 -2 7 1 10 5 4 4 1 4 -7 -1 -9 -5 -12 -4 -7 3
4 7 13 12 20 12 7 0 23 11 36 25 13 14 29 25 36 25 7 0 22 12 34 28 12 15 18
20 15 12 -4 -8 5 -1 20 15 14 17 23 23 20 15 -4 -8 2 -4 13 10 11 13 18 28 16
32 -2 3 0 9 5 13 6 3 8 -4 6 -16 -4 -19 -2 -19 23 6 33 33 93 81 107 86 6 2
23 15 38 29 16 14 33 25 37 25 5 0 12 4 17 9 5 5 2 6 -7 2 -8 -4 -4 2 10 13
14 11 29 21 33 21 5 0 16 8 25 18 10 10 15 13 12 7 -3 -6 8 3 23 20 16 16 26
23 22 15 -4 -8 5 -2 19 13 14 15 26 24 26 20 1 -4 10 3 20 16 11 13 20 19 20
15 0 -5 4 -4 8 1 10 14 101 87 135 108 l27 17 0 854 0 854 -25 -2 c-14 0 -25
-5 -25 -10z m-3970 -4282 c0 -8 -19 -13 -24 -6 -3 5 1 9 9 9 8 0 15 -2 15 -3z"/>
<path d="M2 2098 l-2 -2098 2098 2 c1153 1 2077 3 2052 5 -1230 84 -2342 652
-3131 1598 -351 420 -644 954 -809 1470 -101 318 -180 732 -203 1075 -2 25 -4
-899 -5 -2052z"/>
<path d="M8857 4078 c-13 -210 -65 -521 -132 -775 -210 -801 -665 -1561 -1266
-2113 -756 -696 -1669 -1097 -2684 -1179 -55 -5 841 -9 1998 -10 l2097 -1 0
2095 c0 1152 -2 2095 -3 2095 -2 0 -7 -51 -10 -112z"/>
</g>
</svg>
