<?xml version="1.0" encoding="utf-8"?>
<!-- Generator: Adobe Illustrator 24.1.3, SVG Export Plug-In . SVG Version: 6.00 Build 0)  -->
<svg version="1.1" xmlns="http://www.w3.org/2000/svg" xmlns:xlink="http://www.w3.org/1999/xlink" x="0px" y="0px"
	 viewBox="0 0 974.66 974.66" style="enable-background:new 0 0 974.66 974.66;" xml:space="preserve">
<style type="text/css">
	.st0{fill:#1B57F6;}
	.st1{fill:#1300CA;}
	.st2{fill:none;stroke:#78F7FD;stroke-width:20;stroke-miterlimit:10;}
	.st3{fill:none;stroke:#78F7FD;stroke-width:4;stroke-miterlimit:10;}
	.st4{display:none;fill:#1C57F6;}
	.st5{fill:#FFFFFF;}
	.st6{fill:#5A8DFF;}
	.st7{fill:#78F7FD;}
	.st8{fill:none;stroke:#FFFFFF;stroke-width:5;stroke-miterlimit:10;}
	.st9{fill:#2825F9;}
	.st10{filter:url(#Adobe_OpacityMaskFilter);}
	.st11{mask:url(#SVGID_1_);}
	.st12{fill:#1D2E5E;}
	.st13{fill:#1C1C1C;}
	.st14{fill:url(#SVGID_2_);}
	.st15{fill:url(#SVGID_3_);}
	.st16{filter:url(#Adobe_OpacityMaskFilter_1_);}
	.st17{opacity:0.45;mask:url(#SVGID_4_);}
	.st18{fill:#1257E0;}
	.st19{opacity:0.21;}
	.st20{fill:url(#SVGID_5_);}
	.st21{fill:url(#SVGID_6_);}
	.st22{fill:url(#SVGID_7_);}
	.st23{fill:url(#SVGID_8_);}
	.st24{fill:url(#SVGID_9_);}
	.st25{fill:url(#SVGID_10_);}
	.st26{fill:url(#SVGID_11_);}
	.st27{fill:url(#SVGID_12_);}
	.st28{fill:url(#SVGID_13_);}
	.st29{fill:url(#SVGID_14_);}
</style>
<g id="图层_1">
	<g>
		<circle class="st6" cx="487.33" cy="487.33" r="473.82"/>
		<circle class="st0" cx="487.33" cy="487.33" r="386.67"/>
		<path class="st0" d="M144.68,487.33c0-206.19,161.39-374.66,364.73-386.04c-7.26-0.41-14.58-0.63-21.94-0.63
			c-213.55,0-386.67,173.12-386.67,386.67C100.8,700.88,273.91,874,487.47,874c7.37,0,14.68-0.23,21.94-0.63
			C306.07,861.99,144.68,693.52,144.68,487.33z"/>
		<g>
			<path class="st5" d="M441.41,472.29c1.04,0.39,2.1,0.57,3.15,0.57c3.64,0,7.07-2.23,8.42-5.84c1.74-4.65-0.62-9.83-5.27-11.57
				c-52.25-19.54-97.15-47.2-133.43-82.22c-3.57-3.45-9.26-3.34-12.71,0.23c-3.45,3.57-3.34,9.26,0.23,12.71
				C339.86,422.91,386.83,451.88,441.41,472.29z"/>
			<path class="st5" d="M439.59,497.77c-8.4-1.33-16.28,4.41-17.6,12.8s4.41,16.28,12.8,17.6c8.39,1.33,16.28-4.41,17.6-12.8
				C453.72,506.98,447.99,499.1,439.59,497.77z"/>
			<path class="st5" d="M605.99,455c1.33-8.4-4.41-16.28-12.8-17.6c-8.39-1.33-16.28,4.41-17.6,12.8c-1.33,8.4,4.41,16.28,12.8,17.6
				C596.78,469.13,604.66,463.39,605.99,455z"/>
			<path class="st5" d="M554.16,550.32c-22.31,16-51.07,20.54-80.98,12.78c-4.81-1.25-9.71,1.64-10.96,6.44
				c-1.25,4.8,1.64,9.71,6.44,10.96c11.07,2.87,22.03,4.3,32.69,4.3c23.2,0,44.97-6.73,63.28-19.87
				c22.66-16.26,36.72-40.26,38.58-65.86c0.36-4.95-3.36-9.25-8.32-9.61c-4.99-0.37-9.25,3.36-9.61,8.32
				C583.82,518.03,572.48,537.18,554.16,550.32z"/>
			<path class="st5" d="M514.82,392.77c16.24,3.77,31.21,11.94,43.3,23.61c1.74,1.68,3.99,2.52,6.24,2.52c2.35,0,4.7-0.92,6.47-2.74
				c3.45-3.57,3.35-9.26-0.22-12.71c-14.43-13.93-32.31-23.68-51.78-28.2c-51.75-11.67-99.3-37.6-137.53-74.98
				c-3.55-3.47-9.24-3.41-12.71,0.14c-3.47,3.55-3.41,9.24,0.14,12.71C409.34,352.83,459.88,380.38,514.82,392.77z"/>
			<path class="st5" d="M280.97,444.6c39.41,28.24,69.58,44.5,108.38,63.03c1.25,0.6,2.57,0.88,3.87,0.88
				c3.35,0,6.57-1.89,8.11-5.12c2.14-4.48,0.24-9.84-4.24-11.98c-37.89-18.1-67.33-33.96-105.66-61.42
				c-4.04-2.89-9.65-1.96-12.54,2.07C276.01,436.09,276.93,441.71,280.97,444.6z"/>
			<path class="st5" d="M422.04,576.24c3.9,0,7.49-2.55,8.63-6.48c1.38-4.77-1.36-9.75-6.13-11.14
				c-45.97-13.35-92.26-36.35-137.58-68.37c-4.05-2.86-9.66-1.9-12.53,2.15c-2.86,4.05-1.9,9.66,2.15,12.53
				c46.95,33.18,95.04,57.05,142.94,70.96C420.37,576.12,421.21,576.24,422.04,576.24z"/>
			<path class="st5" d="M537.59,279.61c-0.01,0-0.02-0.01-0.03-0.01c-15.6-3.75-30.69-9.49-44.86-17.06
				c-4.37-2.34-9.82-0.69-12.16,3.69c-0.72,1.35-1.06,2.8-1.06,4.23c0,3.21,1.73,6.31,4.75,7.93c15.52,8.3,32.05,14.58,49.14,18.69
				c0.04,0.01,0.07,0,0.11,0.01c0.04,0.01,0.08,0.03,0.12,0.04c87.07,18.52,150.26,96.68,150.26,185.84
				c0,102.37-81.38,186.08-182.84,189.86l-7.29,0.11c-7.7,0.12-15.56-0.18-23.33-0.87c-24.7-2.3-62.55-9.36-102.64-29.94
				c-4.42-2.27-9.83-0.52-12.1,3.89c-2.27,4.42-0.52,9.83,3.89,12.1c42.64,21.89,82.91,29.4,109.22,31.85
				c5.36,0.48,10.75,0.78,16.11,0.9l8.99,0.07c114.68,0,207.97-93.29,207.97-207.97C701.82,385.46,632.77,299.99,537.59,279.61z"/>
			<path class="st5" d="M493.85,642.23c87.82,0,159.27-71.45,159.27-159.27c0-71.28-48.56-134.49-116.62-153.47l0.03-0.16l-8.23-1.9
				c-37.07-8.57-72.04-26.27-101.15-51.17c-3.77-3.22-9.44-2.78-12.67,0.99c-3.23,3.77-2.78,9.45,0.99,12.67
				c29.14,24.93,63.76,43.14,100.58,52.98l-0.04,0.24l8.33,1.84c64.21,14.17,110.81,72.2,110.81,137.98
				c0,77.91-63.38,141.29-141.29,141.29c-8.92,0-38.26-2.73-65.69-9.05c-29.15-6.71-78.88-24.3-123.07-51.75
				c-4.22-2.62-9.76-1.32-12.38,2.89c-2.62,4.22-1.32,9.76,2.89,12.38c46.06,28.62,98.02,46.98,128.52,54
				C452.95,639.36,484.25,642.23,493.85,642.23z"/>
			<path class="st5" d="M503.67,440.19c18.34,4.21,36.12,21.04,34.11,41.92c-1.1,11.46-5.77,20.21-13.5,25.28
				c-9.25,6.08-22.36,6.85-36.9,2.15c-4.72-1.53-9.79,1.07-11.31,5.79c-1.53,4.72,1.07,9.79,5.79,11.31
				c8.08,2.61,15.96,3.9,23.39,3.9c10.8,0,20.67-2.73,28.9-8.14c12.44-8.17,19.88-21.52,21.52-38.59
				c2.69-27.98-17.94-54.27-48-61.16c-61.78-14.02-118.27-45.33-163.37-90.53c-3.51-3.51-9.2-3.52-12.71-0.01
				c-3.51,3.51-3.52,9.2-0.01,12.71C379.07,392.44,438.59,425.42,503.67,440.19z"/>
		</g>
	</g>
</g>
<g id="图层_2">
</g>
</svg>
