<?xml version="1.0" encoding="utf-8"?>
<svg width="240" height="240" viewBox="0 0 240 240" fill="none" xmlns="http://www.w3.org/2000/svg">
    <rect width="240" height="240" rx="120" fill="#AEF21E" />
    <path
        d="M189.822 90.5013C186.004 81.4681 180.546 73.3662 173.583 66.4105C166.634 59.4548 158.532 53.9962 149.499 50.1781C140.151 46.2167 130.222 44.2109 119.993 44.2109C109.763 44.2109 99.8491 46.2167 90.4936 50.1781C81.4676 53.9891 73.3658 59.4548 66.4029 66.4105C59.4543 73.3662 53.9886 81.4681 50.1633 90.5013C46.2091 99.8567 44.2104 109.785 44.2104 120.008C44.2104 130.23 46.2091 140.151 50.1633 149.507C53.9886 158.533 59.4471 166.635 66.4029 173.597C73.3658 180.553 81.4676 186.012 90.4936 189.83C99.8491 193.784 109.778 195.79 119.993 195.79C130.208 195.79 140.144 193.784 149.499 189.83C158.532 186.012 166.634 180.546 173.583 173.597C180.546 166.635 186.004 158.533 189.822 149.507C193.776 140.151 195.789 130.23 195.789 120.008C195.789 109.785 193.776 99.8496 189.822 90.5013ZM101.669 147.107H82.0049C82.227 155.947 85.9018 163.504 92.6426 168.991C97.8433 173.232 104.441 175.926 112.263 177.007L112.636 177.057V183.168L112.156 183.111C80.3788 179.206 56.4098 152.071 56.4098 120.008C56.4098 87.9439 80.3788 60.8015 112.156 56.8974L112.636 56.8401V63.6884L112.263 63.7385C104.448 64.8131 97.8505 67.5137 92.6426 71.7545C85.6726 77.4279 81.9906 85.3006 81.9906 94.52C81.9906 103.739 87.7357 112.149 99.0683 120.022L99.5697 120.373L99.0683 120.724C89.0824 127.672 83.4304 135.158 82.2341 143.031C82.2126 143.153 82.1983 143.267 82.184 143.389H85.9448C85.9591 143.267 85.9806 143.153 86.0021 143.031C87.2915 136.061 92.8361 129.284 102.535 122.844C102.593 122.808 102.657 122.766 102.722 122.723L102.994 122.594L115.659 129.248L114.95 129.635C112.822 130.803 110.852 131.992 109.097 133.16C103.961 136.598 100.401 140.044 98.8319 143.031C98.7674 143.153 98.7101 143.275 98.6528 143.389H102.994C103.073 143.275 103.166 143.153 103.266 143.031C104.663 141.269 107.113 138.955 111.16 136.247C114.405 134.084 117.672 132.336 119.849 131.254L120.036 131.161L120.222 131.254C130.057 136.125 138.36 142.981 138.36 146.226C138.36 157.05 124.305 157.888 120 157.888C115.695 157.888 102.406 157.093 101.669 147.107ZM128.159 183.068L127.686 183.132V177.022L128.044 176.964C135.724 175.854 142.221 173.175 147.35 168.991C154.32 163.318 158.002 155.445 158.002 146.226C158.002 137.006 152.257 128.597 140.924 120.724L140.423 120.373L140.924 120.022C150.674 113.238 156.29 105.939 157.658 98.2736C157.68 98.1447 157.701 98.0157 157.723 97.8868H153.955C153.94 98.0157 153.912 98.1447 153.883 98.2736C152.4 105.05 146.899 111.633 137.479 117.88C137.429 117.916 137.386 117.952 137.336 117.98L136.984 118.217L124.298 111.526L125.05 111.111C127.163 109.95 129.133 108.768 130.896 107.586C135.717 104.363 139.141 101.132 140.846 98.2736C140.924 98.1447 140.996 98.0157 141.068 97.8868H136.583C136.483 98.0157 136.376 98.1447 136.261 98.2736C134.814 99.957 132.464 102.07 128.832 104.506C125.587 106.669 122.342 108.396 120.186 109.47L120 109.563L119.814 109.47C116.64 107.894 113.732 106.225 111.16 104.506C103.624 99.4628 101.633 95.7736 101.633 94.52C101.633 83.7031 115.695 82.865 120 82.865C124.305 82.865 138.038 83.6816 138.353 94.1475V94.1689H157.995V94.1475C157.902 85.0857 154.227 77.3491 147.35 71.7545C142.221 67.571 135.724 64.8919 128.044 63.7815L127.686 63.7314V56.8759L128.159 56.9333C159.757 60.9878 183.583 88.1015 183.583 120.008C183.583 151.914 159.757 179.02 128.159 183.068Z"
        fill="black" />
</svg>
