<svg version="1.1" id="Layer_1" xmlns="http://www.w3.org/2000/svg" xmlns:xlink="http://www.w3.org/1999/xlink" x="0px" y="0px"
	 width="100%" viewBox="0 0 1024 1024" enable-background="new 0 0 1024 1024" xml:space="preserve">
<path fill="#FFFFFF" opacity="1.000000" stroke="none" 
	d="
M566.000000,1025.000000 
	C377.333344,1025.000000 189.166672,1025.000000 1.000000,1025.000000 
	C1.000000,683.666687 1.000000,342.333344 1.000000,1.000000 
	C342.333344,1.000000 683.666687,1.000000 1025.000000,1.000000 
	C1025.000000,342.333344 1025.000000,683.666687 1025.000000,1025.000000 
	C872.166687,1025.000000 719.333313,1025.000000 566.000000,1025.000000 
M496.141815,81.011391 
	C481.448151,82.378975 466.754517,83.746552 451.388580,85.001144 
	C450.579285,85.360947 449.769989,85.720749 448.103668,85.947670 
	C443.094604,86.680519 438.085571,87.413361 432.266144,88.074928 
	C413.001129,93.069908 393.307861,96.819138 374.543152,103.269577 
	C279.314941,136.004684 204.032486,194.711914 149.395035,279.393188 
	C120.918785,323.527863 101.319588,371.427307 90.958809,423.841156 
	C85.391815,449.641205 82.332146,475.792877 82.275833,502.128815 
	C82.233322,522.016235 83.468346,541.951050 85.129372,561.781494 
	C86.201164,574.577209 89.070427,587.222351 91.097336,600.729004 
	C97.689873,631.859375 107.324249,662.007385 120.617096,690.931641 
	C149.198242,753.122131 190.499939,805.416138 243.856750,848.161682 
	C295.973694,889.913940 354.829742,917.636047 420.815399,932.051758 
	C428.860229,933.600708 436.905029,935.149658 445.621368,936.939575 
	C446.094116,936.930115 446.566864,936.920654 447.835419,937.058044 
	C449.134308,937.329895 450.421875,937.686340 451.733704,937.861328 
	C490.755524,943.066345 529.816162,943.862183 569.500916,938.896179 
	C569.683044,938.832825 569.865173,938.769409 570.845947,938.743591 
	C574.552307,938.138550 578.258606,937.533447 582.801086,937.012634 
	C603.278381,932.106018 624.191589,928.543091 644.159607,922.066345 
	C744.588501,889.491638 822.984070,828.180115 879.126343,738.739197 
	C901.521973,703.060364 918.331177,664.828918 929.108459,623.227661 
	C932.640137,605.501404 936.171875,587.775146 939.877686,569.498474 
	C939.861206,569.306763 939.844788,569.114990 939.981995,568.134705 
	C940.276550,565.431580 940.571045,562.728455 940.989929,559.494446 
	C940.962708,559.314758 940.935486,559.135071 941.031799,558.131226 
	C941.615906,551.103027 942.200012,544.074768 942.957458,536.351501 
	C942.924011,535.877502 942.890564,535.403442 942.978516,534.041016 
	C944.272705,507.953064 943.372803,481.951691 939.997681,455.209595 
	C936.851379,430.096558 931.613525,405.404846 923.863342,381.333099 
	C890.325256,277.164825 826.628357,196.747269 732.877380,140.305420 
	C704.579773,123.269142 674.616089,109.733505 642.253906,99.889175 
	C640.838379,99.598984 639.422913,99.308784 637.604004,98.934113 
	C637.604004,98.934113 637.192078,98.946953 636.749207,98.352333 
	C626.517212,95.681076 616.285156,93.009811 605.275574,90.046906 
	C601.508423,89.382935 597.741272,88.718971 593.240112,87.857834 
	C590.520020,87.385345 587.799988,86.912857 584.410889,86.131927 
	C583.923340,86.124046 583.435791,86.116158 582.166809,85.959572 
	C571.790466,84.696045 561.414185,83.432518 550.166443,81.980614 
	C545.087708,81.692444 540.008911,81.404266 534.006470,81.029243 
	C521.676208,81.068062 509.345947,81.106873 496.141815,81.011391 
z"/>
<path fill="#6E98C9" opacity="1.000000" stroke="none" 
	d="
M928.872192,623.947144 
	C918.331177,664.828918 901.521973,703.060364 879.126343,738.739197 
	C822.984070,828.180115 744.588501,889.491638 644.159607,922.066345 
	C624.191589,928.543091 603.278381,932.106018 582.112427,936.687805 
	C577.631592,937.143982 573.839478,937.924988 570.047302,938.705933 
	C569.865173,938.769409 569.683044,938.832825 568.915771,938.602051 
	C566.019958,938.211914 563.699585,937.929077 561.400208,938.049500 
	C543.575745,938.983093 525.760132,940.099976 507.930237,940.904724 
	C503.674744,941.096802 499.373993,940.349365 495.097260,939.995789 
	C483.587524,939.044250 472.085693,937.986938 460.567719,937.150574 
	C456.076263,936.824341 451.550018,936.976746 447.039612,936.911133 
	C446.566864,936.920654 446.094116,936.930115 445.194885,936.469116 
	C438.723022,934.642883 432.699646,933.173828 426.620239,931.993164 
	C424.504700,931.582336 422.250671,931.884583 420.059906,931.861145 
	C354.829742,917.636047 295.973694,889.913940 243.856750,848.161682 
	C190.499939,805.416138 149.198242,753.122131 120.617096,690.931641 
	C107.324249,662.007385 97.689873,631.859375 91.381851,600.065552 
	C91.616081,597.945068 91.760147,596.450439 91.486404,595.036560 
	C87.332077,573.580872 84.417191,551.952393 84.115158,530.099243 
	C83.890457,513.839844 84.152443,497.535065 85.148796,481.308899 
	C86.017548,467.160767 88.260521,453.099152 89.804192,438.989227 
	C90.383362,433.695312 90.702858,428.373016 91.140747,423.063660 
	C101.319588,371.427307 120.918785,323.527863 149.395035,279.393188 
	C204.032486,194.711914 279.314941,136.004684 374.543152,103.269577 
	C393.307861,96.819138 413.001129,93.069908 432.947083,88.376358 
	C438.738892,87.812042 443.849762,86.946289 448.960663,86.080551 
	C449.769989,85.720749 450.579285,85.360947 452.003815,85.333488 
	C461.170105,85.026810 469.724915,84.433586 478.270966,83.733521 
	C484.524658,83.221252 490.766876,82.568542 497.481384,81.986923 
	C508.544952,81.997780 519.141602,82.039894 529.737366,81.962738 
	C531.470276,81.950119 533.199341,81.411568 534.930176,81.116089 
	C540.008911,81.404266 545.087708,81.692444 550.693970,82.451019 
	C558.290283,83.950874 565.342041,85.128418 572.435242,85.946335 
	C575.899719,86.345825 579.441467,86.075455 582.948242,86.108276 
	C583.435791,86.116158 583.923340,86.124046 584.836426,86.613312 
	C588.166077,87.414803 591.070068,87.734909 593.974121,88.055008 
	C597.741272,88.718971 601.508423,89.382935 605.746460,90.530121 
	C616.542236,93.657875 626.867188,96.302422 637.192078,98.946960 
	C637.192078,98.946953 637.604004,98.934113 637.952087,99.283875 
	C639.847961,99.802261 641.395691,99.970894 642.943481,100.139526 
	C674.616089,109.733505 704.579773,123.269142 732.877380,140.305420 
	C826.628357,196.747269 890.325256,277.164825 923.863342,381.333099 
	C931.613525,405.404846 936.851379,430.096558 939.667358,455.911804 
	C939.256104,458.594788 938.979614,460.590149 939.126160,462.553925 
	C940.025146,474.601196 941.337219,486.626923 941.885986,498.688263 
	C942.355164,509.000092 941.945251,519.350403 942.025940,529.682861 
	C942.039612,531.433777 942.567078,533.180664 942.857178,534.929443 
	C942.890564,535.403442 942.924011,535.877502 942.495056,536.798462 
	C941.354370,542.783325 940.562012,548.311157 940.067383,553.865479 
	C939.919617,555.523987 940.604736,557.256714 940.908264,558.955444 
	C940.935486,559.135071 940.962708,559.314758 940.555847,559.844849 
	C940.023987,563.104614 939.926208,566.013977 939.828369,568.923279 
	C939.844788,569.114990 939.861206,569.306763 939.438110,569.864990 
	C938.693298,570.598938 938.193909,570.927246 938.110657,571.339600 
	C934.787354,587.807617 931.480408,604.279114 928.264709,620.768372 
	C928.073059,621.751099 928.651917,622.884094 928.872192,623.947144 
M670.985352,810.989929 
	C670.985352,810.989929 670.920410,810.960999 671.552002,810.929565 
	C672.028137,810.583557 672.504333,810.237610 672.978699,809.968506 
	C672.978699,809.968506 672.904480,809.948547 673.600769,809.915466 
	C674.145874,809.522156 674.690979,809.128845 675.596497,808.198547 
	C738.389099,772.909058 786.006409,723.288086 817.450073,658.301880 
	C828.652588,635.149048 836.440552,610.857422 843.254883,585.658508 
	C843.808228,584.289917 844.610046,582.968140 844.878235,581.545776 
	C850.144958,553.610962 852.909241,525.457336 851.919800,497.005096 
	C851.873047,495.661560 850.754333,494.355316 849.976929,492.347260 
	C850.015442,491.882690 850.053955,491.418091 850.662415,490.372955 
	C850.778625,488.895752 851.157715,487.384308 850.970276,485.946686 
	C849.118469,471.747040 847.330078,457.535400 845.151001,443.384521 
	C844.553528,439.504456 842.706665,435.816772 841.081299,431.418610 
	C840.692932,429.805054 840.328857,428.185211 839.912781,426.578857 
	C821.831421,356.776550 784.882629,298.816559 730.233337,251.996658 
	C710.559082,235.141052 688.752625,221.469635 665.756897,208.638702 
	C660.804321,206.447327 655.851685,204.255951 650.978577,202.054886 
	C650.978577,202.054886 650.965759,202.133926 650.713379,201.448364 
	C648.443176,200.652359 646.173035,199.856339 643.981384,199.049362 
	C643.981384,199.049362 643.967773,199.127472 643.717834,198.447937 
	C640.446411,197.319092 637.174988,196.190231 633.982788,195.057724 
	C633.982788,195.057724 633.966797,195.135391 633.707886,194.448715 
	C623.890686,191.036942 614.087158,187.584488 604.233337,184.282120 
	C603.339478,183.982559 602.122253,184.648117 600.275696,184.867294 
	C592.834229,183.152420 585.392700,181.437561 577.782288,179.023010 
	C577.261658,178.684631 576.772644,178.118683 576.215759,178.041336 
	C563.870483,176.326660 551.535339,174.511322 539.154602,173.098434 
	C535.856689,172.722076 532.414429,173.610428 528.352844,174.035416 
	C527.893982,173.984711 527.435059,173.933990 526.792053,173.107422 
	C526.269836,172.761185 525.750549,172.118210 525.225037,172.113068 
	C516.923584,172.031967 508.620300,171.964905 500.320618,172.096588 
	C499.222992,172.114014 498.142975,173.240005 496.168732,173.975861 
	C484.920166,175.067703 473.596069,175.658844 462.436615,177.341721 
	C423.003235,183.288376 385.654388,195.295944 350.704224,214.973755 
	C278.921448,255.389267 227.549820,313.481964 197.379395,390.128632 
	C184.624741,422.531250 178.121002,456.380798 175.015884,491.272247 
	C174.687469,491.980408 174.076187,492.687134 174.072662,493.396912 
	C174.010773,505.895294 173.982178,518.394409 174.095352,530.892090 
	C174.104584,531.912292 175.190857,532.922729 175.991119,534.808472 
	C178.344025,551.225525 179.637421,567.878479 183.231140,584.019287 
	C199.804443,658.456360 236.185547,721.230896 295.482269,769.899780 
	C324.532318,793.743225 357.049011,810.300842 395.278137,814.995789 
	C395.818939,815.312866 396.357056,815.900757 396.900940,815.906128 
	C404.385712,815.980286 411.872131,816.029663 419.355438,815.912598 
	C420.220337,815.899048 421.069000,814.850525 422.769928,814.036133 
	C435.487213,810.994751 448.699768,809.265259 460.835602,804.683716 
	C512.036072,785.354004 545.551453,735.119507 536.763306,678.870300 
	C529.879211,634.807495 504.437775,605.120667 462.302734,590.105530 
	C447.637665,584.879456 432.333496,584.488586 416.430481,584.371155 
	C411.586578,584.860291 406.706879,585.130371 401.910980,585.913513 
	C398.567657,586.459412 395.339233,587.708862 391.507446,588.859131 
	C391.310394,588.845520 391.113373,588.831970 390.338959,588.302124 
	C386.043488,588.770203 381.727264,589.104675 377.462219,589.768311 
	C375.605713,590.057190 373.854370,591.021851 371.508148,591.886597 
	C371.313843,591.869995 371.119568,591.853394 370.411102,591.337646 
	C368.623322,591.802856 366.835541,592.268066 364.230774,592.975708 
	C345.521545,595.913391 326.826080,598.942627 308.097198,601.749207 
	C299.069336,603.102112 290.000397,604.297852 280.907562,605.052490 
	C276.112152,605.450439 272.804169,602.433350 270.919952,598.105835 
	C268.973907,593.636292 270.016296,589.618652 273.269653,586.165588 
	C274.865021,584.472229 276.652435,582.954895 278.397247,581.407959 
	C306.816772,556.210571 335.245514,531.023621 363.668030,505.829590 
	C393.835236,479.089020 423.994171,452.339111 454.163574,425.601013 
	C494.306305,390.023834 534.463928,354.463562 574.598145,318.876801 
	C591.044983,304.293518 607.447327,289.660126 624.519104,274.976166 
	C624.988098,274.595947 625.457031,274.215759 625.853943,273.895386 
	C625.853943,273.895386 625.813049,273.811188 626.612671,273.877441 
	C632.129395,270.827606 637.656799,271.958344 643.145569,273.915009 
	C643.145569,273.915009 643.073730,273.861359 643.244141,274.375092 
	C643.543457,274.558105 643.842712,274.741119 644.092529,274.846191 
	C644.092529,274.846191 644.176941,274.808807 644.091797,275.503937 
	C644.795288,276.302643 645.498779,277.101379 646.155457,277.975952 
	C646.155457,277.975952 646.076904,277.933807 646.018433,278.876648 
	C646.005859,293.583649 645.993286,308.290680 645.388489,323.078308 
	C645.072449,323.484619 644.756409,323.890930 644.440308,324.297272 
	C644.953735,324.532288 645.467163,324.767303 645.989807,325.938507 
	C645.986694,331.958435 645.983582,337.978333 645.224792,344.166046 
	C643.597656,346.959198 642.458130,349.705292 645.989014,352.800842 
	C645.985962,353.866425 645.982910,354.932037 645.387756,356.078339 
	C645.071899,356.484650 644.755981,356.890930 644.440125,357.297211 
	C644.953430,357.532257 645.466736,357.767303 645.989136,358.918060 
	C645.986572,362.277985 645.983948,365.637878 645.317871,369.101105 
	C645.538879,370.068146 645.759949,371.035187 645.989258,372.801361 
	C645.986816,373.867004 645.984375,374.932648 645.234436,376.158661 
	C643.494019,378.656769 642.708679,381.050659 645.989746,383.938263 
	C645.986389,390.291473 645.983093,396.644714 645.291748,403.123688 
	C643.339844,404.802765 643.237671,406.154236 645.987732,407.801239 
	C645.985291,408.866913 645.982849,409.932587 645.224731,411.166138 
	C643.597717,413.959412 642.457886,416.705658 645.989929,419.936646 
	C645.987732,425.290558 645.985535,430.644470 645.235474,436.158569 
	C643.493652,438.657318 642.706665,441.051636 645.991882,443.938599 
	C645.987915,467.625153 645.983948,491.311676 645.250366,515.149597 
	C643.333374,517.369690 642.916138,519.402710 645.988831,521.834412 
	C645.985657,523.222290 645.982483,524.610107 645.291321,526.123718 
	C643.339844,527.803650 643.237671,529.155273 645.988708,530.909790 
	C645.985779,533.939209 645.982849,536.968689 645.291870,540.123718 
	C643.339478,541.803345 643.237366,543.154846 645.988708,544.909790 
	C645.985596,547.939209 645.982483,550.968689 645.249878,554.149719 
	C643.333496,556.370361 642.916199,558.403625 645.989868,560.938782 
	C645.988098,588.193665 646.008057,615.448547 645.941833,642.703247 
	C645.936768,644.802917 645.324951,646.901123 644.400085,649.077087 
	C644.079041,649.481262 643.758057,649.885498 643.437073,650.289734 
	C643.949707,650.527405 644.462341,650.765076 644.980652,651.891235 
	C644.976807,654.262573 644.972961,656.633972 644.204834,659.174500 
	C642.968689,666.693909 641.711182,674.210144 640.566467,681.743469 
	C640.515076,682.081604 641.487183,682.575256 642.020935,683.804565 
	C627.414062,749.967468 592.054077,803.455566 540.624817,848.054932 
	C566.784302,846.224304 591.102905,841.168457 615.513611,834.633240 
	C615.992798,834.714172 616.555176,835.001282 616.939148,834.846313 
	C633.485779,828.165344 650.027893,821.472534 666.522034,814.663818 
	C667.540588,814.243347 668.166077,812.871033 668.990173,812.002686 
	C668.990173,812.002686 668.936157,811.970398 669.560181,811.931335 
	C670.035095,811.593872 670.510010,811.256409 670.985352,810.989929 
z"/>
<path fill="#5787C0" opacity="1.000000" stroke="none" 
	d="
M91.049774,423.452393 
	C90.702858,428.373016 90.383362,433.695312 89.804192,438.989227 
	C88.260521,453.099152 86.017548,467.160767 85.148796,481.308899 
	C84.152443,497.535065 83.890457,513.839844 84.115158,530.099243 
	C84.417191,551.952393 87.332077,573.580872 91.486404,595.036560 
	C91.760147,596.450439 91.616081,597.945068 91.400253,599.668579 
	C89.070427,587.222351 86.201164,574.577209 85.129372,561.781494 
	C83.468346,541.951050 82.233322,522.016235 82.275833,502.128815 
	C82.332146,475.792877 85.391815,449.641205 91.049774,423.452393 
z"/>
<path fill="#5A89C1" opacity="1.000000" stroke="none" 
	d="
M447.437500,936.984619 
	C451.550018,936.976746 456.076263,936.824341 460.567719,937.150574 
	C472.085693,937.986938 483.587524,939.044250 495.097260,939.995789 
	C499.373993,940.349365 503.674744,941.096802 507.930237,940.904724 
	C525.760132,940.099976 543.575745,938.983093 561.400208,938.049500 
	C563.699585,937.929077 566.019958,938.211914 568.627625,938.576477 
	C529.816162,943.862183 490.755524,943.066345 451.733704,937.861328 
	C450.421875,937.686340 449.134308,937.329895 447.437500,936.984619 
z"/>
<path fill="#5485BF" opacity="1.000000" stroke="none" 
	d="
M942.917847,534.485229 
	C942.567078,533.180664 942.039612,531.433777 942.025940,529.682861 
	C941.945251,519.350403 942.355164,509.000092 941.885986,498.688263 
	C941.337219,486.626923 940.025146,474.601196 939.126160,462.553925 
	C938.979614,460.590149 939.256104,458.594788 939.619019,456.332916 
	C943.372803,481.951691 944.272705,507.953064 942.917847,534.485229 
z"/>
<path fill="#5A89C1" opacity="1.000000" stroke="none" 
	d="
M928.990356,623.587402 
	C928.651917,622.884094 928.073059,621.751099 928.264709,620.768372 
	C931.480408,604.279114 934.787354,587.807617 938.110657,571.339600 
	C938.193909,570.927246 938.693298,570.598938 939.351074,570.140137 
	C936.171875,587.775146 932.640137,605.501404 928.990356,623.587402 
z"/>
<path fill="#5284BF" opacity="1.000000" stroke="none" 
	d="
M497.014191,81.978424 
	C490.766876,82.568542 484.524658,83.221252 478.270966,83.733521 
	C469.724915,84.433586 461.170105,85.026810 452.339966,85.389984 
	C466.754517,83.746552 481.448151,82.378975 496.574860,81.286713 
	C497.007904,81.562035 497.014191,81.978424 497.014191,81.978424 
z"/>
<path fill="#5485BF" opacity="1.000000" stroke="none" 
	d="
M582.557495,86.033928 
	C579.441467,86.075455 575.899719,86.345825 572.435242,85.946335 
	C565.342041,85.128418 558.290283,83.950874 551.129639,82.545204 
	C561.414185,83.432518 571.790466,84.696045 582.557495,86.033928 
z"/>
<path fill="#5A89C1" opacity="1.000000" stroke="none" 
	d="
M636.970642,98.649643 
	C626.867188,96.302422 616.542236,93.657875 606.135254,90.675941 
	C616.285156,93.009811 626.517212,95.681076 636.970642,98.649643 
z"/>
<path fill="#5A89C1" opacity="1.000000" stroke="none" 
	d="
M420.437653,931.956421 
	C422.250671,931.884583 424.504700,931.582336 426.620239,931.993164 
	C432.699646,933.173828 438.723022,934.642883 444.859131,936.348633 
	C436.905029,935.149658 428.860229,933.600708 420.437653,931.956421 
z"/>
<path fill="#4077B8" opacity="1.000000" stroke="none" 
	d="
M497.481384,81.986916 
	C497.014191,81.978424 497.007904,81.562035 497.011780,81.353859 
	C509.345947,81.106873 521.676208,81.068062 534.468323,81.072662 
	C533.199341,81.411568 531.470276,81.950119 529.737366,81.962738 
	C519.141602,82.039894 508.544952,81.997780 497.481384,81.986916 
z"/>
<path fill="#5485BF" opacity="1.000000" stroke="none" 
	d="
M940.970032,558.543335 
	C940.604736,557.256714 939.919617,555.523987 940.067383,553.865479 
	C940.562012,548.311157 941.354370,542.783325 942.408386,537.145996 
	C942.200012,544.074768 941.615906,551.103027 940.970032,558.543335 
z"/>
<path fill="#5A89C1" opacity="1.000000" stroke="none" 
	d="
M570.446655,938.724731 
	C573.839478,937.924988 577.631592,937.143982 581.694336,936.645630 
	C578.258606,937.533447 574.552307,938.138550 570.446655,938.724731 
z"/>
<path fill="#5284BF" opacity="1.000000" stroke="none" 
	d="
M448.532166,86.014099 
	C443.849762,86.946289 438.738892,87.812042 433.352234,88.412003 
	C438.085571,87.413361 443.094604,86.680519 448.532166,86.014099 
z"/>
<path fill="#5485BF" opacity="1.000000" stroke="none" 
	d="
M593.607117,87.956421 
	C591.070068,87.734909 588.166077,87.414803 585.170959,86.767532 
	C587.799988,86.912857 590.520020,87.385345 593.607117,87.956421 
z"/>
<path fill="#5A89C1" opacity="1.000000" stroke="none" 
	d="
M939.905151,568.528992 
	C939.926208,566.013977 940.023987,563.104614 940.493652,560.110352 
	C940.571045,562.728455 940.276550,565.431580 939.905151,568.528992 
z"/>
<path fill="#5A89C1" opacity="1.000000" stroke="none" 
	d="
M642.598694,100.014343 
	C641.395691,99.970894 639.847961,99.802261 638.153809,99.326111 
	C639.422913,99.308784 640.838379,99.598984 642.598694,100.014343 
z"/>
<path fill="#FFFFFF" opacity="1.000000" stroke="none" 
	d="
M526.976196,173.883286 
	C527.435059,173.933990 527.893982,173.984711 529.129517,174.026764 
	C545.921204,175.919662 561.936218,177.821182 577.951233,179.722702 
	C585.392700,181.437561 592.834229,183.152420 601.024414,184.984421 
	C612.504333,188.446167 623.235596,191.790787 633.966797,195.135391 
	C633.966797,195.135391 633.982788,195.057724 634.178894,195.322845 
	C637.572571,196.767807 640.770203,197.947647 643.967773,199.127472 
	C643.967773,199.127472 643.981384,199.049362 644.171936,199.315033 
	C646.563599,200.431793 648.764648,201.282867 650.965759,202.133926 
	C650.965759,202.133926 650.978577,202.054886 651.158691,202.328918 
	C656.202332,204.850601 661.065979,207.098251 665.929565,209.345917 
	C688.752625,221.469635 710.559082,235.141052 730.233337,251.996658 
	C784.882629,298.816559 821.831421,356.776550 839.912781,426.578857 
	C840.328857,428.185211 840.692932,429.805054 841.361816,432.151428 
	C844.459106,452.240662 847.275818,471.597076 850.092468,490.953522 
	C850.053955,491.418091 850.015442,491.882690 850.021118,493.149963 
	C850.189270,501.418671 850.465515,508.885773 850.409058,516.350342 
	C850.231567,539.822693 846.822388,562.940552 842.518616,585.951538 
	C836.440552,610.857422 828.652588,635.149048 817.450073,658.301880 
	C786.006409,723.288086 738.389099,772.909058 675.076111,808.535339 
	C674.005310,809.230957 673.454895,809.589783 672.904480,809.948608 
	C672.904480,809.948547 672.978699,809.968506 672.682251,809.975403 
	C671.897278,810.308533 671.408813,810.634705 670.920410,810.960938 
	C670.920410,810.960999 670.985352,810.989929 670.691162,810.999634 
	C669.910034,811.329651 669.423096,811.650024 668.936157,811.970459 
	C668.936157,811.970398 668.990173,812.002686 668.629211,812.040527 
	C650.527710,819.424194 632.787170,826.770020 615.046631,834.115845 
	C591.102905,841.168457 566.784302,846.224304 540.624817,848.054932 
	C592.054077,803.455566 627.414062,749.967468 642.124634,683.030273 
	C643.435974,674.497314 644.643677,666.738770 645.923767,658.560547 
	C646.594238,648.839111 647.701538,639.537964 647.712952,630.235413 
	C647.853699,515.112061 647.845276,399.988434 647.782837,284.864929 
	C647.781616,282.554260 646.670288,280.244171 646.076904,277.933807 
	C646.076904,277.933807 646.155457,277.975952 646.184448,277.603455 
	C645.534607,276.423553 644.855774,275.616180 644.176941,274.808807 
	C644.176941,274.808807 644.092529,274.846191 644.086975,274.590637 
	C643.745544,274.177185 643.409607,274.019287 643.073730,273.861359 
	C643.073730,273.861359 643.145569,273.915009 643.050720,273.536591 
	C636.794434,268.935211 630.197449,269.186523 625.813049,273.811188 
	C625.813049,273.811188 625.853943,273.895386 625.566589,273.834167 
	C624.809448,274.198456 624.339661,274.623962 623.869934,275.049500 
	C607.447327,289.660126 591.044983,304.293518 574.598145,318.876801 
	C534.463928,354.463562 494.306305,390.023834 454.163574,425.601013 
	C423.994171,452.339111 393.835236,479.089020 363.668030,505.829590 
	C335.245514,531.023621 306.816772,556.210571 278.397247,581.407959 
	C276.652435,582.954895 274.865021,584.472229 273.269653,586.165588 
	C270.016296,589.618652 268.973907,593.636292 270.919952,598.105835 
	C272.804169,602.433350 276.112152,605.450439 280.907562,605.052490 
	C290.000397,604.297852 299.069336,603.102112 308.097198,601.749207 
	C326.826080,598.942627 345.521545,595.913391 365.009796,592.864685 
	C367.500977,592.448059 369.213104,592.142395 370.925262,591.836792 
	C371.119568,591.853394 371.313843,591.869995 372.179871,591.777344 
	C378.873138,590.718201 384.894745,589.768311 390.916321,588.818420 
	C391.113373,588.831970 391.310394,588.845520 392.176758,588.743774 
	C400.889252,587.401062 408.932404,586.173828 416.975555,584.946533 
	C432.333496,584.488586 447.637665,584.879456 462.302734,590.105530 
	C504.437775,605.120667 529.879211,634.807495 536.763306,678.870300 
	C545.551453,735.119507 512.036072,785.354004 460.835602,804.683716 
	C448.699768,809.265259 435.487213,810.994751 421.935944,814.141235 
	C412.423950,814.247437 403.745972,814.248657 395.067963,814.249817 
	C357.049011,810.300842 324.532318,793.743225 295.482269,769.899780 
	C236.185547,721.230896 199.804443,658.456360 183.231140,584.019287 
	C179.637421,567.878479 178.344025,551.225525 175.913620,533.948608 
	C175.812073,519.080811 175.788025,505.072845 175.763977,491.064911 
	C178.121002,456.380798 184.624741,422.531250 197.379395,390.128632 
	C227.549820,313.481964 278.921448,255.389267 350.704224,214.973755 
	C385.654388,195.295944 423.003235,183.288376 462.436615,177.341721 
	C473.596069,175.658844 484.920166,175.067703 497.072571,173.977936 
	C507.642975,173.947769 517.309570,173.915527 526.976196,173.883286 
z"/>
<path fill="#5A89C1" opacity="1.000000" stroke="none" 
	d="
M646.047668,278.405212 
	C646.670288,280.244171 647.781616,282.554260 647.782837,284.864929 
	C647.845276,399.988434 647.853699,515.112061 647.712952,630.235413 
	C647.701538,639.537964 646.594238,648.839111 645.703247,658.568970 
	C645.410400,658.996948 644.969116,659.005310 644.969116,659.005310 
	C644.972961,656.633972 644.976807,654.262573 644.987305,651.113281 
	C644.994324,649.890198 644.994690,649.445129 644.995117,649.000000 
	C645.324951,646.901123 645.936768,644.802917 645.941833,642.703247 
	C646.008057,615.448547 645.988098,588.193665 645.991821,560.041565 
	C645.988953,557.428955 645.984131,555.713501 645.979370,553.998108 
	C645.982483,550.968689 645.985596,547.939209 645.990784,544.055542 
	C645.988525,542.133545 645.984253,541.065796 645.979858,539.998108 
	C645.982849,536.968689 645.985779,533.939209 645.990845,530.055542 
	C645.988403,528.133484 645.983887,527.065735 645.979248,525.997986 
	C645.982483,524.610107 645.985657,523.222290 645.990967,520.989380 
	C645.988708,518.428955 645.984375,516.713623 645.979980,514.998230 
	C645.983948,491.311676 645.987915,467.625153 645.993225,443.032349 
	C645.990845,440.083557 645.987061,438.040955 645.983398,435.998383 
	C645.985535,430.644470 645.987732,425.290558 645.991821,419.024841 
	C645.989319,415.741455 645.984863,413.369843 645.980408,410.998260 
	C645.982849,409.932587 645.985291,408.866913 645.990112,407.001282 
	C645.988220,405.133514 645.984009,404.065735 645.979797,402.997925 
	C645.983093,396.644714 645.986389,390.291473 645.991638,383.032288 
	C645.989624,380.083649 645.985718,378.040955 645.981812,375.998291 
	C645.984375,374.932648 645.986816,373.867004 645.991272,372.026245 
	C645.989258,370.500031 645.985291,369.748901 645.981323,368.997803 
	C645.983948,365.637878 645.986572,362.277985 645.990601,358.126099 
	C645.987976,356.888641 645.983948,356.443146 645.979858,355.997620 
	C645.982910,354.932037 645.985962,353.866425 645.991211,351.956940 
	C645.989014,348.741455 645.984741,346.369843 645.980469,343.998260 
	C645.983582,337.978333 645.986694,331.958435 645.991089,325.136292 
	C645.988403,323.888641 645.984558,323.443146 645.980713,322.997681 
	C645.993286,308.290680 646.005859,293.583649 646.047668,278.405212 
z"/>
<path fill="#5284BF" opacity="1.000000" stroke="none" 
	d="
M842.886719,585.805054 
	C846.822388,562.940552 850.231567,539.822693 850.409058,516.350342 
	C850.465515,508.885773 850.189270,501.418671 850.100037,493.492188 
	C850.754333,494.355316 851.873047,495.661560 851.919800,497.005096 
	C852.909241,525.457336 850.144958,553.610962 844.878235,581.545776 
	C844.610046,582.968140 843.808228,584.289917 842.886719,585.805054 
z"/>
<path fill="#5A89C1" opacity="1.000000" stroke="none" 
	d="
M615.280151,834.374512 
	C632.787170,826.770020 650.527710,819.424194 668.621338,812.010010 
	C668.166077,812.871033 667.540588,814.243347 666.522034,814.663818 
	C650.027893,821.472534 633.485779,828.165344 616.939148,834.846313 
	C616.555176,835.001282 615.992798,834.714172 615.280151,834.374512 
z"/>
<path fill="#5284BF" opacity="1.000000" stroke="none" 
	d="
M850.377441,490.663239 
	C847.275818,471.597076 844.459106,452.240662 841.537781,432.462524 
	C842.706665,435.816772 844.553528,439.504456 845.151001,443.384521 
	C847.330078,457.535400 849.118469,471.747040 850.970276,485.946686 
	C851.157715,487.384308 850.778625,488.895752 850.377441,490.663239 
z"/>
<path fill="#5787C0" opacity="1.000000" stroke="none" 
	d="
M577.866760,179.372864 
	C561.936218,177.821182 545.921204,175.919662 529.472290,173.968140 
	C532.414429,173.610428 535.856689,172.722076 539.154602,173.098434 
	C551.535339,174.511322 563.870483,176.326660 576.215759,178.041336 
	C576.772644,178.118683 577.261658,178.684631 577.866760,179.372864 
z"/>
<path fill="#6B96C8" opacity="1.000000" stroke="none" 
	d="
M644.586975,659.089905 
	C644.969116,659.005310 645.410400,658.996948 645.630859,658.988525 
	C644.643677,666.738770 643.435974,674.497314 642.105469,682.626221 
	C641.487183,682.575256 640.515076,682.081604 640.566467,681.743469 
	C641.711182,674.210144 642.968689,666.693909 644.586975,659.089905 
z"/>
<path fill="#5787C0" opacity="1.000000" stroke="none" 
	d="
M526.884155,173.495361 
	C517.309570,173.915527 507.642975,173.947769 497.515564,173.916290 
	C498.142975,173.240005 499.222992,172.114014 500.320618,172.096588 
	C508.620300,171.964905 516.923584,172.031967 525.225037,172.113068 
	C525.750549,172.118210 526.269836,172.761185 526.884155,173.495361 
z"/>
<path fill="#5A89C1" opacity="1.000000" stroke="none" 
	d="
M633.837341,194.792053 
	C623.235596,191.790787 612.504333,188.446167 601.414185,184.983521 
	C602.122253,184.648117 603.339478,183.982559 604.233337,184.282120 
	C614.087158,187.584488 623.890686,191.036942 633.837341,194.792053 
z"/>
<path fill="#497CBA" opacity="1.000000" stroke="none" 
	d="
M175.389923,491.168579 
	C175.788025,505.072845 175.812073,519.080811 175.806396,533.513245 
	C175.190857,532.922729 174.104584,531.912292 174.095352,530.892090 
	C173.982178,518.394409 174.010773,505.895294 174.072662,493.396912 
	C174.076187,492.687134 174.687469,491.980408 175.389923,491.168579 
z"/>
<path fill="#5787C0" opacity="1.000000" stroke="none" 
	d="
M416.703003,584.658875 
	C408.932404,586.173828 400.889252,587.401062 392.452789,588.636169 
	C395.339233,587.708862 398.567657,586.459412 401.910980,585.913513 
	C406.706879,585.130371 411.586578,584.860291 416.703003,584.658875 
z"/>
<path fill="#497CBA" opacity="1.000000" stroke="none" 
	d="
M395.173035,814.622803 
	C403.745972,814.248657 412.423950,814.247437 421.513550,814.264038 
	C421.069000,814.850525 420.220337,815.899048 419.355438,815.912598 
	C411.872131,816.029663 404.385712,815.980286 396.900940,815.906128 
	C396.357056,815.900757 395.818939,815.312866 395.173035,814.622803 
z"/>
<path fill="#5A89C1" opacity="1.000000" stroke="none" 
	d="
M626.212891,273.844299 
	C630.197449,269.186523 636.794434,268.935211 643.070984,273.496582 
	C637.656799,271.958344 632.129395,270.827606 626.212891,273.844299 
z"/>
<path fill="#5787C0" opacity="1.000000" stroke="none" 
	d="
M390.627625,588.560303 
	C384.894745,589.768311 378.873138,590.718201 372.453430,591.673828 
	C373.854370,591.021851 375.605713,590.057190 377.462219,589.768311 
	C381.727264,589.104675 386.043488,588.770203 390.627625,588.560303 
z"/>
<path fill="#5A89C1" opacity="1.000000" stroke="none" 
	d="
M665.843262,208.992310 
	C661.065979,207.098251 656.202332,204.850601 651.118896,202.333755 
	C655.851685,204.255951 660.804321,206.447327 665.843262,208.992310 
z"/>
<path fill="#6B96C8" opacity="1.000000" stroke="none" 
	d="
M645.602661,344.082153 
	C645.984741,346.369843 645.989014,348.741455 645.987061,351.557343 
	C642.458130,349.705292 643.597656,346.959198 645.602661,344.082153 
z"/>
<path fill="#5A89C1" opacity="1.000000" stroke="none" 
	d="
M643.842773,198.787704 
	C640.770203,197.947647 637.572571,196.767807 634.139282,195.324677 
	C637.174988,196.190231 640.446411,197.319092 643.842773,198.787704 
z"/>
<path fill="#6B96C8" opacity="1.000000" stroke="none" 
	d="
M645.602539,411.082214 
	C645.984863,413.369843 645.989319,415.741455 645.987488,418.557373 
	C642.457886,416.705658 643.597717,413.959412 645.602539,411.082214 
z"/>
<path fill="#6B96C8" opacity="1.000000" stroke="none" 
	d="
M645.609375,436.078491 
	C645.987061,438.040955 645.990845,440.083557 645.989197,442.563812 
	C642.706665,441.051636 643.493652,438.657318 645.609375,436.078491 
z"/>
<path fill="#6B96C8" opacity="1.000000" stroke="none" 
	d="
M645.608154,376.078491 
	C645.985718,378.040955 645.989624,380.083649 645.987366,382.564026 
	C642.708679,381.050659 643.494019,378.656769 645.608154,376.078491 
z"/>
<path fill="#6B96C8" opacity="1.000000" stroke="none" 
	d="
M645.615173,515.073914 
	C645.984375,516.713623 645.988708,518.428955 645.986572,520.572998 
	C642.916138,519.402710 643.333374,517.369690 645.615173,515.073914 
z"/>
<path fill="#6B96C8" opacity="1.000000" stroke="none" 
	d="
M645.614624,554.073914 
	C645.984131,555.713501 645.988953,557.428955 645.987427,559.572998 
	C642.916199,558.403625 643.333496,556.370361 645.614624,554.073914 
z"/>
<path fill="#5A89C1" opacity="1.000000" stroke="none" 
	d="
M650.839600,201.791138 
	C648.764648,201.282867 646.563599,200.431793 644.132690,199.320526 
	C646.173035,199.856339 648.443176,200.652359 650.839600,201.791138 
z"/>
<path fill="#5787C0" opacity="1.000000" stroke="none" 
	d="
M370.668182,591.587219 
	C369.213104,592.142395 367.500977,592.448059 365.418274,592.743469 
	C366.835541,592.268066 368.623322,591.802856 370.668182,591.587219 
z"/>
<path fill="#6B96C8" opacity="1.000000" stroke="none" 
	d="
M645.635315,526.060852 
	C645.983887,527.065735 645.988403,528.133484 645.986389,529.601562 
	C643.237671,529.155273 643.339844,527.803650 645.635315,526.060852 
z"/>
<path fill="#6B96C8" opacity="1.000000" stroke="none" 
	d="
M645.635864,540.060913 
	C645.984253,541.065796 645.988525,542.133545 645.986267,543.601562 
	C643.237366,543.154846 643.339478,541.803345 645.635864,540.060913 
z"/>
<path fill="#6B96C8" opacity="1.000000" stroke="none" 
	d="
M645.635742,403.060791 
	C645.984009,404.065735 645.988220,405.133514 645.985596,406.601685 
	C643.237671,406.154236 643.339844,404.802765 645.635742,403.060791 
z"/>
<path fill="#6B96C8" opacity="1.000000" stroke="none" 
	d="
M645.649597,369.049438 
	C645.985291,369.748901 645.989258,370.500031 645.987122,371.626678 
	C645.759949,371.035187 645.538879,370.068146 645.649597,369.049438 
z"/>
<path fill="#5A89C1" opacity="1.000000" stroke="none" 
	d="
M644.134399,275.156372 
	C644.855774,275.616180 645.534607,276.423553 646.207825,277.565521 
	C645.498779,277.101379 644.795288,276.302643 644.134399,275.156372 
z"/>
<path fill="#6B96C8" opacity="1.000000" stroke="none" 
	d="
M644.697571,649.038574 
	C644.994690,649.445129 644.994324,649.890198 644.984436,650.669067 
	C644.462341,650.765076 643.949707,650.527405 643.437073,650.289734 
	C643.758057,649.885498 644.079041,649.481262 644.697571,649.038574 
z"/>
<path fill="#6B96C8" opacity="1.000000" stroke="none" 
	d="
M645.683838,356.037964 
	C645.983948,356.443146 645.987976,356.888641 645.986023,357.668274 
	C645.466736,357.767303 644.953430,357.532257 644.440125,357.297241 
	C644.755981,356.890930 645.071899,356.484650 645.683838,356.037964 
z"/>
<path fill="#6B96C8" opacity="1.000000" stroke="none" 
	d="
M645.684570,323.037994 
	C645.984558,323.443146 645.988403,323.888641 645.986450,324.668213 
	C645.467163,324.767303 644.953735,324.532288 644.440308,324.297241 
	C644.756409,323.890930 645.072449,323.484619 645.684570,323.037994 
z"/>
<path fill="#5A89C1" opacity="1.000000" stroke="none" 
	d="
M673.252625,809.932007 
	C673.454895,809.589783 674.005310,809.230957 674.895874,808.803833 
	C674.690979,809.128845 674.145874,809.522156 673.252625,809.932007 
z"/>
<path fill="#5A89C1" opacity="1.000000" stroke="none" 
	d="
M671.236206,810.945251 
	C671.408813,810.634705 671.897278,810.308533 672.683105,809.937012 
	C672.504333,810.237610 672.028137,810.583557 671.236206,810.945251 
z"/>
<path fill="#5A89C1" opacity="1.000000" stroke="none" 
	d="
M669.248169,811.950928 
	C669.423096,811.650024 669.910034,811.329651 670.690918,810.964111 
	C670.510010,811.256409 670.035095,811.593872 669.248169,811.950928 
z"/>
<path fill="#5A89C1" opacity="1.000000" stroke="none" 
	d="
M624.194519,275.012817 
	C624.339661,274.623962 624.809448,274.198456 625.602661,273.804260 
	C625.457031,274.215759 624.988098,274.595947 624.194519,275.012817 
z"/>
<path fill="#5A89C1" opacity="1.000000" stroke="none" 
	d="
M643.158936,274.118225 
	C643.409607,274.019287 643.745544,274.177185 644.111694,274.629608 
	C643.842712,274.741119 643.543457,274.558105 643.158936,274.118225 
z"/>
</svg>