<svg xmlns="http://www.w3.org/2000/svg" viewBox="0 0 153.55 153.55"><defs><style>.cls-1{fill:#221536;}.cls-2{fill:#f7941f;}.cls-3{fill:#fff;}</style></defs><g id="Layer_2" data-name="Layer 2"><g id="btc"><g id="Logo"><circle class="cls-1" cx="76.78" cy="76.78" r="76.78"/><path class="cls-2" d="M75.79,72.5l-.15.59c2.84.71,11.59,3.59,13-2.09h0a3.8,3.8,0,0,0,.11-.73l-.35.09A90.29,90.29,0,0,1,75.79,72.5Z"/><path class="cls-2" d="M71.9,88.12l-.28,1.09c3.41.85,13.92,4.22,15.47-2h0a4.49,4.49,0,0,0-.44-3.43c-1.45.39-3,.79-4.77,1.29C77.6,86.27,74.44,87.17,71.9,88.12Z"/><path class="cls-2" d="M115.45,52a26.73,26.73,0,0,1-3.15,5.16,28.07,28.07,0,0,1-7.49,6.58,48.18,48.18,0,0,1-6.52,3.41,8.56,8.56,0,0,1,.28,4h0a9.72,9.72,0,0,1-1.67,4.36,7.77,7.77,0,0,1-4.74,3,13.55,13.55,0,0,1,2.67,1.8c2.63,2.31,3.64,5.56,1.94,10.39-2.71,7.75-9.15,8.4-17.72,6.78L77,105.78l-5-1.26L74,96.3c-1.31-.32-2.64-.67-4-1l-2.06,8.26-5-1.25L65,93.92l-1.56-.4A17.89,17.89,0,0,0,58,103.66c-1.41,10.07,7.7,17.41,8.3,17.87A46,46,0,0,0,115.45,52Z"/><path class="cls-2" d="M56.56,75.88c-8.09,3.29-11,6.75-12.27,8.7A19.88,19.88,0,0,0,40.92,98a21.5,21.5,0,0,0,3.34,8.35,35,35,0,0,0,7.45,9h0a23.1,23.1,0,0,1-4.06-13.79,19.17,19.17,0,0,1,3.78-11.36,19.57,19.57,0,0,1,7.41-5.63A22.26,22.26,0,0,1,64,82.82l2.38-9.55A37.16,37.16,0,0,0,56.56,75.88Z"/><path class="cls-2" d="M74.38,78.15,73.7,80.9c2.14-.44,4.29-.88,6.45-1.28C77.87,78.89,75.63,78.46,74.38,78.15Z"/><path class="cls-2" d="M66.43,64c7.38-1.37,13-1.37,25.31-3.68a39.9,39.9,0,0,0,11.52-4.61c3-1.78,4.58-3.23,5.5-5.23a10.29,10.29,0,0,0,.72-5.93A45.92,45.92,0,0,0,104.27,40a11.36,11.36,0,0,1-.93,6.86c-2.16,4.21-7,5.86-14.58,7.33a137.13,137.13,0,0,1-25.22,2.42l.22-.86h0c4.69-1.26,8.76-2.45,12.08-3.46,11.18-3.4,15.17-5.19,17.06-9a7.77,7.77,0,0,0,.77-5.2c-1-4.25-6.11-5.88-6.86-6.1A46,46,0,0,0,32.92,90.51a32.77,32.77,0,0,1,9-16.71C48.76,67.22,57.34,65.64,66.43,64Z"/><path class="cls-3" d="M96.9,75.46h0a9.72,9.72,0,0,0,1.67-4.36h0a8.56,8.56,0,0,0-.28-4,58.68,58.68,0,0,1-9.54,3.17,3.8,3.8,0,0,1-.11.73h0c-1.41,5.68-10.16,2.8-13,2.09l.15-.59,2.36-9.44h0l.18-.72h0c3.41-.41,7.37-1,12.5-1.89-.75-.32-1.52-.63-2.33-.91l1.4-5.62.66-2.64-5-1.25-1.22,4.9-.78,3.14c-1.29-.32-2.6-.62-3.91-.92l-.12,0,.39-1.56,1.24-5L81.52,49l-5-1.25-1.16,4.63L74.44,56c-1.1-.25-2.17-.49-3.21-.75v0l-3-.76-3.89-1-.55,2.2-.22.86L63,58.89s3.73.85,3.65.91A2.67,2.67,0,0,1,69,62.72Q67.64,68,66.33,73.27L64,82.82c.68-.14,1.34-.27,2-.38,2.6-.47,5.2-1,7.79-1.54l.68-2.75c1.25.31,3.49.74,5.77,1.47,2.66.85,5.34,2.13,6.5,4.14a4.49,4.49,0,0,1,.44,3.43h0c-1.55,6.24-12.06,2.87-15.47,2l.28-1.09a21.6,21.6,0,0,0-5.84,3.11,29.2,29.2,0,0,0-2.63,2.29l1.56.4-2.08,8.35,5,1.25L70,95.26c1.37.37,2.7.72,4,1l-2.06,8.22,5,1.26,2.08-8.34c8.57,1.62,15,1,17.72-6.78,1.7-4.83.69-8.08-1.94-10.39a13.55,13.55,0,0,0-2.67-1.8A7.77,7.77,0,0,0,96.9,75.46Z"/></g></g></g></svg>