<svg xmlns="http://www.w3.org/2000/svg" width="400" height="400" viewBox="0 0 400 NaN" fill-rule="evenodd" xmlns:v="https://vecta.io/nano">
    <path d="M69.693 69.254c.143.974.02 1.296-.552 1.445-.613.161-.694.452-.487 1.747.209 1.31.138 1.554-.455 1.554-.568 0-.665.251-.505 1.3.243 1.591.019 2.3-.727 2.3-.648 0-.648.001-.194 2.349.3 1.557.251 1.772-.45 1.955-.747.196-.772.443-.502 4.975.277 4.646.263 4.774-.568 4.991l-.853.223V200v107.907l.858.224c.837.219.851.341.579 4.995s-.258 4.775.578 4.994c.596.156.794.446.651.952-.742 2.623-.716 3.222.153 3.449.759.198.829.411.595 1.799-.215 1.269-.135 1.625.411 1.834.519.199.626.577.458 1.615-.183 1.123-.083 1.39.586 1.565.661.173.76.424.548 1.388-.196.892-.096 1.239.414 1.434s.619.578.453 1.601c-.176 1.085-.09 1.333.449 1.293.498-.037.638.229.552 1.05-.084.803.063 1.1.547 1.1.471 0 .599.237.446.824-.132.505.005.91.353 1.043.313.12.569.649.569 1.176 0 .613.231.957.643.957.487 0 .583.244.393 1-.206.819-.105 1 .556 1 .452 0 .808.265.808.6 0 .33.225.606.5.613.283.007.166.265-.271.596-.733.554-.707.595.53.843 1.123.224 1.268.388 1.063 1.204-.157.623-.064.944.274.944.682 0 1.695 1.622 1.561 2.5-.059.385.07.7.287.7.978 0 2.855 2.465 2.613 3.431-.182.725-.081.969.4.969.353 0 .643.18.643.4a.4.4 0 0 0 .395.4c.985 0 7.583 6.685 7.6 7.7.003.165.447.3.987.3s1.432.45 1.982 1 1.278 1 1.618 1 .618.18.618.4.27.4.6.4a.6.6 0 0 1 .6.6c0 .334.356.6.804.6.873 0 3.196 1.999 3.196 2.751 0 .295.364.373 1 .213.756-.19 1-.094 1 .393 0 .364.328.643.757.643.417 0 .866.282.998.628.16.417.51.542 1.043.373.57-.181.802-.073.802.372 0 .43.377.627 1.2.627.747 0 1.162.189 1.1.5-.065.324.288.459 1 .385.773-.081 1.1.068 1.1.5s.407.615 1.4.615c.951 0 1.4.185 1.4.575 0 .433.344.519 1.393.349 1.074-.175 1.452-.072 1.651.445.195.51.542.61 1.434.414.975-.214 1.215-.115 1.396.579.121.461.244.838.275.838s.659-.173 1.395-.384c1.187-.34 1.364-.29 1.556.445.199.762.41.807 2.59.561s2.391-.2 2.588.555c.25.955.483.973 4.935.374 3.199-.431 3.368-.414 4.027.4.868 1.071 7.16 1.314 7.16.276 0-.89 1.172-1.06 4.414-.639 4.448.577 5.061.532 5.301-.386.19-.724.434-.774 2.647-.543 2.162.226 2.438.175 2.438-.453 0-.599.24-.67 1.554-.46 1.342.215 1.583.137 1.769-.573.184-.704.418-.783 1.646-.552 1.195.224 1.431.153 1.431-.426 0-.553.236-.648 1.158-.463.93.186 1.199.074 1.367-.566.165-.633.423-.744 1.242-.539s1.033.112 1.033-.436c0-.568.25-.655 1.362-.475 1.099.179 1.398.078 1.555-.522.139-.528.438-.679 1.039-.521.618.161.844.035.844-.47 0-.536.223-.634 1-.439.738.185 1 .092 1-.356 0-.346.353-.608.819-.608.451 0 1.236-.45 1.746-1s1.311-1 1.781-1 .854-.193.854-.429c0-.644 1.056-1.571 1.791-1.571.356 0 1.064-.45 1.574-1s1.117-1 1.349-1 1.632-1.174 3.111-2.609c1.835-1.782 2.903-2.541 3.369-2.393.434.138.959-.151 1.439-.791.416-.554 1.004-1.007 1.305-1.007.388 0 .474-.298.293-1.019-.25-.998 1.491-3.381 2.471-3.381.199 0 .603-.448.895-.995s1.051-1.223 1.684-1.5c.898-.394 1.104-.697.935-1.376-.153-.616.075-1.1.784-1.657.55-.433 1-1.101 1-1.484s.45-1.113 1-1.623 1-1.124 1-1.365.45-.855 1-1.365 1-1.292 1-1.738.27-.915.6-1.042.6-.596.6-1.042.18-.813.4-.813.4-.63.4-1.4c0-1.02.175-1.4.643-1.4.492 0 .583-.243.384-1.033-.204-.815-.093-1.077.526-1.239.645-.169.745-.446.563-1.566-.18-1.114-.093-1.362.478-1.362.543 0 .653-.24.494-1.075-.266-1.389.031-2.131.743-1.858.457.176.517-.134.313-1.625-.218-1.589-.156-1.842.453-1.842.601 0 .667-.241.444-1.635-.231-1.442-.162-1.661.586-1.856.836-.219.879-2.324.089-4.384-.132-.344.08-.651.532-.769.733-.192.75-1.857.659-64.276-.094-65.471-.065-64.005-1.471-74.28-.332-2.426-1.56-7.576-2.241-9.4l-2.009-5.2c-.175-.44-.644-1.79-1.042-3-2.815-8.549-10.462-18.519-21.92-28.578-2.402-2.109-7.997-6.222-8.464-6.222-.097 0-.847-.409-1.668-.91s-2.212-1.151-3.092-1.446-2.738-1.056-4.128-1.691-2.749-1.153-3.02-1.153-.663-.166-.872-.368c-.441-.429-4.849-1.973-7.18-2.516-7.406-1.726-10.364-2.084-22.348-2.706-4.592-.238-8.675-.608-9.074-.822s-1.178-.388-1.732-.388c-.997 0-4.715-.868-6.646-1.552-.55-.194-2.08-.682-3.4-1.083s-2.571-.872-2.78-1.047-.623-.318-.921-.318c-1.191 0-12.413-5.804-13.873-7.176-.483-.453-1.001-.824-1.153-.824-.937 0-5.537-3.534-10.414-8-3.687-3.376-9.466-10.622-11.644-14.6-.602-1.1-1.315-2.27-1.585-2.6s-1.288-2.263-2.261-4.295c-1.935-4.042-3.914-5.437-3.476-2.451m22.7 58.342c4.629 2.362 5.073 6.755 1.174 11.617-4.843 6.038-4.464 12.827 1.078 19.34 3.625 4.258.839 10.018-4.845 10.018-2.173 0-4.929-1.361-6.109-3.017-.28-.393-.74-.949-1.022-1.234s-.864-1.15-1.291-1.92-.872-1.49-.986-1.6c-.943-.905-2.266-5.365-2.782-9.375-.469-3.644.033-10.317.843-11.205.191-.209.348-.659.349-1 .003-1.632 3.713-7.675 6.06-9.873 2.794-2.618 4.881-3.103 7.531-1.751m32.046 34.748c2.43 2.738 2.442 4.858.048 8.238-4.342 6.13-4.797 16.134-.883 19.418 5.677 4.764.617 14.643-5.848 11.418-1.687-.842-4.956-4.149-4.956-5.015 0-.221-.149-.403-.332-.403-.499 0-3.001-5.256-4.013-8.428-.589-1.85-.59-11.291 0-13.144 1.726-5.423 3.569-8.462 7.452-12.287 2.442-2.406 6.298-2.314 8.532.203m-32.046 31.252c4.622 2.359 5.07 6.725 1.19 11.617-3.156 3.981-4.144 8.581-2.767 12.889.648 2.028 1.209 2.991 3.437 5.898 3.539 4.617 2.418 9.034-2.637 10.396-3.805 1.024-7.546-1.174-10.251-6.024-.421-.755-.859-1.462-.973-1.572-.933-.897-2.265-5.359-2.769-9.279-.459-3.568.045-10.452.827-11.301.192-.209.351-.659.352-1 .003-1.632 3.713-7.675 6.06-9.873 2.794-2.618 4.881-3.103 7.531-1.751m30.371 33.347c3.589 1.701 4.424 5.906 1.878 9.451-3.582 4.988-4.941 12.549-2.913 16.206.367.66.667 1.391.669 1.625s.322.773.714 1.2 1.234 1.464 1.872 2.306c3.734 4.934-1.823 12.383-7.228 9.687-1.687-.842-4.956-4.149-4.956-5.015 0-.221-.149-.403-.332-.403-.499 0-3.001-5.256-4.013-8.428-.59-1.851-.59-11.292 0-13.144 3.243-10.17 9.285-15.865 14.309-13.485m-30.371 32.653c4.622 2.359 5.07 6.725 1.19 11.617-3.156 3.981-4.144 8.581-2.767 12.889.65 2.036 1.217 3.005 3.447 5.898 3.393 4.401 2.399 9.051-2.265 10.601-3.843 1.276-7.711-.99-10.633-6.229-.421-.755-.855-1.462-.965-1.572-.45-.45-1.6-3.277-1.6-3.934 0-.388-.158-.877-.35-1.086-1.252-1.359-1.252-14.201 0-15.56.192-.209.351-.659.352-1 .003-1.632 3.713-7.675 6.06-9.873 2.794-2.618 4.881-3.103 7.531-1.751" fill="#0c540c" />
    <path d="M134.58 17.963c-.209.2-1.985.426-3.947.502-2.389.092-3.622.302-3.733.636-.106.317-.959.499-2.333.499-1.192 0-2.167.18-2.167.4s-.546.4-1.213.4c-.708 0-1.308.249-1.442.6-.15.391-.773.6-1.788.6-.856 0-1.557.18-1.557.4s-.63.4-1.4.4c-.978 0-1.4.181-1.4.6 0 .397-.397.6-1.176.6-.647 0-1.288.18-1.424.4s-.692.4-1.236.4-1.093.27-1.219.6-.672.6-1.211.6c-.552 0-.873.175-.734.4s-.2.4-.789.4c-.57 0-1.128.239-1.24.532s-.827.776-1.588 1.075-1.383.779-1.383 1.068-.384.525-.853.525-1.447.63-2.173 1.4-1.67 1.4-2.098 1.4a1.89 1.89 0 0 0-1.276.6c-.274.33-.68.6-.902.6s-.998.63-1.724 1.4-1.512 1.4-1.747 1.4a.43.43 0 0 0-.427.429c0 .524-1.006 1.571-1.51 1.571-.555 0-2.09 1.43-2.09 1.947 0 .249-.204.453-.453.453-.517 0-1.947 1.535-1.947 2.09 0 .504-1.047 1.51-1.571 1.51-.236 0-.429.177-.429.393s-.63 1.041-1.4 1.834-1.4 1.786-1.4 2.207-.193.766-.429.766c-.705 0-1.571 1.086-1.571 1.971 0 .47-.26.829-.6.829-.373 0-.6.378-.6 1 0 .55-.18 1-.4 1s-.4.27-.4.6-.232.6-.515.6-.545.402-.582.894-.255.957-.485 1.033-.418.575-.418 1.106c0 .593-.232.967-.6.967-.373 0-.6.378-.6 1 0 .55-.18 1-.4 1s-.4.45-.4 1c0 .622-.227 1-.6 1s-.6.378-.6 1c0 .55-.18 1-.4 1s-.4.45-.4 1c0 .622.227 1 .6 1 .33 0 .6-.283.6-.629 0-1.039 1.385-.47 1.54.633.078.548.258 1.086.4 1.196.442.341 1.66 2.835 1.66 3.399 0 .294.135.594.3.668s.703.958 1.195 1.966 1.257 2.161 1.7 2.562.805.999.805 1.329.45 1.19 1 1.912 1 1.488 1 1.704.136.453.303.527.927.943 1.69 1.933c4.217 5.471 13.95 14.194 17.807 15.957.44.202 1.16.698 1.6 1.105.888.819 2.705 1.847 6.6 3.734l3.295 1.631c.382.205.945.373 1.251.373s.78.27 1.054.6 1.005.6 1.625.6 1.239.18 1.375.4.652.4 1.147.4 1.249.264 1.677.587 1.26.593 1.852.6 1.188.193 1.324.413.845.4 1.575.4 1.974.27 2.763.6 2.601.6 4.026.6 2.7.18 2.836.4c.15.243 3.19.407 7.724.418 5.465.012 7.906.172 9.076.594.88.317 2.534.579 3.676.582s2.188.186 2.324.406 1.012.4 1.947.4 2.049.264 2.477.587 1.273.593 1.881.6c1.101.013 1.353.104 3.757 1.356.694.361 1.551.657 1.905.657.588 0 1.403.34 3.033 1.265.33.187.87.442 1.2.567s.913.393 1.295.597.951.371 1.265.371c.84 0 5.609 2.527 8.113 4.299.701.496 1.374.901 1.497.901.248 0 1.783 1.26 3.412 2.8.582.55 1.679 1.472 2.438 2.048 2.031 1.542 7.164 6.653 8.991 8.952.874 1.1 2.174 2.582 2.889 3.293s1.3 1.476 1.3 1.7.139.407.309.407.648.63 1.063 1.4.906 1.4 1.091 1.4.337.257.337.571.225.817.5 1.116c1.183 1.287 4.7 8.335 4.7 9.418 0 .702.652 2.383 1.626 4.19.206.382.374.946.374 1.254s.269 1.075.598 1.705.598 1.45.6 1.822.182.788.402.924.4.946.4 1.8.162 1.653.361 1.776.488 1.348.644 2.723.443 2.698.637 2.939c.2.248.397 29.066.455 66.4l.472 65.762c.217-.117.328-5.439.27-12.9l-.099-12.7h2.63c2.071 0 2.63-.128 2.63-.6s.556-.6 2.6-.6c1.467 0 2.6-.174 2.6-.4 0-.22.776-.4 1.724-.4s2.072-.264 2.5-.587 1.35-.593 2.052-.6 1.388-.193 1.524-.413.867-.4 1.624-.4c.956 0 1.376-.183 1.376-.6 0-.433.444-.6 1.6-.6.88 0 1.6-.18 1.6-.4s.546-.4 1.213-.4c.708 0 1.308-.249 1.442-.6.162-.42.817-.6 2.188-.6 1.076 0 1.957-.18 1.957-.4s.636-.4 1.413-.4c.886 0 1.498-.223 1.642-.6.127-.33.661-.6 1.188-.6s.957-.18.957-.4.341-.4.757-.4.861-.27.988-.6.686-.6 1.242-.6 1.013-.18 1.013-.4.366-.4.813-.4.916-.27 1.042-.6.661-.6 1.188-.6.957-.18.957-.4.341-.4.757-.4.861-.27.988-.6a1.03 1.03 0 0 1 .897-.6c.366 0 1.083-.45 1.593-1s1.295-1 1.746-1 .819-.18.819-.4.366-.4.813-.4.916-.27 1.042-.6.481-.6.788-.6.557-.18.557-.4.335-.4.744-.4 1.082-.45 1.495-1 1.023-1 1.356-1.001 1.282-.72 2.11-1.6 1.683-1.599 1.9-1.599a.4.4 0 0 0 .395-.4c0-.22.279-.4.619-.4s1.036-.45 1.546-1 1.131-1 1.381-1 .454-.27.454-.6c0-.362.37-.6.932-.6.586 0 1.132-.372 1.468-1 .294-.55.698-1 .896-1s.612-.225.919-.5c1.206-1.082 1.761-1.5 1.991-1.5.369 0 8.594-8.309 8.594-8.681 0-.18.45-.812 1-1.406s1-1.266 1-1.496.27-.417.6-.417a.6.6 0 0 0 .6-.6c0-.33.18-.6.4-.6s.4-.36.4-.8.267-.8.6-.8.6-.216.6-.48.9-1.324 2-2.357 2-2.167 2-2.52.18-.643.4-.643.4-.27.4-.6a.6.6 0 0 1 .6-.6.6.6 0 0 0 .6-.6c0-.33.18-.6.4-.6s.4-.261.4-.579.45-1.065 1-1.659 1-1.413 1-1.82.27-.742.6-.742c.338 0 .6-.357.6-.817 0-.45.45-1.303 1-1.896s1-1.306 1-1.583.18-.504.4-.504.4-.431.4-.957.27-1.061.6-1.188.6-.596.6-1.042.18-.813.4-.813.4-.27.4-.6.177-.6.392-.6.506-.45.644-1 .411-1 .607-1 .357-.431.357-.957.27-1.061.6-1.188c.377-.144.6-.756.6-1.642 0-.777.18-1.413.4-1.413s.4-.611.4-1.357c0-.838.23-1.446.6-1.588.33-.126.6-.596.6-1.042s.18-.813.4-.813.4-.611.4-1.357c0-.878.227-1.445.643-1.604.47-.18.6-.624.481-1.643-.113-.962-.002-1.396.356-1.396.324 0 .52-.511.52-1.357 0-.838.23-1.446.6-1.588.377-.144.6-.756.6-1.642 0-.777.18-1.413.4-1.413s.4-.611.4-1.357c0-.838.23-1.446.6-1.588.41-.157.6-.798.6-2.019 0-.984.18-1.9.4-2.036s.4-1.317.4-2.624c0-1.727.147-2.376.539-2.376s.562-.775.622-2.9c.046-1.595.253-2.96.461-3.033s.378-1.842.378-3.929c0-2.84.151-3.946.6-4.395.504-.504.6-2.332.6-11.384 0-9.217-.087-10.818-.6-11.014-.485-.186-.6-1.106-.6-4.788 0-2.771-.157-4.557-.4-4.557-.229 0-.4-1.204-.4-2.813 0-2.131-.145-2.868-.6-3.042-.439-.169-.6-.861-.6-2.588 0-1.305-.179-2.357-.4-2.357s-.4-.698-.4-1.551c0-.891-.255-1.763-.6-2.049s-.6-1.158-.6-2.049c0-.853-.18-1.551-.4-1.551s-.4-.617-.4-1.371-.27-1.642-.6-1.972-.6-1.243-.6-2.028-.18-1.429-.4-1.429-.4-.45-.4-1c0-.622-.227-1-.6-1-.433 0-.6-.444-.6-1.6 0-.88-.18-1.6-.4-1.6s-.4-.428-.4-.951-.27-1.175-.6-1.449-.6-.746-.6-1.049-.18-.551-.4-.551-.4-.617-.4-1.371-.27-1.642-.6-1.972-.6-.973-.6-1.428-.18-.829-.4-.829-.4-.338-.4-.751a1.86 1.86 0 0 0-.6-1.249c-.33-.274-.6-.77-.6-1.103s-.45-1.022-1-1.532-1-1.295-1-1.746-.18-.819-.4-.819-.4-.366-.4-.813-.27-.916-.6-1.042-.6-.661-.6-1.188-.18-.957-.4-.957-.4-.27-.4-.6a.6.6 0 0 0-.6-.6c-.34 0-.6-.359-.6-.829 0-.86-.86-1.971-1.526-1.971-.21 0-.697-.662-1.081-1.47s-1.124-1.897-1.645-2.418-.948-1.21-.948-1.53-.18-.582-.4-.582-.4-.193-.4-.429c0-.553-1.018-1.571-1.571-1.571-.236 0-.429-.27-.429-.6s-.18-.6-.4-.6-.4-.242-.4-.538-.9-1.476-2-2.623-2-2.351-2-2.675-.27-.693-.6-.819-.6-.404-.6-.616c0-.391-.988-1.529-1.328-1.529-.346 0-4.672-4.485-4.672-4.843 0-.197-.373-.357-.829-.357-.885 0-1.971-.866-1.971-1.571a.43.43 0 0 0-.429-.429c-.553 0-1.571-1.018-1.571-1.571 0-.236-.177-.429-.393-.429s-1.041-.63-1.834-1.4-1.786-1.4-2.207-1.4-.766-.193-.766-.429c0-.533-1.01-1.571-1.529-1.571-.212 0-.489-.27-.616-.6s-.516-.6-.865-.6-1.498-.9-2.553-2-2.214-2-2.577-2-.66-.18-.66-.4-.27-.4-.6-.4-.6-.177-.6-.392-.45-.506-1-.644-1-.411-1-.607-.45-.357-1-.357-1-.205-1-.456c0-.601-1.228-1.515-2.057-1.531a1.05 1.05 0 0 1-.888-.613c-.126-.33-.596-.6-1.042-.6s-.813-.18-.813-.4-.431-.4-.957-.4-1.061-.27-1.188-.6c-.144-.377-.756-.6-1.642-.6-.777 0-1.413-.18-1.413-.4s-.45-.4-1-.4c-.622 0-1-.227-1-.6s-.378-.6-1-.6c-.55 0-1-.18-1-.4s-.193-.4-.429-.4-.698-.27-1.028-.6-1.037-.6-1.572-.6-.971-.18-.971-.4-.45-.4-1-.4-1-.172-1-.382-.63-.5-1.4-.644-1.4-.423-1.4-.619-.72-.355-1.6-.355c-1.156 0-1.6-.167-1.6-.6 0-.419-.422-.6-1.4-.6-.77 0-1.4-.18-1.4-.4s-.705-.4-1.567-.4-1.632-.198-1.713-.439-.995-.535-2.033-.652-1.887-.37-1.887-.561-.9-.348-2-.348c-1.511 0-2-.147-2-.6 0-.467-.533-.6-2.4-.6-1.333 0-2.4-.178-2.4-.4 0-.231-1.271-.4-3.013-.4-2.308 0-3.066-.14-3.242-.6-.188-.489-1.153-.6-5.211-.6-3.219 0-4.894-.142-4.734-.4.321-.519-74.277-.556-74.82-.037M68.667 68.667c-.461.46-.292.933.333.933a.6.6 0 0 0 .6-.6c0-.625-.473-.794-.933-.333M67.6 72.6c0 .55.18 1 .4 1s.4-.45.4-1-.18-1-.4-1-.4.45-.4 1m-.8 3c-.342.639-.304.8.186.8.347 0 .614-.347.614-.8 0-.44-.084-.8-.186-.8s-.379.36-.614.8m-.933 3.067c-.424.423-.31 2.933.133 2.933.22 0 .4-.72.4-1.6 0-1.635-.066-1.8-.533-1.333m-.964 6.233c-.636.805-.505 5.9.151 5.9.416 0 .546-.764.546-3.2 0-3.336-.048-3.522-.697-2.7m20.043 46.027c-1.29 1.391-2.862 3.596-3.492 4.9l-1.473 3.024c-.179.358-.449 1.305-.599 2.104s-.432 1.552-.627 1.673c-.44.272-.475 10.669-.037 11.192.175.209.661 1.46 1.081 2.78s1.176 3.071 1.682 3.892.919 1.676.919 1.9.15.408.332.408.58.462.882 1.026C85.006 166.427 92 169.241 92 167.2c0-.22.27-.4.6-.4.678 0 2.2-1.388 2.2-2.005 0-.223.223-.763.496-1.2.395-.633.395-.957 0-1.59-.273-.437-.499-1.022-.502-1.3s-.721-1.315-1.594-2.305-1.59-2.025-1.594-2.3-.186-.5-.406-.5-.4-.324-.4-.72-.212-.932-.47-1.19c-1.421-1.421-1.489-9.762-.089-10.924.307-.255.559-.802.559-1.215s.18-.751.4-.751.4-.247.4-.548.671-1.313 1.491-2.248c1.728-1.972 2.809-4.664 2.14-5.333-.237-.237-.431-.749-.431-1.137 0-1.737-2.203-3.134-4.941-3.134h-2.567l-2.346 2.527m32.444 31.178c-.445.224-1.615 1.451-2.6 2.727s-1.925 2.331-2.09 2.344-.3.279-.3.591-.135.626-.3.7c-.842.374-2.9 6.404-2.9 8.499 0 .701-.198 1.472-.439 1.713-.691.691.367 9.007 1.26 9.901.208.209.376.659.373 1-.007.717 1.967 4.764 2.706 5.547.275.292.5.693.5.893 0 1.377 4.556 4.78 6.4 4.78 2.95 0 6.83-4.53 5.24-6.12-.242-.242-.44-.758-.44-1.146s-.517-1.236-1.15-1.883-1.396-1.733-1.698-2.414-.683-1.237-.85-1.237-.308-.405-.316-.9-.272-1.35-.586-1.9c-.783-1.37-.782-6.642.002-8.146.329-.63.598-1.474.598-1.876s.18-.842.4-.978.403-.552.406-.924.721-1.486 1.594-2.476 1.59-2.169 1.594-2.62.222-1.036.486-1.3c.373-.373.373-.587 0-.96-.264-.264-.48-.77-.48-1.124 0-2.354-4.691-4.057-7.41-2.691m-31.677 33.872c-1.656 1.538-3.814 4.65-4.872 7.023-.294.66-.681 1.493-.86 1.851s-.449 1.305-.599 2.104-.432 1.552-.627 1.673c-.44.272-.475 10.669-.037 11.192.175.209.661 1.46 1.081 2.78s1.176 3.071 1.682 3.892.919 1.661.919 1.867.136.434.303.508.894.889 1.617 1.812c2.699 3.449 8.586 3.978 10.098.908 1.288-2.615 1.342-2.84.863-3.606-.265-.424-.484-.998-.487-1.276s-.721-1.315-1.594-2.305-1.59-2.025-1.594-2.3-.186-.5-.406-.5-.4-.324-.4-.72-.212-.932-.47-1.19c-.503-.503-1.193-3.911-1.192-5.89.001-2.34 1.432-7 2.15-7 .171 0 .312-.247.312-.548s.671-1.313 1.491-2.248c1.728-1.972 2.809-4.664 2.14-5.333-.237-.237-.431-.749-.431-1.137 0-3.291-6.095-4.336-9.087-1.557m33.487 31.611c-2.271.659-2.686.972-4.6 3.471l-2.4 3.094c-.784.948-1.8 3.124-1.8 3.856 0 .409-.167.847-.372.974s-.487 1.262-.627 2.523-.441 2.677-.669 3.146c-.559 1.147.261 8.102 1.221 10.348.987 2.312 2.708 5.663 3.147 6.127.275.292.5.693.5.893 0 1.377 4.556 4.78 6.4 4.78 2.95 0 6.83-4.53 5.24-6.12-.242-.242-.44-.749-.44-1.126s-.72-1.459-1.6-2.403-1.6-1.951-1.6-2.239-.158-.835-.351-1.217c-1.79-3.541-2.26-8.315-1.047-10.641.329-.63.598-1.474.598-1.876s.18-.842.4-.978.403-.552.406-.924.721-1.486 1.594-2.476 1.59-2.079 1.594-2.42.226-.84.496-1.11c.387-.387.387-.655 0-1.275-.27-.431-.49-1.022-.49-1.314 0-.688-2.341-3.081-3.015-3.081-.286 0-.759-.068-1.052-.151s-.983-.021-1.533.139m-33.481 34.384c-1.953 1.814-5.319 6.882-5.319 8.008 0 .425-.164.874-.365.998s-.487.944-.635 1.822-.434 1.697-.635 1.822c-.447.276-.491 10.667-.047 11.198.175.209.661 1.46 1.081 2.78s1.176 3.071 1.682 3.892.919 1.661.919 1.867.136.434.303.508.929.943 1.694 1.933c2.02 2.615 2.322 2.773 5.306 2.787 2.789.013 5.097-1.191 5.097-2.659 0-.296.223-.896.496-1.333.395-.633.395-.957 0-1.59-.273-.437-.499-1.022-.502-1.3s-.721-1.315-1.594-2.305-1.59-2.025-1.594-2.3-.186-.5-.406-.5-.4-.324-.4-.72-.212-.932-.47-1.19c-.503-.503-1.193-3.911-1.192-5.89.001-2.34 1.432-7 2.15-7 .171 0 .312-.247.312-.548s.671-1.313 1.491-2.248c1.728-1.972 2.809-4.664 2.14-5.333-.237-.237-.431-.749-.431-1.137 0-3.287-6.095-4.336-9.081-1.562M64.665 309.5c-.482.795-.157 5.567.379 5.567.424 0 .556-.697.556-2.934 0-2.575-.358-3.584-.935-2.633m152.935 8.324c0 .847.162 1.323.4 1.176.22-.136.4-.777.4-1.424s-.18-1.176-.4-1.176-.4.641-.4 1.424m-152 2.2c0 .98.158 1.525.4 1.376.22-.136.4-.867.4-1.624s-.18-1.376-.4-1.376-.4.731-.4 1.624m150.8 3.209c0 .459.209.764.465.679.679-.227.764-1.512.1-1.512-.311 0-.565.375-.565.833m-149.733.634c-.464.464-.289 1.239.333 1.478.433.166.6-.044.6-.758 0-.96-.392-1.262-.933-.72M215.6 326.4c0 .44.18.8.4.8s.4-.36.4-.8-.18-.8-.4-.8-.4.36-.4.8m-1.2 3.6c0 .22.27.4.6.4s.6-.18.6-.4-.27-.4-.6-.4-.6.18-.6.4m-145.908.875c.247.742 1.108.865 1.108.158 0-.348-.285-.633-.633-.633s-.562.214-.475.475m143.908 4.358c0 .459.209.764.465.679.679-.227.764-1.512.1-1.512-.311 0-.565.375-.565.833m-.8 3.391c0 .58.173.916.4.776.22-.136.4-.597.4-1.024s-.18-.776-.4-.776-.4.461-.4 1.024m-1.2 2.425c0 .531.109.559.6.151.33-.274.6-.566.6-.649s-.27-.151-.6-.151-.6.292-.6.649m-133.871 6.162c.13.85 1.871 2.35 1.871 1.612 0-.233-.18-.423-.4-.423s-.4-.45-.4-1c0-.62-.227-1-.597-1s-.552.303-.474.811m129.931-.431c.172.516.721.608.77.13.017-.16-.186-.362-.45-.45s-.408.056-.32.32M202.4 353c0 .33-.18.6-.4.6a.4.4 0 0 0-.4.4c0 .683.568.419 1.319-.613.617-.847.631-.987.1-.987-.341 0-.619.27-.619.6m-118.8 3.813c0 .226.269.515.598.641s.498.391.376.588.059.358.402.358.624.193.624.429c0 .553 1.018 1.571 1.571 1.571.236 0 .429.27.429.6a.6.6 0 1 0 1.2 0c0-.33-.193-.6-.429-.6-.553 0-1.571-1.018-1.571-1.571 0-.236-.204-.429-.454-.429s-.871-.45-1.381-1c-1-1.079-1.365-1.236-1.365-.587m5 5.187c-.136.22-.031.4.232.4s.719.315 1.011.7c.359.472.536.528.544.171.025-1.03-1.337-1.999-1.787-1.271m101.8 2.829c0 .553-1.018 1.571-1.571 1.571-.236 0-.429.27-.429.6 0 .854.504.743 1.367-.3l1.351-1.6c.544-.629.539-.7-.056-.7-.364 0-.662.193-.662.429m-95.908 2.046c.247.742 1.108.865 1.108.158 0-.348-.285-.633-.633-.633s-.562.214-.475.475M96.4 368c0 .22.27.4.6.4s.6-.18.6-.4-.27-.4-.6-.4-.6.18-.6.4m89.66.242c-.298.336-.408.734-.246.884s.376.049.474-.226a.84.84 0 0 1 .745-.5c.312 0 .567-.18.567-.4 0-.599-.926-.454-1.54.242m-85.823 2.358c.734 1.121 1.363 1.306 1.363.4a.6.6 0 0 0-.6-.6c-.33 0-.6-.18-.6-.4s-.184-.4-.409-.4-.115.45.246 1m78.163 2.449c0 .531.109.559.6.151.33-.274.6-.566.6-.649s-.27-.151-.6-.151-.6.292-.6.649m-2 .951c0 .22.27.4.6.4s.6-.18.6-.4-.27-.4-.6-.4-.6.18-.6.4m-2 1.033c0 .349.214.562.475.475.742-.247.865-1.108.158-1.108-.348 0-.633.285-.633.633m-61.923 1.797c.079.237.314.43.523.43s.445-.193.523-.43-.156-.43-.523-.43-.602.194-.523.43m57.123-.073c0 .652 1.134.805 1.62.219.395-.476.297-.576-.571-.576-.577 0-1.049.161-1.049.357m-54 1.243c0 .22.27.4.6.4s.6-.18.6-.4-.27-.4-.6-.4-.6.18-.6.4m2.8.757c0 .197.27.461.6.588.365.14.6 0 .6-.358 0-.323-.27-.587-.6-.587s-.6.161-.6.357m46 .208c0 .664 1.285.579 1.512-.1.085-.256-.22-.465-.679-.465s-.833.254-.833.565M121.6 380c0 .22.45.4 1 .4s1-.18 1-.4-.45-.4-1-.4-1 .18-1 .4m38.8 0c0 .22.349.4.776.4s.888-.18 1.024-.4c.14-.227-.196-.4-.776-.4-.563 0-1.024.18-1.024.4m-34.8.922c0 .326.598.557 1.594.616 1.292.076 1.548-.023 1.357-.522-.298-.777-2.951-.861-2.951-.094m30 .075c0 .403.293.543.9.43.495-.092 1.125-.181 1.4-.197 1.19-.071.367-.83-.9-.83-.975 0-1.4.181-1.4.597m-23.748 1.087c.304.491 5.748.386 5.748-.111 0-.274-1.063-.388-2.972-.316-1.635.06-2.884.253-2.776.427M146.4 382c0 .231 1.267.4 3 .4s3-.169 3-.4-1.267-.4-3-.4-3 .169-3 .4" fill="#4cc44c" />
    <path d="M70.4 67.625l-1 .295 1 .045c.853.038 1.259.586 2.769 3.74L75.43 76c.27.33.983 1.5 1.585 2.6 2.178 3.978 7.957 11.224 11.644 14.6 4.877 4.466 9.477 8 10.414 8 .152 0 .67.371 1.153.824 1.46 1.372 12.682 7.176 13.873 7.176.298 0 .712.143.921.318s1.46.644 2.78 1.042 2.783.872 3.251 1.051c2.128.817 7.821 1.978 10.749 2.193 1.589.116 1.383.029-1-.426l-5.2-1.034c-4.281-.898-14.588-4.575-17.8-6.35l-3.6-1.983c-1.32-.726-3.234-1.926-4.254-2.666S97.974 100 97.829 100c-1.415 0-12.981-10.958-16.256-15.4-.972-1.32-1.878-2.49-2.011-2.6s-.835-1.28-1.559-2.6-1.643-2.867-2.043-3.438-1.542-2.714-2.539-4.763c-2.116-4.346-1.774-3.942-3.021-3.574m-2 2.612c0 .619 1.023.774 1.372.208.12-.195-.139-.448-.576-.562-.516-.135-.796-.01-.796.354m-.8 6.096c0 .257-.27.467-.6.467s-.6.18-.6.4c0 .658 1.094.452 1.367-.257.138-.362.158-.752.042-.867s-.209.001-.209.257M65.676 88.7c-.059 1.922-.215 2.5-.676 2.5-.33 0-.6.18-.6.4 0 .601 1.194.481 1.434-.145.115-.299.144-1.604.063-2.9l-.146-2.355-.075 2.5m74.524 25.74a196.32 196.32 0 0 1 15.2 1.364c1.333.17 1.443.136.658-.203-1.553-.67-11.917-1.604-17.058-1.537l-4.8.062 6 .314m18.2 2.022c.77.209 2.03.526 2.8.704 2.146.495 6.554 2.052 6.98 2.466.209.202.601.368.872.368s1.63.519 3.02 1.153 3.248 1.395 4.128 1.691 2.271.946 3.092 1.446 1.571.91 1.668.91c.467 0 6.062 4.113 8.464 6.222 11.194 9.828 19.237 20.218 21.777 28.132.31.965.636 1.534.726 1.265.196-.589-1.708-5.227-3.001-7.311-.509-.821-.926-1.571-.926-1.668 0-2.969-22.236-25.84-25.123-25.84-.208 0-.594-.26-.858-.577-.571-.689-6.074-3.423-6.888-3.423-.314 0-.742-.167-.951-.37s-1.82-.929-3.58-1.612l-4-1.597c-2.279-1.011-7.501-2.437-8.72-2.38-.61.028-.451.157.52.421m-71 11.001c-3.165 1.663-8.593 9.12-8.598 11.813-.001.372-.182.788-.402.924s-.382.732-.359 1.324c.032.851.181.658.712-.924 1.572-4.688 3.599-8.115 6.457-10.916 3.957-3.879 9.359-2.213 10.77 3.321l.406 1.595-.211-1.787c-.507-4.273-5.283-7.186-8.775-5.35m8.015 8.089c-.142.447-.923 1.62-1.736 2.606s-1.814 2.479-2.223 3.318l-1.1 2.219c-.196.382-.335 1.282-.31 2l.046 1.305.281-1.4c.412-2.057 1.563-4.362 3.195-6.4 1.664-2.077 2.669-3.897 2.336-4.23-.127-.126-.347.135-.489.582M77.441 145.9c-.132 1.485-.083 3.69.11 4.9.307 1.936.355 1.612.399-2.7.056-5.442-.144-6.304-.509-2.2m12.613 4.217c-.064 1.804 1.738 5.836 3.524 7.883 3.16 3.62 3.123 6.51-.115 8.979-3.275 2.498-8.021.911-10.927-3.653-.395-.619-.812-1.216-.927-1.326-.473-.452-2.176-4.277-2.833-6.364-.386-1.23-.719-1.839-.74-1.355s.124 1.295.32 1.8c1.006 2.595 1.844 4.54 2.033 4.719.116.11.561.83.989 1.6s1.008 1.634 1.291 1.92.742.841 1.022 1.234c1.18 1.656 3.936 3.017 6.109 3.017 5.684 0 8.47-5.76 4.845-10.018-2.515-2.956-3.903-5.79-4.384-8.953-.1-.657-.171-.479-.207.517m28.053 10.564c-1.997.386-8.875 8.685-7.958 9.602.113.113.58-.592 1.038-1.566 4.195-8.924 11.998-10.37 14.714-2.727l.501 1.41-.228-1.6c-.552-3.878-3.805-5.942-8.067-5.119m93.926 1.224c-.018.278.129.818.326 1.2s.666 1.505 1.041 2.495.844 2.113 1.041 2.495.367 1.102.377 1.6c.022 1.091 1.103 3.59 1.15 2.656.017-.357-.402-1.977-.932-3.6-1.102-3.375-2.954-7.598-3.003-6.846m-86.793 6.797c-.282.682-.865 1.559-1.295 1.948-.948.858-2.147 3.281-1.797 3.631.138.139.252.063.252-.168s.822-1.62 1.826-3.087 1.76-2.869 1.677-3.116-.38.11-.663.792m-15.936 3.198c-1.006 2.818-1.301 4.059-1.269 5.328.026 1.035.213.634.76-1.628.399-1.65.855-3.405 1.012-3.9.411-1.291-.033-1.114-.503.2m106.73 2.5c-.012.55.153 1.27.366 1.6.509.787.509-.616 0-1.8-.315-.733-.346-.716-.366.2m-94.615.769c-2.237 3.62-1.264 11.292 1.914 15.083a24.73 24.73 0 0 1 1.813 2.548c.468.77.852 1.147.853.838.001-.483-1.683-3.04-2.395-3.638-2.181-1.83-3.579-11.256-2.067-13.934.513-.908.404-1.741-.118-.897m95.45 3.231c-.005.99.229 3.15.518 4.8.504 2.869.527 2.912.538 1 .007-1.1-.227-3.26-.518-4.8-.484-2.557-.531-2.644-.538-1m-108.837 6.372c-.045 1.946.673 4.134 2.798 8.528.719 1.485 1.456 2.7 1.638 2.7s.332.182.332.403c0 .866 3.269 4.173 4.956 5.015 2.593 1.294 6.275.006 7.605-2.66.961-1.926.755-2.384-.268-.596-3.417 5.977-9.632 3.514-14.071-5.578-1.684-3.45-1.783-3.722-2.399-6.584-.427-1.982-.567-2.274-.591-1.228M87.4 193.463c-3.165 1.663-8.593 9.12-8.598 11.813-.001.372-.182.788-.402.924s-.382.732-.359 1.324c.032.851.181.658.712-.924 1.581-4.714 3.817-8.48 6.566-11.057 3.957-3.71 9.272-1.984 10.661 3.462l.406 1.595-.211-1.787c-.507-4.273-5.283-7.186-8.775-5.35m8.015 8.089c-.142.447-.923 1.62-1.736 2.606s-1.814 2.479-2.223 3.318l-1.1 2.219c-.196.382-.335 1.282-.31 2 .029.791.116.99.223.505a16.75 16.75 0 0 1 3.314-7c1.658-2.092 2.65-3.9 2.321-4.23-.127-.126-.347.135-.489.582M77.46 211.9c-.134 1.485-.089 3.69.099 4.9.297 1.916.348 1.568.391-2.7.056-5.462-.124-6.267-.49-2.2m12.594 4.151c-.079 2.112 1.754 5.984 4.026 8.503 3.789 4.202 1.413 9.446-4.28 9.446-3.209 0-5.03-1.168-7.247-4.648-.404-.634-.829-1.242-.944-1.352-.473-.452-2.176-4.277-2.833-6.364-.386-1.23-.719-1.839-.74-1.355s.124 1.295.32 1.8c1.006 2.595 1.844 4.54 2.033 4.719.116.11.555.817.976 1.572 2.705 4.85 6.446 7.048 10.251 6.024 5.055-1.362 6.176-5.779 2.637-10.396-2.69-3.51-3.511-5.238-3.992-8.4-.106-.696-.169-.559-.207.451m28.565 10.495c-2.341.644-8.66 7.692-8.606 9.6.017.605 1.187-.961 1.187-1.589 0-.27.138-.55.307-.624s.964-1.033 1.768-2.133c2.566-3.512 3.946-4.593 6.208-4.861 5.453-.646 8.54 6.357 4.339 9.843-.813.675-2.006 3.167-1.674 3.499.138.139.252.063.252-.168s.854-1.656 1.899-3.166c2.402-3.476 2.573-5.637.635-8.046-1.871-2.327-3.801-3.047-6.315-2.355m-9.315 11.354c-1.006 2.818-1.301 4.059-1.269 5.328.026 1.035.213.634.76-1.628.399-1.65.855-3.405 1.012-3.9.411-1.291-.033-1.114-.503.2m12.115 3.269c-2.237 3.62-1.264 11.292 1.914 15.083a24.73 24.73 0 0 1 1.813 2.548c.468.77.852 1.147.853.838.001-.543-1.417-2.613-2.887-4.213-.392-.427-.713-.967-.714-1.2s-.302-.965-.669-1.625c-.863-1.556-1.004-9.116-.196-10.534.516-.907.41-1.745-.114-.897m-13.386 9.603c-.047 1.945.671 4.133 2.797 8.528.719 1.485 1.456 2.7 1.638 2.7s.332.182.332.403c0 .866 3.269 4.173 4.956 5.015 2.583 1.288 6.297-.039 7.64-2.73.934-1.873.7-2.279-.303-.526-4.237 7.41-13.8.449-16.434-11.962-.433-2.04-.603-2.428-.626-1.428M87.4 259.463c-3.165 1.663-8.593 9.12-8.598 11.813-.001.372-.182.788-.402.924s-.382.732-.359 1.324c.032.851.181.658.712-.924 1.581-4.714 3.817-8.48 6.566-11.057 3.957-3.71 9.272-1.984 10.661 3.462l.406 1.595-.211-1.787c-.507-4.273-5.283-7.186-8.775-5.35m8.015 8.089c-.142.447-.923 1.62-1.736 2.606s-1.814 2.479-2.223 3.318l-1.1 2.219c-.196.382-.335 1.282-.31 2 .029.791.116.99.223.505a16.75 16.75 0 0 1 3.314-7c1.658-2.092 2.65-3.9 2.321-4.23-.127-.126-.347.135-.489.582M77.46 277.9c-.134 1.485-.089 3.69.099 4.9.297 1.916.348 1.568.391-2.7.056-5.462-.124-6.267-.49-2.2m12.594 4.151c-.079 2.112 1.754 5.984 4.026 8.503 3.877 4.298 1.463 9.624-4.362 9.624h-3.023l-2.148-2.344c-1.181-1.29-2.147-2.487-2.147-2.661s-.225-.554-.5-.844c-.499-.528-1.898-3.234-2.652-5.129-.268-.675-.406-.777-.423-.314-.023.632 1.111 3.45 1.575 3.914.11.11.544.817.965 1.572 2.922 5.239 6.79 7.505 10.633 6.229 4.664-1.55 5.658-6.2 2.265-10.601-2.693-3.493-3.52-5.229-4.002-8.4-.106-.696-.169-.559-.207.451M218.178 296.4c0 6.93.055 9.765.121 6.3a394.95 394.95 0 0 0 0-12.6c-.066-3.465-.121-.63-.121 6.3m-140.15-9.924c-.015.592.152 1.188.372 1.324.478.295.478-.489 0-1.6-.307-.714-.347-.685-.372.276M64.4 308.371c0 .236.262.429.582.429.436 0 .619.673.731 2.7l.15 2.7-.032-2.996c-.026-2.52-.142-3.017-.731-3.129-.385-.074-.7.06-.7.296m151.738 13.446c-.13.34-.125.73.013.867s.249.039.249-.217.27-.467.6-.467.6-.18.6-.4c0-.64-1.202-.461-1.462.217m-149.738.954c0 .236.257.429.571.429s.662.315.774.7c.118.406.172.282.129-.296-.071-.961-1.474-1.754-1.474-.833m1.2 3.553c0 .215.285.5.633.633.39.15.573.061.475-.232-.199-.598-1.108-.927-1.108-.401m146.624 2.359c-.134.347-.149.726-.033.841s.209.013.209-.228.315-.501.7-.578c.64-.13.643-.164.033-.405-.421-.165-.756-.029-.909.37m-145.824.888c0 .236.255.429.567.429s.668.225.793.5.182.142.128-.295c-.1-.816-1.488-1.408-1.488-.634m144.873 2.698c.07.588.357 1.115.637 1.17s.326.01.1-.102c-.527-.262-.535-1.337-.01-1.337a.4.4 0 0 0 .4-.4c0-.22-.282-.4-.627-.4-.444 0-.589.311-.5 1.069M69.6 332.121c0 .103.278.703.618 1.333l.617 1.146-.117-1.169c-.092-.912-1.118-2.114-1.118-1.31m141.6 4.679c0 .22.27.4.6.4s.6-.18.6-.4-.27-.4-.6-.4-.6.18-.6.4m-139.6 1a.6.6 0 1 0 1.2 0 .6.6 0 1 0-1.2 0m139.6.8c0 .33-.18.6-.4.6a.4.4 0 0 0-.4.4c0 .22.27.4.6.4.373 0 .6-.378.6-1 0-.55-.09-1-.2-1s-.2.27-.2.6m-138.729.868c.071.366.354.741.629.832.735.245.61-.972-.129-1.256-.439-.168-.59-.04-.5.424m137.229 1.625c-.275.096-.5.543-.5.994s-.45 1.238-1 1.748-1 1.124-1 1.365-.45.855-1 1.365c-.575.533-.98 1.332-.954 1.881.033.678.1.751.23.254.1-.385.349-.7.553-.7s.371-.277.371-.616.72-1.301 1.6-2.138 1.6-1.895 1.6-2.351.207-.897.46-.982.388-.342.3-.573-.385-.342-.66-.247m-136.1.707a.6.6 0 1 0 1.2 0 .6.6 0 1 0-1.2 0m2.046 2.3c-.046 1.089.477 1.472.954.7.136-.22.07-.4-.147-.4s-.477-.315-.577-.7c-.113-.431-.201-.277-.23.4m1.154 2.192c.33.125.732.426.894.668.181.271.296.172.3-.26.004-.47-.289-.69-.894-.668s-.701.107-.3.26m1.79 2.923c-.403.653.493 1.462 1.027.928.289-.289.239-.565-.164-.899-.43-.357-.655-.364-.863-.029m125.047.936c-.422.512-.449.797-.107 1.139.606.606.966.192.802-.922-.122-.833-.174-.849-.695-.217M80.581 352.43c-.283.458 1.1 1.97 1.802 1.97.746 0 .415-.983-.572-1.701-.645-.469-1.051-.558-1.23-.269m120.251 1.701c-.312.588-.731 1.069-.93 1.069-.528 0-2.702 2.256-2.702 2.803 0 .255.225.359.5.231a15.73 15.73 0 0 1 1.2-.48c.385-.136.7-.43.7-.654s.466-.807 1.035-1.297c.686-.588.99-1.202.9-1.815-.135-.922-.137-.922-.703.143m-9.19 8.936c-.968.962-1.643 1.866-1.5 2.008s.258.048.258-.208.45-.467 1-.467 1-.18 1-.4.249-.4.553-.4.665-.315.801-.7a15.73 15.73 0 0 1 .48-1.2c.488-1.047-.904-.313-2.592 1.367M92.4 364.711c0 .562 1.593 1.689 2.386 1.689.711 0 .691-.086-.222-1-.959-.958-2.164-1.342-2.164-.689M95.855 367c-.14.365 0 .6.358.6.323 0 .587-.27.587-.6s-.161-.6-.357-.6-.461.27-.588.6m90.777.222c-.423.426-.648.895-.5 1.043s.268.058.268-.198.444-.467.987-.467c.714 0 .924-.167.758-.6-.296-.77-.569-.73-1.513.222M98.5 368.9a.79.79 0 0 0 .7.5.79.79 0 0 0 .7-.5c.099-.297-.184-.5-.7-.5s-.799.203-.7.5m85.5.1c0 .33.354.6.787.6.536 0 .714-.192.558-.6-.127-.33-.481-.6-.788-.6s-.557.27-.557.6m-2.8 2a.6.6 0 1 0 1.2 0 .6.6 0 1 0-1.2 0m-76.4 2c.274.33.65.6.836.6s.235-.27.109-.6-.503-.6-.837-.6c-.493 0-.513.112-.108.6m1.855.8c-.14.365 0 .6.358.6.323 0 .587-.27.587-.6s-.161-.6-.357-.6-.461.27-.588.6m2.145 1.2c0 .33.24.6.533.6s.534-.27.534-.6-.24-.6-.534-.6-.533.27-.533.6m62.4.8c0 .33.18.6.4.6s.4-.167.4-.371.315-.453.7-.553c.431-.113.277-.201-.4-.23-.732-.03-1.1.155-1.1.554m-57.345 1.2c-.14.365 0 .6.358.6.323 0 .587-.27.587-.6s-.161-.6-.357-.6-.461.27-.588.6m3.188.767c.133.348.418.633.633.633.526 0 .197-.909-.401-1.108-.293-.098-.382.085-.232.475m49.357.033c0 .33.103.6.229.6s.498-.27.828-.6c.533-.533.508-.6-.228-.6-.47 0-.829.26-.829.6m-46.517.988c.746.872 1.146.785.779-.171-.13-.339-.511-.617-.846-.617-.522 0-.513.112.067.788m43.584-.521c-.409.409-.317 1.333.133 1.333.22 0 .4-.255.4-.567a.89.89 0 0 1 .5-.768c.326-.132.28-.213-.133-.233-.349-.018-.754.088-.9.235m-35.592 2.019c.482.089.958.425 1.06.746.116.37.161.325.121-.124-.041-.459-.413-.722-1.059-.747-.821-.031-.843-.01-.122.125m27.063.331c-.13.34-.125.73.013.867s.249-.038.249-.39.405-.716.9-.812l.9-.173-.913-.055c-.501-.029-1.019.224-1.149.563m-18.738.468c.66.091 1.425.458 1.7.816s.5.474.5.255c0-.774-.977-1.355-2.18-1.296l-1.22.06 1.2.165m9.5-.02c-.275.111-.5.491-.5.845 0 .588.043.587.5-.005.275-.357.95-.727 1.5-.822l1-.174-1-.023c-.55-.013-1.225.068-1.5.179" fill="#2c912c" />
    <path d="M89.2 92.925c0 .069.585.654 1.3 1.3l1.3 1.175-1.175-1.3c-1.095-1.212-1.425-1.484-1.425-1.175m44.9 20.951c.385.1 1.015.1 1.4 0s.07-.183-.7-.183-1.085.082-.7.183m12.2.406c.495.096 1.305.096 1.8 0s.09-.173-.9-.173-1.395.078-.9.173m-57.2 13.6c.495.096 1.305.096 1.8 0s.09-.173-.9-.173-1.395.078-.9.173m6.593 5.718c0 .77.082 1.085.183.7s.1-1.015 0-1.4-.183-.07-.183.7m99.707 2.8l2.979 2.8c.11 0-1.051-1.26-2.579-2.8l-2.979-2.8c-.11 0 1.051 1.26 2.579 2.8M89.693 149.2c0 .77.082 1.085.183.7s.1-1.015 0-1.4-.183-.07-.183.7m29.807 11.882c.495.096 1.305.096 1.8 0s.09-.173-.9-.173-1.395.078-.9.173M95.693 162.8c0 .77.082 1.085.183.7s.1-1.015 0-1.4-.183-.07-.183.7m12.438 18.2c.002 1.54.074 2.121.161 1.291s.085-2.09-.003-2.8-.16-.031-.158 1.509m110.063 53.2l.106 24.869v-50c-.058-13.678-.106-2.369-.106 25.131m-128.501-19c0 .77.082 1.085.183.7s.1-1.015 0-1.4-.183-.07-.183.7m29.807 11.882c.495.096 1.305.096 1.8 0s.09-.173-.9-.173-1.395.078-.9.173M95.693 228.8c0 .77.082 1.085.183.7s.1-1.015 0-1.4-.183-.07-.183.7m12.438 18.2c.002 1.54.074 2.121.161 1.291s.085-2.09-.003-2.8-.16-.031-.158 1.509m-18.438 34.2c0 .77.082 1.085.183.7s.1-1.015 0-1.4-.183-.07-.183.7m6 13.6c0 .77.082 1.085.183.7s.1-1.015 0-1.4-.183-.07-.183.7m-6.588 5.483c.497.096 1.217.092 1.6-.008s-.025-.179-.905-.174-1.193.086-.695.182" fill="#349d34" />
    <path d="M70.8 66.794c0 .249.182.341.403.204s.58.167.796.676l.393.926-.096-.996c-.094-.976-1.496-1.735-1.496-.81m2.481 3.797c.478.985.946 1.716 1.038 1.623.239-.238-1.257-3.391-1.614-3.404-.162-.005.097.796.576 1.781m1.965 3.805c.493.877.949 1.542 1.013 1.478.214-.214-1.253-3.048-1.585-3.061-.179-.007.078.705.572 1.583m1.883 3.066c.479.694.871 1.417.871 1.607 0 .546 2.048 3.416 2.276 3.188.113-.112-.263-.818-.836-1.568s-1.04-1.631-1.04-1.957-.482-1.029-1.071-1.562l-1.071-.97.871 1.262m4.742 7.292c.841 1.075 1.59 1.899 1.665 1.831.211-.192-2.494-3.752-2.865-3.769-.181-.009.359.864 1.2 1.938m2.132 2.389c.009.683 8.451 8.828 10.997 10.61 1.543 1.079 1.536 1.064-.199-.417-.989-.845-3.824-3.542-6.3-5.993s-4.5-4.342-4.498-4.2m12.998 12.059c.118.191.754.616 1.414.945s1.102.442.984.251-.754-.616-1.414-.945-1.102-.442-.984-.251m3.983 2.595c.652.532 1.262.89 1.357.795.23-.23-1.633-1.766-2.141-1.764-.22 0 .133.436.784.969m1.816 1.163c0 .184 2.742 1.84 3.046 1.84.509 0-.384-.81-1.515-1.375-1.325-.66-1.531-.723-1.531-.465m5.824 3.227c.427.323.956.588 1.176.588s.051-.265-.376-.588-.957-.587-1.177-.587-.051.264.377.587m2.396.976c.778.743 3.531 1.701 2.98 1.037-.274-.33-.825-.6-1.225-.6s-.839-.18-.975-.4a.93.93 0 0 0-.704-.4c-.285 0-.314.136-.076.363m4.663 1.853c.235.235 4.376 1.792 4.711 1.771.663-.041-1.506-1.187-2.247-1.187-.495 0-1.011-.18-1.147-.4s-.537-.4-.89-.4-.546.097-.427.216m9.117 3.008c3.585.851 3.943.88 2.454.195-.74-.34-1.91-.598-2.6-.573l-1.254.046 1.4.332m7 1.176c1.775.452 2.679.452 2.4 0-.136-.22-1.002-.379-1.924-.353-1.583.045-1.609.065-.476.353m11 .814c3.85.165 7.54.419 8.2.567 1.094.244 1.129.221.4-.257-.58-.38-2.831-.536-8.2-.566l-7.4-.042 7 .298m12.033.93c.472.406 2.41.649 2.177.272-.142-.229-.727-.416-1.3-.416s-.968.065-.877.144m4.367 1.048c.77.165 1.76.429 2.2.587.789.282.789.277.024-.346-.428-.348-1.418-.612-2.2-.587l-1.424.046 1.4.3m5.6 1.482a53.93 53.93 0 0 1 2.139 1.002c.406.209.811.307.899.219s-.334-.392-.939-.674l-1.794-.868c-.382-.194-.922-.341-1.2-.327s.125.305.895.648m5.775 2.347c2.307 1.144 2.492 1.182 1.825.379-.274-.33-.825-.6-1.225-.6s-.839-.18-.975-.4-.552-.391-.924-.379.213.462 1.299 1m5.225 2.064c.44.106.971.355 1.18.554s.569.355.8.348.071-.277-.356-.6-1.148-.566-1.6-.541c-.804.046-.804.051-.024.239m3.409 1.526c.269.324.737.589 1.04.589s.551.18.551.4.191.4.424.4c.701 0 .039-.71-1.272-1.364-1.05-.524-1.16-.527-.743-.025m3.391 1.988a23.14 23.14 0 0 1 1.326 1.028c.29.249.615.365.723.257.228-.227-2.004-1.89-2.511-1.871-.186.007.022.271.462.586m2.6 1.574c0 .095.585.57 1.3 1.056l1.3.883-1.083-1.056c-1.016-.992-1.517-1.283-1.517-.883m-96.493 1.317c.719.089 1.799.087 2.4-.004s.013-.164-1.307-.162-1.812.077-1.093.166m-3.583 1.626c-1.813 2.007-4.055 5.287-3.792 5.549.115.115.517-.387.894-1.116s1.678-2.366 2.891-3.637 2.018-2.312 1.79-2.312-1.03.682-1.783 1.516m8.369-.316c.377.44.853.8 1.058.8s.047-.36-.351-.8-.874-.8-1.058-.8-.026.36.351.8m94.507-.485c0 .169.36.615.8.992s.8.547.8.378-.36-.615-.8-.992-.8-.547-.8-.378m6.44 6.108c2.553 2.517 5.208 5.258 5.9 6.091s1.26 1.391 1.26 1.241c0-.902-7.989-9.246-10.6-11.071-.66-.461.888 1.221 3.44 3.739M95 134.8c-.15.473-.183.95-.073 1.06s.323-.187.473-.66.183-.95.073-1.06-.323.187-.473.66m-14.939 2.856c-.432.959-.891 2.222-1.021 2.807s-.358 1.379-.506 1.765c-.171.446-.115.608.153.442.232-.144.545-.915.695-1.715s.469-1.836.708-2.304c1.035-2.024 1.155-2.34.96-2.534-.112-.113-.558.58-.989 1.539m12.987.396c-.796.909-1.448 1.815-1.448 2.014 0 .324 1.305-1.079 2.759-2.966 1.039-1.349.123-.684-1.311.952m-2.975 4.835c-.26.26-.448 1.022-.419 1.693.049 1.092.074 1.115.239.22.101-.55.372-1.229.602-1.51.55-.669.189-1.014-.422-.403m111.927.224c0 .187.54.857 1.2 1.489s1.2 1.032 1.2.889-.54-.814-1.2-1.489-1.2-1.075-1.2-.889M78.144 148c0 2.09.068 2.945.15 1.9a29.38 29.38 0 0 0 0-3.8c-.082-1.045-.15-.19-.15 1.9m10.814-.975c-.142.564-.067 1.419.165 1.9.363.75.427.604.45-1.025.03-2.097-.219-2.452-.615-.875m117.704 2.475c1.214 1.925 2.654 4.373 3.2 5.44s1.078 1.853 1.184 1.748-.296-1.069-.891-2.14l-1.519-2.733c-.24-.431-.661-1.029-.936-1.328s-.5-.801-.5-1.116-.152-.571-.337-.571-.676-.63-1.091-1.4-.881-1.4-1.036-1.4.712 1.575 1.926 3.5M89.66 151.424c-.033.672.204 1.572.527 2s.593.587.6.356-.153-.591-.356-.8-.446-.92-.54-1.58l-.171-1.2-.06 1.224m1.153 3.676c-.007.275.167.5.387.5s.403.225.406.5c.007.549 3.178 4.302 3.188 3.773.003-.18-.532-.99-1.189-1.8l-1.987-2.473c-.435-.55-.797-.775-.805-.5m-11.583 1.1c-.002.837 1.131 3.136 1.156 2.346.008-.25-.249-1.06-.57-1.8-.404-.929-.585-1.098-.586-.546m131.986 1.476c-.009.372.164.788.384.924s.425.732.454 1.324c.046.908.082.939.225.199.094-.482-.103-1.382-.438-2-.407-.751-.614-.899-.625-.447M80.4 159.339c0 1.19 4.798 7.461 5.709 7.461.246 0-.173-.593-.931-1.317-1.727-1.651-2.371-2.492-3.378-4.419-.72-1.378-1.4-2.215-1.4-1.725m14.4 1.614c0 .33.18.711.4.847s.4-.023.4-.353-.18-.711-.4-.847-.4.023-.4.353m22.576.834c-.427.323-.562.593-.3.6s.588-.167.724-.387c.634-1.026 4.464-.442 5.753.876.686.702 1.247 1.071 1.247.82 0-1.88-5.569-3.312-7.424-1.909m-1.576 1.153c-3.311 3.805-5.669 7.324-5.213 7.781.125.124.443-.347.708-1.047s.621-1.274.793-1.274.312-.255.312-.567.135-.626.3-.7c.454-.201 3.808-4.359 3.643-4.516-.078-.075-.323.071-.543.323m97.402.114c-.004.741 1.165 3.205 1.182 2.492.009-.36-.253-1.17-.582-1.8s-.598-.942-.6-.692m-88.402 1.899c0 .33.18.711.4.847s.4-.023.4-.353-.18-.711-.4-.847-.4.023-.4.353m.292 2.089c-.161.16-.287.666-.28 1.125.011.769.044.778.428.118.448-.769.333-1.725-.148-1.243m-36.187.845c.609.092 1.509.09 2-.005s-.005-.171-1.105-.168-1.503.081-.895.173m126.487.913c.09.55.335 1.63.545 2.4l.381 1.4.041-1.22c.023-.671-.122-1.391-.32-1.6s-.462-.74-.586-1.18c-.133-.473-.158-.391-.061.2m-105.701 3.7c-.27.746-.482 1.704-.472 2.128s.292-.005.624-.955.545-1.908.472-2.129-.355.21-.624.956m12.382-.413c-.26.26-.473.761-.473 1.113s-.213.853-.473 1.113-.363.584-.228.719.616-.523 1.07-1.463c.865-1.79.899-2.277.104-1.482m94.567 2.179c.368 1.533.56 1.678.56.424 0-.573-.187-1.158-.416-1.3-.273-.169-.322.133-.144.876m-107.974 2.675c-.174.847-.22 1.638-.101 1.757.362.363.703-.961.557-2.164-.128-1.056-.159-1.029-.456.407M217.487 178l.487 4.2.304 2.4.061-2.62c.034-1.441-.106-2.791-.31-3s-.452-.92-.549-1.58-.094-.39.007.6m-97.476-.629c-.633 1.664-.487 6.658.228 7.829l.611 1-.285-1c-.566-1.987-.647-6.5-.133-7.46.276-.516.387-1.054.246-1.195s-.441.231-.667.826M108.434 184c.036 1.627.704 2.906.732 1.4.012-.66-.153-1.47-.366-1.8-.306-.473-.383-.388-.366.4m.812 3.454c-.025.47.223 1.37.552 2 .497.954.597 1.009.6.326.001-.451-.161-.991-.359-1.2s-.448-.74-.554-1.18c-.182-.756-.195-.753-.239.054m11.567-.154c-.007.385.123.7.289.7s.532.518.813 1.152c.617 1.396 2.37 3.497 2.667 3.199.118-.118-.234-.637-.784-1.152s-.998-1.177-.998-1.469-.18-.53-.4-.53-.4-.236-.4-.524c0-.89-1.171-2.248-1.187-1.376m-9.6 5.324c-.007.232.251.772.574 1.2s.593.585.6.352-.251-.772-.574-1.2-.593-.585-.6-.352m13.587 1.129c0 .33.18.711.4.847s.4-.023.4-.353-.18-.711-.4-.847-.4.023-.4.353m-36.4.263c-.733.223-.368.315 1.367.344 1.301.022 2.291-.024 2.2-.103-.425-.363-2.668-.515-3.567-.241m-3.615 2.284c-1.89 2.132-3.736 4.882-3.462 5.156.099.099.661-.64 1.248-1.643s1.912-2.631 2.942-3.618 1.666-1.795 1.414-1.795-1.217.855-2.142 1.9m8.015-1.753c0 .451 1.569 2.018 1.794 1.792.112-.111-.246-.625-.796-1.14s-.998-.81-.998-.652m20.435 1.553c1.161 1.697 4.031 4.7 4.492 4.7.199 0-.633-.978-1.848-2.174s-2.326-2.545-2.471-3-.442-.826-.662-.826 0 .585.489 1.3m11.765.7c-.15.473-.183.95-.073 1.06s.323-.187.473-.66.183-.95.073-1.06-.323.187-.473.66m-1.754 2.806c-.745.657-1.184 1.194-.975 1.194s.897-.54 1.529-1.2c1.47-1.535 1.191-1.531-.554.006M95 200.8c-.15.473-.183.95-.073 1.06s.323-.187.473-.66.183-.95.073-1.06-.323.187-.473.66m24.7.276c.385.1 1.015.1 1.4 0s.07-.183-.7-.183-1.085.082-.7.183m-39.639 2.58c-.432.959-.891 2.222-1.021 2.807s-.358 1.379-.506 1.765c-.171.446-.115.608.153.442.232-.144.545-.915.695-1.715s.469-1.836.708-2.304c1.035-2.024 1.155-2.34.96-2.534-.112-.113-.558.58-.989 1.539m12.987.396c-.796.909-1.448 1.833-1.448 2.054s.399-.117.886-.752.983-1.244 1.1-1.354c.52-.486 1.293-1.6 1.111-1.6-.11 0-.852.743-1.649 1.652m-2.963 4.761c-.267.427-.464 1.274-.439 1.882.034.798.095.883.221.305.096-.44.375-1.205.621-1.699.565-1.138.245-1.526-.403-.488M78.144 214c0 2.09.068 2.945.15 1.9a29.38 29.38 0 0 0 0-3.8c-.082-1.045-.15-.19-.15 1.9m10.814-.975c-.142.564-.067 1.419.165 1.9.363.75.427.604.45-1.025.03-2.097-.219-2.452-.615-.875m.702 4.399c-.033.672.204 1.572.527 2s.593.587.6.356-.153-.591-.356-.8-.446-.92-.54-1.58l-.171-1.2-.06 1.224m1.153 3.676c-.007.275.167.5.387.5s.403.225.406.5c.007.549 3.178 4.302 3.188 3.773.003-.18-.532-.99-1.189-1.8l-1.987-2.473c-.435-.55-.797-.775-.805-.5m-11.583 1.1c-.002.837 1.131 3.136 1.156 2.346.008-.25-.249-1.06-.57-1.8-.404-.929-.585-1.098-.586-.546m1.17 3.164c0 1.029 4.651 7.436 5.398 7.436.206 0-2.221-3.234-3.002-4-.112-.11-.562-.89-1-1.733-.731-1.408-1.396-2.219-1.396-1.703m14.4 1.589c0 .33.18.711.4.847s.4-.023.4-.353-.18-.711-.4-.847-.4.023-.4.353m22.4.847c-.535.644-.011.842.62.234.209-.202.83-.447 1.38-.546.87-.156.837-.186-.251-.234-.688-.029-1.475.216-1.749.546m4.277-.321c.482.094 1.427.734 2.1 1.422s1.223 1.066 1.223.841c0-.748-2.378-2.543-3.297-2.488l-.903.055.877.17m-5.695 1.461c-2.26 2.483-5.574 7.401-5.225 7.751.117.117.445-.306.728-.939.553-1.238.522-1.194 3.314-4.686 1.6-2.002 2.435-3.502 1.183-2.126m9.018 2.013c0 .33.18.711.4.847s.4-.023.4-.353-.18-.711-.4-.847-.4.023-.4.353m-32.62 2.223c-.209.207-1.28.444-2.38.528l-2 .152 2.024.072c1.26.045 2.316-.149 2.8-.515.427-.323.587-.593.356-.6s-.591.156-.8.363m17.467 5.483c-.3.906-.447 1.894-.327 2.195s.231.087.248-.474.229-1.217.47-1.458.373-.769.295-1.175c-.094-.489-.325-.182-.686.912m12.426-.572c-.26.26-.473.761-.473 1.113s-.213.853-.473 1.113-.363.584-.228.719.616-.523 1.07-1.463c.865-1.79.899-2.277.104-1.482m-13.407 4.854c-.174.847-.22 1.638-.101 1.757.362.363.703-.961.557-2.164-.128-1.056-.159-1.029-.456.407m11.345.43c-.633 1.664-.487 6.658.228 7.829l.611 1-.285-1c-.566-1.987-.647-6.5-.133-7.46.276-.516.387-1.054.246-1.195s-.441.231-.667.826M108.434 250c.036 1.627.704 2.906.732 1.4.012-.66-.153-1.47-.366-1.8-.306-.473-.383-.388-.366.4m.82 3.454c-.029.47.215 1.37.544 2s.598.867.6.526-.163-.791-.364-1-.447-.83-.546-1.38c-.151-.846-.187-.868-.234-.146m11.546-.278c0 .207.18.488.4.624s.403.552.408.924c.008.708 2.39 3.676 2.951 3.676.178 0-.235-.637-.918-1.415s-1.503-2.038-1.821-2.8c-.558-1.335-1.02-1.792-1.02-1.009m-9.575 5.424c0 .22.265.749.588 1.176s.587.597.587.377-.264-.749-.587-1.177-.588-.596-.588-.376m13.575 1.153c0 .33.18.711.4.847s.4-.023.4-.353-.18-.711-.4-.847-.4.023-.4.353M88.4 260c-.736.236-.368.32 1.4.32s2.136-.084 1.4-.32c-.55-.176-1.18-.32-1.4-.32s-.85.144-1.4.32m-3.615 2.3c-1.89 2.132-3.736 4.882-3.462 5.156.099.099.661-.64 1.248-1.643s1.912-2.631 2.942-3.618 1.666-1.795 1.414-1.795-1.217.855-2.142 1.9m8.015-1.753c0 .451 1.569 2.018 1.794 1.792.112-.111-.246-.625-.796-1.14s-.998-.81-.998-.652m20.735 1.953c1.143 1.655 3.787 4.3 4.298 4.3.14 0-.739-.978-1.954-2.174s-2.326-2.545-2.471-3-.438-.826-.654-.826.136.765.781 1.7m11.465.3c-.15.473-.183.95-.073 1.06s.323-.187.473-.66.183-.95.073-1.06-.323.187-.473.66m-1.754 2.806c-.745.657-1.184 1.194-.975 1.194s.897-.54 1.529-1.2c1.47-1.535 1.191-1.531-.554.006M95 266.8c-.15.473-.183.95-.073 1.06s.323-.187.473-.66.183-.95.073-1.06-.323.187-.473.66m24.7.276c.385.1 1.015.1 1.4 0s.07-.183-.7-.183-1.085.082-.7.183m-26.652 2.976c-.796.909-1.448 1.833-1.448 2.054s.399-.117.886-.752.983-1.244 1.1-1.354c.52-.486 1.293-1.6 1.111-1.6-.11 0-.852.743-1.649 1.652m-13.307.231c-.252.614-.566 1.595-.698 2.18s-.361 1.379-.509 1.765c-.171.446-.115.608.153.442.232-.144.549-.938.703-1.766s.46-1.72.679-1.985a1.51 1.51 0 0 0 .264-1.117c-.091-.435-.278-.283-.592.481m10.344 4.53c-.267.427-.464 1.274-.439 1.882.034.798.095.883.221.305.096-.44.375-1.205.621-1.699.565-1.138.245-1.526-.403-.488M78.144 280c0 2.09.068 2.945.15 1.9a29.38 29.38 0 0 0 0-3.8c-.082-1.045-.15-.19-.15 1.9m10.814-.975c-.142.564-.067 1.419.165 1.9.363.75.427.604.45-1.025.03-2.097-.219-2.452-.615-.875m.702 4.399c-.033.672.204 1.572.527 2s.593.587.6.356-.153-.591-.356-.8-.446-.92-.54-1.58l-.171-1.2-.06 1.224M219.376 296.6c0 6.16.056 8.624.123 5.476a307.45 307.45 0 0 0 0-11.2c-.068-3.012-.123-.436-.123 5.724m-128.563-9.5c-.007.275.167.5.387.5s.403.225.406.5c.007.549 3.178 4.302 3.188 3.773.003-.18-.532-.99-1.189-1.8l-1.987-2.473c-.435-.55-.797-.775-.805-.5m-11.583 1.1c-.002.837 1.131 3.136 1.156 2.346.008-.25-.249-1.06-.57-1.8-.404-.929-.585-1.098-.586-.546m1.17 3.164c0 .434 1.738 3.291 2.942 4.836 1.549 1.988 2.258 2.737 2.258 2.386 0-.238-2.228-3.258-2.793-3.786-.118-.11-.573-.89-1.011-1.733-.731-1.408-1.396-2.219-1.396-1.703m14.4 1.589c0 .33.18.711.4.847s.4-.023.4-.353-.18-.711-.4-.847-.4.023-.4.353m-1.287 5.647c-1.229 1.14-6.018 1.477-7.114.5-.477-.425-.481-.396-.031.2 1.002 1.323 6.008.987 7.432-.5 1.394-1.455 1.207-1.585-.287-.2m52.754 82.867c-.147.146-.264.461-.261.7.004.293.101.286.3-.021.162-.249.654-.543 1.094-.653.774-.194.773-.202-.033-.247-.459-.025-.954.074-1.1.221" fill="#3cac3c" />
</svg>