<?xml version="1.0" standalone="no"?>
<!DOCTYPE svg PUBLIC "-//W3C//DTD SVG 20010904//EN"
 "http://www.w3.org/TR/2001/REC-SVG-20010904/DTD/svg10.dtd">
<svg version="1.0" xmlns="http://www.w3.org/2000/svg"
 width="512.000000pt" height="512.000000pt" viewBox="0 0 512.000000 512.000000"
 preserveAspectRatio="xMidYMid meet">

<g transform="translate(0.000000,512.000000) scale(0.100000,-0.100000)"
fill="#000000" stroke="none">
<path d="M1804 4395 c-97 -17 -136 -31 -225 -77 -93 -47 -190 -126 -246 -199
-22 -30 -196 -323 -386 -651 -407 -705 -402 -695 -402 -913 0 -218 -5 -208
402 -913 190 -328 363 -621 386 -650 37 -49 136 -142 150 -142 4 0 8 399 9
887 l3 888 32 119 c148 548 632 906 1193 883 316 -13 574 -128 793 -354 164
-169 271 -382 313 -627 24 -135 15 -349 -20 -480 -117 -436 -427 -748 -860
-863 -91 -25 -118 -27 -276 -27 -157 0 -185 2 -275 26 -211 55 -399 162 -552
313 -47 47 -88 85 -90 85 -2 0 -2 -219 -1 -487 l3 -487 30 -10 c20 -7 284 -10
770 -11 823 0 796 -2 950 69 127 59 232 146 305 250 62 90 693 1192 716 1250
70 175 71 383 2 556 -29 75 -681 1205 -740 1284 -90 120 -246 224 -405 269
-77 21 -91 21 -793 24 -556 1 -731 -1 -786 -12z"/>
<path d="M2497 3355 c-395 -82 -704 -424 -735 -813 -15 -180 9 -322 77 -467
100 -214 254 -368 465 -465 141 -65 191 -75 371 -75 157 1 162 1 262 36 142
50 242 110 343 206 171 162 267 352 291 580 35 320 -105 643 -360 832 -78 58
-227 132 -316 156 -84 23 -310 29 -398 10z"/>
</g>
</svg>
