<svg xmlns="http://www.w3.org/2000/svg" width="32" height="32" viewBox="0 0 32 32"><g fill="none" fill-rule="evenodd"><circle cx="16" cy="16" r="16" fill="#000"/><path fill="#FFF" fill-rule="nonzero" d="M25.9414573,6.05854678 C26.5238211,6.64093429 22.6964823,11.4162691 17.3505687,16.7940313 L17.0727165,17.0727103 C11.5821884,22.5632634 6.65097665,26.533931 6.05854697,25.9415264 C5.72230955,25.6052697 6.85595014,23.8713751 8.90308335,21.4309394 C8.68194241,21.1362439 8.48018835,20.8286154 8.29870261,20.5104397 C7.54944519,19.1964266 7.14544487,17.6989665 7.14544487,16.1598699 C7.14544487,13.8306576 8.07073108,11.5968228 9.7177338,9.94981757 C11.3647641,8.30279726 13.5985738,7.37751357 15.9278112,7.37751357 C17.4669079,7.37751357 18.9643178,7.78151138 20.2783309,8.53078387 C20.588345,8.70757608 20.8881886,8.90357937 21.1759782,9.11806548 C23.750138,6.93586956 25.5936488,5.71071715 25.9414573,6.05854678 Z M16.0276286,11.625 C14.8599865,11.625 13.7401603,12.0880643 12.9144946,12.9122992 C12.088854,13.7365591 11.625,14.8544787 11.625,16.0201328 C11.625,16.6671579 11.7678945,17.2994511 12.0362616,17.875 C12.9616317,16.8849997 13.9655384,15.8470892 15.0260599,14.7883482 C16.0003268,13.8157651 16.9569958,12.8908663 17.875,12.0306424 C17.3013354,11.7659195 16.6717599,11.625 16.0276286,11.625 Z M11,23.5648039 C11.0425415,23.5933037 11.0853104,23.6215502 11.1282813,23.64929 C12.5444536,24.5647036 14.2042796,25.0625 15.9152615,25.0625 C18.2583535,25.0625 20.5054493,24.1290999 22.1622691,22.4676251 C23.8190889,20.8061501 24.75,18.5526394 24.75,16.202964 C24.75,14.4871495 24.2535983,12.8226853 23.3407496,11.402534 C23.3212977,11.3724129 23.3018459,11.3423931 23.2820151,11.3125 C22.9001772,11.8094858 22.4842356,12.3284861 22.0377266,12.8645356 C22.5883157,13.8800151 22.884262,15.0261884 22.884262,16.202964 C22.884262,18.0564389 22.1500169,19.8339903 20.8430783,21.1446011 C19.5361397,22.4552118 17.7635433,23.1915199 15.9152615,23.1915199 C14.7306675,23.1915199 13.5771966,22.8890421 12.5574636,22.3268993 C12.0180151,22.7732696 11.4971091,23.1870866 11,23.5648039 Z M13.1875,21.6311942 C14.0109968,22.0345042 14.9227007,22.25 15.8565367,22.25 C17.4693169,22.25 19.0159976,21.6074848 20.156401,20.4638424 C21.2968044,19.3202 21.9375,17.7690272 21.9375,16.1516664 C21.9375,15.2245874 21.7270706,14.3192814 21.3325775,13.5 C20.9008259,14.0042056 20.443699,14.5214454 19.9642914,15.0477219 C20.0597273,15.40473 20.1092401,15.7756411 20.1092401,16.1516664 C20.1092401,17.2827465 19.6611493,18.3674999 18.863622,19.1672675 C18.0660947,19.9670599 16.9844134,20.4164234 15.8565367,20.4164234 C15.4754119,20.4164234 15.0995603,20.3651562 14.7381665,20.2663459 C14.2100382,20.7457497 13.691763,21.201568 13.1875,21.6311942 Z"/></g></svg>