<svg width="32" height="32" viewBox="0 0 32 32" fill="none" xmlns="http://www.w3.org/2000/svg">
<circle cx="16" cy="16" r="16" fill="#0F2AC3"/>
<path d="M16.5718 13.5316C16.3283 13.8529 16.1365 14.2624 15.9515 14.6649C15.7665 15.0674 15.5827 15.4655 15.3944 15.748C15.206 16.0306 15.0285 16.1693 14.8372 16.1693C14.6032 16.1693 14.4708 16.1028 14.3536 15.9787C14.2364 15.8546 14.145 15.6648 14.0592 15.4672C13.9734 15.2697 13.8956 15.0616 13.7649 14.8855C13.6341 14.7095 13.4257 14.5646 13.1552 14.5646C13.0021 14.5646 12.8678 14.6312 12.7662 14.7251C12.6645 14.819 12.5904 14.9424 12.5244 15.0761C12.3923 15.3434 12.2937 15.6749 12.1669 15.9988C12.0402 16.3226 11.8843 16.6392 11.6729 16.8613C11.4614 17.0834 11.1999 17.2223 10.8003 17.2223H6.09058C6.02992 17.2215 5.9735 17.2519 5.94292 17.3019C5.91234 17.3519 5.91234 17.4137 5.94292 17.4637C5.9735 17.5137 6.02992 17.5441 6.09058 17.5433H10.8003C11.2877 17.5433 11.6637 17.3465 11.9252 17.0719C12.1866 16.7974 12.35 16.4474 12.4823 16.1091C12.6147 15.7708 12.716 15.4358 12.8292 15.2065C12.8859 15.0918 12.9423 15.0067 12.9974 14.9558C13.0526 14.9048 13.0922 14.8855 13.1552 14.8855C13.3164 14.8855 13.3988 14.9512 13.4915 15.0761C13.5843 15.2009 13.6659 15.394 13.7544 15.5976C13.8428 15.8012 13.9343 16.0125 14.1013 16.1893C14.2682 16.3661 14.518 16.4902 14.8372 16.4902C15.199 16.4902 15.4654 16.2377 15.6782 15.9185C15.8909 15.5994 16.0727 15.1951 16.2564 14.7953C16.4402 14.3954 16.6325 14.0027 16.8451 13.7222C17.0577 13.4417 17.2679 13.2809 17.5284 13.2809C17.6471 13.2809 17.7514 13.3236 17.8649 13.4213C17.9783 13.519 18.0909 13.6722 18.2012 13.8626C18.422 14.2433 18.6314 14.7726 18.853 15.3068C19.0746 15.841 19.3147 16.3802 19.631 16.8011C19.9473 17.222 20.3574 17.5333 20.8925 17.5333H25.7494C25.81 17.5341 25.8665 17.5037 25.8971 17.4537C25.9276 17.4037 25.9276 17.3419 25.8971 17.2919C25.8665 17.2419 25.81 17.2115 25.7494 17.2123H20.8925C20.4907 17.2123 20.1872 16.997 19.9043 16.6205C19.6214 16.2442 19.3773 15.7254 19.1579 15.1965C18.9385 14.6675 18.7372 14.1288 18.4956 13.7122C18.3748 13.5038 18.2528 13.3255 18.0961 13.1906C17.9394 13.0558 17.7413 12.96 17.5284 12.96C17.1257 12.96 16.8153 13.2104 16.5718 13.5316Z" stroke="white"/>
</svg>