<svg xmlns="http://www.w3.org/2000/svg" xmlns:xlink="http://www.w3.org/1999/xlink" viewBox="0 0 599.12 426.75" xmlns:v="https://vecta.io/nano"><style>.D{isolation:isolate}</style><defs><linearGradient id="A" x1="266.46" y1="237.07" x2="287.86" y2="242.01" xlink:href="#m"><stop offset="0" stop-color="#b8b8b8"/><stop offset="1" stop-color="#434344"/></linearGradient><clipPath id="B"><path d="M266.48 222l5.72-.67c.5.13 1.9 2.23 3.74 5.33s4.11 7.19 6.35 11.32l6.15 11.55 3.11 6-4.18 3.4-3.36-6.46-6.64-12.46-6.86-12.23c-1.98-3.34-3.51-5.61-4.03-5.78z" fill="url(#A)"/></clipPath><linearGradient id="C" x1="284.24" y1="423.24" x2="286.06" y2="394.8" xlink:href="#m"><stop offset="0" stop-color="#b8b8b8"/><stop offset=".14" stop-color="#a7a7a7"/><stop offset="1" stop-color="#434444"/></linearGradient><clipPath id="D"><path d="M265.56 119.1l5.79 6.94q3.07 3.67 5.87 7.57 2.8 3.9 5.32 8 2.52 4.11 4.75 8.41 2.23 4.3 4.14 8.81l1.15 2.56 1.53 2.95a33.54 33.54 0 0 0 1.85 2.92 16.52 16.52 0 0 0 2.1 2.45l-3.67-3.46a18.05 18.05 0 0 1-2.26-2.64 35 35 0 0 1-2-3.15l-1.65-3.19-1.25-2.77q-2.07-4.84-4.47-9.5-2.4-4.66-5.12-9.09-2.72-4.44-5.74-8.64-3.02-4.2-6.34-8.17z" fill="none"/></clipPath><radialGradient id="E" cx="69.68" cy="158.58" r="107.84" xlink:href="#m"><stop offset=".27" stop-color="#434444"/><stop offset=".5" stop-color="#393a3a"/><stop offset="1" stop-color="#282828"/></radialGradient><radialGradient id="F" cx="544.98" cy="261.19" r="139.03" xlink:href="#m"><stop offset=".27" stop-color="#434444"/><stop offset=".55" stop-color="#3d3d3d"/><stop offset=".95" stop-color="#2b2b2b"/><stop offset="1" stop-color="#282828"/></radialGradient><linearGradient id="G" x1="562.42" y1="93.58" x2="561.26" y2="15.32" xlink:href="#m"><stop offset="0" stop-color="#fff"/><stop offset=".05" stop-color="#e9e9e9"/><stop offset=".17" stop-color="#bababa"/><stop offset=".3" stop-color="#929292"/><stop offset=".43" stop-color="#717171"/><stop offset=".56" stop-color="#575757"/><stop offset=".69" stop-color="#454545"/><stop offset=".84" stop-color="#3a3a3a"/><stop offset="1" stop-color="#373737"/></linearGradient><radialGradient id="H" cx="167.09" cy="236.05" r="130.16" xlink:href="#m"><stop offset="0" stop-color="#b8b8b8"/><stop offset=".45" stop-color="#a2a2a2" stop-opacity=".54"/><stop offset="1" stop-color="#878787" stop-opacity="0"/></radialGradient><radialGradient id="I" cx="299.56" cy="213.36" r="260.06" xlink:href="#m"><stop offset=".65" stop-color="#b8b8b8"/><stop offset="1" stop-color="#878787"/></radialGradient><radialGradient id="J" cx="298.46" cy="168.28" r=".06" xlink:href="#I"/><radialGradient id="K" cy="223.35" r="263.56" xlink:href="#I"/><radialGradient id="L" cx="570.59" cy="-2.47" r="28.49" xlink:href="#m"><stop offset=".24" stop-color="#fdfeff"/><stop offset=".35" stop-color="#fdfeff" stop-opacity=".83"/><stop offset=".65" stop-color="#feffff" stop-opacity=".39"/><stop offset=".86" stop-color="#fff" stop-opacity=".11"/><stop offset=".96" stop-color="#fff" stop-opacity="0"/></radialGradient><radialGradient id="M" cx="92.07" cy="83.38" r="102.93" xlink:href="#m"><stop offset=".19" stop-color="#fdfeff"/><stop offset=".29" stop-color="#fdfeff" stop-opacity=".77"/><stop offset=".45" stop-color="#feffff" stop-opacity=".45"/><stop offset=".58" stop-color="#fff" stop-opacity=".2"/><stop offset=".68" stop-color="#fff" stop-opacity=".06"/><stop offset=".73" stop-color="#fff" stop-opacity="0"/></radialGradient><radialGradient id="N" cx="97.78" cy="86.73" r="102.93" gradientTransform="translate(54.28 -1.27) rotate(58.63) scale(1 0.1)" xlink:href="#m"><stop offset="0" stop-color="#fdfeff"/><stop offset=".59" stop-color="#feffff" stop-opacity=".4"/><stop offset="1" stop-color="#fff" stop-opacity="0"/></radialGradient><radialGradient id="O" cx="314.43" cy="-54.92" r=".5" xlink:href="#M"/><radialGradient id="P" cx="314.43" cy="-54.92" r=".5" gradientTransform="matrix(1,0,0,0.1,0,-49.43)" xlink:href="#N"/><radialGradient id="Q" cx="398.49" cy="56.77" r="72.26" xlink:href="#M"/><radialGradient id="R" cx="398.49" cy="56.77" r="72.26" gradientTransform="matrix(0.7,0.72,-0.07,0.07,125.5,-233.59)" xlink:href="#N"/><radialGradient id="S" cx="25.62" cy="324.34" r="68.32" xlink:href="#M"/><radialGradient id="T" cx="25.62" cy="324.34" r="68.32" gradientTransform="matrix(0.71,-0.7,0.07,0.07,-15.4,319.24)" xlink:href="#N"/><radialGradient id="U" cx="254.3" cy="267.93" r="62.02" xlink:href="#M"/><radialGradient id="V" cx="254.3" cy="267.93" r="62.02" gradientTransform="matrix(0.61,-0.79,0.08,0.06,78.54,453.65)" xlink:href="#N"/><radialGradient id="W" cx="266.37" cy="225.43" r="63.08" xlink:href="#M"/><radialGradient id="X" cx="266.37" cy="225.43" r="63.08" gradientTransform="matrix(0.1990258640276093,0.9799942374565596,-0.09799942374565596,0.019902586402760932,235.44,-40.1)" xlink:href="#N"/><radialGradient id="Y" cx="536.46" cy="293.5" r="134.25" xlink:href="#M"/><radialGradient id="Z" cx="536.46" cy="293.5" r="134.25" gradientTransform="matrix(-0.6421188651285726,-0.7666050893687009,0.0766605089368701,-0.06421188651285727,858.43,723.6)" xlink:href="#N"/><radialGradient id="a" cx="368.89" cy="112.73" r="306.08" xlink:href="#M"/><radialGradient id="b" cx="368.89" cy="112.73" r="306.08" gradientTransform="matrix(0.623606756597699,0.7817381998634186,-0.07817381998634187,0.06236067565976991,147.65,-182.66)" xlink:href="#N"/><radialGradient id="c" cx="563" cy="102.09" r="44.75" xlink:href="#M"/><radialGradient id="d" cx="563" cy="102.09" r="44.75" gradientTransform="matrix(0.202274547717617,0.9793288555667261,-0.09793288555667262,0.020227454771761702,459.13,-451.34)" xlink:href="#N"/><radialGradient id="e" cx="283.22" cy="420.26" r="27.31" xlink:href="#M"/><radialGradient id="f" cx="283.22" cy="420.26" r="27.31" gradientTransform="translate(116.99 187.13) rotate(46.07) scale(1 0.1)" xlink:href="#N"/><linearGradient id="g" x1="68.89" y1="93.23" x2="80.73" y2="113.09" xlink:href="#m"><stop offset=".16" stop-color="#d6d7d8"/><stop offset=".23" stop-color="#e0e1e2" stop-opacity=".75"/><stop offset=".31" stop-color="#ebecec" stop-opacity=".48"/><stop offset=".39" stop-color="#f4f4f4" stop-opacity=".27"/><stop offset=".46" stop-color="#fafafa" stop-opacity=".12"/><stop offset=".51" stop-color="#fefefe" stop-opacity=".03"/><stop offset=".55" stop-color="#fff" stop-opacity="0"/></linearGradient><radialGradient id="h" cx="58.61" cy="84.65" r="72.24" xlink:href="#m"><stop offset=".24" stop-color="#d6d7d8"/><stop offset=".26" stop-color="#d7d8d9" stop-opacity=".98"/><stop offset=".61" stop-color="#eceded" stop-opacity=".46"/><stop offset=".85" stop-color="#fafafa" stop-opacity=".13"/><stop offset=".96" stop-color="#fff" stop-opacity="0"/></radialGradient><radialGradient id="i" cx="572.27" cy=".39" r="14.81" xlink:href="#L"/><path id="j" d="M577.78,0a9.52,9.52,0,0,0-9.53,9.52V25c.18-1.84,7.44-10.11,14.38-10.66,7.65-.61,14.28,12.08,15.28,11.34L599.12,0Z"/><path id="k" d="M577.78 0a9.52 9.52 0 0 0-9.53 9.52v96.34a4.15 4.15 0 0 1-7.25 2.74 149.33 149.33 0 0 0-111.68-50c-65.41 0-120.17 38.57-140.25 95.75-1.57 4.47-5.86 13.84-10.6 13.94-4.86-.1-9.3-9.28-11.2-13.76-22.52-52.89-75.36-88.27-137.48-88.27A149.77 149.77 0 0 0 0 219.61c1.91 79.45 66.7 144.24 146.15 146.12 36.3.86 73.87-14.18 100.36-35a10.81 10.81 0 0 1 4.43-2.2c7.2-1.5 6.78 7.34 7.31 14 .05.58.13 56.85.13 84.18 0 .05 29.83 0 29.83 0a.11.11 0 0 0 .11-.11v-5.73l-.93-161.95s-18.78-36.33-20.9-36.9c0 0 .22 11.28.06 11.76-.53 1.52-4.14 14.19-5.82 18.18-.33.77-.64 1.54-.91 2.33a116.56 116.56 0 0 1-114.35 78.16c-61.59-2.22-111.27-53-112.22-114.63A116.53 116.53 0 0 1 149.77 99.48c1.35 0 2.69 0 4 .07 40.36 1.37 76.77 24.69 96.5 59.92L297.93 242h0l19.44 37.27c.35.65.72 1.28 1.08 1.93l1.8 3.21h0A149.67 149.67 0 0 0 454 358c81.08-2.48 144.94-70.28 145.08-151.4v-15.46V0zm19.34 191.18v8.56 6.89a150.21 150.21 0 0 1-41.64 103.82A145.68 145.68 0 0 1 453.93 356c-1.54 0-3.09.07-4.62.07h0A147.69 147.69 0 0 1 322 283.37l-.92-1.55-1.3-2.32-.66-1.18-19.42-37.24-47.7-82.61c-20.27-36.2-57.88-59.55-98.16-60.92-1.36 0-2.74-.07-4.1-.07a118.53 118.53 0 0 0-4.37 237 106.16 106.16 0 0 0 4.37.08A118.62 118.62 0 0 0 261.71 255c.23-.65.5-1.35.86-2.2 1.26-3 3.51-10.49 4.85-15l1-3.34c.12-.39.21-.61.15-6 4.29 7.23 11.65 21 16.8 31l.93 161.46v3.84h-5.2-20.72l-.14-82.36c-.06-.73-.1-1.55-.15-2.34-.35-5.76-.84-13.64-7.64-13.64a9.47 9.47 0 0 0-1.92.21 12.83 12.83 0 0 0-5.26 2.58c-27.57 21.68-63.52 34.61-96.16 34.61h-2.92a147.77 147.77 0 0 1 3.58-295.49 150.89 150.89 0 0 1 82.5 24 140.88 140.88 0 0 1 53.14 63.07c4.19 9.86 8.57 14.9 13 15 6.86-.14 11.64-12.76 12.53-15.29C331.08 97.76 385.39 60.7 449.3 60.7a148 148 0 0 1 110.19 49.35 6.15 6.15 0 0 0 10.76-4.07V9.52A7.54 7.54 0 0 1 577.78 2h19.34z"/><path id="l" d="M449.3 89.82l-3.88.06a118.53 118.53 0 0 0 3.88 237l3.88-.06a118.53 118.53 0 0 0-3.88-237zm116.47 122.34c-1.95 61-51.64 110.71-112.66 112.65a116.53 116.53 0 0 1-120.28-120.28c1.95-61 51.64-110.7 112.66-112.65a116.53 116.53 0 0 1 120.28 120.28z"/><linearGradient id="m" gradientUnits="userSpaceOnUse"/></defs><path d="M266.48 222l5.72-.67c.5.13 1.9 2.23 3.74 5.33s4.11 7.19 6.35 11.32l6.15 11.55 3.11 6-4.18 3.4-3.36-6.46-6.64-12.46-6.86-12.23c-1.98-3.34-3.51-5.61-4.03-5.78z" fill="url(#A)"/><g clip-path="url(#B)" class="D"><g><path d="M266.48 222l5.72-.67c.5.13 1.9 2.23 3.74 5.33s4.11 7.19 6.35 11.32l6.15 11.55 3.11 6-4.18 3.4-3.36-6.46-6.64-12.46-6.86-12.23c-1.98-3.34-3.5-5.61-4-5.75" fill="url(#A)"/></g></g><path d="M287.37 258.93l4.18-3.4.15 20.18.29 42.47.29 50 .13 42.69-4.12 15.91-.14-46.1-.3-54-.32-45.85-.16-21.9z" fill="url(#C)"/><g class="D"><g clip-path="url(#D)"><g><path d="M265.56 119.1l5.79 6.94q3.07 3.67 5.87 7.57 2.8 3.9 5.32 8 2.52 4.11 4.75 8.41 2.23 4.3 4.14 8.81l1.15 2.56 1.53 2.95a33.54 33.54 0 0 0 1.85 2.92 16.52 16.52 0 0 0 2.1 2.45l-3.67-3.46a18.05 18.05 0 0 1-2.26-2.64 35 35 0 0 1-2-3.15l-1.65-3.19-1.25-2.77q-2.07-4.84-4.47-9.5-2.4-4.66-5.12-9.09-2.72-4.44-5.74-8.64-3.02-4.2-6.34-8.18" fill="#bfbfbf"/></g></g></g><path d="M228.78,301.61c-67.3,54.51-173.86,2.59-173.31-83.77-4.21-84.77,101.19-143.12,169-91.13C150,61.52,29.87,119.29,32.58,218.2c.75,99.91,123.58,151.38,196.24,83.38Z" fill="url(#E)"/><path d="M229.15 301.2h0 0z" fill="#434444"/><path d="M565.82 207.47c.6-82.52-89-140.29-163.79-105.82-82.91 36-94.21 152-19.06 202.83 76.47 53.52 184.12-3.8 182.85-97.01zm-16.47 3.3c-.74 83.8-98.24 135.19-167.66 88-71.17-46.26-61.59-155.25 16-188.94C468.11 77.47 552 133.14 549.35 210.77z" fill="url(#F)"/><path d="M554.89,17.76a8.77,8.77,0,0,0-1.18,1.33,8.2,8.2,0,0,0-.89,1.55,8.56,8.56,0,0,0-.57,1.73,8.93,8.93,0,0,0-.2,1.87v91.92l16.1-7.75.54-99.26a9.61,9.61,0,0,1,.21-2,10,10,0,0,1,.61-1.87,9.57,9.57,0,0,1,1-1.67,8.74,8.74,0,0,1,1.29-1.43Z" fill="url(#G)"/><path d="M449.3 88.82l-3.91.06a119.53 119.53 0 0 0 3.91 239l3.91-.06a119.53 119.53 0 0 0-3.91-239zm116.47 123.34c-1.95 61-51.64 110.71-112.66 112.65a116.53 116.53 0 0 1-120.28-120.28c1.95-61 51.64-110.7 112.66-112.65a116.53 116.53 0 0 1 120.28 120.28z" fill="url(#H)"/><path d="M568.25 25v80.84a4.15 4.15 0 0 1-7.25 2.76 149.33 149.33 0 0 0-111.68-50c-65.41 0-120.17 38.57-140.25 95.75-1.57 4.47-5.86 13.84-10.6 13.94h0c-4.86-.1-9.3-9.28-11.2-13.76-22.52-52.89-75.36-88.27-137.48-88.27A149.77 149.77 0 0 0 0 219.61c1.91 79.45 66.7 144.24 146.15 146.12 36.3.86 73.87-14.18 100.36-35a10.81 10.81 0 0 1 4.43-2.2c7.2-1.5 6.78 7.34 7.31 14 .05.58.13 56.85.13 84.18 0 .05 29.83 0 29.83 0a.11.11 0 0 0 .11-.11v-5.73l-.93-161.95s-18.78-36.33-20.9-36.9c0 0 .22 11.28.06 11.76-.53 1.52-4.14 14.19-5.82 18.18-.33.77-.64 1.54-.91 2.33a116.56 116.56 0 0 1-114.35 78.16c-61.59-2.22-111.27-53-112.22-114.63A116.53 116.53 0 0 1 149.77 99.48c1.35 0 2.69 0 4 .07 40.36 1.37 76.77 24.69 96.5 59.92L297.93 242h0l19.44 37.27c.35.65.72 1.28 1.08 1.93l1.8 3.21h0A149.67 149.67 0 0 0 454 358c81.08-2.48 144.94-70.28 145.08-151.4v-15.46V3.57c-1 .74-15 11-22.59 11.66-6.91.55-8.06 7.95-8.24 9.77zm-2.48 187.14c-1.95 61-51.64 110.71-112.66 112.65a116.53 116.53 0 0 1-120.28-120.26c1.95-61 51.64-110.7 112.66-112.65a116.53 116.53 0 0 1 120.28 120.28z" fill="url(#I)"/><path d="M298.53,168.28h0Z" fill="url(#J)"/><path d="M577.78,0a9.52,9.52,0,0,0-9.53,9.52V26.19c.18-1.84,1.33-9.24,8.28-9.79,7.64-.6,21.6-10.92,22.59-11.66V0Z" fill="url(#K)"/><use xlink:href="#j" fill-opacity=".43" fill="url(#L)"/><use xlink:href="#k" fill="url(#M)"/><use xlink:href="#l" fill="url(#N)"/><use xlink:href="#k" fill="url(#O)"/><use xlink:href="#l" fill="url(#P)"/><use xlink:href="#k" fill="url(#Q)"/><use xlink:href="#l" fill="url(#R)"/><use xlink:href="#k" fill="url(#S)"/><use xlink:href="#l" fill="url(#T)"/><use xlink:href="#k" fill="url(#U)"/><use xlink:href="#l" fill="url(#V)"/><use xlink:href="#k" fill="url(#W)"/><use xlink:href="#l" fill="url(#X)"/><use xlink:href="#k" fill="url(#Y)"/><use xlink:href="#l" fill="url(#Z)"/><use xlink:href="#k" fill="url(#a)"/><use xlink:href="#l" fill="url(#b)"/><use xlink:href="#k" fill="url(#c)"/><use xlink:href="#l" fill="url(#d)"/><path d="M577.78 0a9.52 9.52 0 0 0-9.53 9.52v96.34a4.15 4.15 0 0 1-7.25 2.74 149.33 149.33 0 0 0-111.68-50c-65.41 0-120.17 38.57-140.25 95.75-1.57 4.47-5.86 13.84-10.6 13.94-4.86-.1-9.3-9.28-11.2-13.76-22.52-52.89-75.36-88.27-137.48-88.27-3.13 0-6.23.11-9.31.29l-1.43 2.09q5.33-.37 10.74-.38a150.89 150.89 0 0 1 82.5 24 140.88 140.88 0 0 1 53.14 63.07c4.19 9.86 8.57 14.9 13 15 6.86-.14 11.64-12.76 12.53-15.29 20.14-57.35 74.45-94.41 138.36-94.41a148 148 0 0 1 110.19 49.35 6.15 6.15 0 0 0 10.76-4.07V9.52A7.54 7.54 0 0 1 577.78 2h19.34v189.18 8.56 6.89a150.21 150.21 0 0 1-41.64 103.82A145.68 145.68 0 0 1 453.93 356c-1.54 0-3.09.07-4.62.07h0A147.69 147.69 0 0 1 322 283.37l-.92-1.55-1.3-2.32-.66-1.18-19.42-37.24-47.7-82.61c-20.27-36.2-57.88-59.55-98.16-60.92-1.36 0-2.74-.07-4.1-.07a117.61 117.61 0 0 0-68.28 21.62c-3.06 2.62-6.1 5-9.1 7.14-2.42 2.1-4.78 4.29-7 6.6a118.53 118.53 0 0 0 80.04 201.61 106.16 106.16 0 0 0 4.37.08A118.62 118.62 0 0 0 261.71 255c.23-.65.5-1.35.86-2.2 1.26-3 3.51-10.49 4.85-15l1-3.34c.12-.39.21-.61.15-6 4.29 7.23 11.65 21 16.8 31l.93 161.46v3.84h-5.2-20.72l-.14-82.36c-.06-.73-.1-1.55-.15-2.34-.35-5.76-.84-13.64-7.64-13.64a9.47 9.47 0 0 0-1.92.21 12.83 12.83 0 0 0-5.26 2.58c-27.57 21.68-63.52 34.61-96.16 34.61h-2.92a147.87 147.87 0 0 1-127-217c-1.46.08-2.25.07-2.25.07A149.16 149.16 0 0 0 0 219.61c1.91 79.45 66.7 144.24 146.15 146.12 36.3.86 73.87-14.18 100.36-35a10.81 10.81 0 0 1 4.43-2.2c7.2-1.5 6.78 7.34 7.31 14 .05.58.13 56.85.13 84.18 0 .05 29.83 0 29.83 0a.11.11 0 0 0 .11-.11v-5.73l-.93-161.95s-18.78-36.33-20.9-36.9c0 0 .22 11.28.06 11.76-.53 1.52-4.14 14.19-5.82 18.18-.33.77-.64 1.54-.91 2.33a116.56 116.56 0 0 1-114.35 78.16c-61.59-2.22-111.27-53-112.22-114.63A116.53 116.53 0 0 1 149.77 99.48c1.35 0 2.69 0 4 .07 40.36 1.37 76.77 24.69 96.5 59.92L297.93 242h0l19.44 37.27c.35.65.72 1.28 1.08 1.93l1.8 3.21h0A149.67 149.67 0 0 0 454 358c81.08-2.48 144.94-70.28 145.08-151.4v-15.46V0z" fill="url(#e)"/><path d="M449.3 326.87l3.88-.06a118.53 118.53 0 0 0-3.88-237l-3.88.06a118.53 118.53 0 0 0 3.88 237zM332.83 204.53c1.95-61 51.64-110.7 112.66-112.65a116.53 116.53 0 0 1 120.28 120.28c-1.95 61-51.64 110.71-112.66 112.65a116.53 116.53 0 0 1-120.28-120.28z" fill="url(#f)"/><path d="M17,145.74c7.16-18.14,61.71-37.32,61.71-37.32S114,77.05,136.84,67.61a146.45,146.45,0,0,0-95,44.14A148.51,148.51,0,0,0,17,145.74Z" opacity=".69" fill="url(#g)"/><path d="M19.16 146.75a148.39 148.39 0 0 1 24.89-34 146.54 146.54 0 0 1 95-44.14l1.43-2.09a149.77 149.77 0 0 0-123.57 80.3l2.25-.07z" fill="url(#e)"/><path d="M19.16 146.75a148.39 148.39 0 0 1 24.89-34 146.54 146.54 0 0 1 95-44.14l1.43-2.09a149.77 149.77 0 0 0-123.57 80.3l2.25-.07z" fill="url(#h)"/><use xlink:href="#j" fill-opacity=".43" fill="url(#i)"/></svg>