<svg xmlns="http://www.w3.org/2000/svg" width="1024" height="1024" version="1.0" viewBox="0 0 1024 1024"><path d="M129.4 72.9c-2.1 1.6-12.3 11.4-22.6 21.7-20.7 21-21.2 21.7-20.4 33.7.5 7.6 1.4 9.8 6.8 15.3 3.5 3.7 3.7 4.2 2.3 5.4-3.3 2.7-4.5 6.8-4.5 15.3 0 7.5.3 8.8 2.9 12.8 3.7 5.7 54.6 56.2 58.8 58.3 4 2 11.5 2.1 15.7.1 1.8-.9 12.3-10.7 23.3-21.8 22.3-22.4 22.4-22.6 21.8-35-.4-7.7-2-10.9-8.7-17.5l-4.4-4.2-3.7 3.8-3.7 3.8 5 4.9c8.1 8 8.2 7.7-14.2 30.2-10.6 10.5-20.3 19.5-21.5 19.8-1.3.3-3.1.2-3.9-.3-.9-.5-13.9-13.1-28.9-28l-27.3-27.1 18.8-18.7c10.4-10.3 19.4-19.1 20.2-19.5 3.2-2.1 5.7-.4 19.8 13.6l14.6 14.5 3.8-3.9c2.8-2.9 3.8-4.8 3.9-7.2 0-3.1-1.3-4.7-14.2-17.4-7.8-7.7-15.7-14.8-17.4-15.7-4.3-2.3-12.4-2.3-15.9 0-1.5 1-8.5 7.4-15.4 14.2l-12.6 12.4-5.4-5.6c-8.5-8.9-8.8-8.2 14.1-30.9 15.8-15.7 20.2-19.5 22.7-19.7 2.8-.3 5.2 1.8 30.9 27.5 15.4 15.2 27.9 28.3 27.9 29 0 .6.4 1.4.9 1.7.4.3.6-.5.3-1.9-.2-1.4-6.9-8.9-16.2-18.2-8.7-8.7-15.6-16.2-15.3-16.7.4-.5.2-.6-.4-.3-1.4.9-17.9-16.4-17.5-18.3.2-1.2.1-1.2-.6-.2-.8 1.1-1 1.1-1.5-.1-.6-1.7-6.7-4.7-9.6-4.7-1.2 0-3.3 1.1-4.6 2.4-1.3 1.3-2.6 2.1-2.9 1.8-.3-.3-.6 0-.6.7s-7.1 8.3-15.7 16.9c-8.7 8.6-16.6 16.8-17.5 18.2-2.7 3.9-2.3 8.2 1.2 12.1 4.9 5.4 5.3 6.6 3 7.9-2.1 1.1-3 .8-6.3-1.9-4.6-3.9-7.5-15.7-4.8-20 1.8-2.8 32.6-33.6 33.4-33.3.5.1.6-.1.3-.6-.6-1 5.8-7.4 9.1-9.1 2.7-1.4 9.3-1.4 13 0 2.7 1 48.3 46.4 48.3 48.1 0 .4.7.8 1.5.8s1.5.4 1.5.8c0 .5 1.9 2.8 4.3 5.1l4.2 4.2v8.1c0 5.6-.4 8.3-1.2 8.5-.7.3-1.3.8-1.3 1.2 0 .5-3.2 4-7.1 8-4 3.9-6.7 7.1-6.2 7.1 1.4 0 17.3-16.6 17.3-18 0-.8.3-1.1.6-.8.8.9-2 5.9-4.5 8.2-1.6 1.5-1.8 2.2-1 3.3 1.5 1.8 3.7 0 5.6-4.4 1.7-4.3 1.7-16.5-.1-20.8-1.5-3.6-53.3-56-59.5-60.2-5.2-3.5-13.5-3.3-18.7.6zm23.3 39.9c1.5 1.1 8.4 7.7 15.2 14.7l12.4 12.6-2.1 2.1-2.1 2.1-3.5-2.9c-1.9-1.6-3.8-3.7-4.1-4.7-.4-1-.9-1.6-1.2-1.3-.6.5-14.3-12.8-14.3-13.9 0-1.3-4.4-4.7-6.3-4.8-1.2-.1-2.8-.8-3.5-1.7-1-1.3-1.1-1.2-.5.4.5 1.6.3 1.8-1.4 1.4-2.8-.7-4.4.4-3.3 2.2.7 1.2 1.2 1.2 2.2.2.6-.6 2.4-1.2 3.8-1.2 2.8 0 3.6.8 22.8 19.4 5.3 5.2 9.6 8.7 10 8.1.4-.6 1.8-1.9 3.2-3 2.5-2 2.5-2 1 0-4.8 6.6-3.9 7-17.8-6.6-17.7-17.4-17.7-17.4-20.9-16.3-2.4.9-39.3 37.5-39.3 39.1 0 2-3.9 5.5-5.2 4.7-.7-.5-.8-.3-.4.5.5.7 1.4 1 2.2.7.8-.3 1.3-.2 1.2.2-.1.4.8 2.3 2 4.2 1.2 1.9 2.2 3.1 2.2 2.6s3.4 2.6 7.5 6.7c4.1 4.2 7.5 8.1 7.5 8.7 0 .5.5 1 1 1 .6 0 8 7 16.6 15.5 8.5 8.5 16.8 16.2 18.6 17.1 6 3.1 8.1 1.8 27.8-17.3 10-9.7 18.9-19 19.7-20.7 1.8-3.3 2.4-7.6 1.1-7.6-.4 0-.8-.5-.8-1.2s-1.8-3.1-4-5.3l-4-4.1 2-2.2 2-2.1 3.9 4.2c5.2 5.7 6.1 7.7 6.2 14 .2 6.6.2 6.7-13.7 21.1-6 6.2-11.8 12.3-12.9 13.6-1.8 2.3-1.8 2.3-.1 1 4.7-3.6 24.1-22.9 26.7-26.4 3.3-4.4 3.9-3.9.9.8-2.3 3.7-39.4 40.6-40.8 40.6-.5 0-1.2.9-1.5 2-.3 1.1-1.1 2-1.7 2-.9 0-1-.3-.1-1.3.8-1.1.4-1.2-2.2-.8-2 .3-2.5.6-1.4.9 2.7.6 1.5 2.6-1.7 3-3.1.4-8.6-1.5-8.6-2.9 0-.5 1.5-.3 3.4.5 3 1.2 3.5 1.2 4 0 .4-1-.3-1.4-2.5-1.4-1.6 0-4.2-.6-5.7-1.4-3.6-1.9-59.2-57.8-59.3-59.6-.1-1.5-.1-8.4 0-12.6.1-1.2 1.2-3.8 2.6-5.9 1.5-2 2.4-4 2.1-4.3-.3-.3-.1-1.1.4-1.7.7-.9-.6-2.8-4.5-6.7-3-3-5.5-6-5.5-6.7 0-.7 2.5 1.5 5.7 4.9l5.6 6.1 3.2-3.1c3.1-3 5.3-4 3.9-1.8-1.9 3.1 7.1-4.7 16.7-14.4 5.8-6 11.1-10.8 11.8-10.8.6 0 1.1-.4 1.1-.9 0-1.4 7.2-2.8 10.7-2 1.7.3 4.4 1.6 6 2.7z"/><path d="M136.2 119.4c.7.9-6.9 8.6-8.5 8.6-.6 0-.8.2-.5.5.3.3-3.1 4.1-7.4 8.5-4.4 4.4-7.6 8-7.1 8 .4 0 6.4-5.6 13.2-12.4 9-9 12-12.6 11-13.1-.8-.5-1.1-.5-.7-.1zM98 157.9c-.5 1.1-.6 2.2-.1 2.5.4.3 1.3-.6 1.9-1.9 1.4-3-.2-3.4-1.8-.6z"/><path d="M117.5 100.5c-16 15.9-19.5 19.9-19.5 22.2 0 2.5 2.2.6 19.3-16.5C133.6 90 137 87 139.5 87s6.9 4 30.7 27.7l27.8 27.8-18.7 18.8c-10.4 10.4-19.8 19.3-21.1 19.8-3.5 1.4-5.7-.2-20.5-14.9-7.4-7.2-13.8-13.2-14.2-13.2-.4 0-2.2 1.7-4.1 3.7-6 6.8-5.5 7.8 11.9 25 8.3 8.3 16.5 15.6 18 16.2 3.6 1.4 9.8 1.4 13.4 0 1.5-.5 8.7-6.9 16-14.2l13.3-13.1 5 4.9c4.5 4.5 5 4.7 5 2.6 0-1.5-1.9-4.4-4.7-7.6l-4.8-5.1-13.1 12.8c-7.2 7-14.4 13.2-16 13.8-5.1 2-12 1.4-16.6-1.4-2.4-1.3-10.1-8.4-17.2-15.5l-13-13.1 2.9-3c1.6-1.6 3.3-3 3.8-3 1.3 0 14.7 13.7 14.7 15 0 .5.5 1 1 1 1.3 0 9 7.7 9 9 0 1.9 7.8 3.2 12 1.9 2.1-.7 3.9-1.5 3.8-1.8-.2-.8 15.8-17 19.2-19.6 1.5-1.1 2.8-2.5 3-3 .1-.6.6-.9 1.1-.8.5.2.9-.1.9-.6s2.5-3.5 5.5-6.7 5.5-6.4 5.5-7.1c0-3.7-4.9-9.3-29.9-34.6C149 88.6 140.9 81 139.2 81c-1.6 0-7.8 5.6-21.7 19.5zm24-16.5c.4.6-.5 1-2 1s-2.4-.4-2-1c.3-.6 1.2-1 2-1s1.7.4 2 1zm8 110c.3.5.1 1-.4 1-.6 0-1.1-.5-1.1-1 0-.6.2-1 .4-1 .3 0 .8.4 1.1 1zm8.5 2c-2 1.3-5 1.3-5 0 0-.6 1.5-1 3.3-1 2.4 0 2.8.3 1.7 1z"/><path d="M123.1 166.7c.6.7 1.7 1.3 2.3 1.2.7 0 .6-.2-.2-.6-.6-.2-1-.8-.8-1.2.3-.4-.1-.8-.9-.8-1.1 0-1.2.4-.4 1.4zM186.3 165.6c.4.4.2 1.3-.5 2.1-1.7 2.1-.3 2.5 1.6.4 1.6-1.7 1.6-1.9-.1-2.5-.9-.4-1.4-.4-1 0zM180.6 173.1c-2.8 2.8-1.5 3.1 1.4.3 1.3-1.3 2-2.4 1.5-2.3-.6 0-1.9.9-2.9 2z"/></svg>