<?xml version="1.0" encoding="iso-8859-1"?>
<!-- Generator: Adobe Illustrator 19.0.0, SVG Export Plug-In . SVG Version: 6.00 Build 0)  -->
<svg version="1.1" id="Layer_1" xmlns="http://www.w3.org/2000/svg" xmlns:xlink="http://www.w3.org/1999/xlink" x="0px" y="0px"
	 viewBox="0 0 512 512" style="enable-background:new 0 0 512 512;" xml:space="preserve">
<g>
	<g>
		<path d="M439.615,78.892L363.627,2.89c-1.85-1.85-4.36-2.89-6.978-2.89H79.363c-5.451,0-9.867,4.418-9.867,9.867v492.266
			c0,5.449,4.416,9.867,9.867,9.867h353.274c5.451,0,9.867-4.418,9.867-9.867V85.868C442.504,83.252,441.465,80.743,439.615,78.892z
			 M366.516,33.691l42.304,42.311h-42.304V33.691z M422.772,492.266H89.23V19.734h257.554v66.135c0,5.449,4.416,9.867,9.867,9.867
			h66.121V492.266z"/>
	</g>
</g>
<g>
	<g>
		<path d="M183.645,102.063h-56.57c-5.45,0-9.867,4.418-9.867,9.867v50.082c0,5.449,4.416,9.867,9.867,9.867h56.57
			c5.45,0,9.867-4.418,9.867-9.867V111.93C193.512,106.481,189.095,102.063,183.645,102.063z M173.778,152.145h-36.836v-30.348
			h36.836V152.145z"/>
	</g>
</g>
<g>
	<g>
		<path d="M352.557,125.357H232.321c-5.45,0-9.867,4.418-9.867,9.867s4.416,9.867,9.867,9.867h120.237
			c5.45,0,9.867-4.418,9.867-9.867S358.008,125.357,352.557,125.357z"/>
	</g>
</g>
<g>
	<g>
		<path d="M183.645,193.686h-56.57c-5.45,0-9.867,4.418-9.867,9.867v50.082c0,5.449,4.416,9.867,9.867,9.867h56.57
			c5.45,0,9.867-4.418,9.867-9.867v-50.082C193.512,198.104,189.095,193.686,183.645,193.686z M173.778,243.768h-36.836V213.42
			h36.836V243.768z"/>
	</g>
</g>
<g>
	<g>
		<path d="M352.557,216.98H232.321c-5.45,0-9.867,4.418-9.867,9.867s4.416,9.867,9.867,9.867h120.237
			c5.45,0,9.867-4.418,9.867-9.867S358.008,216.98,352.557,216.98z"/>
	</g>
</g>
<g>
	<g>
		<path d="M183.645,285.309h-56.57c-5.45,0-9.867,4.418-9.867,9.867v50.082c0,5.449,4.416,9.867,9.867,9.867h56.57
			c5.45,0,9.867-4.418,9.867-9.867v-50.082C193.512,289.726,189.095,285.309,183.645,285.309z M173.778,335.39h-36.836v-30.348
			h36.836V335.39z"/>
	</g>
</g>
<g>
	<g>
		<path d="M352.557,308.602H232.321c-5.45,0-9.867,4.418-9.867,9.867s4.416,9.867,9.867,9.867h120.237
			c5.45,0,9.867-4.418,9.867-9.867S358.008,308.602,352.557,308.602z"/>
	</g>
</g>
<g>
	<g>
		<path d="M183.645,376.931h-56.57c-5.45,0-9.867,4.418-9.867,9.867v50.082c0,5.449,4.416,9.867,9.867,9.867h56.57
			c5.45,0,9.867-4.418,9.867-9.867v-50.082C193.512,381.349,189.095,376.931,183.645,376.931z M173.778,427.013h-36.836v-30.348
			h36.836V427.013z"/>
	</g>
</g>
<g>
	<g>
		<path d="M352.557,400.225H232.321c-5.45,0-9.867,4.418-9.867,9.867s4.416,9.867,9.867,9.867h120.237
			c5.45,0,9.867-4.418,9.867-9.867S358.008,400.225,352.557,400.225z"/>
	</g>
</g>
<g>
</g>
<g>
</g>
<g>
</g>
<g>
</g>
<g>
</g>
<g>
</g>
<g>
</g>
<g>
</g>
<g>
</g>
<g>
</g>
<g>
</g>
<g>
</g>
<g>
</g>
<g>
</g>
<g>
</g>
</svg>
