<svg width="128" height="128" fill="none" xmlns="http://www.w3.org/2000/svg"><circle cx="64" cy="64" r="64" fill="#0C0F18"/><path fill-rule="evenodd" clip-rule="evenodd" d="m36.5 90.25-5.667 6.833A46.878 46.878 0 0 1 21.5 83.75l6.417-7.833c-1.25-3.75-1.917-7.834-1.917-12 0-18.25 12.833-33.417 29.917-37.084L53.083 18.5c3.5-.833 7.167-1.25 10.917-1.25 1.75 0 3.5.083 5.25.25l3.333 9.5C89.417 30.917 102 46 102 64c0 4.083-.667 8-1.833 11.583l8.75 1.667c-1.584 5.333-4.084 10.167-7.25 14.5l-9.917-1.917C84.833 97.333 74.917 102 64 102c-10.833 0-20.583-4.583-27.5-11.75ZM64 114c27.583 0 50-22.417 50-50S91.583 14 64 14 14 36.417 14 64s22.417 50 50 50Zm31.167-55.917-8.667 3-.417-1.833a22.625 22.625 0 0 0-22.166-17.917c-2.5 0-4.917.417-7.167 1.167l-.833.25-7.834-6.417 2.334-1.083c4.083-1.917 8.666-3 13.5-3 15 0 27.583 10.417 30.916 24.333l.334 1.5ZM86.25 68.25l9.5-3.333-.25 2.583c-1.75 15.917-15.25 28.333-31.583 28.333-3.167 0-6.167-.416-9-1.333l-1.417-.417 1.75-9 1.75.584c2.167.666 4.5 1.083 6.917 1.083 10.75 0 19.833-7.5 22.083-17.583l.25-.917Zm-37.167 13-1.916 9.917-2.084-1.584A31.68 31.68 0 0 1 32.167 64c0-8.75 3.583-16.75 9.333-22.5l1.083-1.083 7.084 5.833-1.334 1.25c-4.333 4.167-7 10-7 16.417 0 6.583 2.75 12.416 7.167 16.583l.583.75Z" fill="#7BEE22"/></svg>