<?xml version="1.0" standalone="no"?>
<!DOCTYPE svg PUBLIC "-//W3C//DTD SVG 20010904//EN"
 "http://www.w3.org/TR/2001/REC-SVG-20010904/DTD/svg10.dtd">
<svg version="1.0" xmlns="http://www.w3.org/2000/svg"
 width="2430.000000pt" height="2429.000000pt" viewBox="0 0 2430.000000 2429.000000"
 preserveAspectRatio="xMidYMid meet">

<g transform="translate(0.000000,2429.000000) scale(0.100000,-0.100000)"
fill="#000000" stroke="none">
<path d="M11975 24260 c-22 -5 -197 -14 -390 -20 -443 -15 -438 -15 -452 -23
-6 -4 -51 -9 -100 -12 -149 -9 -305 -25 -322 -34 -9 -5 -66 -11 -127 -15 -61
-4 -135 -13 -165 -21 -30 -8 -72 -15 -94 -15 -22 -1 -74 -8 -115 -16 -41 -8
-120 -21 -175 -29 -55 -8 -111 -19 -125 -25 -14 -5 -62 -14 -108 -19 -45 -6
-91 -15 -101 -20 -10 -6 -52 -16 -92 -22 -41 -6 -92 -17 -114 -24 -22 -8 -64
-16 -94 -20 -30 -3 -66 -12 -80 -19 -14 -8 -53 -17 -85 -21 -33 -4 -73 -13
-90 -20 -33 -13 -116 -35 -231 -61 -38 -9 -75 -20 -81 -25 -6 -4 -35 -14 -65
-20 -30 -6 -66 -18 -81 -25 -15 -8 -40 -14 -55 -14 -16 0 -44 -8 -63 -18 -19
-11 -55 -22 -80 -26 -24 -4 -49 -11 -55 -16 -6 -5 -37 -16 -69 -24 -32 -9 -63
-20 -70 -24 -6 -5 -28 -13 -50 -16 -21 -4 -55 -16 -75 -27 -20 -10 -45 -19
-56 -19 -11 0 -29 -6 -40 -13 -11 -8 -42 -19 -68 -26 -27 -6 -59 -18 -70 -25
-12 -8 -38 -17 -57 -21 -19 -4 -42 -13 -50 -20 -8 -7 -26 -15 -40 -18 -27 -5
-117 -40 -163 -63 -16 -8 -34 -14 -40 -14 -7 0 -28 -8 -47 -19 -19 -10 -67
-30 -105 -45 -39 -15 -87 -35 -107 -46 -20 -11 -43 -20 -51 -20 -8 0 -25 -8
-38 -19 -13 -10 -35 -21 -49 -25 -14 -4 -50 -19 -80 -33 -30 -14 -71 -32 -90
-41 -19 -8 -42 -19 -50 -24 -8 -4 -26 -13 -40 -19 -14 -6 -32 -15 -40 -20 -8
-5 -26 -14 -40 -19 -14 -6 -32 -15 -40 -20 -8 -6 -22 -13 -30 -17 -50 -21
-126 -59 -150 -74 -8 -5 -26 -14 -40 -19 -14 -6 -32 -15 -40 -20 -8 -6 -28
-17 -45 -24 -16 -8 -59 -31 -95 -51 -36 -21 -103 -58 -150 -82 -47 -25 -92
-51 -101 -59 -8 -8 -23 -14 -31 -14 -9 0 -21 -7 -29 -16 -12 -15 -46 -35 -115
-68 -17 -8 -36 -22 -44 -30 -7 -9 -19 -16 -27 -16 -8 0 -29 -10 -46 -23 -44
-30 -68 -45 -92 -56 -12 -5 -27 -16 -34 -25 -7 -9 -19 -16 -27 -16 -7 0 -25
-11 -40 -25 -15 -14 -30 -25 -35 -25 -7 0 -130 -79 -155 -99 -5 -4 -21 -14
-35 -21 -13 -7 -26 -16 -29 -19 -7 -8 -111 -79 -173 -117 -48 -30 -58 -37
-122 -89 -16 -14 -33 -25 -37 -25 -3 0 -43 -28 -87 -62 -44 -35 -117 -90 -162
-123 -45 -33 -92 -70 -106 -82 -13 -13 -26 -23 -29 -23 -4 0 -41 -29 -84 -65
-43 -36 -80 -65 -83 -65 -6 0 -69 -55 -119 -102 -16 -16 -32 -28 -36 -28 -4 0
-26 -17 -49 -38 -81 -71 -95 -82 -104 -82 -5 0 -9 -7 -9 -15 0 -8 -4 -15 -10
-15 -5 0 -47 -34 -92 -76 -46 -42 -100 -90 -121 -108 -21 -17 -79 -70 -129
-118 -50 -49 -95 -88 -100 -88 -4 0 -8 -7 -8 -15 0 -8 -4 -15 -9 -15 -9 0
-359 -351 -462 -463 -102 -112 -173 -191 -249 -277 -41 -47 -88 -98 -103 -114
-16 -16 -48 -55 -70 -85 -23 -31 -48 -60 -54 -64 -7 -4 -13 -15 -13 -22 0 -8
-4 -15 -8 -15 -10 0 -232 -275 -232 -287 0 -5 -10 -19 -22 -30 -13 -12 -42
-48 -66 -80 -105 -141 -132 -179 -140 -188 -4 -5 -17 -25 -28 -44 -10 -19 -30
-46 -43 -60 -13 -14 -42 -54 -64 -88 -22 -35 -44 -63 -49 -63 -4 0 -8 -5 -8
-10 0 -12 -48 -90 -65 -105 -6 -5 -24 -32 -39 -60 -16 -27 -40 -63 -53 -78
-12 -16 -23 -35 -23 -43 0 -8 -4 -14 -9 -14 -5 0 -14 -14 -20 -30 -5 -17 -17
-33 -26 -36 -8 -3 -15 -11 -15 -16 0 -11 -84 -152 -106 -178 -7 -9 -27 -43
-45 -75 -17 -33 -37 -67 -43 -75 -7 -8 -18 -26 -25 -40 -6 -14 -23 -43 -36
-65 -14 -22 -32 -53 -40 -70 -8 -16 -26 -48 -39 -70 -14 -22 -41 -73 -61 -112
-20 -40 -40 -75 -45 -78 -4 -3 -11 -17 -15 -32 -3 -16 -15 -37 -25 -48 -10
-11 -21 -31 -25 -45 -4 -14 -16 -36 -26 -49 -11 -13 -19 -32 -19 -42 0 -10 -4
-20 -9 -24 -13 -7 -107 -202 -116 -237 -4 -15 -13 -32 -21 -39 -8 -6 -14 -17
-14 -24 0 -6 -20 -52 -45 -101 -25 -49 -45 -93 -45 -99 0 -5 -10 -30 -21 -55
-12 -25 -27 -58 -34 -75 -7 -16 -24 -55 -38 -85 -13 -30 -35 -80 -47 -110 -13
-30 -31 -73 -41 -95 -10 -22 -21 -53 -25 -70 -4 -16 -16 -43 -26 -60 -10 -16
-18 -38 -18 -48 0 -9 -9 -34 -20 -54 -11 -21 -20 -45 -20 -53 0 -8 -6 -27 -14
-42 -8 -15 -17 -42 -21 -60 -4 -18 -16 -48 -26 -66 -10 -18 -19 -43 -19 -55 0
-12 -12 -44 -25 -72 -14 -27 -25 -58 -25 -68 0 -9 -9 -34 -20 -54 -11 -21 -20
-50 -20 -65 0 -16 -9 -45 -20 -65 -11 -21 -20 -49 -20 -63 0 -14 -6 -37 -14
-51 -7 -14 -16 -43 -20 -65 -4 -21 -14 -52 -21 -69 -8 -16 -21 -57 -29 -90 -8
-33 -24 -94 -36 -135 -12 -41 -28 -102 -36 -135 -8 -33 -21 -82 -29 -110 -8
-27 -17 -70 -21 -95 -4 -25 -12 -56 -19 -70 -7 -14 -16 -52 -20 -85 -4 -33
-13 -71 -20 -85 -7 -14 -16 -52 -19 -85 -4 -33 -14 -83 -21 -111 -8 -29 -20
-87 -26 -130 -6 -44 -16 -97 -23 -119 -8 -22 -17 -71 -21 -110 -3 -38 -13 -92
-20 -120 -8 -27 -17 -88 -20 -135 -4 -47 -10 -94 -15 -105 -12 -29 -30 -166
-30 -235 0 -32 -4 -70 -10 -84 -5 -14 -14 -85 -20 -158 -6 -73 -17 -203 -25
-288 -45 -462 -45 -1508 -1 -1930 8 -74 18 -184 21 -245 4 -60 13 -139 20
-175 7 -36 16 -113 20 -172 3 -58 12 -128 19 -155 8 -26 17 -85 21 -129 3 -45
13 -103 21 -130 8 -27 17 -83 21 -124 3 -41 12 -92 19 -113 7 -21 18 -77 24
-125 6 -48 17 -103 24 -122 8 -19 17 -64 21 -100 4 -36 12 -70 17 -77 5 -7 14
-47 19 -89 6 -42 16 -88 23 -103 7 -14 16 -50 20 -80 4 -30 13 -66 20 -80 7
-14 18 -59 25 -98 7 -40 17 -75 21 -78 5 -3 12 -27 16 -53 3 -26 12 -60 20
-77 7 -16 20 -57 28 -90 8 -33 21 -78 30 -100 8 -22 15 -51 16 -65 0 -15 4
-30 10 -36 5 -5 15 -37 21 -69 6 -33 17 -67 24 -75 7 -8 16 -37 20 -63 4 -26
14 -54 21 -62 7 -7 16 -33 20 -57 4 -23 15 -57 25 -74 11 -17 19 -40 19 -51 0
-10 9 -36 20 -58 11 -22 20 -47 20 -57 0 -10 7 -29 15 -41 15 -23 49 -116 64
-173 5 -17 15 -44 24 -60 8 -16 30 -67 47 -114 18 -47 39 -94 46 -105 8 -11
14 -26 14 -35 0 -8 9 -32 20 -53 11 -20 20 -45 20 -56 0 -10 7 -24 15 -31 8
-7 20 -31 26 -54 6 -22 17 -48 24 -56 7 -8 15 -28 19 -44 4 -16 16 -41 27 -54
10 -14 19 -31 19 -38 0 -13 31 -81 51 -114 9 -15 16 -30 51 -110 17 -40 56
-120 85 -175 6 -11 16 -31 22 -45 13 -30 45 -85 58 -102 6 -7 14 -24 18 -38 4
-14 16 -37 26 -52 11 -14 19 -31 19 -38 0 -6 11 -26 25 -44 14 -18 25 -40 25
-49 0 -10 4 -17 9 -17 5 0 16 -17 26 -37 28 -64 47 -98 62 -106 7 -4 13 -16
13 -27 0 -10 11 -32 25 -48 14 -17 25 -35 25 -41 0 -7 9 -25 20 -41 11 -17 29
-43 40 -60 11 -16 20 -34 20 -40 0 -5 10 -21 21 -34 22 -25 37 -49 63 -101 8
-16 29 -48 45 -70 17 -22 37 -53 46 -70 16 -32 32 -57 82 -129 18 -26 33 -51
33 -55 0 -4 9 -16 20 -26 11 -10 22 -26 26 -37 3 -10 31 -54 62 -96 31 -42 62
-84 67 -93 37 -60 92 -135 102 -142 7 -4 13 -14 13 -22 0 -8 8 -19 18 -24 10
-5 24 -22 32 -38 18 -33 13 -26 95 -130 36 -45 65 -85 65 -89 0 -4 9 -16 21
-28 11 -12 51 -59 87 -106 67 -85 83 -106 112 -138 9 -9 28 -33 42 -52 14 -19
34 -44 44 -55 11 -11 44 -49 74 -85 86 -102 112 -131 162 -186 27 -28 48 -53
48 -55 0 -25 722 -747 921 -921 14 -13 55 -48 90 -79 35 -31 83 -73 106 -92
23 -19 49 -42 58 -51 9 -9 33 -29 53 -44 21 -15 46 -35 57 -46 32 -29 360
-288 400 -316 20 -14 47 -34 60 -45 13 -11 34 -28 47 -37 13 -10 49 -38 80
-63 32 -25 60 -45 63 -45 7 0 52 -31 118 -82 27 -21 55 -38 63 -38 8 0 14 -4
14 -8 0 -9 102 -82 114 -82 5 0 21 -10 36 -23 15 -12 36 -28 46 -34 10 -7 35
-24 54 -38 19 -13 45 -29 58 -34 12 -6 22 -15 22 -21 0 -5 8 -10 19 -10 10 0
24 -7 31 -15 7 -9 40 -31 74 -51 34 -19 93 -55 131 -80 39 -25 84 -51 102 -59
17 -8 34 -19 38 -25 4 -6 21 -17 38 -25 18 -8 50 -26 72 -39 22 -14 57 -33 77
-42 21 -9 38 -20 38 -24 0 -5 13 -11 29 -15 16 -3 37 -15 47 -26 9 -10 24 -19
32 -19 7 0 26 -9 42 -20 15 -11 38 -24 51 -30 13 -5 31 -14 39 -20 8 -5 26
-15 40 -21 14 -5 43 -21 65 -34 22 -14 51 -29 65 -35 14 -5 32 -15 40 -20 8
-6 26 -15 40 -20 31 -13 210 -99 230 -111 8 -5 26 -14 40 -19 32 -13 110 -51
130 -62 8 -4 22 -11 30 -14 42 -17 110 -48 156 -70 28 -13 55 -24 59 -24 4 0
33 -12 64 -26 105 -50 116 -54 148 -60 18 -4 38 -12 44 -20 6 -7 27 -16 48
-20 20 -4 43 -12 51 -19 8 -7 29 -16 47 -19 17 -4 48 -16 69 -27 21 -10 44
-19 52 -19 8 0 26 -7 40 -15 15 -8 70 -28 122 -45 52 -17 106 -37 120 -44 14
-8 43 -17 64 -20 21 -4 48 -13 60 -21 12 -7 36 -15 54 -19 19 -3 48 -12 65
-19 18 -8 73 -26 122 -41 50 -15 104 -32 120 -38 17 -6 59 -17 95 -25 35 -8
69 -18 75 -22 5 -5 36 -14 68 -21 32 -6 69 -18 84 -25 14 -7 49 -17 77 -20 28
-4 62 -13 76 -20 14 -7 48 -15 75 -19 28 -4 76 -16 108 -27 31 -10 70 -19 86
-19 17 0 42 -5 58 -11 15 -6 71 -20 123 -30 115 -22 178 -35 290 -59 47 -11
114 -22 150 -26 36 -3 72 -10 81 -15 9 -5 61 -13 115 -19 55 -6 124 -17 154
-25 30 -8 98 -17 150 -20 52 -4 120 -13 150 -20 30 -8 107 -17 170 -20 63 -3
165 -12 225 -20 61 -8 211 -19 335 -25 124 -6 250 -13 280 -16 77 -8 911 -3
1110 7 278 13 493 29 525 39 17 4 90 11 163 15 73 3 156 12 185 20 29 7 97 16
152 20 55 3 123 12 150 20 28 7 84 16 125 20 41 3 98 12 125 20 28 7 79 16
115 20 36 3 94 15 130 25 36 10 94 21 130 25 35 4 69 10 75 13 5 4 48 15 95
24 211 42 247 51 280 63 19 8 57 17 85 20 27 4 61 13 75 20 14 7 47 16 75 20
27 4 61 13 75 20 14 7 54 17 89 23 35 6 68 16 75 21 6 5 37 14 69 21 32 6 70
18 85 26 15 8 38 14 52 14 14 0 38 7 55 16 16 8 52 20 80 26 27 6 59 15 70 22
11 6 40 16 65 22 53 14 133 42 175 60 17 7 46 18 65 23 45 13 155 54 202 75
21 9 43 16 50 16 8 0 22 6 33 14 11 7 36 16 56 20 21 4 42 13 48 20 7 8 26 17
44 20 18 3 51 15 72 26 22 11 47 20 56 20 9 0 22 6 28 14 7 8 27 18 44 22 18
3 48 15 67 24 70 36 127 60 142 60 9 0 21 7 28 15 7 8 31 20 54 26 22 6 48 17
56 24 8 7 34 18 57 24 23 6 43 15 45 19 4 10 130 72 146 72 7 0 12 4 12 9 0 5
13 12 30 16 39 9 145 61 160 80 7 8 20 15 29 15 9 0 27 9 41 20 14 11 32 20
41 20 9 0 28 9 42 20 14 11 30 20 36 20 5 0 27 11 47 25 20 14 43 25 50 25 8
0 14 5 14 10 0 6 6 10 13 10 7 0 29 11 49 25 20 14 43 25 51 25 8 0 22 9 32
20 10 11 26 20 35 20 9 0 30 11 46 25 16 14 34 25 41 25 6 0 18 6 25 13 7 6
29 20 48 30 19 9 49 26 65 37 17 11 46 29 65 40 19 11 53 32 75 45 22 13 47
27 55 31 8 4 29 18 46 31 17 13 36 23 42 23 7 0 12 4 12 10 0 5 15 16 33 23
17 8 38 21 46 30 7 10 17 17 22 17 7 0 29 14 137 90 23 16 46 30 51 30 4 0 16
9 26 20 10 11 27 22 39 26 11 4 41 23 65 43 50 40 109 81 117 81 3 0 30 19 59
43 75 59 223 167 228 167 3 0 20 14 38 31 30 28 53 45 127 94 8 6 23 17 32 25
32 29 106 91 190 158 47 37 98 80 115 95 56 53 162 137 174 137 6 0 11 6 11
14 0 7 10 20 23 28 12 9 36 29 52 45 17 16 66 62 110 102 128 117 320 300 393
375 97 100 278 290 358 375 38 41 88 94 112 117 23 24 42 48 42 54 0 5 4 10 8
10 5 0 37 36 71 79 34 44 87 106 117 137 30 32 54 61 54 65 0 5 6 12 13 16 6
4 17 15 22 24 9 15 178 229 236 297 10 13 19 26 19 29 0 3 9 15 20 27 35 36
110 135 110 145 0 6 6 14 13 18 6 4 29 33 49 63 21 30 56 80 78 110 62 85 173
249 189 279 8 14 17 28 20 31 14 12 61 79 61 88 0 8 25 44 68 97 4 6 14 25 21
42 7 18 16 33 20 33 3 0 22 29 41 65 19 36 38 65 42 65 4 0 15 17 25 38 9 20
20 39 24 42 8 6 89 149 89 157 0 4 11 21 25 39 14 18 25 39 25 47 0 8 7 20 15
27 8 6 17 22 21 33 3 12 12 29 19 37 7 8 38 65 69 126 31 61 63 117 71 124 8
7 15 20 15 30 0 9 9 29 20 43 11 14 20 32 20 40 0 8 9 26 20 40 11 14 20 32
20 40 0 8 9 26 20 40 11 14 20 32 20 40 0 8 8 25 19 38 10 13 24 41 30 62 7
20 17 37 22 37 5 0 9 11 9 24 0 13 8 34 19 47 10 13 22 39 26 57 4 18 13 36
21 39 8 3 14 13 14 22 0 16 19 60 71 166 10 22 19 44 19 48 0 7 15 43 71 163
11 22 19 47 19 55 0 8 7 24 15 35 8 10 15 26 15 34 0 8 11 38 25 65 13 28 25
57 25 65 0 9 6 24 13 35 8 11 20 41 27 68 7 26 16 47 21 47 4 0 13 24 19 54 6
30 17 59 24 66 8 6 17 31 21 55 3 25 12 51 19 58 7 7 16 30 20 52 4 22 16 58
26 80 9 22 20 57 24 78 4 20 11 37 15 37 5 0 12 21 16 48 4 26 13 61 22 79 8
17 20 55 28 85 7 29 20 71 29 93 8 22 15 51 16 65 0 15 4 30 10 36 5 5 15 37
21 69 6 33 16 69 23 80 7 11 16 45 20 75 4 30 14 65 22 77 8 12 18 52 23 88 5
37 14 72 19 78 6 7 13 39 17 72 3 33 15 83 25 110 10 28 21 77 24 110 3 33 12
74 20 90 7 17 17 62 21 100 4 39 13 84 20 101 7 18 16 67 20 110 3 44 12 95
20 114 7 19 18 82 23 139 6 57 15 108 21 114 6 6 11 31 12 57 0 25 7 92 14
150 8 58 24 188 35 290 11 102 24 214 29 250 5 36 12 157 16 270 3 114 11 221
18 240 16 48 16 1097 0 1155 -6 22 -14 130 -18 240 -4 110 -11 229 -15 265 -5
36 -14 115 -20 175 -6 61 -15 146 -21 190 -5 44 -15 118 -20 165 -6 47 -17
123 -26 170 -8 47 -19 126 -24 175 -6 50 -16 110 -24 135 -7 25 -16 79 -20
120 -4 41 -11 80 -16 87 -6 6 -17 54 -24 105 -8 51 -21 118 -30 148 -8 30 -15
73 -15 95 0 22 -7 50 -15 63 -9 12 -18 45 -21 74 -3 29 -14 80 -25 113 -19 62
-41 148 -62 245 -7 30 -16 61 -21 68 -4 8 -14 39 -21 70 -8 32 -26 98 -40 147
-15 50 -32 108 -37 130 -6 22 -16 54 -24 70 -8 17 -19 54 -25 82 -6 29 -14 55
-19 58 -5 3 -14 31 -20 63 -7 31 -18 64 -25 72 -7 8 -16 33 -20 54 -3 22 -13
49 -21 60 -8 11 -14 30 -14 41 0 11 -11 43 -25 70 -13 28 -25 57 -25 65 0 8
-9 33 -20 55 -11 22 -20 47 -20 55 0 8 -7 28 -15 43 -8 16 -20 47 -26 69 -6
23 -17 47 -25 55 -8 8 -14 21 -14 29 0 16 -43 125 -65 166 -8 14 -15 32 -15
39 0 8 -12 39 -26 69 -14 30 -34 73 -44 95 -20 45 -39 88 -105 227 -25 53 -45
102 -45 108 0 7 -9 23 -20 37 -11 14 -20 32 -20 40 0 8 -9 26 -20 40 -11 14
-20 34 -20 44 0 10 -4 20 -9 24 -10 5 -81 147 -81 160 0 4 -9 18 -20 32 -11
14 -20 34 -20 44 0 10 -6 22 -13 26 -8 4 -28 37 -45 73 -40 82 -143 266 -229
409 -12 20 -27 46 -32 59 -6 13 -22 38 -36 56 -14 18 -25 36 -25 40 0 4 -16
31 -35 60 -19 29 -35 56 -35 60 0 4 -18 31 -40 61 -22 30 -40 57 -40 60 0 4
-13 25 -29 48 -16 23 -41 60 -55 82 -14 22 -39 59 -56 83 -16 23 -30 45 -30
48 0 4 -11 19 -25 36 -14 16 -25 36 -25 44 0 8 -4 14 -9 14 -5 0 -20 17 -33
37 -43 68 -102 151 -139 197 -14 17 -28 38 -31 46 -4 8 -33 47 -65 87 -87 107
-93 116 -93 130 0 7 -4 13 -8 13 -8 0 -62 65 -140 168 -9 12 -24 30 -33 40 -9
9 -37 44 -63 77 -68 86 -118 146 -139 167 -46 48 -157 177 -157 184 0 4 -19
26 -42 49 -24 24 -77 80 -118 125 -75 83 -94 103 -270 284 -82 84 -236 233
-486 471 -34 33 -82 76 -105 95 -24 19 -68 57 -98 84 -31 26 -78 67 -104 90
-27 22 -56 48 -65 58 -9 9 -44 37 -77 63 -61 47 -144 116 -177 148 -10 9 -21
17 -24 17 -6 0 -75 54 -113 89 -14 13 -51 39 -81 58 -30 20 -62 41 -70 49 -8
7 -24 21 -35 31 -12 10 -41 31 -65 48 -25 16 -63 44 -86 62 -23 18 -46 33 -53
33 -6 0 -19 8 -29 18 -29 28 -125 98 -160 116 -17 9 -32 20 -32 25 0 5 -13 14
-30 21 -16 7 -30 16 -30 21 0 5 -6 9 -13 9 -7 0 -39 20 -72 45 -33 25 -70 48
-82 51 -13 3 -23 10 -23 15 0 5 -11 14 -24 19 -14 5 -48 25 -75 45 -28 19 -55
35 -60 35 -5 0 -22 10 -38 23 -15 13 -35 27 -43 31 -8 4 -33 18 -55 31 -22 14
-51 30 -65 37 -14 6 -32 18 -41 25 -9 8 -34 23 -55 35 -42 22 -67 36 -129 73
-22 13 -58 33 -80 44 -22 12 -47 25 -55 30 -8 5 -22 12 -30 16 -8 3 -37 19
-65 35 -27 16 -83 46 -123 66 -39 20 -74 40 -77 44 -3 4 -17 11 -32 15 -16 3
-35 12 -43 19 -8 8 -27 16 -42 20 -15 3 -33 12 -40 20 -7 7 -30 19 -51 25 -20
7 -37 16 -37 21 0 5 -10 12 -22 16 -28 8 -128 52 -148 65 -8 5 -26 14 -40 20
-14 5 -43 19 -66 30 -22 10 -47 19 -56 19 -9 0 -21 7 -28 15 -7 8 -19 15 -27
15 -8 0 -35 11 -61 25 -26 14 -54 25 -62 25 -9 0 -25 6 -36 14 -11 8 -62 31
-114 51 -52 20 -99 41 -105 45 -5 4 -26 13 -45 19 -74 22 -155 53 -174 67 -11
8 -32 14 -47 14 -15 0 -32 6 -38 14 -7 8 -28 17 -48 21 -21 4 -54 15 -75 26
-20 10 -45 19 -55 19 -11 0 -35 8 -56 19 -20 10 -54 22 -74 26 -21 3 -47 12
-58 19 -11 7 -36 16 -55 20 -19 3 -47 13 -62 20 -16 8 -48 18 -73 21 -24 4
-49 13 -55 20 -6 7 -34 16 -62 20 -28 4 -69 16 -92 26 -23 10 -54 19 -71 19
-16 0 -43 7 -58 15 -15 8 -56 20 -90 26 -34 7 -71 18 -82 24 -11 7 -44 16 -74
19 -30 4 -66 13 -80 20 -14 8 -51 17 -81 21 -30 4 -66 13 -80 20 -14 7 -52 16
-85 20 -33 4 -73 13 -90 21 -16 7 -68 18 -114 24 -46 5 -89 14 -95 19 -6 5
-51 14 -100 20 -49 6 -94 15 -101 21 -6 5 -54 14 -106 20 -52 5 -116 16 -144
24 -27 8 -93 18 -145 22 -52 3 -100 10 -106 15 -6 5 -58 13 -115 19 -57 6
-147 17 -199 25 -309 47 -1506 110 -1625 85z m-1854 -6236 c10 -12 12 -52 10
-161 -1 -80 -6 -155 -10 -166 -5 -12 -14 -83 -21 -157 -12 -131 -18 -176 -39
-270 -6 -25 -10 -61 -11 -81 0 -20 -9 -56 -20 -80 -11 -24 -20 -62 -20 -84 0
-22 -9 -60 -20 -84 -11 -24 -20 -55 -20 -70 0 -14 -9 -46 -20 -70 -11 -24 -20
-52 -20 -63 0 -10 -9 -38 -19 -61 -11 -23 -22 -59 -26 -79 -4 -21 -13 -42 -21
-49 -7 -6 -16 -27 -20 -48 -4 -20 -15 -47 -25 -60 -11 -13 -19 -33 -19 -45 0
-11 -9 -34 -20 -51 -11 -16 -20 -37 -20 -46 0 -9 -7 -22 -15 -29 -9 -7 -20
-32 -26 -56 -6 -24 -17 -49 -25 -55 -8 -6 -14 -18 -14 -26 0 -8 -11 -28 -25
-45 -14 -16 -25 -38 -25 -48 0 -10 -4 -21 -9 -24 -5 -4 -26 -37 -47 -74 -21
-37 -44 -73 -51 -80 -7 -7 -13 -18 -13 -24 0 -13 -74 -126 -130 -199 -19 -26
-44 -59 -55 -75 -156 -219 -498 -581 -679 -719 -15 -11 -41 -33 -59 -49 -49
-43 -175 -136 -185 -136 -5 0 -16 -8 -23 -17 -16 -19 -141 -103 -220 -147 -19
-10 -38 -25 -42 -32 -4 -8 -16 -14 -26 -14 -10 0 -29 -9 -43 -19 -13 -11 -37
-23 -51 -26 -15 -4 -27 -11 -27 -15 0 -5 -35 -25 -77 -46 -43 -21 -79 -42 -81
-46 -2 -4 -11 -8 -20 -8 -14 0 -100 -37 -172 -74 -14 -7 -38 -16 -54 -20 -15
-4 -34 -13 -42 -20 -7 -8 -33 -17 -58 -20 -24 -4 -49 -13 -55 -20 -6 -8 -30
-17 -54 -20 -23 -4 -51 -13 -63 -21 -12 -7 -43 -18 -70 -23 -27 -6 -67 -17
-89 -26 -22 -8 -50 -15 -62 -16 -12 0 -45 -9 -73 -20 -28 -11 -72 -20 -98 -20
-26 0 -60 -7 -76 -16 -17 -8 -77 -19 -134 -25 -58 -5 -114 -15 -125 -21 -12
-6 -111 -15 -221 -19 -111 -5 -230 -12 -265 -15 -55 -6 -66 -4 -78 12 -11 15
-13 372 -13 2050 0 1297 4 2042 10 2058 l10 26 2049 0 c1865 0 2050 -1 2062
-16z m8181 -1 c17 -15 18 -92 18 -2056 0 -1885 -1 -2042 -17 -2059 -15 -17
-92 -18 -2043 -18 l-2027 0 -6 -97 c-4 -54 -7 -1923 -7 -4154 0 -3140 -3
-4058 -12 -4067 -17 -17 -4055 -17 -4093 0 l-25 11 0 4296 c0 2809 4 4317 10
4356 6 33 15 122 20 198 6 76 15 147 21 158 6 11 14 58 19 104 5 46 16 97 24
114 9 16 16 50 16 73 0 24 9 61 20 83 11 21 23 62 26 89 4 28 13 60 19 71 7
11 16 38 20 60 4 22 13 47 20 55 7 8 16 36 19 62 4 25 13 52 21 58 7 6 17 26
20 43 6 29 36 101 70 167 7 14 16 39 19 57 4 17 13 37 21 43 7 6 16 23 20 38
4 15 11 32 16 38 18 22 69 124 69 138 0 8 6 19 13 23 14 8 31 36 61 99 8 17
22 36 30 44 9 7 16 18 16 24 0 6 18 37 40 69 22 31 40 61 40 65 0 5 11 19 25
32 14 13 25 29 25 36 0 7 6 17 14 21 7 4 19 19 26 33 14 27 123 168 205 264
63 75 349 362 433 436 34 30 71 58 82 62 11 4 20 11 20 16 0 12 160 135 198
152 12 5 22 13 22 17 0 5 23 22 51 38 29 17 60 37 69 47 10 9 27 19 39 23 12
3 21 10 21 14 0 5 15 14 33 21 17 7 37 18 42 24 6 6 35 24 65 40 30 16 66 38
79 48 13 10 31 18 40 18 9 0 27 9 41 20 14 11 32 20 40 20 8 0 26 9 40 20 14
11 32 20 41 20 9 0 27 8 40 19 13 10 38 22 56 25 17 4 37 14 43 21 7 8 27 17
46 21 18 3 38 12 45 20 6 7 27 16 48 20 20 4 52 15 71 25 19 11 44 19 55 19
11 0 31 7 43 16 12 8 47 19 79 24 31 5 59 14 63 20 3 5 33 15 66 21 32 5 73
16 89 23 17 8 56 16 88 20 32 3 75 13 94 21 20 8 68 18 107 21 39 3 89 12 111
20 36 13 216 30 398 38 37 2 70 6 74 10 3 3 958 6 2121 6 1954 0 2117 -1 2134
-17z"/>
</g>
</svg>
