<?xml version="1.0" encoding="UTF-8"?>
<!DOCTYPE svg PUBLIC "-//W3C//DTD SVG 1.1//EN" "http://www.w3.org/Graphics/SVG/1.1/DTD/svg11.dtd">
<!-- Creator: CorelDRAW -->
<svg xmlns="http://www.w3.org/2000/svg" xml:space="preserve" width="254.215mm" height="254.215mm" version="1.1" style="shape-rendering:geometricPrecision; text-rendering:geometricPrecision; image-rendering:optimizeQuality; fill-rule:evenodd; clip-rule:evenodd"
viewBox="0 0 3208.64 3208.64"
 xmlns:xlink="http://www.w3.org/1999/xlink"
 xmlns:xodm="http://www.corel.com/coreldraw/odm/2003">
 <defs>
  <style type="text/css">
   <![CDATA[
    .str1 {stroke:white;stroke-width:37.87;stroke-miterlimit:22.9256}
    .str2 {stroke:black;stroke-width:6.31;stroke-miterlimit:22.9256}
    .str4 {stroke:#1A1A1A;stroke-width:6.31;stroke-miterlimit:22.9256}
    .str0 {stroke:black;stroke-width:2.52;stroke-miterlimit:22.9256}
    .str3 {stroke:#1A1A1A;stroke-width:6.31;stroke-linecap:square;stroke-linejoin:round;stroke-miterlimit:22.9256}
    .str5 {stroke:#1A1A1A;stroke-width:6.31;stroke-linecap:square;stroke-linejoin:round;stroke-miterlimit:22.9256}
    .fil1 {fill:none}
    .fil13 {fill:none;fill-rule:nonzero}
    .fil2 {fill:black}
    .fil10 {fill:#390B96}
    .fil3 {fill:#390B96}
    .fil8 {fill:#6127D1}
    .fil9 {fill:#6127D1}
    .fil18 {fill:#BD4C00}
    .fil5 {fill:#CCCCCC}
    .fil20 {fill:#E0E007}
    .fil6 {fill:#E6E6E6}
    .fil17 {fill:#FF6600}
    .fil19 {fill:yellow}
    .fil0 {fill:white}
    .fil14 {fill:black;fill-rule:nonzero}
    .fil7 {fill:#1A1A1A;fill-rule:nonzero}
    .fil4 {fill:#CCCCCC;fill-rule:nonzero}
    .fil15 {fill:url(#id2)}
    .fil11 {fill:url(#id3)}
    .fil12 {fill:url(#id4)}
    .fil16 {fill:url(#id5)}
   ]]>
  </style>
    <mask id="id0">
  <linearGradient id="id1" gradientUnits="userSpaceOnUse" x1="1584.63" y1="2435.28" x2="1604.31" y2="1987.25">
   <stop offset="0" style="stop-opacity:1; stop-color:white"/>
   <stop offset="1" style="stop-opacity:0; stop-color:white"/>
  </linearGradient>
     <rect style="fill:url(#id1)" x="678.9" y="2125.96" width="2042.03" height="234.1"/>
    </mask>
  <linearGradient id="id2" gradientUnits="userSpaceOnUse" x1="1587.37" y1="1960.71" x2="1590.23" y2="2360.21">
   <stop offset="0" style="stop-opacity:1; stop-color:#390B96"/>
   <stop offset="0.560784" style="stop-opacity:1; stop-color:#6127D1"/>
   <stop offset="0.6" style="stop-opacity:1; stop-color:#6127D1"/>
   <stop offset="0.74902" style="stop-opacity:1; stop-color:#9900CC"/>
   <stop offset="0.94902" style="stop-opacity:1; stop-color:#6127D1"/>
   <stop offset="1" style="stop-opacity:1; stop-color:#9900CC"/>
  </linearGradient>
  <linearGradient id="id3" gradientUnits="userSpaceOnUse" x1="1105.56" y1="1171.35" x2="1283.61" y2="1285.92">
   <stop offset="0" style="stop-opacity:1; stop-color:black"/>
   <stop offset="0.431373" style="stop-opacity:1; stop-color:#6E6E6E"/>
   <stop offset="0.8" style="stop-opacity:1; stop-color:#535353"/>
   <stop offset="1" style="stop-opacity:1; stop-color:#6C6C6C"/>
  </linearGradient>
  <linearGradient id="id4" gradientUnits="userSpaceOnUse" xlink:href="#id3" x1="2109.39" y1="1171.35" x2="1931.34" y2="1285.92">
  </linearGradient>
  <linearGradient id="id5" gradientUnits="userSpaceOnUse" x1="1586.92" y1="2029.68" x2="1590.68" y2="2291.24">
   <stop offset="0" style="stop-opacity:1; stop-color:#6127D1"/>
   <stop offset="0.34902" style="stop-opacity:1; stop-color:black"/>
   <stop offset="0.541176" style="stop-opacity:1; stop-color:#1C054B"/>
   <stop offset="0.690196" style="stop-opacity:1; stop-color:#390B96"/>
   <stop offset="0.909804" style="stop-opacity:1; stop-color:#4D19B3"/>
   <stop offset="1" style="stop-opacity:1; stop-color:#6127D1"/>
  </linearGradient>
 </defs>
 <g id="Capa_x0020_1">
  <metadata id="CorelCorpID_0Corel-Layer"/>
  <g id="_2594448319264">
   <circle class="fil0 str0" cx="1616.13" cy="1635.65" r="1511.31"/>
   <g>
    <path class="fil1 str1" d="M1604.32 18.93c875.58,0 1585.39,709.8 1585.39,1585.39 0,875.58 -709.8,1585.39 -1585.39,1585.39 -875.58,0 -1585.39,-709.8 -1585.39,-1585.39 0,-875.58 709.8,-1585.39 1585.39,-1585.39zm0 99.91c820.41,0 1485.47,665.07 1485.47,1485.47 0,820.41 -665.07,1485.47 -1485.47,1485.47 -820.41,0 -1485.47,-665.07 -1485.47,-1485.47 0,-820.41 665.07,-1485.47 1485.47,-1485.47z"/>
    <path id="_1" class="fil2" d="M1604.32 18.93c875.58,0 1585.39,709.8 1585.39,1585.39 0,875.58 -709.8,1585.39 -1585.39,1585.39 -875.58,0 -1585.39,-709.8 -1585.39,-1585.39 0,-875.58 709.8,-1585.39 1585.39,-1585.39zm0 99.91c820.41,0 1485.47,665.07 1485.47,1485.47 0,820.41 -665.07,1485.47 -1485.47,1485.47 -820.41,0 -1485.47,-665.07 -1485.47,-1485.47 0,-820.41 665.07,-1485.47 1485.47,-1485.47z"/>
   </g>
   <path class="fil3 str2" d="M1604.32 18.93c875.58,0 1585.39,709.8 1585.39,1585.39 0,875.58 -709.8,1585.39 -1585.39,1585.39 -875.58,0 -1585.39,-709.8 -1585.39,-1585.39 0,-875.58 709.8,-1585.39 1585.39,-1585.39zm0 99.91c820.41,0 1485.47,665.07 1485.47,1485.47 0,820.41 -665.07,1485.47 -1485.47,1485.47 -820.41,0 -1485.47,-665.07 -1485.47,-1485.47 0,-820.41 665.07,-1485.47 1485.47,-1485.47z"/>
   <g>
    <path class="fil4" d="M1601.59 1647.15l-237.99 -255.18 4.62 -4.31 237.99 255.18 -1.77 5.26 -2.86 -0.96zm4.62 -4.31c1.19,1.27 1.12,3.27 -0.16,4.46 -1.28,1.19 -3.28,1.12 -4.47,-0.16l4.62 -4.31zm-491.07 84.54l488.22 -85.5 1.09 6.22 -488.22 85.5 -3.09 -4.98 2 -1.24zm1.09 6.22c-1.72,0.3 -3.36,-0.85 -3.66,-2.56 -0.3,-1.72 0.85,-3.35 2.57,-3.66l1.09 6.22zm252.23 -341.92l-250.23 340.68 -5.09 -3.74 250.23 -340.68 4.86 -0.29 0.24 4.02zm-5.09 -3.74c1.03,-1.4 3.01,-1.71 4.42,-0.68 1.41,1.03 1.71,3.01 0.68,4.41l-5.09 -3.74z"/>
    <polygon id="_1_0" class="fil5" points="1365.91,1389.82 1603.9,1645 1115.68,1730.5 "/>
   </g>
   <g>
    <path class="fil4" d="M937.37 1465.66l409.54 -408.9 4.47 4.47 -409.54 408.9 -5.39 -2.05 0.92 -2.42zm4.47 4.47c-1.23,1.23 -3.24,1.23 -4.47,-0 -1.23,-1.23 -1.23,-3.23 0,-4.47l4.47 4.47zm-22.7 -400.87l23.62 398.45 -6.31 0.37 -23.62 -398.45 3.08 -3.34 3.23 2.97zm-6.31 0.37c-0.1,-1.74 1.23,-3.24 2.97,-3.34 1.74,-0.1 3.24,1.22 3.34,2.96l-6.31 0.37zm436.39 -7.48l-433.16 10.45 -0.15 -6.31 433.16 -10.45 2.31 5.39 -2.16 0.92zm-0.15 -6.31c1.74,-0.04 3.19,1.34 3.23,3.08 0.04,1.74 -1.34,3.19 -3.08,3.23l-0.15 -6.31z"/>
    <polygon id="_1_1" class="fil0" points="1349.14,1058.99 939.61,1467.89 915.98,1069.45 "/>
   </g>
   <g>
    <path class="fil4" d="M1197.96 902.37l153.42 154.4 -4.48 4.45 -153.42 -154.4 0.64 -4.95 3.85 0.49zm-4.48 4.45c-1.23,-1.24 -1.22,-3.24 0.02,-4.47 1.24,-1.23 3.24,-1.22 4.47,0.02l-4.48 4.45zm-279.1 159.9l279.74 -164.85 3.21 5.44 -279.74 164.85 -1.53 0.44 -1.68 -5.88zm3.21 5.44c-1.5,0.88 -3.44,0.39 -4.33,-1.12 -0.89,-1.5 -0.39,-3.44 1.12,-4.32l3.21 5.44zm431.63 -10.02l-433.16 10.45 -0.15 -6.31 433.16 -10.45 2.32 0.93 -2.17 5.38zm-0.15 -6.31c1.74,-0.04 3.19,1.34 3.23,3.08 0.04,1.74 -1.34,3.19 -3.08,3.23l-0.15 -6.31z"/>
    <polygon id="_1_2" class="fil0" points="1349.14,1058.99 1195.72,904.6 915.98,1069.45 "/>
   </g>
   <g>
    <path class="fil4" d="M1111.87 1728.63l250.23 -340.68 5.09 3.74 -250.23 340.68 -5.17 -0.1 0.07 -3.63zm5.09 3.74c-1.03,1.4 -3.01,1.71 -4.42,0.68 -1.41,-1.03 -1.71,-3.01 -0.68,-4.41l5.09 3.74zm-177.27 -266.24l177.34 262.6 -5.24 3.53 -177.34 -262.6 2.05 -4.87 3.19 1.34zm-5.24 3.53c-0.98,-1.45 -0.59,-3.41 0.85,-4.38 1.45,-0.97 3.41,-0.59 4.39,0.85l-5.24 3.53zm430.75 -76.73l-427.57 78.07 -1.14 -6.21 427.57 -78.07 3.12 4.97 -1.98 1.24zm-1.14 -6.21c1.72,-0.31 3.36,0.82 3.68,2.54 0.31,1.72 -0.82,3.36 -2.54,3.67l-1.14 -6.21z"/>
    <polygon id="_1_3" class="fil0" points="1364.65,1389.82 1114.42,1730.5 937.08,1467.89 "/>
   </g>
   <g>
    <path class="fil4" d="M1352.3 1058.85l15.5 330.83 -6.31 0.3 -15.5 -330.83 0.93 -2.39 5.38 2.09zm-6.31 0.3c-0.08,-1.74 1.27,-3.22 3.01,-3.3 1.74,-0.08 3.22,1.26 3.3,3.01l-6.31 0.3zm-411.13 406.51l412.06 -408.9 4.45 4.48 -412.06 408.9 -1.66 0.87 -2.79 -5.35zm4.45 4.48c-1.24,1.23 -3.24,1.22 -4.47,-0.02 -1.23,-1.24 -1.22,-3.24 0.02,-4.47l4.45 4.48zm425.91 -77.21l-427.57 78.07 -1.14 -6.21 427.57 -78.07 3.72 2.96 -2.59 3.25zm-1.14 -6.21c1.72,-0.31 3.36,0.82 3.68,2.54 0.31,1.72 -0.82,3.36 -2.54,3.67l-1.14 -6.21z"/>
    <polygon id="_1_4" class="fil0" points="1364.65,1389.82 1349.14,1058.99 937.08,1467.89 "/>
   </g>
   <g>
    <path class="fil4" d="M1600.32 1647.15l-237.99 -255.18 4.62 -4.31 237.99 255.18 -1.77 5.26 -2.86 -0.96zm4.62 -4.31c1.19,1.27 1.12,3.27 -0.16,4.46 -1.28,1.19 -3.28,1.12 -4.47,-0.16l4.62 -4.31zm-491.07 84.54l488.22 -85.5 1.09 6.22 -488.22 85.5 -3.09 -4.98 2 -1.24zm1.09 6.22c-1.72,0.3 -3.36,-0.85 -3.66,-2.56 -0.3,-1.72 0.85,-3.35 2.57,-3.66l1.09 6.22zm252.23 -341.92l-250.23 340.68 -5.09 -3.74 250.23 -340.68 4.86 -0.29 0.24 4.02zm-5.09 -3.74c1.03,-1.4 3.01,-1.71 4.42,-0.68 1.41,1.03 1.71,3.01 0.68,4.41l-5.09 -3.74z"/>
    <polygon id="_1_5" class="fil6" points="1364.65,1389.82 1602.64,1645 1114.42,1730.5 "/>
   </g>
   <polygon class="fil6" points="629.72,1901.7 469.63,2238.53 764.08,2501.77 945.45,2412.55 1117.58,1730.5 "/>
   <polygon class="fil6" points="1410.01,1821.71 1604.71,1835 1602.59,2643.86 945.45,2412.55 1117.58,1730.5 "/>
   <polygon class="fil6" points="1798.63,1821.71 1604.71,1835 1602.59,2643.86 2263.19,2412.55 "/>
   <polygon class="fil6" points="1798.63,1821.71 2091.06,1730.5 2578.91,1901.7 2739.01,2238.53 2444.56,2501.77 2263.19,2412.55 "/>
   <g>
    <path class="fil4" d="M1783.27 1446.81l55.26 -59.14 4.61 4.31 -55.26 59.14 -3.81 0.62 -0.8 -4.93zm4.61 4.31c-1.19,1.27 -3.19,1.34 -4.46,0.15 -1.27,-1.19 -1.34,-3.19 -0.15,-4.46l4.61 4.31zm-183.89 -103.95l183.09 99.02 -3.01 5.55 -183.09 -99.02 2.02 -5.89 0.98 0.34zm-3.01 5.55c-1.53,-0.83 -2.1,-2.75 -1.27,-4.28 0.83,-1.53 2.75,-2.1 4.28,-1.27l-3.01 5.55zm239.33 40.22l-238.35 -39.88 1.04 -6.23 238.35 39.88 1.79 5.27 -2.83 0.96zm1.04 -6.23c1.72,0.29 2.88,1.92 2.59,3.63 -0.29,1.72 -1.92,2.88 -3.64,2.59l1.04 -6.23z"/>
    <polygon id="_1_6" class="fil5" points="1840.84,1389.82 1785.57,1448.96 1602.49,1349.94 "/>
   </g>
   <g>
    <path class="fil4" d="M1783.27 1446.81l55.26 -59.14 4.61 4.31 -55.26 59.14 -3.81 0.62 -0.8 -4.93zm4.61 4.31c-1.19,1.27 -3.19,1.34 -4.46,0.15 -1.27,-1.19 -1.34,-3.19 -0.15,-4.46l4.61 4.31zm-183.89 -103.95l183.09 99.02 -3.01 5.55 -183.09 -99.02 2.02 -5.89 0.98 0.34zm-3.01 5.55c-1.53,-0.83 -2.1,-2.75 -1.27,-4.28 0.83,-1.53 2.75,-2.1 4.28,-1.27l-3.01 5.55zm239.33 40.22l-238.35 -39.88 1.04 -6.23 238.35 39.88 1.79 5.27 -2.83 0.96zm1.04 -6.23c1.72,0.29 2.88,1.92 2.59,3.63 -0.29,1.72 -1.92,2.88 -3.64,2.59l1.04 -6.23z"/>
    <polygon id="_1_7" class="fil6" points="1840.84,1389.82 1785.57,1448.96 1602.49,1349.94 "/>
   </g>
   <g>
    <path class="fil4" d="M1409.76 1442.2l191.32 -95.09 2.81 5.65 -191.32 95.09 -3.69 -0.64 0.87 -5.01zm2.81 5.65c-1.56,0.77 -3.46,0.14 -4.23,-1.42 -0.78,-1.56 -0.14,-3.45 1.42,-4.23l2.81 5.65zm-49.95 -58.04l50.83 53.04 -4.56 4.36 -50.83 -53.04 1.74 -5.29 2.82 0.93zm-4.56 4.36c-1.21,-1.26 -1.16,-3.26 0.1,-4.46 1.26,-1.2 3.26,-1.16 4.46,0.1l-4.56 4.36zm244.97 -41.12l-242.15 42.05 -1.08 -6.22 242.15 -42.05 1.95 5.93 -0.87 0.28zm-1.08 -6.22c1.72,-0.3 3.35,0.85 3.65,2.57 0.3,1.72 -0.85,3.35 -2.57,3.65l-1.08 -6.22z"/>
    <polygon id="_1_8" class="fil0" points="1602.49,1349.94 1411.17,1445.03 1360.34,1391.99 "/>
   </g>
   <g>
    <path class="fil4" d="M1857.48 1061.83l-254.87 -124.31 2.77 -5.67 254.87 124.31 0.99 4.92 -3.75 0.75zm2.77 -5.67c1.57,0.76 2.22,2.66 1.45,4.22 -0.76,1.57 -2.66,2.22 -4.22,1.45l2.77 -5.67zm-260.13 291.7l256.38 -290.95 4.74 4.17 -256.38 290.95 -5.53 -2.1 0.79 -2.07zm4.74 4.17c-1.15,1.31 -3.15,1.43 -4.46,0.28 -1.31,-1.15 -1.44,-3.15 -0.28,-4.45l4.74 4.17zm2.29 -417.33l-1.51 415.26 -6.32 -0.02 1.51 -415.26 4.54 -2.82 1.77 2.85zm-6.32 -0.02c0.01,-1.74 1.43,-3.15 3.17,-3.14 1.74,0.01 3.15,1.42 3.15,3.17l-6.32 -0.02z"/>
    <polygon id="_1_9" class="fil6" points="1604,934.68 1858.86,1058.99 1602.49,1349.94 "/>
   </g>
   <g>
    <path class="fil4" d="M1862.02 1059.16l-18.03 330.83 -6.31 -0.34 18.03 -330.83 0.78 -1.91 5.52 2.26zm-6.31 -0.34c0.09,-1.74 1.58,-3.07 3.32,-2.98 1.74,0.09 3.08,1.58 2.98,3.32l-6.31 -0.34zm-255.59 289.04l256.38 -290.95 4.74 4.17 -256.38 290.95 -2.89 1.03 -1.85 -5.2zm4.74 4.17c-1.15,1.31 -3.15,1.43 -4.46,0.28 -1.31,-1.15 -1.44,-3.15 -0.28,-4.45l4.74 4.17zm235.46 40.91l-238.35 -39.88 1.04 -6.23 238.35 39.88 2.63 3.28 -3.67 2.94zm1.04 -6.23c1.72,0.29 2.88,1.92 2.59,3.63 -0.29,1.72 -1.92,2.88 -3.64,2.59l1.04 -6.23z"/>
    <polygon id="_1_10" class="fil0" points="1840.84,1389.82 1858.86,1058.99 1602.49,1349.94 "/>
   </g>
   <g>
    <path class="fil4" d="M1605.38 937.52l-254.22 124.31 -2.78 -5.67 254.22 -124.31 4.55 2.85 -1.77 2.82zm-2.78 -5.67c1.57,-0.76 3.46,-0.12 4.22,1.45 0.77,1.57 0.12,3.46 -1.45,4.22l-2.78 -5.67zm-3.28 418.08l1.51 -415.26 6.32 0.02 -1.51 415.26 -5.54 2.06 -0.77 -2.08zm6.32 0.02c-0.01,1.74 -1.43,3.15 -3.17,3.14 -1.74,-0.01 -3.15,-1.42 -3.15,-3.17l6.32 0.02zm-253.49 -293.03l252.71 290.95 -4.77 4.14 -252.71 -290.95 1 -4.9 3.77 0.77zm-4.77 4.14c-1.14,-1.32 -1,-3.31 0.31,-4.45 1.32,-1.14 3.31,-1 4.45,0.31l-4.77 4.14z"/>
    <polygon id="_1_11" class="fil0" points="1349.78,1058.99 1604,934.68 1602.49,1349.94 "/>
   </g>
   <g>
    <path class="fil4" d="M1362.75 1389.98l-16.13 -330.83 6.31 -0.31 16.13 330.83 -2.63 3.27 -3.68 -2.96zm6.31 -0.31c0.08,1.74 -1.26,3.22 -3,3.31 -1.74,0.08 -3.22,-1.26 -3.31,-3l6.31 -0.31zm233.95 -36.61l-236.58 39.88 -1.05 -6.22 236.58 -39.88 2.91 1.04 -1.86 5.18zm-1.05 -6.22c1.72,-0.29 3.35,0.87 3.64,2.59 0.29,1.72 -0.87,3.35 -2.59,3.64l-1.05 -6.22zm-249.8 -289.91l252.71 290.95 -4.77 4.14 -252.71 -290.95 -0.77 -1.91 5.54 -2.22zm-4.77 4.14c-1.14,-1.32 -1,-3.31 0.31,-4.45 1.32,-1.14 3.31,-1 4.45,0.31l-4.77 4.14z"/>
    <polygon id="_1_12" class="fil6" points="1349.78,1058.99 1365.91,1389.82 1602.49,1349.94 "/>
   </g>
   <g>
    <path class="fil7" d="M627.16 1899.87l310.51 -433.81 5.14 3.67 -310.51 433.81 -1.52 1.14 -3.61 -4.81zm5.14 3.67c-1.01,1.42 -2.99,1.74 -4.4,0.73 -1.42,-1.01 -1.75,-2.99 -0.73,-4.4l5.14 3.67zm486.33 -170.07l-487.85 171.21 -2.09 -5.95 487.85 -171.21 3.66 1.21 -1.57 4.74zm-2.09 -5.95c1.64,-0.58 3.45,0.29 4.03,1.93 0.58,1.64 -0.29,3.45 -1.93,4.02l-2.09 -5.95zm-173.68 -261.39l177.34 262.6 -5.24 3.53 -177.34 -262.6 0.05 -3.6 5.19 0.07zm-5.24 3.53c-0.97,-1.44 -0.59,-3.41 0.85,-4.38 1.45,-0.97 3.41,-0.59 4.38,0.85l-5.24 3.53z"/>
    <polygon id="_1_13" class="fil3" points="940.24,1467.89 629.72,1901.7 1117.58,1730.5 "/>
   </g>
   <g>
    <path class="fil7" d="M797.56 1459.28l142.79 5.46 -0.24 6.31 -142.79 -5.46 -2.83 -4.28 3.07 -2.03zm-0.24 6.31c-1.74,-0.07 -3.1,-1.53 -3.03,-3.27 0.07,-1.74 1.53,-3.1 3.28,-3.03l-0.24 6.31zm-170.55 434.99l167.72 -439.27 5.9 2.25 -167.72 439.27 -0.38 0.71 -5.52 -2.96zm5.9 2.25c-0.62,1.63 -2.45,2.44 -4.08,1.82 -1.63,-0.62 -2.44,-2.44 -1.82,-4.07l5.9 2.25zm310.13 -433.1l-310.51 433.81 -5.14 -3.67 310.51 -433.81 2.69 -1.32 2.45 4.99zm-5.14 -3.67c1.01,-1.42 2.99,-1.74 4.4,-0.73 1.42,1.01 1.75,2.99 0.73,4.4l-5.14 -3.67z"/>
    <polygon id="_1_14" class="fil8" points="940.24,1467.89 797.44,1462.43 629.72,1901.7 "/>
   </g>
   <g>
    <path class="fil7" d="M2581.48 1899.87l-3.61 4.81 -1.52 -1.14 -310.51 -433.81 5.14 -3.67 310.51 433.81zm-5.14 3.67l5.14 -3.67c1.01,1.42 0.69,3.39 -0.73,4.4 -1.42,1.01 -3.39,0.69 -4.4,-0.73zm-486.33 -170.07l-1.57 -4.74 3.66 -1.21 487.85 171.21 -2.09 5.95 -487.85 -171.21zm2.09 -5.95l-2.09 5.95c-1.64,-0.58 -2.51,-2.38 -1.93,-4.02 0.58,-1.64 2.38,-2.51 4.03,-1.93zm173.68 -261.39l5.19 -0.07 0.05 3.6 -177.34 262.6 -5.24 -3.53 177.34 -262.6zm5.24 3.53l-5.24 -3.53c0.97,-1.44 2.94,-1.83 4.38,-0.85 1.45,0.97 1.83,2.94 0.85,4.38z"/>
    <polygon id="_1_15" class="fil9" points="2268.4,1467.89 2578.91,1901.7 2091.06,1730.5 "/>
   </g>
   <g>
    <path class="fil7" d="M2423.71 1459.28l3.09 2.1 -2.87 4.2 -155.42 5.46 -0.22 -6.31 155.42 -5.46zm0.22 6.31l-0.22 -6.31c1.74,-0.06 3.21,1.3 3.27,3.04 0.06,1.74 -1.3,3.2 -3.04,3.26zm157.96 435.07l-5.55 2.89 -0.41 -0.79 -155.09 -439.27 5.95 -2.1 155.09 439.27zm-5.95 2.1l5.95 -2.1c0.58,1.64 -0.28,3.45 -1.93,4.03 -1.64,0.58 -3.45,-0.28 -4.03,-1.93zm-310.1 -433.02l2.46 -4.99 2.68 1.32 310.51 433.81 -5.14 3.67 -310.51 -433.81zm5.14 -3.67l-5.14 3.67c-1.01,-1.42 -0.69,-3.39 0.73,-4.4 1.42,-1.01 3.39,-0.69 4.4,0.73z"/>
    <polygon id="_1_16" class="fil3" points="2268.4,1467.89 2423.82,1462.43 2578.91,1901.7 "/>
   </g>
   <g>
    <path class="fil1 str3" d="M1798.63 1821.71l-193.92 13.29 -194.7 -13.29 -292.43 -91.22 -487.85 171.21 -13.72 28.87m-65.83 138.5l-80.55 169.46 294.45 263.24 181.37 -89.21 657.14 231.31 660.59 -231.31 181.37 89.21 128.7 -115.06m130.1 -116.31l35.65 -31.87 -160.1 -336.83 -487.85 -171.21 -292.43 91.22"/>
   </g>
   <g>
    <path class="fil7" d="M1604.96 1647.34l-192.82 176.69 -4.27 -4.65 192.82 -176.69 1.59 -0.78 2.68 5.43zm-4.27 -4.65c1.28,-1.18 3.28,-1.09 4.46,0.19 1.18,1.28 1.09,3.28 -0.19,4.46l-4.27 -4.65zm-483.67 84.7l485.25 -85.48 1.1 6.21 -485.25 85.48 -1.49 -0.1 0.39 -6.12zm1.1 6.21c-1.72,0.3 -3.36,-0.84 -3.66,-2.56 -0.3,-1.72 0.85,-3.35 2.56,-3.66l1.1 6.21zm290.95 91.12l-292.43 -91.22 1.88 -6.02 292.43 91.22 1.19 5.34 -3.07 0.69zm1.88 -6.02c1.66,0.52 2.59,2.29 2.07,3.95 -0.52,1.66 -2.29,2.59 -3.95,2.07l1.88 -6.02z"/>
    <polygon id="_1_17" class="fil9" points="1410.01,1821.71 1602.83,1645.02 1117.58,1730.5 "/>
   </g>
   <g>
    <path class="fil7" d="M1600.73 1647.34l2.66 -5.45 1.57 0.77 195.78 176.71 -4.23 4.68 -195.78 -176.71zm4.23 -4.68l-4.23 4.68c-1.29,-1.17 -1.4,-3.16 -0.23,-4.46 1.17,-1.29 3.17,-1.39 4.46,-0.23zm486.64 84.73l0.4 6.12 -1.49 0.1 -488.22 -85.5 1.09 -6.21 488.22 85.5zm-1.09 6.21l1.09 -6.21c1.72,0.3 2.87,1.94 2.56,3.65 -0.3,1.72 -1.94,2.86 -3.66,2.56zm-290.95 91.12l-3.06 -0.67 1.18 -5.35 292.43 -91.22 1.88 6.02 -292.43 91.22zm-1.88 -6.02l1.88 6.02c-1.66,0.52 -3.44,-0.41 -3.95,-2.07 -0.52,-1.66 0.41,-3.43 2.07,-3.95z"/>
    <polygon id="_1_18" class="fil3" points="1798.63,1821.71 1602.85,1645 2091.06,1730.5 "/>
   </g>
   <g>
    <path class="fil7" d="M1603.71 1838.15l-193.92 -13.29 0.43 -6.3 193.92 13.29 2.94 3.13 -3.37 3.17zm0.43 -6.3c1.74,0.12 3.05,1.63 2.93,3.36 -0.12,1.74 -1.63,3.05 -3.37,2.93l0.43 -6.3zm1.84 -186.85l1.1 189.98 -6.32 0.04 -1.1 -189.98 1.02 -2.34 5.29 2.31zm-6.32 0.04c-0.01,-1.74 1.4,-3.16 3.14,-3.17 1.74,-0.01 3.17,1.4 3.18,3.14l-6.32 0.04zm-191.8 174.35l192.82 -176.69 4.27 4.65 -192.82 176.69 -2.35 0.82 -1.92 -5.47zm4.27 4.65c-1.28,1.18 -3.28,1.09 -4.46,-0.19 -1.18,-1.28 -1.09,-3.28 0.19,-4.46l4.27 4.65z"/>
    <polygon id="_1_19" class="fil3" points="1410.01,1821.71 1603.93,1835 1602.83,1645.02 "/>
   </g>
   <g>
    <path class="fil7" d="M1604.93 1838.15l-3.37 -3.11 2.94 -3.18 193.92 -13.29 0.43 6.3 -193.92 13.29zm-0.43 -6.3l0.43 6.3c-1.74,0.12 -3.25,-1.19 -3.37,-2.93 -0.12,-1.74 1.2,-3.25 2.93,-3.36zm-5.06 -187.05l5.27 -2.38 1.04 2.31 2.12 190.23 -6.32 0.07 -2.12 -190.23zm6.32 -0.07l-6.32 0.07c-0.02,-1.74 1.38,-3.17 3.12,-3.19 1.74,-0.02 3.17,1.38 3.19,3.12zm194.99 174.63l-1.9 5.49 -2.33 -0.81 -196.03 -176.94 4.23 -4.68 196.03 176.94zm-4.23 4.68l4.23 -4.68c1.29,1.17 1.4,3.16 0.23,4.46 -1.17,1.29 -3.17,1.39 -4.46,0.23z"/>
    <polygon id="_1_20" class="fil9" points="1798.63,1821.71 1604.71,1835 1602.6,1644.77 "/>
   </g>
   <g>
    <path class="fil7" d="M1605.38 937.52l-254.22 124.31 -2.78 -5.67 254.22 -124.31 4.55 2.83 -1.77 2.84zm-2.78 -5.67c1.57,-0.76 3.46,-0.12 4.22,1.45 0.77,1.57 0.12,3.46 -1.45,4.22l-2.78 -5.67zm3.94 -387.27l0.6 390.1 -6.32 0.01 -0.6 -390.1 2.48 -3.09 3.84 3.08zm-6.32 0.01c-0,-1.74 1.41,-3.16 3.15,-3.16 1.74,-0 3.16,1.41 3.16,3.15l-6.32 0.01zm-240.58 50.62l243.05 -53.7 1.36 6.16 -243.05 53.7 -3.84 -3.15 2.48 -3.01zm1.36 6.16c-1.7,0.38 -3.39,-0.7 -3.77,-2.4 -0.38,-1.7 0.7,-3.39 2.4,-3.76l1.36 6.16zm-14.4 457.55l10.57 -460.71 6.31 0.14 -10.57 460.71 -1.77 2.76 -4.55 -2.91zm6.31 0.14c-0.04,1.74 -1.49,3.12 -3.23,3.08 -1.74,-0.04 -3.12,-1.48 -3.08,-3.23l6.31 0.14z"/>
    <polygon id="_1_21" class="fil3" points="1349.78,1058.99 1604,934.68 1603.39,544.58 1360.34,598.29 "/>
   </g>
   <g>
    <path class="fil7" d="M1606.55 544.58l0.6 390.1 -6.32 0.01 -0.6 -390.1 2.48 -3.09 3.84 3.08zm-6.32 0.01c-0,-1.74 1.41,-3.16 3.15,-3.16 1.74,-0 3.16,1.41 3.16,3.15l-6.32 0.01zm-240.58 50.62l243.05 -53.7 1.36 6.16 -243.05 53.7 -3.24 -1.23 1.88 -4.93zm1.36 6.16c-1.7,0.38 -3.39,-0.7 -3.77,-2.4 -0.38,-1.7 0.7,-3.39 2.4,-3.76l1.36 6.16zm240.41 335.16l-243.65 -336.39 5.12 -3.7 243.65 336.39 0.6 1.85 -5.72 1.86zm5.12 -3.7c1.02,1.41 0.71,3.39 -0.71,4.41 -1.41,1.02 -3.39,0.71 -4.41,-0.71l5.12 -3.7z"/>
    <polygon id="_1_22" class="fil9" points="1604,934.68 1603.39,544.58 1360.34,598.29 "/>
   </g>
   <g>
    <path class="fil7" d="M1603.26 937.52l-1.17 -4.69 3.95 -0.98 254.22 124.31 -2.78 5.67 -254.22 -124.31zm2.78 -5.67l-2.78 5.67c-1.57,-0.76 -2.21,-2.66 -1.45,-4.22 0.77,-1.57 2.66,-2.21 4.22,-1.45zm239.71 -335.41l5.72 1.78 -0.6 1.92 -243.65 336.39 -5.12 -3.7 243.65 -336.39zm5.12 3.7l-5.12 -3.7c1.02,-1.41 3,-1.73 4.41,-0.71 1.41,1.02 1.73,3 0.71,4.41zm11.16 458.78l-4.55 2.91 -1.77 -2.76 -10.57 -460.71 6.31 -0.14 10.57 460.71zm-6.31 0.14l6.31 -0.14c0.04,1.74 -1.34,3.19 -3.08,3.23 -1.74,0.04 -3.19,-1.34 -3.23,-3.08z"/>
    <polygon id="_1_23" class="fil9" points="1858.86,1058.99 1604.64,934.68 1848.3,598.29 "/>
   </g>
   <g>
    <path class="fil7" d="M1602.09 544.58l3.84 -3.08 2.48 3.09 -0.6 390.1 -6.32 -0.01 0.6 -390.1zm6.32 0.01l-6.32 -0.01c0,-1.74 1.42,-3.15 3.16,-3.15 1.74,0 3.16,1.42 3.15,3.16zm240.58 50.62l1.88 4.93 -3.24 1.23 -243.05 -53.7 1.36 -6.16 243.05 53.7zm-1.36 6.16l1.36 -6.16c1.7,0.38 2.78,2.06 2.4,3.76 -0.38,1.7 -2.06,2.78 -3.77,2.4zm-240.41 335.16l-5.72 -1.86 0.6 -1.85 243.65 -336.39 5.12 3.7 -243.65 336.39zm-5.12 -3.7l5.12 3.7c-1.02,1.41 -3,1.73 -4.41,0.71 -1.41,-1.02 -1.73,-3 -0.71,-4.41z"/>
    <polygon id="_1_24" class="fil3" points="1604.64,934.68 1605.25,544.58 1848.3,598.29 "/>
   </g>
   <g>
    <path class="fil7" d="M1197.96 902.37l154.05 154.4 -4.47 4.46 -154.05 -154.4 0.63 -4.94 3.84 0.49zm-4.47 4.46c-1.23,-1.23 -1.23,-3.23 0.01,-4.46 1.23,-1.23 3.23,-1.23 4.47,0.01l-4.47 4.46zm-278.48 159.91l279.11 -164.85 3.21 5.43 -279.11 164.85 -4.76 -2.53 1.54 -2.9zm3.21 5.43c-1.5,0.89 -3.44,0.39 -4.33,-1.11 -0.89,-1.5 -0.39,-3.44 1.11,-4.32l3.21 5.43zm18.87 395.92l-23.62 -398.45 6.3 -0.37 23.62 398.45 -3.26 3.34 -3.04 -2.97zm6.3 -0.37c0.1,1.74 -1.22,3.23 -2.96,3.34 -1.74,0.1 -3.24,-1.22 -3.34,-2.96l6.3 -0.37zm-142.79 -7.88l139.75 4.91 -0.22 6.31 -139.75 -4.91 -3.04 -3.02 3.27 -3.28zm-0.22 6.31c-1.74,-0.06 -3.1,-1.52 -3.04,-3.26 0.06,-1.74 1.52,-3.1 3.27,-3.04l-0.22 6.31zm-10.39 -330.23l13.66 326.95 -6.31 0.26 -13.66 -326.95 0.49 -1.82 5.82 1.56zm-6.31 0.26c-0.07,-1.74 1.28,-3.21 3.02,-3.28 1.74,-0.07 3.21,1.28 3.29,3.02l-6.31 0.26zm249.85 -384.18l-244.02 385.74 -5.34 -3.37 244.02 -385.74 1.35 -1.18 3.99 4.55zm-5.34 -3.37c0.93,-1.47 2.88,-1.91 4.36,-0.98 1.47,0.93 1.91,2.88 0.98,4.35l-5.34 -3.37zm333.48 -147.46l-329.49 152.02 -2.65 -5.73 329.49 -152.02 4.48 2.94 -1.83 2.79zm-2.65 -5.73c1.58,-0.73 3.46,-0.04 4.19,1.54 0.73,1.58 0.04,3.46 -1.54,4.19l-2.65 -5.73zm-12.4 463.5l10.57 -460.71 6.31 0.14 -10.57 460.71 -5.39 2.16 -0.92 -2.3zm6.31 0.14c-0.04,1.74 -1.49,3.12 -3.23,3.08 -1.74,-0.04 -3.12,-1.48 -3.08,-3.23l6.31 0.14z"/>
    <polygon id="_1_25" class="fil10" points="1349.78,1058.99 1195.72,904.6 916.61,1069.45 940.24,1467.89 800.49,1462.98 786.83,1136.04 1030.85,750.3 1360.34,598.29 "/>
   </g>
   <g>
    <path class="fil7" d="M1197.96 902.37l154.05 154.4 -4.47 4.46 -154.05 -154.4 -0.55 -3.72 5.02 -0.73zm-4.47 4.46c-1.23,-1.23 -1.23,-3.23 0.01,-4.46 1.23,-1.23 3.23,-1.23 4.47,0.01l-4.47 4.46zm169.64 -307.04l-164.62 306.31 -5.56 -2.99 164.62 -306.31 5.94 1.57 -0.37 1.42zm-5.56 -2.99c0.82,-1.53 2.74,-2.11 4.28,-1.29 1.54,0.82 2.11,2.74 1.29,4.27l-5.56 -2.99zm-10.94 462.13l10.57 -460.71 6.31 0.14 -10.57 460.71 -5.39 2.16 -0.92 -2.3zm6.31 0.14c-0.04,1.74 -1.49,3.12 -3.23,3.08 -1.74,-0.04 -3.12,-1.48 -3.08,-3.23l6.31 0.14z"/>
    <polygon id="_1_26" class="fil9" points="1349.78,1058.99 1195.72,904.6 1360.34,598.29 "/>
   </g>
   <g>
    <path class="fil7" d="M915.01 1066.73l279.11 -164.85 3.21 5.43 -279.11 164.85 -4.58 -3.78 1.37 -1.65zm3.21 5.43c-1.5,0.89 -3.44,0.39 -4.33,-1.11 -0.89,-1.5 -0.39,-3.44 1.11,-4.32l3.21 5.43zm115.61 -320.8l-114.24 319.14 -5.95 -2.13 114.24 -319.14 5.13 -1.24 0.82 3.37zm-5.95 -2.13c0.59,-1.64 2.4,-2.5 4.04,-1.91 1.64,0.59 2.5,2.39 1.91,4.03l-5.95 -2.13zm165.68 157.66l-164.87 -154.29 4.32 -4.61 164.87 154.29 -0.55 5.02 -3.77 -0.41zm4.32 -4.61c1.27,1.19 1.34,3.19 0.15,4.46 -1.19,1.27 -3.19,1.34 -4.46,0.15l4.32 -4.61z"/>
    <polygon id="_1_27" class="fil9" points="1195.72,904.6 916.61,1069.45 1030.85,750.3 "/>
   </g>
   <g>
    <path class="fil7" d="M937.08 1468.08l-23.62 -398.45 6.3 -0.37 23.62 398.45 -6.02 1.51 -0.29 -1.14zm6.3 -0.37c0.1,1.74 -1.22,3.23 -2.96,3.34 -1.74,0.1 -3.24,-1.22 -3.34,-2.96l6.3 -0.37zm-153.69 -332.99l153.41 331.85 -5.73 2.65 -153.41 -331.85 1.42 -4.13 4.31 1.48zm-5.73 2.65c-0.73,-1.58 -0.04,-3.46 1.54,-4.19 1.58,-0.73 3.46,-0.04 4.19,1.54l-5.73 2.65zm134.09 -65.11l-129.78 66.59 -2.89 -5.61 129.78 -66.59 4.59 2.62 -1.71 2.99zm-2.89 -5.61c1.55,-0.8 3.45,-0.18 4.25,1.37 0.8,1.55 0.18,3.45 -1.37,4.25l-2.89 -5.61z"/>
    <polygon id="_1_28" class="fil9" points="916.61,1069.45 940.24,1467.89 786.83,1136.04 "/>
   </g>
   <g>
    <path class="fil7" d="M800.6 1459.83l139.75 4.91 -0.22 6.31 -139.75 -4.91 -3.04 -3.02 3.27 -3.28zm-0.22 6.31c-1.74,-0.06 -3.1,-1.52 -3.04,-3.26 0.06,-1.74 1.52,-3.1 3.27,-3.04l-0.22 6.31zm-10.39 -330.23l13.66 326.95 -6.31 0.26 -13.66 -326.95 6.02 -1.45 0.29 1.19zm-6.31 0.26c-0.07,-1.74 1.28,-3.21 3.02,-3.28 1.74,-0.07 3.21,1.28 3.29,3.02l-6.31 0.26zm153.7 333.05l-153.41 -331.85 5.73 -2.65 153.41 331.85 -2.98 4.48 -2.76 -1.83zm5.73 -2.65c0.73,1.58 0.04,3.46 -1.54,4.19 -1.58,0.73 -3.46,0.04 -4.19,-1.54l5.73 -2.65z"/>
    <polygon id="_1_29" class="fil10" points="940.24,1467.89 800.49,1462.98 786.83,1136.04 "/>
   </g>
   <g>
    <path class="fil7" d="M1033.01 748l164.87 154.29 -4.32 4.61 -164.87 -154.29 0.83 -5.17 3.48 0.56zm-4.32 4.61c-1.27,-1.19 -1.34,-3.19 -0.15,-4.46 1.19,-1.27 3.19,-1.34 4.46,-0.15l-4.32 4.61zm332.97 -151.45l-329.49 152.02 -2.65 -5.73 329.49 -152.02 4.11 4.36 -1.46 1.37zm-2.65 -5.73c1.58,-0.73 3.46,-0.04 4.19,1.54 0.73,1.58 0.04,3.46 -1.54,4.19l-2.65 -5.73zm-166.08 307.68l164.62 -306.31 5.56 2.99 -164.62 306.31 -4.94 0.81 -0.62 -3.8zm5.56 2.99c-0.82,1.53 -2.74,2.11 -4.28,1.29 -1.54,-0.82 -2.11,-2.74 -1.29,-4.27l5.56 2.99z"/>
    <polygon id="_1_30" class="fil3" points="1195.72,904.6 1030.85,750.3 1360.34,598.29 "/>
   </g>
   <g>
    <path class="fil7" d="M785.39 1133.23l129.78 -66.59 2.89 5.61 -129.78 66.59 -4.11 -4.49 1.23 -1.12zm2.89 5.61c-1.55,0.8 -3.45,0.18 -4.25,-1.37 -0.8,-1.55 -0.18,-3.45 1.37,-4.25l2.89 5.61zm245.25 -386.86l-244.02 385.74 -5.34 -3.37 244.02 -385.74 5.64 2.75 -0.3 0.62zm-5.34 -3.37c0.93,-1.47 2.88,-1.91 4.36,-0.98 1.47,0.93 1.91,2.88 0.98,4.35l-5.34 -3.37zm-114.54 319.77l114.24 -319.14 5.95 2.13 -114.24 319.14 -1.53 1.74 -4.42 -3.87zm5.95 2.13c-0.59,1.64 -2.4,2.5 -4.04,1.91 -1.64,-0.59 -2.5,-2.39 -1.91,-4.03l5.95 2.13z"/>
    <polygon id="_1_31" class="fil3" points="916.61,1069.45 786.83,1136.04 1030.85,750.3 "/>
   </g>
   <g>
    <path class="fil7" d="M2010.68 902.37l3.84 -0.49 0.63 4.94 -154.05 154.4 -4.47 -4.46 154.05 -154.4zm4.47 4.46l-4.47 -4.46c1.23,-1.23 3.23,-1.24 4.47,-0.01 1.23,1.23 1.24,3.23 0.01,4.46zm278.48 159.91l1.54 2.9 -4.76 2.53 -279.11 -164.85 3.21 -5.43 279.11 164.85zm-3.21 5.43l3.21 -5.43c1.5,0.89 2,2.82 1.11,4.32 -0.89,1.5 -2.82,2 -4.33,1.11zm-18.87 395.92l-3.04 2.97 -3.26 -3.34 23.62 -398.45 6.3 0.37 -23.62 398.45zm-6.3 -0.37l6.3 0.37c-0.1,1.74 -1.6,3.07 -3.34,2.96 -1.74,-0.1 -3.07,-1.6 -2.96,-3.34zm158.46 -8.43l3.27 3.13 -3.05 3.17 -155.42 5.46 -0.22 -6.31 155.42 -5.46zm0.22 6.31l-0.22 -6.31c1.74,-0.06 3.21,1.3 3.27,3.04 0.06,1.74 -1.3,3.2 -3.04,3.26zm-5.28 -329.53l5.83 -1.71 0.49 1.67 2.01 326.39 -6.32 0.04 -2.01 -326.39zm6.32 -0.04l-6.32 0.04c-0.01,-1.74 1.4,-3.16 3.14,-3.17 1.74,-0.01 3.17,1.39 3.18,3.14zm-249.85 -384.03l3.99 -4.55 1.35 1.18 244.02 385.74 -5.34 3.37 -244.02 -385.74zm5.34 -3.37l-5.34 3.37c-0.93,-1.47 -0.49,-3.42 0.98,-4.35 1.47,-0.93 3.43,-0.49 4.36,0.98zm-333.48 -147.46l-1.83 -2.79 4.48 -2.94 329.49 152.02 -2.65 5.73 -329.49 -152.02zm2.65 -5.73l-2.65 5.73c-1.58,-0.73 -2.27,-2.61 -1.54,-4.19 0.73,-1.58 2.61,-2.27 4.19,-1.54zm12.4 463.5l-0.92 2.3 -5.39 -2.16 -10.57 -460.71 6.31 -0.14 10.57 460.71zm-6.31 0.14l6.31 -0.14c0.04,1.74 -1.34,3.19 -3.08,3.23 -1.74,0.04 -3.19,-1.34 -3.23,-3.08z"/>
    <polygon id="_1_32" class="fil3" points="1858.86,1058.99 2012.92,904.6 2292.03,1069.45 2268.4,1467.89 2423.82,1462.43 2421.81,1136.04 2177.79,750.3 1848.3,598.29 "/>
   </g>
   <g>
    <path class="fil7" d="M2271.55 1468.08l-3.04 2.97 -3.26 -3.34 23.62 -398.45 6.3 0.37 -23.62 398.45zm-6.3 -0.37l6.3 0.37c-0.1,1.74 -1.6,3.07 -3.34,2.96 -1.74,-0.1 -3.07,-1.6 -2.96,-3.34zm158.46 -8.43l3.27 3.13 -3.05 3.17 -155.42 5.46 -0.22 -6.31 155.42 -5.46zm0.22 6.31l-0.22 -6.31c1.74,-0.06 3.21,1.3 3.27,3.04 0.06,1.74 -1.3,3.2 -3.04,3.26zm-5.28 -329.53l4.6 -2.83 1.72 2.79 2.01 326.39 -6.32 0.04 -2.01 -326.39zm6.32 -0.04l-6.32 0.04c-0.01,-1.74 1.4,-3.16 3.14,-3.17 1.74,-0.01 3.17,1.39 3.18,3.14zm-134.38 -63.77l-1.71 -2.99 4.59 -2.62 129.78 66.59 -2.89 5.61 -129.78 -66.59zm2.89 -5.61l-2.89 5.61c-1.55,-0.8 -2.16,-2.7 -1.37,-4.25 0.8,-1.55 2.7,-2.16 4.25,-1.37z"/>
    <polygon id="_1_33" class="fil3" points="2292.03,1069.45 2268.4,1467.89 2423.82,1462.43 2421.81,1136.04 "/>
   </g>
   <g>
    <path class="fil7" d="M2423.71 1459.28l3.27 3.13 -3.05 3.17 -155.42 5.46 -0.22 -6.31 155.42 -5.46zm0.22 6.31l-0.22 -6.31c1.74,-0.06 3.21,1.3 3.27,3.04 0.06,1.74 -1.3,3.2 -3.04,3.26zm-5.28 -329.53l0.29 -1.34 6.02 1.3 2.01 326.39 -6.32 0.04 -2.01 -326.39zm6.32 -0.04l-6.32 0.04c-0.01,-1.74 1.4,-3.16 3.14,-3.17 1.74,-0.01 3.17,1.39 3.18,3.14zm-153.7 333.2l-2.76 1.83 -2.98 -4.48 153.41 -331.85 5.73 2.65 -153.41 331.85zm-5.73 -2.65l5.73 2.65c-0.73,1.58 -2.61,2.27 -4.19,1.54 -1.58,-0.73 -2.27,-2.61 -1.54,-4.19z"/>
    <polygon id="_1_34" class="fil9" points="2268.4,1467.89 2423.82,1462.43 2421.81,1136.04 "/>
   </g>
   <g>
    <path class="fil4" d="M2093.61 1728.63l0.07 3.63 -5.16 0.1 -250.23 -340.68 5.09 -3.73 250.23 340.68zm-5.09 3.73l5.09 -3.73c1.03,1.4 0.73,3.38 -0.68,4.41 -1.4,1.03 -3.38,0.73 -4.41,-0.68zm177.27 -266.23l3.19 -1.34 2.05 4.87 -177.34 262.6 -5.24 -3.53 177.34 -262.6zm5.24 3.53l-5.24 -3.53c0.97,-1.44 2.94,-1.83 4.38,-0.85 1.45,0.97 1.83,2.94 0.85,4.38zm-430.75 -76.73l-1.98 -1.24 3.11 -4.97 427.57 78.07 -1.14 6.21 -427.57 -78.07zm1.14 -6.21l-1.14 6.21c-1.72,-0.31 -2.85,-1.96 -2.54,-3.67 0.31,-1.71 1.96,-2.85 3.67,-2.54z"/>
    <polygon id="_1_35" class="fil5" points="1840.84,1389.82 2091.06,1730.5 2268.4,1467.89 "/>
   </g>
   <g>
    <path class="fil4" d="M2270.63 1465.66l0.92 2.42 -5.38 2.05 -409.54 -408.9 4.46 -4.47 409.54 408.9zm-4.46 4.47l4.46 -4.47c1.23,1.23 1.23,3.23 0,4.46 -1.23,1.23 -3.23,1.23 -4.47,0zm22.7 -400.87l3.23 -2.97 3.08 3.34 -23.62 398.45 -6.3 -0.37 23.62 -398.45zm6.3 0.37l-6.3 -0.37c0.1,-1.74 1.6,-3.07 3.34,-2.96 1.74,0.1 3.07,1.6 2.96,3.34zm-436.39 -7.48l-2.16 -0.92 2.31 -5.39 433.16 10.45 -0.15 6.31 -433.16 -10.45zm0.15 -6.31l-0.15 6.31c-1.74,-0.04 -3.12,-1.49 -3.08,-3.23 0.04,-1.74 1.49,-3.12 3.23,-3.08z"/>
    <polygon id="_1_36" class="fil0" points="1858.86,1058.99 2268.4,1467.89 2292.03,1069.45 "/>
   </g>
   <g>
    <path class="fil4" d="M2270.63 1465.66l-2.8 5.34 -1.66 -0.87 -409.54 -408.9 4.46 -4.47 409.54 408.9zm-4.46 4.47l4.46 -4.47c1.23,1.23 1.23,3.23 0,4.46 -1.23,1.23 -3.23,1.23 -4.47,0zm-425.9 -77.2l-2.58 -3.28 3.72 -2.93 427.57 78.07 -1.14 6.21 -427.57 -78.07zm1.14 -6.21l-1.14 6.21c-1.72,-0.31 -2.85,-1.96 -2.54,-3.67 0.31,-1.71 1.96,-2.85 3.67,-2.54zm14.31 -327.9l5.38 -2.06 0.92 2.4 -18.03 330.83 -6.31 -0.34 18.03 -330.83zm6.31 0.34l-6.31 -0.34c0.09,-1.74 1.58,-3.07 3.32,-2.98 1.74,0.09 3.08,1.58 2.98,3.32z"/>
    <polygon id="_1_37" class="fil6" points="1858.86,1058.99 2268.4,1467.89 1840.84,1389.82 "/>
   </g>
   <g>
    <path class="fil4" d="M2010.68 902.37l3.84 -0.49 0.63 4.94 -154.05 154.4 -4.47 -4.46 154.05 -154.4zm4.47 4.46l-4.47 -4.46c1.23,-1.23 3.23,-1.24 4.47,-0.01 1.23,1.23 1.24,3.23 0.01,4.46zm278.48 159.91l-1.68 5.87 -1.53 -0.44 -279.11 -164.85 3.21 -5.43 279.11 164.85zm-3.21 5.43l3.21 -5.43c1.5,0.89 2,2.82 1.11,4.32 -0.89,1.5 -2.82,2 -4.33,1.11zm-431.63 -10.01l-2.16 -5.38 2.31 -0.93 433.16 10.45 -0.15 6.31 -433.16 -10.45zm0.15 -6.31l-0.15 6.31c-1.74,-0.04 -3.12,-1.49 -3.08,-3.23 0.04,-1.74 1.49,-3.12 3.23,-3.08z"/>
    <polygon id="_1_38" class="fil6" points="1858.86,1058.99 2012.92,904.6 2292.03,1069.45 "/>
   </g>
   <g>
    <path class="fil4" d="M2093.61 1728.63l0.07 3.63 -5.16 0.1 -250.23 -340.68 5.09 -3.73 250.23 340.68zm-5.09 3.73l5.09 -3.73c1.03,1.4 0.73,3.38 -0.68,4.41 -1.4,1.03 -3.38,0.73 -4.41,-0.68zm177.27 -266.23l3.19 -1.34 2.05 4.87 -177.34 262.6 -5.24 -3.53 177.34 -262.6zm5.24 3.53l-5.24 -3.53c0.97,-1.44 2.94,-1.83 4.38,-0.85 1.45,0.97 1.83,2.94 0.85,4.38zm-430.75 -76.73l-1.98 -1.24 3.11 -4.97 427.57 78.07 -1.14 6.21 -427.57 -78.07zm1.14 -6.21l-1.14 6.21c-1.72,-0.31 -2.85,-1.96 -2.54,-3.67 0.31,-1.71 1.96,-2.85 3.67,-2.54z"/>
    <polygon id="_1_39" class="fil6" points="1840.84,1389.82 2091.06,1730.5 2268.4,1467.89 "/>
   </g>
   <g>
    <path class="fil4" d="M1610.02 1641.93l-2.89 0.95 -1.73 -5.25 233.13 -249.96 4.62 4.3 -233.13 249.96zm-4.62 -4.3l4.62 4.3c-1.19,1.27 -3.19,1.35 -4.46,0.16 -1.27,-1.19 -1.35,-3.18 -0.16,-4.46zm486.25 89.76l1.96 1.23 -3.13 4.97 -483.35 -90.71 1.17 -6.2 483.35 90.71zm-1.17 6.2l1.17 -6.2c1.71,0.32 2.84,1.97 2.52,3.68 -0.32,1.71 -1.97,2.84 -3.69,2.52zm-252.19 -341.91l0.24 -4.02 4.86 0.28 250.23 340.68 -5.09 3.73 -250.23 -340.68zm5.09 -3.73l-5.09 3.73c-1.03,-1.4 -0.73,-3.38 0.68,-4.41 1.4,-1.03 3.38,-0.73 4.41,0.68z"/>
    <polygon id="_1_40" class="fil5" points="1840.84,1389.82 1607.71,1639.78 2091.06,1730.5 "/>
   </g>
   <g>
    <path class="fil7" d="M2175.65 747.98l3.46 -0.55 0.82 5.19 -164.87 151.85 -4.28 -4.64 164.87 -151.85zm4.28 4.64l-4.28 -4.64c1.28,-1.18 3.28,-1.1 4.46,0.18 1.18,1.28 1.1,3.28 -0.18,4.46zm-332.95 -151.47l-1.45 -1.36 4.1 -4.37 329.49 152.02 -2.65 5.73 -329.49 -152.02zm2.65 -5.73l-2.65 5.73c-1.58,-0.73 -2.27,-2.61 -1.54,-4.19 0.73,-1.58 2.61,-2.27 4.19,-1.54zm166.07 305.23l-0.64 3.82 -4.92 -0.82 -164.62 -303.87 5.55 -3 164.62 303.87zm-5.55 3l5.55 -3c0.83,1.53 0.26,3.45 -1.27,4.28 -1.53,0.83 -3.45,0.26 -4.28,-1.27z"/>
    <polygon id="_1_41" class="fil9" points="2012.92,902.15 2177.79,750.3 1848.3,598.29 "/>
   </g>
   <g>
    <path class="fil7" d="M2423.25 1133.23l1.23 1.12 -4.11 4.49 -129.78 -66.59 2.89 -5.61 129.78 66.59zm-2.89 5.61l2.89 -5.61c1.55,0.8 2.16,2.7 1.37,4.25 -0.8,1.55 -2.7,2.16 -4.25,1.37zm-245.25 -386.86l-0.3 -0.62 5.64 -2.75 244.02 385.74 -5.34 3.37 -244.02 -385.74zm5.34 -3.37l-5.34 3.37c-0.93,-1.47 -0.49,-3.42 0.98,-4.35 1.47,-0.93 3.43,-0.49 4.36,0.98zm114.54 319.77l-4.42 3.87 -1.53 -1.74 -114.24 -319.14 5.95 -2.13 114.24 319.14zm-5.95 2.13l5.95 -2.13c0.59,1.64 -0.27,3.45 -1.91,4.03 -1.64,0.59 -3.45,-0.27 -4.04,-1.91z"/>
    <polygon id="_1_42" class="fil9" points="2292.03,1069.45 2421.81,1136.04 2177.79,750.3 "/>
   </g>
   <g>
    <path class="fil7" d="M1198.33 1097.93l-93.76 135.93 -5.2 -3.58 93.76 -135.93 5.22 0.04 -0.02 3.55zm-5.2 -3.58c0.99,-1.43 2.95,-1.79 4.39,-0.81 1.43,0.99 1.79,2.95 0.81,4.39l-5.2 -3.58zm91.45 140.19l-91.48 -136.64 5.24 -3.51 91.48 136.64 -0.07 3.61 -5.17 -0.1zm5.24 -3.51c0.97,1.45 0.58,3.41 -0.87,4.38 -1.45,0.97 -3.41,0.58 -4.38,-0.87l5.24 -3.51zm-98.59 128.24l93.42 -128.34 5.1 3.71 -93.42 128.34 -5.12 -0.03 0.02 -3.69zm5.1 3.71c-1.02,1.41 -3,1.72 -4.41,0.69 -1.41,-1.02 -1.72,-3 -0.69,-4.41l5.1 3.71zm-91.8 -132.74l91.82 129.05 -5.14 3.66 -91.82 -129.05 -0.03 -3.62 5.17 -0.04zm-5.14 3.66c-1.01,-1.42 -0.68,-3.39 0.74,-4.4 1.42,-1.01 3.39,-0.68 4.4,0.74l-5.14 3.66z"/>
    <polygon id="_1_43" class="fil11" points="1101.97,1232.08 1195.73,1096.14 1287.21,1232.78 1193.79,1361.13 "/>
   </g>
   <g>
    <path class="fil7" d="M2016.62 1097.93l-0.02 -3.55 5.22 -0.04 93.76 135.93 -5.2 3.58 -93.76 -135.93zm5.2 -3.58l-5.2 3.58c-0.99,-1.43 -0.63,-3.4 0.81,-4.39 1.43,-0.99 3.4,-0.63 4.39,0.81zm-91.45 140.19l-5.17 0.1 -0.07 -3.61 91.48 -136.64 5.24 3.51 -91.48 136.64zm-5.24 -3.51l5.24 3.51c-0.97,1.45 -2.93,1.84 -4.38,0.87 -1.45,-0.97 -1.84,-2.93 -0.87,-4.38zm98.59 128.24l0.02 3.69 -5.12 0.03 -93.42 -128.34 5.1 -3.71 93.42 128.34zm-5.1 3.71l5.1 -3.71c1.02,1.41 0.71,3.38 -0.69,4.41 -1.41,1.02 -3.38,0.71 -4.41,-0.69zm91.8 -132.74l5.17 0.04 -0.03 3.62 -91.82 129.05 -5.14 -3.66 91.82 -129.05zm5.14 3.66l-5.14 -3.66c1.01,-1.42 2.98,-1.75 4.4,-0.74 1.42,1.01 1.75,2.98 0.74,4.4z"/>
    <polygon id="_1_44" class="fil12" points="2112.98,1232.08 2019.22,1096.14 1927.74,1232.78 2021.16,1361.13 "/>
   </g>
   <g>
    <path class="fil13 str4" d="M2356.8 1949.76l133.9 0c2.68,2.41 30.29,48.39 82.84,137.92 106.29,180.28 161.65,274.51 166.2,282.68l0 0.81 -154.81 0c-3.62,-3.75 -51.47,-84.04 -143.28,-241.13 -11.26,-18.9 -17.16,-28.28 -17.69,-28.28 -103.34,175.72 -156.56,265.53 -159.37,269.41l-38.8 0 -16.94 -16.32c-19.42,-18.72 -38.84,-37.44 -58.26,-56.16 131.99,-224.2 200.74,-340.52 206.22,-348.92zm-1909.36 0l574.88 0c1.34,0.27 2.01,0.94 2.01,2.01l0 96.24c0,1.21 -0.67,1.88 -2.01,1.88l-219.42 0 0 319.27c0,1.34 -0.67,2.01 -2.01,2.01l-131.22 0c-1.21,0 -1.88,-0.67 -1.88,-2.01l0 -319.27 -220.36 0c-1.34,0 -1.88,-0.67 -1.88,-1.88l0 -96.24c0.13,-1.34 0.8,-2.01 1.88,-2.01zm596.43 0l105.77 0c1.21,0.27 1.88,0.94 1.88,2.01l0 244.22c0,36.99 16.08,60.99 48.39,72.25 7.24,2.14 14.07,3.22 20.37,3.22l240.33 0 0 -319.68c0.27,-1.34 0.94,-2.01 2.01,-2.01l131.09 0c1.34,0.27 2.01,0.94 2.01,2.01l0 417.39c0,1.34 -0.67,2.01 -2.01,2.01l-448.75 0c-38.33,0 -72.38,-15.95 -102.54,-47.99 -17.02,-20.64 -25.47,-42.62 -25.47,-65.95l0 -187.72 5.38 0c12.1,0 21.64,-9.38 21.64,-21.51l0 -96.24c0,-0.68 -0.03,-1.35 -0.09,-2.01zm570.81 0l139.43 0c3.35,0 12.47,8.31 27.07,24.8 4.42,3.35 36.59,33.78 96.24,91.14l0.8 0c72.78,-69.97 113.4,-108.57 121.71,-115.94l191.27 0c1.34,0.27 1.88,0.94 1.88,2.01 -9.11,7.91 -81.36,76.94 -216.74,207.36l0 0.8c4.02,4.42 76.54,74.53 217.54,210.44l-1.47 0.81 -191.67 0c-9.38,-8.45 -50.27,-47.45 -122.51,-117.01l-0.8 0c-71.98,69.56 -112.86,108.57 -122.51,117.01l-140.23 0c0.06,-0.66 0.09,-1.33 0.09,-2.01l0 -50.08c36.48,-34.87 91.32,-87.56 164.53,-158.08l0 -1.07c-4.76,-5.22 -59.67,-58.18 -164.53,-158.78l0 -49.38c0,-0.68 -0.03,-1.35 -0.09,-2.01z"/>
    <path id="_1_45" class="fil14" d="M2356.8 1949.76l133.9 0c2.68,2.41 30.29,48.39 82.84,137.92 106.29,180.28 161.65,274.51 166.2,282.68l0 0.81 -154.81 0c-3.62,-3.75 -51.47,-84.04 -143.28,-241.13 -11.26,-18.9 -17.16,-28.28 -17.69,-28.28 -103.34,175.72 -156.56,265.53 -159.37,269.41l-38.8 0 -16.94 -16.32c-19.42,-18.72 -38.84,-37.44 -58.26,-56.16 131.99,-224.2 200.74,-340.52 206.22,-348.92zm-1909.36 0l574.88 0c1.34,0.27 2.01,0.94 2.01,2.01l0 96.24c0,1.21 -0.67,1.88 -2.01,1.88l-219.42 0 0 319.27c0,1.34 -0.67,2.01 -2.01,2.01l-131.22 0c-1.21,0 -1.88,-0.67 -1.88,-2.01l0 -319.27 -220.36 0c-1.34,0 -1.88,-0.67 -1.88,-1.88l0 -96.24c0.13,-1.34 0.8,-2.01 1.88,-2.01zm596.43 0l105.77 0c1.21,0.27 1.88,0.94 1.88,2.01l0 244.22c0,36.99 16.08,60.99 48.39,72.25 7.24,2.14 14.07,3.22 20.37,3.22l240.33 0 0 -319.68c0.27,-1.34 0.94,-2.01 2.01,-2.01l131.09 0c1.34,0.27 2.01,0.94 2.01,2.01l0 417.39c0,1.34 -0.67,2.01 -2.01,2.01l-448.75 0c-38.33,0 -72.38,-15.95 -102.54,-47.99 -17.02,-20.64 -25.47,-42.62 -25.47,-65.95l0 -187.72 5.38 0c12.1,0 21.64,-9.38 21.64,-21.51l0 -96.24c0,-0.68 -0.03,-1.35 -0.09,-2.01zm570.81 0l139.43 0c3.35,0 12.47,8.31 27.07,24.8 4.42,3.35 36.59,33.78 96.24,91.14l0.8 0c72.78,-69.97 113.4,-108.57 121.71,-115.94l191.27 0c1.34,0.27 1.88,0.94 1.88,2.01 -9.11,7.91 -81.36,76.94 -216.74,207.36l0 0.8c4.02,4.42 76.54,74.53 217.54,210.44l-1.47 0.81 -191.67 0c-9.38,-8.45 -50.27,-47.45 -122.51,-117.01l-0.8 0c-71.98,69.56 -112.86,108.57 -122.51,117.01l-140.23 0c0.06,-0.66 0.09,-1.33 0.09,-2.01l0 -50.08c36.48,-34.87 91.32,-87.56 164.53,-158.08l0 -1.07c-4.76,-5.22 -59.67,-58.18 -164.53,-158.78l0 -49.38c0,-0.68 -0.03,-1.35 -0.09,-2.01z"/>
   </g>
   <g>
    <path class="fil1 str2" d="M2362.9 1960.87c-4.29,6.93 -8.42,14.2 -12.53,21.11 -13.27,22.3 -26.48,44.63 -39.68,66.97 -48.79,82.55 -97.44,165.18 -146.09,247.82 17.31,16.7 34.63,33.39 51.95,50.08l13.71 13.21 28.29 0c3.01,-4.86 5.93,-10.06 8.75,-14.79 10.24,-17.14 20.42,-34.33 30.59,-51.52 38.94,-65.81 77.72,-131.72 116.49,-197.63l3.22 -5.48 6.35 0c7.44,0 10.94,6.93 14.27,12.2 4.48,7.09 8.77,14.34 13.01,21.58 34.21,58.42 68.44,116.84 103,175.05 9.2,15.5 18.41,31 27.78,46.39 2.61,4.29 5.23,8.58 7.91,12.82 0.28,0.44 0.56,0.9 0.85,1.37l130.16 0c-1.25,-2.12 -2.5,-4.23 -3.73,-6.33 -10.66,-18.18 -21.34,-36.34 -32.03,-54.5 -40.38,-68.65 -80.8,-137.27 -121.2,-205.9 -19.4,-32.96 -38.8,-65.93 -58.45,-98.74 -5.35,-8.93 -10.7,-17.86 -16.18,-26.7 -1.29,-2.09 -2.78,-4.65 -4.3,-7.01l-122.14 0zm-1906.23 0l0 77.91 222.23 0 0 321.29 112.89 0 0 -321.29 221.43 0 0 -77.91 -556.55 0zm598.4 0l0 87.14c0,16.3 -11.57,29.49 -27.02,32.13l0 177.1c0,22.24 8.73,41.57 22.7,58.6 25.69,27.18 56.3,44.23 94.2,44.23l439.66 0 0 -399.19 -112.89 0 0 321.69 -251.44 0c-7.96,0 -15.92,-1.42 -23.53,-3.68l-0.25 -0.07 -0.25 -0.09c-38.33,-13.36 -55.84,-42.8 -55.84,-82.74l0 -235.12 -85.34 0zm570.81 0l0 35.55c38.84,37.26 77.68,74.52 116.41,111.89 10.62,10.25 21.24,20.5 31.8,30.8 4.4,4.3 9.29,8.8 13.42,13.34l2.9 3.18 0 10.1 -3.4 3.28c-53.65,51.67 -107.29,103.35 -161.13,154.83l0 36.23 124.8 0c3.28,-2.97 6.51,-6.04 9.72,-9.05 8.28,-7.78 16.51,-15.61 24.72,-23.46 28.29,-27.02 56.45,-54.19 84.58,-81.38l3.23 -3.12 9.77 0 3.23 3.11c28.22,27.18 56.46,54.34 84.79,81.4 11.33,10.81 22.7,21.94 34.3,32.51l162.17 0c-47.08,-45.38 -94.16,-90.78 -141.17,-136.24 -13.87,-13.42 -27.75,-26.84 -41.57,-40.3 -5.3,-5.16 -11.37,-10.67 -16.33,-16.12l-2.89 -3.18 0 -9.82 3.4 -3.28c51.85,-49.95 103.72,-99.88 155.75,-149.65 14.1,-13.49 28.22,-26.97 42.39,-40.38 0.08,-0.08 0.16,-0.15 0.24,-0.23l-162.84 0c-11.26,10.16 -22.31,21.01 -33.26,31.43 -28.41,27.05 -56.71,54.22 -84.99,81.41l-3.22 3.1 -9.75 0 -3.23 -3.1c-22.8,-21.93 -45.62,-43.85 -68.59,-65.6 -6.25,-5.91 -12.5,-11.83 -18.82,-17.66 -2.42,-2.24 -5.24,-5.04 -7.84,-7.04l-0.88 -0.66 -0.73 -0.82c-3.66,-4.12 -15.29,-17.34 -20.81,-21.06l-126.18 0z"/>
    <path id="_1_46" class="fil15" d="M2362.9 1960.87c-4.29,6.93 -8.42,14.2 -12.53,21.11 -13.27,22.3 -26.48,44.63 -39.68,66.97 -48.79,82.55 -97.44,165.18 -146.09,247.82 17.31,16.7 34.63,33.39 51.95,50.08l13.71 13.21 28.29 0c3.01,-4.86 5.93,-10.06 8.75,-14.79 10.24,-17.14 20.42,-34.33 30.59,-51.52 38.94,-65.81 77.72,-131.72 116.49,-197.63l3.22 -5.48 6.35 0c7.44,0 10.94,6.93 14.27,12.2 4.48,7.09 8.77,14.34 13.01,21.58 34.21,58.42 68.44,116.84 103,175.05 9.2,15.5 18.41,31 27.78,46.39 2.61,4.29 5.23,8.58 7.91,12.82 0.28,0.44 0.56,0.9 0.85,1.37l130.16 0c-1.25,-2.12 -2.5,-4.23 -3.73,-6.33 -10.66,-18.18 -21.34,-36.34 -32.03,-54.5 -40.38,-68.65 -80.8,-137.27 -121.2,-205.9 -19.4,-32.96 -38.8,-65.93 -58.45,-98.74 -5.35,-8.93 -10.7,-17.86 -16.18,-26.7 -1.29,-2.09 -2.78,-4.65 -4.3,-7.01l-122.14 0zm-1906.23 0l0 77.91 222.23 0 0 321.29 112.89 0 0 -321.29 221.43 0 0 -77.91 -556.55 0zm598.4 0l0 87.14c0,16.3 -11.57,29.49 -27.02,32.13l0 177.1c0,22.24 8.73,41.57 22.7,58.6 25.69,27.18 56.3,44.23 94.2,44.23l439.66 0 0 -399.19 -112.89 0 0 321.69 -251.44 0c-7.96,0 -15.92,-1.42 -23.53,-3.68l-0.25 -0.07 -0.25 -0.09c-38.33,-13.36 -55.84,-42.8 -55.84,-82.74l0 -235.12 -85.34 0zm570.81 0l0 35.55c38.84,37.26 77.68,74.52 116.41,111.89 10.62,10.25 21.24,20.5 31.8,30.8 4.4,4.3 9.29,8.8 13.42,13.34l2.9 3.18 0 10.1 -3.4 3.28c-53.65,51.67 -107.29,103.35 -161.13,154.83l0 36.23 124.8 0c3.28,-2.97 6.51,-6.04 9.72,-9.05 8.28,-7.78 16.51,-15.61 24.72,-23.46 28.29,-27.02 56.45,-54.19 84.58,-81.38l3.23 -3.12 9.77 0 3.23 3.11c28.22,27.18 56.46,54.34 84.79,81.4 11.33,10.81 22.7,21.94 34.3,32.51l162.17 0c-47.08,-45.38 -94.16,-90.78 -141.17,-136.24 -13.87,-13.42 -27.75,-26.84 -41.57,-40.3 -5.3,-5.16 -11.37,-10.67 -16.33,-16.12l-2.89 -3.18 0 -9.82 3.4 -3.28c51.85,-49.95 103.72,-99.88 155.75,-149.65 14.1,-13.49 28.22,-26.97 42.39,-40.38 0.08,-0.08 0.16,-0.15 0.24,-0.23l-162.84 0c-11.26,10.16 -22.31,21.01 -33.26,31.43 -28.41,27.05 -56.71,54.22 -84.99,81.41l-3.22 3.1 -9.75 0 -3.23 -3.1c-22.8,-21.93 -45.62,-43.85 -68.59,-65.6 -6.25,-5.91 -12.5,-11.83 -18.82,-17.66 -2.42,-2.24 -5.24,-5.04 -7.84,-7.04l-0.88 -0.66 -0.73 -0.82c-3.66,-4.12 -15.29,-17.34 -20.81,-21.06l-126.18 0z"/>
   </g>
   <path class="fil16" style="mask:url(#id0)" d="M2245.26 2159.82c-26.9,45.64 -53.78,91.29 -80.66,136.95 17.31,16.7 34.63,33.39 51.95,50.08l13.71 13.21 28.29 0c3.01,-4.86 5.93,-10.06 8.75,-14.79 10.24,-17.14 20.42,-34.33 30.59,-51.52 24.03,-40.61 48,-81.25 71.94,-121.91 -40.93,-4.3 -82.48,-8.3 -124.56,-12.03zm241.53 25.28c22.4,38.17 44.85,76.32 67.44,114.37 9.2,15.5 18.41,31 27.78,46.39 2.61,4.29 5.23,8.58 7.91,12.82 0.28,0.44 0.56,0.9 0.85,1.37l130.16 0c-1.25,-2.12 -2.5,-4.23 -3.73,-6.33 -10.66,-18.18 -21.34,-36.34 -32.03,-54.5 -18.69,-31.78 -37.39,-63.55 -56.1,-95.32 -46.43,-6.66 -93.89,-12.93 -142.28,-18.8zm-1015.07 -59.14c37.84,0.08 75.49,0.36 112.89,0.87l0 233.23 -439.66 0c-37.9,0 -68.51,-17.04 -94.2,-44.23 -13.97,-17.03 -22.7,-36.36 -22.7,-58.6l0 -121.85c37.15,-1.68 74.62,-3.13 112.36,-4.37l0 64.97c0,39.93 17.51,69.37 55.84,82.74l0.25 0.09 0.25 0.07c7.61,2.26 15.57,3.68 23.53,3.68l251.44 0 0 -156.59zm294.1 5.09c72.34,2.38 143.68,5.55 213.78,9.52l-10.95 10.55 -3.4 3.28 0 9.82 2.89 3.18c4.96,5.45 11.03,10.96 16.33,16.12 13.83,13.46 27.7,26.89 41.57,40.3 47.01,45.46 94.08,90.86 141.17,136.24l-162.17 0c-11.59,-10.58 -22.97,-21.7 -34.3,-32.51 -28.34,-27.06 -56.57,-54.22 -84.79,-81.4l-3.23 -3.11 -9.77 0 -3.23 3.12c-28.13,27.19 -56.29,54.36 -84.58,81.38 -8.22,7.85 -16.44,15.68 -24.72,23.46 -3.21,3.02 -6.44,6.08 -9.72,9.05l-124.8 0 0 -36.23c53.84,-51.48 107.48,-103.16 161.13,-154.83l3.4 -3.28 0 -10.1 -2.9 -3.18c-4.14,-4.54 -9.02,-9.04 -13.42,-13.34 -2.76,-2.69 -5.52,-5.38 -8.28,-8.06zm-1086.91 27.13c37.21,-3.21 74.85,-6.19 112.89,-8.95l0 210.82 -112.89 0 0 -201.88z"/>
   <g>
    <polygon class="fil1 str5" points="1414.96,1447.19 1602.49,1349.94 1785.44,1447.89 1602.83,1645.02 "/>
    <polygon id="_1_47" class="fil17" points="1414.96,1447.19 1602.49,1349.94 1785.44,1447.89 1602.83,1645.02 "/>
   </g>
   <polygon class="fil18" points="1602.49,1539.58 1785.44,1447.89 1602.83,1645.02 "/>
   <g>
    <polygon class="fil1 str5" points="1414.96,1447.19 1602.49,1349.94 1785.44,1447.89 1602.83,1539.58 "/>
    <polygon id="_1_48" class="fil19" points="1414.96,1447.19 1602.49,1349.94 1785.44,1447.89 1602.83,1539.58 "/>
   </g>
   <polygon class="fil20" points="1602.49,1349.94 1785.44,1447.89 1602.83,1539.58 "/>
  </g>
 </g>
</svg>
