<?xml version="1.0" encoding="UTF-8"?>
<!DOCTYPE svg PUBLIC "-//W3C//DTD SVG 1.1//EN" "http://www.w3.org/Graphics/SVG/1.1/DTD/svg11.dtd">
<svg xmlns="http://www.w3.org/2000/svg" version="1.1" width="1000px" height="1000px" style="shape-rendering:geometricPrecision; text-rendering:geometricPrecision; image-rendering:optimizeQuality; fill-rule:evenodd; clip-rule:evenodd" xmlns:xlink="http://www.w3.org/1999/xlink">
<g><path style="opacity:0.998" fill="#0e3ca5" d="M 692.5,111.5 C 674.251,102.589 654.918,97.4222 634.5,96C 597.274,94.7461 560.607,98.7461 524.5,108C 449.815,124.854 380.149,153.521 315.5,194C 284.928,213.738 259.928,238.904 240.5,269.5C 216.806,254.473 197.473,235.139 182.5,211.5C 199.609,202.232 216.609,192.732 233.5,183C 254.693,170.154 273.86,154.654 291,136.5C 301.384,125.403 308.384,112.403 312,97.5C 315.499,83.3532 311.333,72.1865 299.5,64C 292.826,60.7193 285.826,58.5526 278.5,57.5C 347.062,26.9191 418.729,16.4191 493.5,26C 568.163,36.02 634.496,64.52 692.5,111.5 Z"/></g>
<g><path style="opacity:0.995" fill="#5392f6" d="M 278.5,57.5 C 285.826,58.5526 292.826,60.7193 299.5,64C 311.333,72.1865 315.499,83.3532 312,97.5C 308.384,112.403 301.384,125.403 291,136.5C 273.86,154.654 254.693,170.154 233.5,183C 216.609,192.732 199.609,202.232 182.5,211.5C 157.359,222.271 131.692,231.771 105.5,240C 87.8827,245.49 69.8827,248.99 51.5,250.5C 48.2834,250.653 45.2834,249.986 42.5,248.5C 80.0304,173.471 134.697,114.304 206.5,71C 229.142,58.9711 253.142,54.4711 278.5,57.5 Z"/></g>
<g><path style="opacity:0.999" fill="#5492f6" d="M 692.5,111.5 C 756.485,164.052 800.985,230.052 826,309.5C 829.33,321.157 832.497,332.824 835.5,344.5C 830.553,345.285 825.553,345.951 820.5,346.5C 726.526,361.961 632.526,377.295 538.5,392.5C 538.5,404.833 538.5,417.167 538.5,429.5C 538.5,442.167 538.5,454.833 538.5,467.5C 538.5,479.833 538.5,492.167 538.5,504.5C 538.5,516.833 538.5,529.167 538.5,541.5C 538.5,553.833 538.5,566.167 538.5,578.5C 538.5,591.167 538.5,603.833 538.5,616.5C 537.501,542.002 537.167,467.335 537.5,392.5C 506.836,397.074 476.17,401.407 445.5,405.5C 434.816,406.354 424.149,407.354 413.5,408.5C 393.365,410.52 373.365,412.52 353.5,414.5C 343.791,414.741 334.124,415.408 324.5,416.5C 307.845,417.44 291.178,418.107 274.5,418.5C 256.124,400.942 242.291,380.276 233,356.5C 223.144,326.421 225.644,297.421 240.5,269.5C 259.928,238.904 284.928,213.738 315.5,194C 380.149,153.521 449.815,124.854 524.5,108C 560.607,98.7461 597.274,94.7461 634.5,96C 654.918,97.4222 674.251,102.589 692.5,111.5 Z"/></g>
<g><path style="opacity:0.996" fill="#5392f6" d="M 185.5,502.5 C 186.492,562.125 186.826,621.792 186.5,681.5C 186.5,693.833 186.5,706.167 186.5,718.5C 186.5,730.833 186.5,743.167 186.5,755.5C 186.828,766.014 186.494,776.347 185.5,786.5C 74.3148,708.519 12.3148,601.519 -0.5,465.5C -0.5,445.5 -0.5,425.5 -0.5,405.5C 2.6097,365.382 11.2764,326.382 25.5,288.5C 57.5225,327.355 89.3558,366.355 121,405.5C 143.516,437.211 165.016,469.545 185.5,502.5 Z"/></g>
<g><path style="opacity:0.995" fill="#a60505" d="M 871.5,341.5 C 879.389,341.276 887.056,341.942 894.5,343.5C 893.505,355.655 893.171,367.989 893.5,380.5C 889.534,379.838 885.534,379.505 881.5,379.5C 878.713,378.523 875.713,378.19 872.5,378.5C 872.813,366.087 872.479,353.753 871.5,341.5 Z"/></g>
<g><path style="opacity:1" fill="#bb1616" d="M 871.5,341.5 C 872.479,353.753 872.813,366.087 872.5,378.5C 875.713,378.19 878.713,378.523 881.5,379.5C 878.833,379.5 876.167,379.5 873.5,379.5C 863.486,379.501 853.486,379.834 843.5,380.5C 842.13,368.297 840.797,355.964 839.5,343.5C 850.16,342.739 860.827,342.072 871.5,341.5 Z"/></g>
<g><path style="opacity:0.994" fill="#be1818" d="M 894.5,343.5 C 898.915,343.861 902.915,345.194 906.5,347.5C 906.16,359.701 905.16,371.701 903.5,383.5C 900.598,382.422 897.598,381.756 894.5,381.5C 894.5,380.833 894.167,380.5 893.5,380.5C 893.171,367.989 893.505,355.655 894.5,343.5 Z"/></g>
<g><path style="opacity:1" fill="#cf2626" d="M 839.5,343.5 C 840.797,355.964 842.13,368.297 843.5,380.5C 843.5,380.833 843.5,381.167 843.5,381.5C 835.827,382.101 828.16,382.767 820.5,383.5C 820.5,371.167 820.5,358.833 820.5,346.5C 825.553,345.951 830.553,345.285 835.5,344.5C 836.833,344.167 838.167,343.833 839.5,343.5 Z"/></g>
<g><path style="opacity:1" fill="#dd2f2f" d="M 820.5,346.5 C 820.5,358.833 820.5,371.167 820.5,383.5C 819.209,383.263 818.209,383.596 817.5,384.5C 750.641,394.572 683.975,405.739 617.5,418C 591.245,422.407 564.911,426.24 538.5,429.5C 538.5,417.167 538.5,404.833 538.5,392.5C 632.526,377.295 726.526,361.961 820.5,346.5 Z"/></g>
<g><path style="opacity:0.605" fill="#da2d2d" d="M 906.5,347.5 C 909.556,349.263 911.389,351.93 912,355.5C 912.5,368.162 912.667,380.829 912.5,393.5C 911.064,388.98 908.064,385.98 903.5,384.5C 903.5,384.167 903.5,383.833 903.5,383.5C 905.16,371.701 906.16,359.701 906.5,347.5 Z"/></g>
<g><path style="opacity:1" fill="#c6c5c5" d="M 873.5,379.5 C 876.167,379.5 878.833,379.5 881.5,379.5C 885.534,379.505 889.534,379.838 893.5,380.5C 894.167,380.5 894.5,380.833 894.5,381.5C 893.18,393.735 893.18,406.069 894.5,418.5C 891.518,418.037 888.518,417.704 885.5,417.5C 881.702,416.517 877.702,416.183 873.5,416.5C 873.5,404.167 873.5,391.833 873.5,379.5 Z"/></g>
<g><path style="opacity:1" fill="#dcdbdb" d="M 873.5,379.5 C 873.5,391.833 873.5,404.167 873.5,416.5C 863.76,416.308 854.094,416.975 844.5,418.5C 844.829,405.989 844.495,393.655 843.5,381.5C 843.5,381.167 843.5,380.833 843.5,380.5C 853.486,379.834 863.486,379.501 873.5,379.5 Z"/></g>
<g><path style="opacity:1" fill="#eeecec" d="M 843.5,381.5 C 844.495,393.655 844.829,405.989 844.5,418.5C 843.833,418.5 843.167,418.5 842.5,418.5C 835.905,419.821 829.239,420.488 822.5,420.5C 822.5,408.5 822.5,396.5 822.5,384.5C 820.833,384.5 819.167,384.5 817.5,384.5C 818.209,383.596 819.209,383.263 820.5,383.5C 828.16,382.767 835.827,382.101 843.5,381.5 Z"/></g>
<g><path style="opacity:1" fill="#dddddd" d="M 894.5,381.5 C 897.598,381.756 900.598,382.422 903.5,383.5C 903.5,383.833 903.5,384.167 903.5,384.5C 902.505,396.322 902.172,408.322 902.5,420.5C 901.391,420.443 900.391,420.11 899.5,419.5C 897.784,419.371 896.117,419.038 894.5,418.5C 893.18,406.069 893.18,393.735 894.5,381.5 Z"/></g>
<g><path style="opacity:1" fill="#fdfbfb" d="M 817.5,384.5 C 819.167,384.5 820.833,384.5 822.5,384.5C 822.5,396.5 822.5,408.5 822.5,420.5C 822.158,421.338 821.492,421.672 820.5,421.5C 726.517,436.964 632.517,452.297 538.5,467.5C 538.5,454.833 538.5,442.167 538.5,429.5C 564.911,426.24 591.245,422.407 617.5,418C 683.975,405.739 750.641,394.572 817.5,384.5 Z"/></g>
<g><path style="opacity:0.736" fill="#f6f4f4" d="M 903.5,384.5 C 908.064,385.98 911.064,388.98 912.5,393.5C 912.5,406.5 912.5,419.5 912.5,432.5C 911.026,427.019 907.692,423.019 902.5,420.5C 902.172,408.322 902.505,396.322 903.5,384.5 Z"/></g>
<g><path style="opacity:1" fill="#1d3bba" d="M 538.5,616.5 C 538.5,628.833 538.5,641.167 538.5,653.5C 520.11,655.843 501.776,658.51 483.5,661.5C 470.85,662.998 458.183,664.331 445.5,665.5C 445.5,656.833 445.5,648.167 445.5,639.5C 447.311,639.572 448.644,640.405 449.5,642C 448.406,645.539 447.572,649.039 447,652.5C 449.439,649.388 452.439,647.055 456,645.5C 458.317,646.826 460.651,648.16 463,649.5C 462.871,646.127 462.538,642.794 462,639.5C 464.22,636.979 466.72,634.812 469.5,633C 465.83,632.721 462.163,632.888 458.5,633.5C 458.101,630.304 457.101,627.304 455.5,624.5C 454.167,627.833 452.833,631.167 451.5,634.5C 449.591,635.348 447.591,635.682 445.5,635.5C 445.5,619.5 445.5,603.5 445.5,587.5C 447.567,587.532 448.9,588.532 449.5,590.5C 448.32,593.848 447.487,597.182 447,600.5C 449.656,597.678 452.656,595.345 456,593.5C 458.234,594.701 460.401,596.035 462.5,597.5C 462.833,596.833 463.167,596.167 463.5,595.5C 462.447,592.869 461.947,590.202 462,587.5C 464.593,585.451 467.093,583.285 469.5,581C 465.921,581.337 462.254,581.504 458.5,581.5C 456.063,569.708 454.063,570.042 452.5,582.5C 450.139,582.674 447.806,583.007 445.5,583.5C 445.5,567.5 445.5,551.5 445.5,535.5C 447.595,535.76 448.928,536.926 449.5,539C 448.139,541.73 447.639,544.563 448,547.5C 450.644,545.69 453.144,543.69 455.5,541.5C 458.58,542.789 461.414,544.455 464,546.5C 463.613,543.319 462.78,540.152 461.5,537C 464.062,534.354 466.728,531.688 469.5,529C 465.891,529.238 462.225,529.405 458.5,529.5C 456.178,517.754 454.012,518.087 452,530.5C 449.959,531.423 447.792,531.756 445.5,531.5C 445.5,515.5 445.5,499.5 445.5,483.5C 447.595,483.76 448.928,484.926 449.5,487C 448.22,490.152 447.387,493.319 447,496.5C 449.925,494.286 452.759,491.953 455.5,489.5C 458.58,490.789 461.414,492.455 464,494.5C 463.613,491.319 462.78,488.152 461.5,485C 464.062,482.354 466.728,479.688 469.5,477C 465.891,477.238 462.225,477.405 458.5,477.5C 458.101,474.304 457.101,471.304 455.5,468.5C 454.361,471.917 453.028,475.25 451.5,478.5C 449.591,479.348 447.591,479.682 445.5,479.5C 445.5,463.5 445.5,447.5 445.5,431.5C 447.464,431.977 448.798,433.144 449.5,435C 448.22,438.152 447.387,441.319 447,444.5C 449.979,442.356 452.812,440.022 455.5,437.5C 458.167,439.167 460.833,440.833 463.5,442.5C 463.833,442.167 464.167,441.833 464.5,441.5C 463.401,438.704 462.401,435.871 461.5,433C 463.767,430.733 466.1,428.4 468.5,426C 465.183,425.502 461.85,425.335 458.5,425.5C 458.101,422.304 457.101,419.304 455.5,416.5C 453.885,420.009 452.885,423.675 452.5,427.5C 450.167,427.5 447.833,427.5 445.5,427.5C 445.5,420.167 445.5,412.833 445.5,405.5C 476.17,401.407 506.836,397.074 537.5,392.5C 537.167,467.335 537.501,542.002 538.5,616.5 Z"/></g>
<g><path style="opacity:1" fill="#1a38b6" d="M 445.5,405.5 C 445.5,412.833 445.5,420.167 445.5,427.5C 441.832,428.557 441.832,429.891 445.5,431.5C 445.5,447.5 445.5,463.5 445.5,479.5C 444.022,479.238 442.689,479.571 441.5,480.5C 442.901,481.521 444.235,482.521 445.5,483.5C 445.5,499.5 445.5,515.5 445.5,531.5C 444.127,531.343 442.793,531.51 441.5,532C 442.731,533.405 444.064,534.571 445.5,535.5C 445.5,551.5 445.5,567.5 445.5,583.5C 444.127,583.343 442.793,583.51 441.5,584C 443.093,584.949 444.426,586.115 445.5,587.5C 445.5,603.5 445.5,619.5 445.5,635.5C 444.127,635.343 442.793,635.51 441.5,636C 443.093,636.949 444.426,638.115 445.5,639.5C 445.5,648.167 445.5,656.833 445.5,665.5C 434.205,667.113 422.872,668.447 411.5,669.5C 413.466,651.736 414.132,633.736 413.5,615.5C 415.613,616.548 417.28,618.048 418.5,620C 416.938,622.792 416.605,625.625 417.5,628.5C 419.833,626.5 422.167,624.5 424.5,622.5C 427.167,624.167 429.833,625.833 432.5,627.5C 432.753,624.521 432.087,621.521 430.5,618.5C 432.688,615.478 435.355,612.978 438.5,611C 434.83,610.721 431.163,610.888 427.5,611.5C 425.408,598.508 423.408,598.842 421.5,612.5C 417.84,612.159 414.507,612.825 411.5,614.5C 410.957,614.44 410.624,614.107 410.5,613.5C 411.325,612.614 412.325,612.281 413.5,612.5C 413.5,596.167 413.5,579.833 413.5,563.5C 415.613,564.548 417.28,566.048 418.5,568C 417.804,571.125 416.804,574.125 415.5,577C 416.167,577.667 416.833,577.667 417.5,577C 419.705,574.46 422.205,572.293 425,570.5C 433.556,578.108 435.389,576.774 430.5,566.5C 432.688,563.478 435.355,560.978 438.5,559C 434.812,558.55 431.146,558.717 427.5,559.5C 425.417,546.499 423.417,546.832 421.5,560.5C 418.833,560.5 416.167,560.5 413.5,560.5C 413.5,544.167 413.5,527.833 413.5,511.5C 415.613,512.548 417.28,514.048 418.5,516C 417.804,519.125 416.804,522.125 415.5,525C 416.167,525.667 416.833,525.667 417.5,525C 419.683,522.65 422.016,520.483 424.5,518.5C 433.333,526.322 435.333,524.988 430.5,514.5C 432.688,511.478 435.355,508.978 438.5,507C 434.83,506.721 431.163,506.888 427.5,507.5C 425.108,495.637 423.108,495.97 421.5,508.5C 417.878,508.322 414.544,508.989 411.5,510.5C 410.957,510.44 410.624,510.107 410.5,509.5C 411.325,508.614 412.325,508.281 413.5,508.5C 413.5,492.5 413.5,476.5 413.5,460.5C 416.183,460.663 417.85,461.996 418.5,464.5C 417.792,467.458 416.792,470.291 415.5,473C 416.167,473.667 416.833,473.667 417.5,473C 419.705,470.46 422.205,468.293 425,466.5C 427.667,468.5 430.333,470.5 433,472.5C 432.914,469.056 432.08,465.723 430.5,462.5C 432.934,459.777 435.601,457.277 438.5,455C 434.83,454.721 431.163,454.888 427.5,455.5C 425.108,443.637 423.108,443.97 421.5,456.5C 418.167,456.833 414.833,457.167 411.5,457.5C 413.462,441.406 414.129,425.073 413.5,408.5C 424.149,407.354 434.816,406.354 445.5,405.5 Z"/></g>
<g><path style="opacity:1" fill="#1735b4" d="M 413.5,408.5 C 414.129,425.073 413.462,441.406 411.5,457.5C 411.062,457.435 410.728,457.601 410.5,458C 411.942,458.377 412.942,459.21 413.5,460.5C 413.5,476.5 413.5,492.5 413.5,508.5C 412.325,508.281 411.325,508.614 410.5,509.5C 410.624,510.107 410.957,510.44 411.5,510.5C 412.167,510.833 412.833,511.167 413.5,511.5C 413.5,527.833 413.5,544.167 413.5,560.5C 409.703,561.089 409.703,562.089 413.5,563.5C 413.5,579.833 413.5,596.167 413.5,612.5C 412.325,612.281 411.325,612.614 410.5,613.5C 410.624,614.107 410.957,614.44 411.5,614.5C 412.167,614.833 412.833,615.167 413.5,615.5C 414.132,633.736 413.466,651.736 411.5,669.5C 393.852,671.347 376.185,673.013 358.5,674.5C 359.822,660.402 359.822,646.402 358.5,632.5C 359.508,630.661 361.008,629.328 363,628.5C 371.556,636.108 373.389,634.774 368.5,624.5C 370.934,621.777 373.601,619.277 376.5,617C 372.871,617.11 369.204,617.276 365.5,617.5C 365.295,614.012 364.461,610.679 363,607.5C 361.828,610.231 360.661,612.898 359.5,615.5C 359.828,603.655 359.495,591.988 358.5,580.5C 359.508,578.661 361.008,577.328 363,576.5C 371.556,584.108 373.389,582.774 368.5,572.5C 370.934,569.777 373.601,567.277 376.5,565C 373.144,564.785 369.811,564.785 366.5,565C 365.142,561.927 363.975,558.76 363,555.5C 361.828,558.231 360.661,560.898 359.5,563.5C 359.828,551.655 359.495,539.988 358.5,528.5C 359.833,527.067 361.333,525.733 363,524.5C 371.556,532.108 373.389,530.774 368.5,520.5C 371.291,518.211 373.958,515.711 376.5,513C 373.24,513.482 369.907,513.482 366.5,513C 365.142,509.927 363.975,506.76 363,503.5C 361.828,506.231 360.661,508.898 359.5,511.5C 359.828,499.655 359.495,487.988 358.5,476.5C 359.833,475.067 361.333,473.733 363,472.5C 365.667,474.5 368.333,476.5 371,478.5C 371.011,475.185 370.178,472.019 368.5,469C 371.062,466.354 373.728,463.688 376.5,461C 373.189,461.215 369.856,461.215 366.5,461C 365.338,458.184 364.171,455.35 363,452.5C 361.724,454.858 360.558,457.192 359.5,459.5C 359.5,444.5 359.5,429.5 359.5,414.5C 357.5,414.5 355.5,414.5 353.5,414.5C 373.365,412.52 393.365,410.52 413.5,408.5 Z"/></g>
<g><path style="opacity:1" fill="#ebedf6" d="M 516.5,408.5 C 518.956,410.818 520.289,413.818 520.5,417.5C 533.211,414.5 534.378,416.5 524,423.5C 523.947,426.202 524.447,428.869 525.5,431.5C 525.167,432.167 524.833,432.833 524.5,433.5C 522.167,432.167 519.833,430.833 517.5,429.5C 514.833,431.833 512.167,434.167 509.5,436.5C 509.167,436.167 508.833,435.833 508.5,435.5C 510.08,432.277 510.914,428.944 511,425.5C 508.417,424.126 505.917,422.626 503.5,421C 506.753,419.964 510.086,419.297 513.5,419C 515.208,415.707 516.208,412.207 516.5,408.5 Z"/></g>
<g><path style="opacity:1" fill="#1332b0" d="M 353.5,414.5 C 355.5,414.5 357.5,414.5 359.5,414.5C 359.5,429.5 359.5,444.5 359.5,459.5C 359.5,460.5 359.5,461.5 359.5,462.5C 348.518,461.424 347.351,463.424 356,468.5C 356.212,472.209 355.378,475.709 353.5,479C 355.435,478.942 357.102,478.109 358.5,476.5C 359.495,487.988 359.828,499.655 359.5,511.5C 359.5,512.5 359.5,513.5 359.5,514.5C 355.818,514.335 352.152,514.501 348.5,515C 351,516.833 353.5,518.667 356,520.5C 356.212,524.209 355.378,527.709 353.5,531C 355.435,530.942 357.102,530.109 358.5,528.5C 359.495,539.988 359.828,551.655 359.5,563.5C 359.5,564.5 359.5,565.5 359.5,566.5C 355.818,566.335 352.152,566.501 348.5,567C 351,568.833 353.5,570.667 356,572.5C 356.212,576.209 355.378,579.709 353.5,583C 355.435,582.942 357.102,582.109 358.5,580.5C 359.495,591.988 359.828,603.655 359.5,615.5C 359.5,616.5 359.5,617.5 359.5,618.5C 355.818,618.335 352.152,618.501 348.5,619C 351,620.833 353.5,622.667 356,624.5C 356.361,627.437 355.861,630.27 354.5,633C 354.833,633.5 355.167,634 355.5,634.5C 356.518,633.807 357.518,633.141 358.5,632.5C 359.822,646.402 359.822,660.402 358.5,674.5C 344.845,675.642 331.179,676.642 317.5,677.5C 319.607,676.532 321.941,676.198 324.5,676.5C 324.5,672.167 324.5,667.833 324.5,663.5C 329.126,655.912 334.293,655.579 340,662.5C 340.011,659.185 339.178,656.019 337.5,653C 339.85,650.317 342.517,647.984 345.5,646C 342.167,645.667 338.833,645.333 335.5,645C 332.313,633.917 329.98,634.417 328.5,646.5C 327.167,646.5 325.833,646.5 324.5,646.5C 324.5,634.833 324.5,623.167 324.5,611.5C 326.674,609.154 329.174,607.154 332,605.5C 334.922,606.755 337.589,608.422 340,610.5C 340.011,607.185 339.178,604.019 337.5,601C 339.85,598.317 342.517,595.984 345.5,594C 342.167,593.667 338.833,593.333 335.5,593C 332.313,581.917 329.98,582.417 328.5,594.5C 327.167,594.5 325.833,594.5 324.5,594.5C 324.5,582.833 324.5,571.167 324.5,559.5C 326.674,557.154 329.174,555.154 332,553.5C 334.818,554.91 337.485,556.577 340,558.5C 340.011,555.185 339.178,552.019 337.5,549C 339.85,546.317 342.517,543.984 345.5,542C 342.167,541.667 338.833,541.333 335.5,541C 332.313,529.917 329.98,530.417 328.5,542.5C 327.167,542.5 325.833,542.5 324.5,542.5C 325.116,530.649 324.45,518.982 322.5,507.5C 322.624,506.893 322.957,506.56 323.5,506.5C 323.435,506.938 323.601,507.272 324,507.5C 326.505,505.251 329.172,503.251 332,501.5C 334.818,502.91 337.485,504.577 340,506.5C 340.004,503.169 339.171,500.002 337.5,497C 339.871,494.294 342.537,491.961 345.5,490C 342.167,489.667 338.833,489.333 335.5,489C 334.338,486.184 333.171,483.35 332,480.5C 330.382,483.291 329.215,486.291 328.5,489.5C 327.311,490.429 325.978,490.762 324.5,490.5C 325.116,478.649 324.45,466.982 322.5,455.5C 322.624,454.893 322.957,454.56 323.5,454.5C 323.435,454.938 323.601,455.272 324,455.5C 326.644,453.69 329.144,451.69 331.5,449.5C 334.58,450.789 337.414,452.455 340,454.5C 340.004,451.169 339.171,448.002 337.5,445C 339.871,442.294 342.537,439.961 345.5,438C 342.167,437.667 338.833,437.333 335.5,437C 334.338,434.184 333.171,431.35 332,428.5C 330.382,431.291 329.215,434.291 328.5,437.5C 327.311,438.429 325.978,438.762 324.5,438.5C 324.5,431.167 324.5,423.833 324.5,416.5C 334.124,415.408 343.791,414.741 353.5,414.5 Z"/></g>
<g><path style="opacity:1" fill="#ab0909" d="M 885.5,417.5 C 888.518,417.704 891.518,418.037 894.5,418.5C 896.117,419.038 897.784,419.371 899.5,419.5C 899.828,431.678 899.495,443.678 898.5,455.5C 887.885,454.091 877.218,453.425 866.5,453.5C 866.5,441.5 866.5,429.5 866.5,417.5C 872.833,417.5 879.167,417.5 885.5,417.5 Z"/></g>
<g><path style="opacity:1" fill="#0f2dab" d="M 324.5,416.5 C 324.5,423.833 324.5,431.167 324.5,438.5C 322.518,438.995 320.518,439.495 318.5,440C 321.297,441.721 323.631,443.887 325.5,446.5C 324.829,449.185 324.162,451.852 323.5,454.5C 322.957,454.56 322.624,454.893 322.5,455.5C 324.45,466.982 325.116,478.649 324.5,490.5C 322.076,490.192 319.743,490.526 317.5,491.5C 317.624,492.107 317.957,492.44 318.5,492.5C 320.781,493.608 322.948,494.942 325,496.5C 325.048,499.878 324.548,503.211 323.5,506.5C 322.957,506.56 322.624,506.893 322.5,507.5C 324.45,518.982 325.116,530.649 324.5,542.5C 322.25,542.181 320.25,542.681 318.5,544C 320.667,545.5 322.833,547 325,548.5C 325.26,551.577 324.76,554.577 323.5,557.5C 323.543,558.416 323.876,559.083 324.5,559.5C 324.5,571.167 324.5,582.833 324.5,594.5C 322.396,594.201 320.396,594.534 318.5,595.5C 320.5,597.327 322.667,598.994 325,600.5C 325.26,603.577 324.76,606.577 323.5,609.5C 323.543,610.416 323.876,611.083 324.5,611.5C 324.5,623.167 324.5,634.833 324.5,646.5C 322.143,646.337 319.81,646.503 317.5,647C 320.5,649.167 323.5,651.333 326.5,653.5C 324.273,656.76 323.606,660.094 324.5,663.5C 324.5,667.833 324.5,672.167 324.5,676.5C 321.941,676.198 319.607,676.532 317.5,677.5C 316.167,677.5 314.833,677.5 313.5,677.5C 294.198,678.905 274.864,679.905 255.5,680.5C 255.167,680.5 254.833,680.5 254.5,680.5C 257.625,679.521 260.958,679.187 264.5,679.5C 264.819,674.637 264.486,669.97 263.5,665.5C 265.492,663.683 267.659,662.016 270,660.5C 272.741,661.789 275.241,663.455 277.5,665.5C 278.037,662.227 277.37,659.061 275.5,656C 277.864,654.158 280.197,652.325 282.5,650.5C 283.289,650.217 283.956,649.717 284.5,649C 280.848,648.501 277.182,648.335 273.5,648.5C 272.439,645.489 271.273,642.489 270,639.5C 268.735,642.461 267.569,645.461 266.5,648.5C 266.043,649.298 265.376,649.631 264.5,649.5C 264.828,637.322 264.495,625.322 263.5,613.5C 265.481,611.697 267.648,610.03 270,608.5C 278.446,616.075 280.28,614.742 275.5,604.5C 277.828,602.507 280.161,600.507 282.5,598.5C 283.289,598.217 283.956,597.717 284.5,597C 281.633,596.199 278.966,596.366 276.5,597.5C 275.325,597.719 274.325,597.386 273.5,596.5C 272.431,593.461 271.265,590.461 270,587.5C 268.735,590.461 267.569,593.461 266.5,596.5C 266.043,597.298 265.376,597.631 264.5,597.5C 264.5,585.5 264.5,573.5 264.5,561.5C 265.838,559.33 267.672,557.664 270,556.5C 278.446,564.075 280.28,562.742 275.5,552.5C 277.997,550.174 280.664,548.007 283.5,546C 280.118,545.824 276.785,545.324 273.5,544.5C 272.431,541.461 271.265,538.461 270,535.5C 268.691,539.099 267.191,542.599 265.5,546C 262.518,546.498 259.518,546.665 256.5,546.5C 258.948,545.527 261.615,545.194 264.5,545.5C 264.5,533.5 264.5,521.5 264.5,509.5C 265.976,507.5 267.809,505.833 270,504.5C 278.446,512.075 280.28,510.742 275.5,500.5C 278.022,498.144 280.688,495.977 283.5,494C 280.118,493.824 276.785,493.324 273.5,492.5C 272.431,489.461 271.265,486.461 270,483.5C 268.735,486.461 267.569,489.461 266.5,492.5C 266.043,493.298 265.376,493.631 264.5,493.5C 264.5,481.5 264.5,469.5 264.5,457.5C 265.976,455.5 267.809,453.833 270,452.5C 272.667,454.5 275.333,456.5 278,458.5C 278.188,455.087 277.355,451.921 275.5,449C 277.85,446.317 280.517,443.984 283.5,442C 280.118,441.824 276.785,441.324 273.5,440.5C 272.431,437.461 271.265,434.461 270,431.5C 268.326,435.021 267.16,438.687 266.5,442.5C 263.167,442.5 259.833,442.5 256.5,442.5C 258.948,441.527 261.615,441.194 264.5,441.5C 264.5,434.167 264.5,426.833 264.5,419.5C 267.764,418.676 271.098,418.342 274.5,418.5C 291.178,418.107 307.845,417.44 324.5,416.5 Z"/></g>
<g><path style="opacity:1" fill="#e8eaf3" d="M 445.5,431.5 C 441.832,429.891 441.832,428.557 445.5,427.5C 447.833,427.5 450.167,427.5 452.5,427.5C 452.885,423.675 453.885,420.009 455.5,416.5C 457.101,419.304 458.101,422.304 458.5,425.5C 461.85,425.335 465.183,425.502 468.5,426C 466.1,428.4 463.767,430.733 461.5,433C 462.401,435.871 463.401,438.704 464.5,441.5C 464.167,441.833 463.833,442.167 463.5,442.5C 460.833,440.833 458.167,439.167 455.5,437.5C 452.812,440.022 449.979,442.356 447,444.5C 447.387,441.319 448.22,438.152 449.5,435C 448.798,433.144 447.464,431.977 445.5,431.5 Z"/></g>
<g><path style="opacity:1" fill="#c11e1c" d="M 873.5,416.5 C 877.702,416.183 881.702,416.517 885.5,417.5C 879.167,417.5 872.833,417.5 866.5,417.5C 866.5,429.5 866.5,441.5 866.5,453.5C 862.629,453.185 858.962,453.518 855.5,454.5C 854.833,454.5 854.167,454.5 853.5,454.5C 849.534,455.162 845.534,455.495 841.5,455.5C 841.187,443.087 841.521,430.753 842.5,418.5C 843.167,418.5 843.833,418.5 844.5,418.5C 854.094,416.975 863.76,416.308 873.5,416.5 Z"/></g>
<g><path style="opacity:0.999" fill="#0a28a6" d="M 264.5,419.5 C 264.5,426.833 264.5,434.167 264.5,441.5C 261.615,441.194 258.948,441.527 256.5,442.5C 258.978,444.803 261.645,446.969 264.5,449C 262.63,452.061 261.963,455.227 262.5,458.5C 263.183,458.137 263.85,457.804 264.5,457.5C 264.5,469.5 264.5,481.5 264.5,493.5C 261.784,493.678 259.117,494.178 256.5,495C 259.167,497 261.833,499 264.5,501C 262.63,504.061 261.963,507.227 262.5,510.5C 263.183,510.137 263.85,509.804 264.5,509.5C 264.5,521.5 264.5,533.5 264.5,545.5C 261.615,545.194 258.948,545.527 256.5,546.5C 258.978,548.803 261.645,550.969 264.5,553C 262.829,556.002 261.996,559.169 262,562.5C 262.671,561.748 263.504,561.414 264.5,561.5C 264.5,573.5 264.5,585.5 264.5,597.5C 264.167,597.5 263.833,597.5 263.5,597.5C 261.076,597.192 258.743,597.526 256.5,598.5C 256.624,599.107 256.957,599.44 257.5,599.5C 259.834,601.334 262.168,603.167 264.5,605C 262.822,608.019 261.989,611.185 262,614.5C 262.383,613.944 262.883,613.611 263.5,613.5C 264.495,625.322 264.828,637.322 264.5,649.5C 261.482,649.335 258.482,649.502 255.5,650C 258.519,652.358 261.519,654.691 264.5,657C 262.822,660.019 261.989,663.185 262,666.5C 262.383,665.944 262.883,665.611 263.5,665.5C 264.486,669.97 264.819,674.637 264.5,679.5C 260.958,679.187 257.625,679.521 254.5,680.5C 240.841,681.073 227.174,681.406 213.5,681.5C 213.5,676.5 213.5,671.5 213.5,666.5C 214.496,666.414 215.329,666.748 216,667.5C 216.167,667 216.333,666.5 216.5,666C 212.761,659.81 214.094,655.31 220.5,652.5C 221.289,652.217 221.956,651.717 222.5,651C 219.518,650.502 216.518,650.335 213.5,650.5C 213.5,638.5 213.5,626.5 213.5,614.5C 214.496,614.414 215.329,614.748 216,615.5C 216.004,612.169 215.171,609.002 213.5,606C 216.167,604 218.833,602 221.5,600C 217.975,599.821 214.641,599.321 211.5,598.5C 213.479,586.88 214.146,574.88 213.5,562.5C 214.496,562.414 215.329,562.748 216,563.5C 215.951,560.655 215.451,557.822 214.5,555C 216.128,552.039 218.461,549.705 221.5,548C 217.975,547.821 214.641,547.321 211.5,546.5C 213.479,534.88 214.146,522.88 213.5,510.5C 214.824,511.85 215.824,511.683 216.5,510C 214.775,506.907 214.442,503.74 215.5,500.5C 217.359,498.808 219.359,497.308 221.5,496C 218.854,495.503 216.187,495.336 213.5,495.5C 213.5,483.167 213.5,470.833 213.5,458.5C 214.824,459.85 215.824,459.683 216.5,458C 215.139,455.27 214.639,452.437 215,449.5C 217.074,447.548 219.241,445.715 221.5,444C 218.854,443.503 216.187,443.336 213.5,443.5C 213.799,435.747 213.466,428.08 212.5,420.5C 229.827,419.884 247.16,419.551 264.5,419.5 Z"/></g>
<g><path style="opacity:0.999" fill="#0322a0" d="M 212.5,420.5 C 213.466,428.08 213.799,435.747 213.5,443.5C 212.624,443.631 211.957,443.298 211.5,442.5C 210.785,439.291 209.618,436.291 208,433.5C 206.735,436.461 205.569,439.461 204.5,442.5C 201.215,443.324 197.882,443.824 194.5,444C 197.312,445.977 199.978,448.144 202.5,450.5C 200.92,453.723 200.086,457.056 200,460.5C 202.695,458.306 205.528,456.306 208.5,454.5C 210.21,455.887 211.877,457.221 213.5,458.5C 213.5,470.833 213.5,483.167 213.5,495.5C 212.503,495.53 211.836,495.03 211.5,494C 210.715,490.971 209.549,488.138 208,485.5C 206.735,488.461 205.569,491.461 204.5,494.5C 201.215,495.324 197.882,495.824 194.5,496C 197.336,498.007 200.003,500.174 202.5,502.5C 200.92,505.723 200.086,509.056 200,512.5C 202.505,510.251 205.172,508.251 208,506.5C 210.005,507.682 211.838,509.015 213.5,510.5C 214.146,522.88 213.479,534.88 211.5,546.5C 210.821,543.293 209.654,540.293 208,537.5C 206.735,540.461 205.569,543.461 204.5,546.5C 201.215,547.324 197.882,547.824 194.5,548C 197.336,550.007 200.003,552.174 202.5,554.5C 200.92,557.723 200.086,561.056 200,564.5C 202.505,562.251 205.172,560.251 208,558.5C 210.15,559.483 211.983,560.816 213.5,562.5C 214.146,574.88 213.479,586.88 211.5,598.5C 210.821,595.293 209.654,592.293 208,589.5C 206.735,592.461 205.569,595.461 204.5,598.5C 201.215,599.324 197.882,599.824 194.5,600C 197.167,602 199.833,604 202.5,606C 201.029,609.398 200.196,612.898 200,616.5C 202.505,614.251 205.172,612.251 208,610.5C 210.15,611.483 211.983,612.816 213.5,614.5C 213.5,626.5 213.5,638.5 213.5,650.5C 212.833,650.5 212.167,650.5 211.5,650.5C 210.821,647.293 209.654,644.293 208,641.5C 206.735,644.461 205.569,647.461 204.5,650.5C 201.215,651.324 197.882,651.824 194.5,652C 197.167,654 199.833,656 202.5,658C 200.791,661.336 199.957,664.836 200,668.5C 202.148,665.764 204.814,663.764 208,662.5C 210.505,662.994 212.339,664.328 213.5,666.5C 213.5,671.5 213.5,676.5 213.5,681.5C 204.5,681.5 195.5,681.5 186.5,681.5C 186.826,621.792 186.492,562.125 185.5,502.5C 185.058,481.455 185.558,460.455 187,439.5C 191.36,427.643 199.86,421.309 212.5,420.5 Z"/></g>
<g><path style="opacity:1" fill="#d02626" d="M 842.5,418.5 C 841.521,430.753 841.187,443.087 841.5,455.5C 834.564,456.627 827.564,457.294 820.5,457.5C 820.5,445.5 820.5,433.5 820.5,421.5C 821.492,421.672 822.158,421.338 822.5,420.5C 829.239,420.488 835.905,419.821 842.5,418.5 Z"/></g>
<g><path style="opacity:1" fill="#ce2625" d="M 899.5,419.5 C 900.391,420.11 901.391,420.443 902.5,420.5C 907.692,423.019 911.026,427.019 912.5,432.5C 912.5,441.167 912.5,449.833 912.5,458.5C 912.5,461.5 912.5,464.5 912.5,467.5C 910.912,464.242 908.579,461.575 905.5,459.5C 903.491,457.935 901.157,456.935 898.5,456.5C 898.5,456.167 898.5,455.833 898.5,455.5C 899.495,443.678 899.828,431.678 899.5,419.5 Z"/></g>
<g><path style="opacity:1" fill="#e7e8f0" d="M 393.5,423.5 C 395.472,426.084 396.472,429.084 396.5,432.5C 399.85,432.335 403.183,432.502 406.5,433C 404.1,435.4 401.767,437.733 399.5,440C 401.178,443.019 402.011,446.185 402,449.5C 399.485,447.577 396.818,445.91 394,444.5C 390.814,445.764 388.148,447.764 386,450.5C 385.74,447.423 386.24,444.423 387.5,441.5C 385.463,438.637 382.796,436.47 379.5,435C 383.17,434.452 386.837,433.952 390.5,433.5C 391.101,430.032 392.101,426.699 393.5,423.5 Z"/></g>
<g><path style="opacity:1" fill="#dd302f" d="M 820.5,421.5 C 820.5,433.5 820.5,445.5 820.5,457.5C 820.5,457.833 820.5,458.167 820.5,458.5C 726.542,474.04 632.542,489.373 538.5,504.5C 538.5,492.167 538.5,479.833 538.5,467.5C 632.517,452.297 726.517,436.964 820.5,421.5 Z"/></g>
<g><path style="opacity:1" fill="#dfe0ea" d="M 323.5,454.5 C 324.162,451.852 324.829,449.185 325.5,446.5C 323.631,443.887 321.297,441.721 318.5,440C 320.518,439.495 322.518,438.995 324.5,438.5C 325.978,438.762 327.311,438.429 328.5,437.5C 329.215,434.291 330.382,431.291 332,428.5C 333.171,431.35 334.338,434.184 335.5,437C 338.833,437.333 342.167,437.667 345.5,438C 342.537,439.961 339.871,442.294 337.5,445C 339.171,448.002 340.004,451.169 340,454.5C 337.414,452.455 334.58,450.789 331.5,449.5C 329.144,451.69 326.644,453.69 324,455.5C 323.601,455.272 323.435,454.938 323.5,454.5 Z"/></g>
<g><path style="opacity:1" fill="#dbdce5" d="M 264.5,457.5 C 263.85,457.804 263.183,458.137 262.5,458.5C 261.963,455.227 262.63,452.061 264.5,449C 261.645,446.969 258.978,444.803 256.5,442.5C 259.833,442.5 263.167,442.5 266.5,442.5C 267.16,438.687 268.326,435.021 270,431.5C 271.265,434.461 272.431,437.461 273.5,440.5C 276.785,441.324 280.118,441.824 283.5,442C 280.517,443.984 277.85,446.317 275.5,449C 277.355,451.921 278.188,455.087 278,458.5C 275.333,456.5 272.667,454.5 270,452.5C 267.809,453.833 265.976,455.5 264.5,457.5 Z"/></g>
<g><path style="opacity:1" fill="#d4d5de" d="M 213.5,443.5 C 216.187,443.336 218.854,443.503 221.5,444C 219.241,445.715 217.074,447.548 215,449.5C 214.639,452.437 215.139,455.27 216.5,458C 215.824,459.683 214.824,459.85 213.5,458.5C 211.877,457.221 210.21,455.887 208.5,454.5C 205.528,456.306 202.695,458.306 200,460.5C 200.086,457.056 200.92,453.723 202.5,450.5C 199.978,448.144 197.312,445.977 194.5,444C 197.882,443.824 201.215,443.324 204.5,442.5C 205.569,439.461 206.735,436.461 208,433.5C 209.618,436.291 210.785,439.291 211.5,442.5C 211.957,443.298 212.624,443.631 213.5,443.5 Z"/></g>
<g><path style="opacity:1" fill="#ebecf5" d="M 485.5,438.5 C 487.956,440.818 489.289,443.818 489.5,447.5C 500.65,445.921 501.816,447.921 493,453.5C 492.897,456.994 493.73,460.327 495.5,463.5C 495.167,463.833 494.833,464.167 494.5,464.5C 491.833,462.833 489.167,461.167 486.5,459.5C 483.833,461.833 481.167,464.167 478.5,466.5C 478.167,466.167 477.833,465.833 477.5,465.5C 479.08,462.277 479.914,458.944 480,455.5C 477.417,454.126 474.917,452.626 472.5,451C 475.833,450.333 479.167,449.667 482.5,449C 484.208,445.707 485.208,442.207 485.5,438.5 Z"/></g>
<g><path style="opacity:1" fill="#e7e9f2" d="M 413.5,460.5 C 412.942,459.21 411.942,458.377 410.5,458C 410.728,457.601 411.062,457.435 411.5,457.5C 414.833,457.167 418.167,456.833 421.5,456.5C 423.108,443.97 425.108,443.637 427.5,455.5C 431.163,454.888 434.83,454.721 438.5,455C 435.601,457.277 432.934,459.777 430.5,462.5C 432.08,465.723 432.914,469.056 433,472.5C 430.333,470.5 427.667,468.5 425,466.5C 422.205,468.293 419.705,470.46 417.5,473C 416.833,473.667 416.167,473.667 415.5,473C 416.792,470.291 417.792,467.458 418.5,464.5C 417.85,461.996 416.183,460.663 413.5,460.5 Z"/></g>
<g><path style="opacity:1" fill="#e3e5ed" d="M 358.5,476.5 C 357.102,478.109 355.435,478.942 353.5,479C 355.378,475.709 356.212,472.209 356,468.5C 347.351,463.424 348.518,461.424 359.5,462.5C 359.5,461.5 359.5,460.5 359.5,459.5C 360.558,457.192 361.724,454.858 363,452.5C 364.171,455.35 365.338,458.184 366.5,461C 369.856,461.215 373.189,461.215 376.5,461C 373.728,463.688 371.062,466.354 368.5,469C 370.178,472.019 371.011,475.185 371,478.5C 368.333,476.5 365.667,474.5 363,472.5C 361.333,473.733 359.833,475.067 358.5,476.5 Z"/></g>
<g><path style="opacity:1" fill="#d9d9d9" d="M 853.5,454.5 C 854.167,454.5 854.833,454.5 855.5,454.5C 859.5,454.5 863.5,454.5 867.5,454.5C 867.5,466.5 867.5,478.5 867.5,490.5C 865.585,490.216 863.919,490.549 862.5,491.5C 861.5,491.5 860.5,491.5 859.5,491.5C 856.193,492.051 852.86,492.384 849.5,492.5C 850.568,491.566 851.901,491.232 853.5,491.5C 853.5,479.167 853.5,466.833 853.5,454.5 Z"/></g>
<g><path style="opacity:1" fill="#c8c5c5" d="M 855.5,454.5 C 858.962,453.518 862.629,453.185 866.5,453.5C 877.218,453.425 887.885,454.091 898.5,455.5C 898.5,455.833 898.5,456.167 898.5,456.5C 897.5,456.5 896.5,456.5 895.5,456.5C 895.5,468.5 895.5,480.5 895.5,492.5C 894.833,492.5 894.167,492.5 893.5,492.5C 883.198,491.6 872.865,491.267 862.5,491.5C 863.919,490.549 865.585,490.216 867.5,490.5C 867.5,478.5 867.5,466.5 867.5,454.5C 863.5,454.5 859.5,454.5 855.5,454.5 Z"/></g>
<g><path style="opacity:1" fill="#edebeb" d="M 853.5,454.5 C 853.5,466.833 853.5,479.167 853.5,491.5C 851.901,491.232 850.568,491.566 849.5,492.5C 843.762,492.623 838.096,493.29 832.5,494.5C 829.167,494.833 825.833,495.167 822.5,495.5C 823.146,482.788 822.48,470.455 820.5,458.5C 820.5,458.167 820.5,457.833 820.5,457.5C 827.564,457.294 834.564,456.627 841.5,455.5C 845.534,455.495 849.534,455.162 853.5,454.5 Z"/></g>
<g><path style="opacity:1" fill="#dcdde7" d="M 300.5,456.5 C 302.105,459.12 303.438,461.953 304.5,465C 307.833,465.333 311.167,465.667 314.5,466C 311.833,468.333 309.167,470.667 306.5,473C 308.171,476.002 309.004,479.169 309,482.5C 306.485,480.577 303.818,478.91 301,477.5C 298.172,479.251 295.505,481.251 293,483.5C 293.333,479.833 293.667,476.167 294,472.5C 291.5,470.667 289,468.833 286.5,467C 290.211,466.825 293.878,466.325 297.5,465.5C 298.659,462.519 299.659,459.519 300.5,456.5 Z"/></g>
<g><path style="opacity:1" fill="#e2e0e0" d="M 898.5,456.5 C 901.157,456.935 903.491,457.935 905.5,459.5C 904.505,471.322 904.172,483.322 904.5,495.5C 901.285,495.095 898.285,494.095 895.5,492.5C 895.5,480.5 895.5,468.5 895.5,456.5C 896.5,456.5 897.5,456.5 898.5,456.5 Z"/></g>
<g><path style="opacity:0.068" fill="#000000" d="M 912.5,458.5 C 917.467,459.727 922.467,460.894 927.5,462C 928.38,463.356 928.714,464.856 928.5,466.5C 934.962,467.82 941.295,469.653 947.5,472C 947.846,475.638 949.68,478.138 953,479.5C 954.285,483.172 954.452,486.839 953.5,490.5C 952.522,490.023 951.689,489.357 951,488.5C 950.17,493.143 949.503,497.81 949,502.5C 945.203,495.583 943.536,496.25 944,504.5C 942.667,503.167 941.333,501.833 940,500.5C 939.667,503.5 939.333,506.5 939,509.5C 938.163,507.156 936.829,505.156 935,503.5C 934.167,647.168 934.333,790.834 935.5,934.5C 937.197,933.636 938.363,932.303 939,930.5C 939.182,933.226 939.682,935.893 940.5,938.5C 941.5,937.833 942.5,937.167 943.5,936.5C 944.314,938.766 944.814,941.1 945,943.5C 946.512,942.743 947.846,941.743 949,940.5C 949.417,944.921 950.25,949.254 951.5,953.5C 953.462,952.146 954.462,952.813 954.5,955.5C 954.064,958.179 953.564,960.845 953,963.5C 951.644,964.38 950.144,964.714 948.5,964.5C 948.714,966.144 948.38,967.644 947.5,969C 941.175,969.5 934.842,969.666 928.5,969.5C 928.5,970.833 928.5,972.167 928.5,973.5C 906.093,972.883 883.759,971.216 861.5,968.5C 858.683,969.237 855.85,969.904 853,970.5C 768.834,959.333 684.667,948.167 600.5,937C 491.078,922.976 381.411,913.809 271.5,909.5C 337.505,909.619 403.505,909.119 469.5,908C 513.689,907.338 557.689,905.838 601.5,903.5C 630.712,902.879 659.712,901.213 688.5,898.5C 724.827,896.668 760.827,893.001 796.5,887.5C 826.504,884.636 855.504,877.97 883.5,867.5C 894.393,864.228 903.393,858.228 910.5,849.5C 910.333,870.503 910.5,891.503 911,912.5C 911.5,890.836 911.667,869.169 911.5,847.5C 911.517,845.435 911.85,843.435 912.5,841.5C 912.5,829.167 912.5,816.833 912.5,804.5C 912.5,791.5 912.5,778.5 912.5,765.5C 912.5,753.833 912.5,742.167 912.5,730.5C 912.5,717.5 912.5,704.5 912.5,691.5C 912.5,679.833 912.5,668.167 912.5,656.5C 912.5,643.167 912.5,629.833 912.5,616.5C 912.5,604.833 912.5,593.167 912.5,581.5C 912.5,568.5 912.5,555.5 912.5,542.5C 912.5,530.833 912.5,519.167 912.5,507.5C 912.5,494.167 912.5,480.833 912.5,467.5C 912.5,464.5 912.5,461.5 912.5,458.5 Z M 929.5,506.5 C 931.173,507.343 932.34,508.676 933,510.5C 933.667,649.5 933.667,788.5 933,927.5C 932.333,928.833 931.333,929.833 930,930.5C 929.5,789.167 929.333,647.834 929.5,506.5 Z M 925.5,510.5 C 926.966,511.347 927.8,512.68 928,514.5C 927.333,650.5 927.333,786.5 928,922.5C 927.581,923.672 926.915,924.672 926,925.5C 925.5,787.167 925.333,648.834 925.5,510.5 Z M 915.5,516.5 C 916.222,516.918 916.722,517.584 917,518.5C 916.192,646.497 916.358,774.497 917.5,902.5C 917.641,907.34 917.141,912.007 916,916.5C 915.5,783.167 915.333,649.834 915.5,516.5 Z"/></g>
<g><path style="opacity:1" fill="#d7d8e1" d="M 238.5,458.5 C 240.198,461.231 241.531,464.231 242.5,467.5C 245.785,468.324 249.118,468.824 252.5,469C 250.241,470.715 248.074,472.548 246,474.5C 245.788,478.209 246.622,481.709 248.5,485C 244.946,484.13 241.779,482.297 239,479.5C 230.586,488.287 228.753,487.12 233.5,476C 230.833,474 228.167,472 225.5,470C 228.882,469.824 232.215,469.324 235.5,468.5C 236.505,465.154 237.505,461.821 238.5,458.5 Z"/></g>
<g><path style="opacity:1" fill="#fdfcfc" d="M 820.5,458.5 C 822.48,470.455 823.146,482.788 822.5,495.5C 751.707,506.491 681.04,518.325 610.5,531C 586.54,534.828 562.54,538.328 538.5,541.5C 538.5,529.167 538.5,516.833 538.5,504.5C 632.542,489.373 726.542,474.04 820.5,458.5 Z"/></g>
<g><path style="opacity:1" fill="#ebecf6" d="M 516.5,460.5 C 518.956,462.818 520.289,465.818 520.5,469.5C 524.204,469.276 527.871,469.11 531.5,469C 529.093,471.285 526.593,473.451 524,475.5C 523.947,478.202 524.447,480.869 525.5,483.5C 525.167,484.167 524.833,484.833 524.5,485.5C 522.167,484.167 519.833,482.833 517.5,481.5C 514.812,484.022 511.979,486.356 509,488.5C 508.833,488.167 508.667,487.833 508.5,487.5C 510.08,484.277 510.914,480.944 511,477.5C 500.976,472.779 501.809,470.612 513.5,471C 515.042,467.666 516.042,464.166 516.5,460.5 Z"/></g>
<g><path style="opacity:0.98" fill="#f6f4f4" d="M 905.5,459.5 C 908.579,461.575 910.912,464.242 912.5,467.5C 912.5,480.833 912.5,494.167 912.5,507.5C 911.26,504.976 910.093,502.309 909,499.5C 907.333,498.267 905.833,496.933 904.5,495.5C 904.172,483.322 904.505,471.322 905.5,459.5 Z"/></g>
<g><path style="opacity:1" fill="#e8eaf3" d="M 445.5,483.5 C 444.235,482.521 442.901,481.521 441.5,480.5C 442.689,479.571 444.022,479.238 445.5,479.5C 447.591,479.682 449.591,479.348 451.5,478.5C 453.028,475.25 454.361,471.917 455.5,468.5C 457.101,471.304 458.101,474.304 458.5,477.5C 462.225,477.405 465.891,477.238 469.5,477C 466.728,479.688 464.062,482.354 461.5,485C 462.78,488.152 463.613,491.319 464,494.5C 461.414,492.455 458.58,490.789 455.5,489.5C 452.759,491.953 449.925,494.286 447,496.5C 447.387,493.319 448.22,490.152 449.5,487C 448.928,484.926 447.595,483.76 445.5,483.5 Z"/></g>
<g><path style="opacity:1" fill="#e7e8f0" d="M 392.5,475.5 C 395.341,477.64 396.674,480.64 396.5,484.5C 399.85,484.335 403.183,484.502 406.5,485C 404.125,487.176 401.792,489.343 399.5,491.5C 401.08,494.723 401.914,498.056 402,501.5C 399.589,499.422 396.922,497.755 394,496.5C 391.073,497.717 388.573,499.55 386.5,502C 385.833,502.667 385.167,502.667 384.5,502C 386.378,498.709 387.212,495.209 387,491.5C 384.417,490.126 381.917,488.626 379.5,487C 383.145,486.281 386.812,485.781 390.5,485.5C 391.374,482.211 392.041,478.877 392.5,475.5 Z"/></g>
<g><path style="opacity:1" fill="#e0e1ea" d="M 323.5,506.5 C 324.548,503.211 325.048,499.878 325,496.5C 322.948,494.942 320.781,493.608 318.5,492.5C 320.5,491.833 322.5,491.167 324.5,490.5C 325.978,490.762 327.311,490.429 328.5,489.5C 329.215,486.291 330.382,483.291 332,480.5C 333.171,483.35 334.338,486.184 335.5,489C 338.833,489.333 342.167,489.667 345.5,490C 342.537,491.961 339.871,494.294 337.5,497C 339.171,500.002 340.004,503.169 340,506.5C 337.485,504.577 334.818,502.91 332,501.5C 329.172,503.251 326.505,505.251 324,507.5C 323.601,507.272 323.435,506.938 323.5,506.5 Z"/></g>
<g><path style="opacity:1" fill="#dadbe4" d="M 264.5,509.5 C 263.85,509.804 263.183,510.137 262.5,510.5C 261.963,507.227 262.63,504.061 264.5,501C 261.833,499 259.167,497 256.5,495C 259.117,494.178 261.784,493.678 264.5,493.5C 265.376,493.631 266.043,493.298 266.5,492.5C 267.569,489.461 268.735,486.461 270,483.5C 271.265,486.461 272.431,489.461 273.5,492.5C 276.785,493.324 280.118,493.824 283.5,494C 280.688,495.977 278.022,498.144 275.5,500.5C 280.28,510.742 278.446,512.075 270,504.5C 267.809,505.833 265.976,507.5 264.5,509.5 Z"/></g>
<g><path style="opacity:1" fill="#d6d7de" d="M 213.5,495.5 C 216.187,495.336 218.854,495.503 221.5,496C 219.359,497.308 217.359,498.808 215.5,500.5C 214.442,503.74 214.775,506.907 216.5,510C 215.824,511.683 214.824,511.85 213.5,510.5C 211.838,509.015 210.005,507.682 208,506.5C 205.172,508.251 202.505,510.251 200,512.5C 200.086,509.056 200.92,505.723 202.5,502.5C 200.003,500.174 197.336,498.007 194.5,496C 197.882,495.824 201.215,495.324 204.5,494.5C 205.569,491.461 206.735,488.461 208,485.5C 209.549,488.138 210.715,490.971 211.5,494C 211.836,495.03 212.503,495.53 213.5,495.5 Z"/></g>
<g><path style="opacity:1" fill="#697ac7" d="M 324.5,490.5 C 322.5,491.167 320.5,491.833 318.5,492.5C 317.957,492.44 317.624,492.107 317.5,491.5C 319.743,490.526 322.076,490.192 324.5,490.5 Z"/></g>
<g><path style="opacity:1" fill="#aa0c0a" d="M 859.5,491.5 C 860.5,491.5 861.5,491.5 862.5,491.5C 872.865,491.267 883.198,491.6 893.5,492.5C 893.5,504.833 893.5,517.167 893.5,529.5C 882.198,528.59 870.864,528.257 859.5,528.5C 859.5,516.167 859.5,503.833 859.5,491.5 Z"/></g>
<g><path style="opacity:1" fill="#eaebf5" d="M 485.5,490.5 C 487.956,492.818 489.289,495.818 489.5,499.5C 492.85,499.335 496.183,499.502 499.5,500C 497.1,502.4 494.767,504.733 492.5,507C 493.401,509.871 494.401,512.704 495.5,515.5C 495.167,515.833 494.833,516.167 494.5,516.5C 491.833,514.833 489.167,513.167 486.5,511.5C 483.812,514.022 480.979,516.356 478,518.5C 477.833,518.167 477.667,517.833 477.5,517.5C 479.08,514.277 479.914,510.944 480,507.5C 477.417,506.126 474.917,504.626 472.5,503C 475.711,501.847 479.044,501.18 482.5,501C 484.042,497.666 485.042,494.166 485.5,490.5 Z"/></g>
<g><path style="opacity:1" fill="#c81f1f" d="M 859.5,491.5 C 859.5,503.833 859.5,516.167 859.5,528.5C 855.629,528.185 851.962,528.518 848.5,529.5C 843.167,529.833 837.833,530.167 832.5,530.5C 832.5,518.5 832.5,506.5 832.5,494.5C 838.096,493.29 843.762,492.623 849.5,492.5C 852.86,492.384 856.193,492.051 859.5,491.5 Z"/></g>
<g><path style="opacity:1" fill="#c92221" d="M 893.5,492.5 C 894.167,492.5 894.833,492.5 895.5,492.5C 898.285,494.095 901.285,495.095 904.5,495.5C 905.833,496.933 907.333,498.267 909,499.5C 910.093,502.309 911.26,504.976 912.5,507.5C 912.5,519.167 912.5,530.833 912.5,542.5C 911.266,538.264 908.599,535.264 904.5,533.5C 902.208,531.733 899.542,530.733 896.5,530.5C 895.791,529.596 894.791,529.263 893.5,529.5C 893.5,517.167 893.5,504.833 893.5,492.5 Z"/></g>
<g><path style="opacity:1" fill="#dd302f" d="M 832.5,494.5 C 832.5,506.5 832.5,518.5 832.5,530.5C 829.316,531.323 825.983,531.99 822.5,532.5C 749.346,543.594 676.346,555.761 603.5,569C 581.885,572.577 560.218,575.743 538.5,578.5C 538.5,566.167 538.5,553.833 538.5,541.5C 562.54,538.328 586.54,534.828 610.5,531C 681.04,518.325 751.707,506.491 822.5,495.5C 825.833,495.167 829.167,494.833 832.5,494.5 Z"/></g>
<g><path style="opacity:1" fill="#e8eaf2" d="M 413.5,511.5 C 412.833,511.167 412.167,510.833 411.5,510.5C 414.544,508.989 417.878,508.322 421.5,508.5C 423.108,495.97 425.108,495.637 427.5,507.5C 431.163,506.888 434.83,506.721 438.5,507C 435.355,508.978 432.688,511.478 430.5,514.5C 435.333,524.988 433.333,526.322 424.5,518.5C 422.016,520.483 419.683,522.65 417.5,525C 416.833,525.667 416.167,525.667 415.5,525C 416.804,522.125 417.804,519.125 418.5,516C 417.28,514.048 415.613,512.548 413.5,511.5 Z"/></g>
<g><path style="opacity:1" fill="#e4e5ed" d="M 358.5,528.5 C 357.102,530.109 355.435,530.942 353.5,531C 355.378,527.709 356.212,524.209 356,520.5C 353.5,518.667 351,516.833 348.5,515C 352.152,514.501 355.818,514.335 359.5,514.5C 359.5,513.5 359.5,512.5 359.5,511.5C 360.661,508.898 361.828,506.231 363,503.5C 363.975,506.76 365.142,509.927 366.5,513C 369.907,513.482 373.24,513.482 376.5,513C 373.958,515.711 371.291,518.211 368.5,520.5C 373.389,530.774 371.556,532.108 363,524.5C 361.333,525.733 359.833,527.067 358.5,528.5 Z"/></g>
<g><path style="opacity:1" fill="#dcdde7" d="M 300.5,508.5 C 302.105,511.12 303.438,513.953 304.5,517C 307.833,517.333 311.167,517.667 314.5,518C 311.833,520.333 309.167,522.667 306.5,525C 308.171,528.002 309.004,531.169 309,534.5C 306.485,532.577 303.818,530.91 301,529.5C 298.172,531.251 295.505,533.251 293,535.5C 293.333,531.833 293.667,528.167 294,524.5C 291.5,522.667 289,520.833 286.5,519C 290.211,518.825 293.878,518.325 297.5,517.5C 298.351,514.422 299.351,511.422 300.5,508.5 Z"/></g>
<g><path style="opacity:1" fill="#d8d9e1" d="M 226.5,522.5 C 229.5,521.833 232.5,521.167 235.5,520.5C 236.358,517.093 237.525,513.76 239,510.5C 240.265,513.461 241.431,516.461 242.5,519.5C 245.785,520.324 249.118,520.824 252.5,521C 250.241,522.715 248.074,524.548 246,526.5C 245.639,529.437 246.139,532.27 247.5,535C 247.167,535.5 246.833,536 246.5,536.5C 243.914,534.957 241.414,533.291 239,531.5C 230.586,540.287 228.753,539.12 233.5,528C 231.136,526.158 228.803,524.325 226.5,522.5 Z"/></g>
<g><path style="opacity:1" fill="#eaecf6" d="M 516.5,512.5 C 518.956,514.818 520.289,517.818 520.5,521.5C 524.163,520.888 527.83,520.721 531.5,521C 528.72,522.812 526.22,524.979 524,527.5C 523.947,530.202 524.447,532.869 525.5,535.5C 525.167,536.167 524.833,536.833 524.5,537.5C 522.33,535.914 519.996,534.58 517.5,533.5C 514.759,535.953 511.925,538.286 509,540.5C 509.489,537.176 510.323,533.843 511.5,530.5C 509.044,528.433 506.378,526.599 503.5,525C 506.711,523.847 510.044,523.18 513.5,523C 514.801,519.596 515.801,516.096 516.5,512.5 Z"/></g>
<g><path style="opacity:1" fill="#7988c5" d="M 235.5,520.5 C 232.5,521.167 229.5,521.833 226.5,522.5C 225.957,522.44 225.624,522.107 225.5,521.5C 228.768,520.513 232.102,520.18 235.5,520.5 Z"/></g>
<g><path style="opacity:1" fill="#e9eaf3" d="M 445.5,535.5 C 444.064,534.571 442.731,533.405 441.5,532C 442.793,531.51 444.127,531.343 445.5,531.5C 447.792,531.756 449.959,531.423 452,530.5C 454.012,518.087 456.178,517.754 458.5,529.5C 462.225,529.405 465.891,529.238 469.5,529C 466.728,531.688 464.062,534.354 461.5,537C 462.78,540.152 463.613,543.319 464,546.5C 461.414,544.455 458.58,542.789 455.5,541.5C 453.144,543.69 450.644,545.69 448,547.5C 447.639,544.563 448.139,541.73 449.5,539C 448.928,536.926 447.595,535.76 445.5,535.5 Z"/></g>
<g><path style="opacity:1" fill="#e7e8f0" d="M 392.5,527.5 C 393.376,527.369 394.043,527.702 394.5,528.5C 395.407,531.057 396.407,533.557 397.5,536C 400.907,536.482 404.24,536.482 407.5,536C 404.958,538.711 402.291,541.211 399.5,543.5C 401.08,546.723 401.914,550.056 402,553.5C 399.333,551.5 396.667,549.5 394,547.5C 391.205,549.293 388.705,551.46 386.5,554C 385.833,554.667 385.167,554.667 384.5,554C 386.378,550.709 387.212,547.209 387,543.5C 384.833,542 382.667,540.5 380.5,539C 383.757,537.957 387.09,537.457 390.5,537.5C 391.374,534.211 392.041,530.877 392.5,527.5 Z"/></g>
<g><path style="opacity:1" fill="#cecece" d="M 848.5,529.5 C 851.962,528.518 855.629,528.185 859.5,528.5C 870.864,528.257 882.198,528.59 893.5,529.5C 894.791,529.263 895.791,529.596 896.5,530.5C 895.505,542.655 895.171,554.989 895.5,567.5C 885.97,565.717 876.303,565.05 866.5,565.5C 862.119,565.372 857.785,565.705 853.5,566.5C 853.5,554.167 853.5,541.833 853.5,529.5C 851.833,529.5 850.167,529.5 848.5,529.5 Z"/></g>
<g><path style="opacity:0.004" fill="#000000" d="M 938.5,530.5 C 939.666,656.666 939.833,782.999 939,909.5C 938.5,783.167 938.333,656.834 938.5,530.5 Z"/></g>
<g><path style="opacity:1" fill="#edecec" d="M 848.5,529.5 C 850.167,529.5 851.833,529.5 853.5,529.5C 853.5,541.833 853.5,554.167 853.5,566.5C 850.391,566.264 847.391,566.597 844.5,567.5C 837.81,567.948 831.143,568.615 824.5,569.5C 823.833,569.5 823.167,569.5 822.5,569.5C 822.5,557.167 822.5,544.833 822.5,532.5C 825.983,531.99 829.316,531.323 832.5,530.5C 837.833,530.167 843.167,529.833 848.5,529.5 Z"/></g>
<g><path style="opacity:1" fill="#e1e0e0" d="M 896.5,530.5 C 899.542,530.733 902.208,531.733 904.5,533.5C 904.5,545.833 904.5,558.167 904.5,570.5C 902.299,569.434 899.965,568.767 897.5,568.5C 897.158,567.662 896.492,567.328 895.5,567.5C 895.171,554.989 895.505,542.655 896.5,530.5 Z"/></g>
<g><path style="opacity:1" fill="#dee0ea" d="M 324.5,559.5 C 323.876,559.083 323.543,558.416 323.5,557.5C 324.76,554.577 325.26,551.577 325,548.5C 322.833,547 320.667,545.5 318.5,544C 320.25,542.681 322.25,542.181 324.5,542.5C 325.833,542.5 327.167,542.5 328.5,542.5C 329.98,530.417 332.313,529.917 335.5,541C 338.833,541.333 342.167,541.667 345.5,542C 342.517,543.984 339.85,546.317 337.5,549C 339.178,552.019 340.011,555.185 340,558.5C 337.485,556.577 334.818,554.91 332,553.5C 329.174,555.154 326.674,557.154 324.5,559.5 Z"/></g>
<g><path style="opacity:1" fill="#fdfbfb" d="M 822.5,532.5 C 822.5,544.833 822.5,557.167 822.5,569.5C 727.927,585.725 633.261,601.391 538.5,616.5C 538.5,603.833 538.5,591.167 538.5,578.5C 560.218,575.743 581.885,572.577 603.5,569C 676.346,555.761 749.346,543.594 822.5,532.5 Z"/></g>
<g><path style="opacity:1" fill="#dddee5" d="M 264.5,561.5 C 263.504,561.414 262.671,561.748 262,562.5C 261.996,559.169 262.829,556.002 264.5,553C 261.645,550.969 258.978,548.803 256.5,546.5C 259.518,546.665 262.518,546.498 265.5,546C 267.191,542.599 268.691,539.099 270,535.5C 271.265,538.461 272.431,541.461 273.5,544.5C 276.785,545.324 280.118,545.824 283.5,546C 280.664,548.007 277.997,550.174 275.5,552.5C 280.28,562.742 278.446,564.075 270,556.5C 267.672,557.664 265.838,559.33 264.5,561.5 Z"/></g>
<g><path style="opacity:1" fill="#d6d7de" d="M 211.5,546.5 C 214.641,547.321 217.975,547.821 221.5,548C 218.461,549.705 216.128,552.039 214.5,555C 215.451,557.822 215.951,560.655 216,563.5C 215.329,562.748 214.496,562.414 213.5,562.5C 211.983,560.816 210.15,559.483 208,558.5C 205.172,560.251 202.505,562.251 200,564.5C 200.086,561.056 200.92,557.723 202.5,554.5C 200.003,552.174 197.336,550.007 194.5,548C 197.882,547.824 201.215,547.324 204.5,546.5C 205.569,543.461 206.735,540.461 208,537.5C 209.654,540.293 210.821,543.293 211.5,546.5 Z"/></g>
<g><path style="opacity:0.736" fill="#f7f6f6" d="M 904.5,533.5 C 908.599,535.264 911.266,538.264 912.5,542.5C 912.5,555.5 912.5,568.5 912.5,581.5C 911.451,576.766 908.784,573.099 904.5,570.5C 904.5,558.167 904.5,545.833 904.5,533.5 Z"/></g>
<g><path style="opacity:1" fill="#eaecf5" d="M 485.5,542.5 C 487.956,544.818 489.289,547.818 489.5,551.5C 502.211,548.5 503.378,550.5 493,557.5C 492.947,560.202 493.447,562.869 494.5,565.5C 494.167,566.167 493.833,566.833 493.5,567.5C 491.167,566.167 488.833,564.833 486.5,563.5C 483.759,565.953 480.925,568.286 478,570.5C 478.489,567.176 479.323,563.843 480.5,560.5C 478.14,558.147 475.473,556.147 472.5,554.5C 475.785,553.676 479.118,553.176 482.5,553C 484.042,549.666 485.042,546.166 485.5,542.5 Z"/></g>
<g><path style="opacity:1" fill="#e6e8f1" d="M 413.5,563.5 C 409.703,562.089 409.703,561.089 413.5,560.5C 416.167,560.5 418.833,560.5 421.5,560.5C 423.417,546.832 425.417,546.499 427.5,559.5C 431.146,558.717 434.812,558.55 438.5,559C 435.355,560.978 432.688,563.478 430.5,566.5C 435.389,576.774 433.556,578.108 425,570.5C 422.205,572.293 419.705,574.46 417.5,577C 416.833,577.667 416.167,577.667 415.5,577C 416.804,574.125 417.804,571.125 418.5,568C 417.28,566.048 415.613,564.548 413.5,563.5 Z"/></g>
<g><path style="opacity:1" fill="#e4e5ed" d="M 358.5,580.5 C 357.102,582.109 355.435,582.942 353.5,583C 355.378,579.709 356.212,576.209 356,572.5C 353.5,570.667 351,568.833 348.5,567C 352.152,566.501 355.818,566.335 359.5,566.5C 359.5,565.5 359.5,564.5 359.5,563.5C 360.661,560.898 361.828,558.231 363,555.5C 363.975,558.76 365.142,561.927 366.5,565C 369.811,564.785 373.144,564.785 376.5,565C 373.601,567.277 370.934,569.777 368.5,572.5C 373.389,582.774 371.556,584.108 363,576.5C 361.008,577.328 359.508,578.661 358.5,580.5 Z"/></g>
<g><path style="opacity:1" fill="#dddee8" d="M 300.5,560.5 C 302.105,563.12 303.438,565.953 304.5,569C 307.833,569.333 311.167,569.667 314.5,570C 311.537,571.961 308.871,574.294 306.5,577C 308.171,580.002 309.004,583.169 309,586.5C 306.485,584.577 303.818,582.91 301,581.5C 297.814,582.764 295.148,584.764 293,587.5C 293.333,583.833 293.667,580.167 294,576.5C 291.5,574.667 289,572.833 286.5,571C 290.211,570.825 293.878,570.325 297.5,569.5C 298.351,566.422 299.351,563.422 300.5,560.5 Z"/></g>
<g><path style="opacity:1" fill="#dadbe2" d="M 226.5,574.5 C 228.5,573.833 230.5,573.167 232.5,572.5C 233.675,572.719 234.675,572.386 235.5,571.5C 236.569,568.461 237.735,565.461 239,562.5C 240.265,565.461 241.431,568.461 242.5,571.5C 245.785,572.324 249.118,572.824 252.5,573C 249.688,574.977 247.022,577.144 244.5,579.5C 249.28,589.742 247.446,591.075 239,583.5C 236.333,585.5 233.667,587.5 231,589.5C 230.989,586.185 231.822,583.019 233.5,580C 231.168,578.167 228.834,576.334 226.5,574.5 Z"/></g>
<g><path style="opacity:1" fill="#edeef7" d="M 516.5,564.5 C 518.956,566.818 520.289,569.818 520.5,573.5C 524.185,573.105 527.852,572.938 531.5,573C 528.705,574.793 526.205,576.96 524,579.5C 523.947,582.202 524.447,584.869 525.5,587.5C 525.167,588.167 524.833,588.833 524.5,589.5C 522.33,587.914 519.996,586.58 517.5,585.5C 514.391,587.475 511.557,589.808 509,592.5C 509.489,589.176 510.323,585.843 511.5,582.5C 509.334,580.507 507.001,578.673 504.5,577C 507.639,575.982 510.805,575.149 514,574.5C 514.943,571.176 515.776,567.843 516.5,564.5 Z"/></g>
<g><path style="opacity:1" fill="#be1a19" d="M 866.5,565.5 C 866.5,577.833 866.5,590.167 866.5,602.5C 859.167,602.833 851.833,603.167 844.5,603.5C 844.5,591.5 844.5,579.5 844.5,567.5C 847.391,566.597 850.391,566.264 853.5,566.5C 857.785,565.705 862.119,565.372 866.5,565.5 Z"/></g>
<g><path style="opacity:1" fill="#a80908" d="M 866.5,565.5 C 876.303,565.05 885.97,565.717 895.5,567.5C 896.492,567.328 897.158,567.662 897.5,568.5C 896.505,580.322 896.172,592.322 896.5,604.5C 896.167,604.5 895.833,604.5 895.5,604.5C 888.38,603.072 881.047,602.406 873.5,602.5C 871.167,602.5 868.833,602.5 866.5,602.5C 866.5,590.167 866.5,577.833 866.5,565.5 Z"/></g>
<g><path style="opacity:1" fill="#cf2525" d="M 844.5,567.5 C 844.5,579.5 844.5,591.5 844.5,603.5C 844.5,603.833 844.5,604.167 844.5,604.5C 836.485,605.002 828.485,605.669 820.5,606.5C 820.5,594.5 820.5,582.5 820.5,570.5C 822.099,570.768 823.432,570.434 824.5,569.5C 831.143,568.615 837.81,567.948 844.5,567.5 Z"/></g>
<g><path style="opacity:1" fill="#7181c3" d="M 232.5,572.5 C 230.5,573.167 228.5,573.833 226.5,574.5C 225.711,574.217 225.044,573.717 224.5,573C 227.146,572.503 229.813,572.336 232.5,572.5 Z"/></g>
<g><path style="opacity:1" fill="#dd3030" d="M 822.5,569.5 C 823.167,569.5 823.833,569.5 824.5,569.5C 823.432,570.434 822.099,570.768 820.5,570.5C 820.5,582.5 820.5,594.5 820.5,606.5C 820.5,606.833 820.5,607.167 820.5,607.5C 810.812,608.419 801.146,609.586 791.5,611C 707.365,626.234 623.031,640.401 538.5,653.5C 538.5,641.167 538.5,628.833 538.5,616.5C 633.261,601.391 727.927,585.725 822.5,569.5 Z"/></g>
<g><path style="opacity:1" fill="#cf2625" d="M 897.5,568.5 C 899.965,568.767 902.299,569.434 904.5,570.5C 908.784,573.099 911.451,576.766 912.5,581.5C 912.5,593.167 912.5,604.833 912.5,616.5C 911.064,611.98 908.064,608.98 903.5,607.5C 901.429,606.055 899.096,605.055 896.5,604.5C 896.172,592.322 896.505,580.322 897.5,568.5 Z"/></g>
<g><path style="opacity:1" fill="#eaebf4" d="M 445.5,587.5 C 444.426,586.115 443.093,584.949 441.5,584C 442.793,583.51 444.127,583.343 445.5,583.5C 447.806,583.007 450.139,582.674 452.5,582.5C 454.063,570.042 456.063,569.708 458.5,581.5C 462.254,581.504 465.921,581.337 469.5,581C 467.093,583.285 464.593,585.451 462,587.5C 461.947,590.202 462.447,592.869 463.5,595.5C 463.167,596.167 462.833,596.833 462.5,597.5C 460.401,596.035 458.234,594.701 456,593.5C 452.656,595.345 449.656,597.678 447,600.5C 447.487,597.182 448.32,593.848 449.5,590.5C 448.9,588.532 447.567,587.532 445.5,587.5 Z"/></g>
<g><path style="opacity:1" fill="#e4e6ef" d="M 392.5,579.5 C 395.341,581.64 396.674,584.64 396.5,588.5C 400.131,587.588 403.797,587.421 407.5,588C 404.601,590.277 401.934,592.777 399.5,595.5C 404.389,605.774 402.556,607.108 394,599.5C 391.205,601.293 388.705,603.46 386.5,606C 385.833,606.667 385.167,606.667 384.5,606C 386.378,602.709 387.212,599.209 387,595.5C 384.586,593.709 382.086,592.043 379.5,590.5C 383.107,589.511 386.774,589.177 390.5,589.5C 391.167,586.167 391.833,582.833 392.5,579.5 Z"/></g>
<g><path style="opacity:1" fill="#e0e1ea" d="M 324.5,611.5 C 323.876,611.083 323.543,610.416 323.5,609.5C 324.76,606.577 325.26,603.577 325,600.5C 322.667,598.994 320.5,597.327 318.5,595.5C 320.396,594.534 322.396,594.201 324.5,594.5C 325.833,594.5 327.167,594.5 328.5,594.5C 329.98,582.417 332.313,581.917 335.5,593C 338.833,593.333 342.167,593.667 345.5,594C 342.517,595.984 339.85,598.317 337.5,601C 339.178,604.019 340.011,607.185 340,610.5C 337.589,608.422 334.922,606.755 332,605.5C 329.174,607.154 326.674,609.154 324.5,611.5 Z"/></g>
<g><path style="opacity:1" fill="#dedfe6" d="M 276.5,597.5 C 278.735,597.205 280.735,597.539 282.5,598.5C 280.161,600.507 277.828,602.507 275.5,604.5C 280.28,614.742 278.446,616.075 270,608.5C 267.648,610.03 265.481,611.697 263.5,613.5C 262.883,613.611 262.383,613.944 262,614.5C 261.989,611.185 262.822,608.019 264.5,605C 262.168,603.167 259.834,601.334 257.5,599.5C 259.5,598.833 261.5,598.167 263.5,597.5C 263.833,597.5 264.167,597.5 264.5,597.5C 265.376,597.631 266.043,597.298 266.5,596.5C 267.569,593.461 268.735,590.461 270,587.5C 271.265,590.461 272.431,593.461 273.5,596.5C 274.325,597.386 275.325,597.719 276.5,597.5 Z"/></g>
<g><path style="opacity:1" fill="#d6d7de" d="M 211.5,598.5 C 214.641,599.321 217.975,599.821 221.5,600C 218.833,602 216.167,604 213.5,606C 215.171,609.002 216.004,612.169 216,615.5C 215.329,614.748 214.496,614.414 213.5,614.5C 211.983,612.816 210.15,611.483 208,610.5C 205.172,612.251 202.505,614.251 200,616.5C 200.196,612.898 201.029,609.398 202.5,606C 199.833,604 197.167,602 194.5,600C 197.882,599.824 201.215,599.324 204.5,598.5C 205.569,595.461 206.735,592.461 208,589.5C 209.654,592.293 210.821,595.293 211.5,598.5 Z"/></g>
<g><path style="opacity:1" fill="#6777c4" d="M 276.5,597.5 C 278.966,596.366 281.633,596.199 284.5,597C 283.956,597.717 283.289,598.217 282.5,598.5C 280.735,597.539 278.735,597.205 276.5,597.5 Z"/></g>
<g><path style="opacity:1" fill="#ebecf5" d="M 485.5,594.5 C 487.956,596.818 489.289,599.818 489.5,603.5C 493.204,603.276 496.871,603.11 500.5,603C 498.093,605.285 495.593,607.451 493,609.5C 492.947,612.202 493.447,614.869 494.5,617.5C 494.167,618.167 493.833,618.833 493.5,619.5C 491.33,617.914 488.996,616.58 486.5,615.5C 483.391,617.475 480.557,619.808 478,622.5C 478.489,619.176 479.323,615.843 480.5,612.5C 478.334,610.507 476.001,608.673 473.5,607C 476.436,605.955 479.436,605.121 482.5,604.5C 483.907,601.279 484.907,597.945 485.5,594.5 Z"/></g>
<g><path style="opacity:1" fill="#808fca" d="M 263.5,597.5 C 261.5,598.167 259.5,598.833 257.5,599.5C 256.957,599.44 256.624,599.107 256.5,598.5C 258.743,597.526 261.076,597.192 263.5,597.5 Z"/></g>
<g><path style="opacity:1" fill="#c6c5c5" d="M 873.5,602.5 C 881.047,602.406 888.38,603.072 895.5,604.5C 893.52,616.455 892.854,628.788 893.5,641.5C 886.905,640.179 880.239,639.512 873.5,639.5C 873.5,627.167 873.5,614.833 873.5,602.5 Z"/></g>
<g><path style="opacity:1" fill="#e9eaf2" d="M 413.5,615.5 C 412.833,615.167 412.167,614.833 411.5,614.5C 414.507,612.825 417.84,612.159 421.5,612.5C 423.408,598.842 425.408,598.508 427.5,611.5C 431.163,610.888 434.83,610.721 438.5,611C 435.355,612.978 432.688,615.478 430.5,618.5C 432.087,621.521 432.753,624.521 432.5,627.5C 429.833,625.833 427.167,624.167 424.5,622.5C 422.167,624.5 419.833,626.5 417.5,628.5C 416.605,625.625 416.938,622.792 418.5,620C 417.28,618.048 415.613,616.548 413.5,615.5 Z"/></g>
<g><path style="opacity:1" fill="#dcdbdb" d="M 866.5,602.5 C 868.833,602.5 871.167,602.5 873.5,602.5C 873.5,614.833 873.5,627.167 873.5,639.5C 867.484,639.593 861.484,639.926 855.5,640.5C 851.821,640.724 848.154,641.058 844.5,641.5C 844.5,629.167 844.5,616.833 844.5,604.5C 844.5,604.167 844.5,603.833 844.5,603.5C 851.833,603.167 859.167,602.833 866.5,602.5 Z"/></g>
<g><path style="opacity:1" fill="#eeeded" d="M 844.5,604.5 C 844.5,616.833 844.5,629.167 844.5,641.5C 841.482,641.704 838.482,642.037 835.5,642.5C 830.798,643.004 826.131,643.671 821.5,644.5C 822.148,638.244 822.481,631.911 822.5,625.5C 822.496,619.128 821.829,613.128 820.5,607.5C 820.5,607.167 820.5,606.833 820.5,606.5C 828.485,605.669 836.485,605.002 844.5,604.5 Z"/></g>
<g><path style="opacity:1" fill="#dddcdc" d="M 895.5,604.5 C 895.833,604.5 896.167,604.5 896.5,604.5C 899.096,605.055 901.429,606.055 903.5,607.5C 902.505,619.322 902.172,631.322 902.5,643.5C 899.461,642.99 896.461,642.323 893.5,641.5C 892.854,628.788 893.52,616.455 895.5,604.5 Z"/></g>
<g><path style="opacity:1" fill="#e5e6ee" d="M 358.5,632.5 C 357.518,633.141 356.518,633.807 355.5,634.5C 355.167,634 354.833,633.5 354.5,633C 355.861,630.27 356.361,627.437 356,624.5C 353.5,622.667 351,620.833 348.5,619C 352.152,618.501 355.818,618.335 359.5,618.5C 359.5,617.5 359.5,616.5 359.5,615.5C 360.661,612.898 361.828,610.231 363,607.5C 364.461,610.679 365.295,614.012 365.5,617.5C 369.204,617.276 372.871,617.11 376.5,617C 373.601,619.277 370.934,621.777 368.5,624.5C 373.389,634.774 371.556,636.108 363,628.5C 361.008,629.328 359.508,630.661 358.5,632.5 Z"/></g>
<g><path style="opacity:1" fill="#fcfbfb" d="M 820.5,607.5 C 821.829,613.128 822.496,619.128 822.5,625.5C 822.481,631.911 822.148,638.244 821.5,644.5C 752.731,655.346 684.064,666.846 615.5,679C 578.828,684.612 542.162,690.112 505.5,695.5C 499.5,696.167 493.5,696.833 487.5,697.5C 486.167,697.5 484.833,697.5 483.5,697.5C 483.5,685.5 483.5,673.5 483.5,661.5C 501.776,658.51 520.11,655.843 538.5,653.5C 623.031,640.401 707.365,626.234 791.5,611C 801.146,609.586 810.812,608.419 820.5,607.5 Z"/></g>
<g><path style="opacity:1" fill="#dedfe8" d="M 300.5,612.5 C 302.198,615.034 303.531,617.868 304.5,621C 307.833,621.333 311.167,621.667 314.5,622C 311.517,623.984 308.85,626.317 306.5,629C 308.178,632.019 309.011,635.185 309,638.5C 306.333,636.5 303.667,634.5 301,632.5C 291.334,642.757 289.501,641.757 295.5,629.5C 292.5,627.333 289.5,625.167 286.5,623C 290.152,622.501 293.818,622.335 297.5,622.5C 298.101,619.032 299.101,615.699 300.5,612.5 Z"/></g>
<g><path style="opacity:0.743" fill="#f6f3f3" d="M 903.5,607.5 C 908.064,608.98 911.064,611.98 912.5,616.5C 912.5,629.833 912.5,643.167 912.5,656.5C 911.354,650.564 908.02,646.231 902.5,643.5C 902.172,631.322 902.505,619.322 903.5,607.5 Z"/></g>
<g><path style="opacity:1" fill="#d8d9e1" d="M 238.5,614.5 C 240.198,617.231 241.531,620.231 242.5,623.5C 245.785,624.324 249.118,624.824 252.5,625C 249.688,626.977 247.022,629.144 244.5,631.5C 249.293,641.493 247.626,642.826 239.5,635.5C 236.528,637.306 233.695,639.306 231,641.5C 231.086,638.056 231.92,634.723 233.5,631.5C 230.833,629.5 228.167,627.5 225.5,625.5C 228.833,624.833 232.167,624.167 235.5,623.5C 236.705,620.55 237.705,617.55 238.5,614.5 Z"/></g>
<g><path style="opacity:1" fill="#e9ebf6" d="M 516.5,616.5 C 518.956,618.818 520.289,621.818 520.5,625.5C 524.146,624.717 527.812,624.55 531.5,625C 528.705,626.793 526.205,628.96 524,631.5C 523.947,634.202 524.447,636.869 525.5,639.5C 525.167,640.167 524.833,640.833 524.5,641.5C 522.33,639.914 519.996,638.58 517.5,637.5C 514.391,639.475 511.557,641.808 509,644.5C 509.185,641.095 510.018,637.761 511.5,634.5C 509.14,632.147 506.473,630.147 503.5,628.5C 507.133,627.588 510.8,626.921 514.5,626.5C 514.959,623.123 515.626,619.789 516.5,616.5 Z"/></g>
<g><path style="opacity:1" fill="#eaecf4" d="M 445.5,639.5 C 444.426,638.115 443.093,636.949 441.5,636C 442.793,635.51 444.127,635.343 445.5,635.5C 447.591,635.682 449.591,635.348 451.5,634.5C 452.833,631.167 454.167,627.833 455.5,624.5C 457.101,627.304 458.101,630.304 458.5,633.5C 462.163,632.888 465.83,632.721 469.5,633C 466.72,634.812 464.22,636.979 462,639.5C 462.538,642.794 462.871,646.127 463,649.5C 460.651,648.16 458.317,646.826 456,645.5C 452.439,647.055 449.439,649.388 447,652.5C 447.572,649.039 448.406,645.539 449.5,642C 448.644,640.405 447.311,639.572 445.5,639.5 Z"/></g>
<g><path style="opacity:1" fill="#e6e7f0" d="M 393.5,630.5 C 395.277,633.505 396.277,636.838 396.5,640.5C 400.163,639.888 403.83,639.721 407.5,640C 404.601,642.277 401.934,644.777 399.5,647.5C 404.389,657.774 402.556,659.108 394,651.5C 391.205,653.293 388.705,655.46 386.5,658C 385.833,658.667 385.167,658.667 384.5,658C 385.804,655.125 386.804,652.125 387.5,649C 385.608,646.382 383.274,644.216 380.5,642.5C 383.768,641.513 387.102,641.18 390.5,641.5C 391.036,637.686 392.036,634.019 393.5,630.5 Z"/></g>
<g><path style="opacity:1" fill="#e2e3eb" d="M 324.5,663.5 C 323.606,660.094 324.273,656.76 326.5,653.5C 323.5,651.333 320.5,649.167 317.5,647C 319.81,646.503 322.143,646.337 324.5,646.5C 325.833,646.5 327.167,646.5 328.5,646.5C 329.98,634.417 332.313,633.917 335.5,645C 338.833,645.333 342.167,645.667 345.5,646C 342.517,647.984 339.85,650.317 337.5,653C 339.178,656.019 340.011,659.185 340,662.5C 334.293,655.579 329.126,655.912 324.5,663.5 Z"/></g>
<g><path style="opacity:1" fill="#dcdde5" d="M 273.5,648.5 C 276.5,649.167 279.5,649.833 282.5,650.5C 280.197,652.325 277.864,654.158 275.5,656C 277.37,659.061 278.037,662.227 277.5,665.5C 275.241,663.455 272.741,661.789 270,660.5C 267.659,662.016 265.492,663.683 263.5,665.5C 262.883,665.611 262.383,665.944 262,666.5C 261.989,663.185 262.822,660.019 264.5,657C 261.519,654.691 258.519,652.358 255.5,650C 258.482,649.502 261.482,649.335 264.5,649.5C 265.376,649.631 266.043,649.298 266.5,648.5C 267.569,645.461 268.735,642.461 270,639.5C 271.273,642.489 272.439,645.489 273.5,648.5 Z"/></g>
<g><path style="opacity:1" fill="#ae0e0d" d="M 873.5,639.5 C 880.239,639.512 886.905,640.179 893.5,641.5C 894.146,653.88 893.479,665.88 891.5,677.5C 878.503,676.224 865.503,676.224 852.5,677.5C 852.5,665.5 852.5,653.5 852.5,641.5C 853.791,641.737 854.791,641.404 855.5,640.5C 861.484,639.926 867.484,639.593 873.5,639.5 Z"/></g>
<g><path style="opacity:1" fill="#d6d7de" d="M 211.5,650.5 C 214.5,651.167 217.5,651.833 220.5,652.5C 214.094,655.31 212.761,659.81 216.5,666C 216.333,666.5 216.167,667 216,667.5C 215.329,666.748 214.496,666.414 213.5,666.5C 212.339,664.328 210.505,662.994 208,662.5C 204.814,663.764 202.148,665.764 200,668.5C 199.957,664.836 200.791,661.336 202.5,658C 199.833,656 197.167,654 194.5,652C 197.882,651.824 201.215,651.324 204.5,650.5C 205.569,647.461 206.735,644.461 208,641.5C 209.654,644.293 210.821,647.293 211.5,650.5 Z"/></g>
<g><path style="opacity:1" fill="#c92221" d="M 855.5,640.5 C 854.791,641.404 853.791,641.737 852.5,641.5C 852.5,653.5 852.5,665.5 852.5,677.5C 850.901,677.232 849.568,677.566 848.5,678.5C 843.178,678.98 837.845,679.313 832.5,679.5C 832.5,667.5 832.5,655.5 832.5,643.5C 833.791,643.737 834.791,643.404 835.5,642.5C 838.482,642.037 841.482,641.704 844.5,641.5C 848.154,641.058 851.821,640.724 855.5,640.5 Z"/></g>
<g><path style="opacity:1" fill="#ca2322" d="M 893.5,641.5 C 896.461,642.323 899.461,642.99 902.5,643.5C 908.02,646.231 911.354,650.564 912.5,656.5C 912.5,668.167 912.5,679.833 912.5,691.5C 909.943,684.624 904.943,680.624 897.5,679.5C 895.374,678.952 893.374,678.285 891.5,677.5C 893.479,665.88 894.146,653.88 893.5,641.5 Z"/></g>
<g><path style="opacity:1" fill="#dd2f2f" d="M 835.5,642.5 C 834.791,643.404 833.791,643.737 832.5,643.5C 832.5,655.5 832.5,667.5 832.5,679.5C 828.688,680.026 825.021,680.693 821.5,681.5C 750.361,692.468 679.361,704.301 608.5,717C 574.162,722.25 539.829,727.417 505.5,732.5C 505.5,720.167 505.5,707.833 505.5,695.5C 542.162,690.112 578.828,684.612 615.5,679C 684.064,666.846 752.731,655.346 821.5,644.5C 826.131,643.671 830.798,643.004 835.5,642.5 Z"/></g>
<g><path style="opacity:1" fill="#6676c3" d="M 273.5,648.5 C 277.182,648.335 280.848,648.501 284.5,649C 283.956,649.717 283.289,650.217 282.5,650.5C 279.5,649.833 276.5,649.167 273.5,648.5 Z"/></g>
<g><path style="opacity:1" fill="#6b7ac0" d="M 211.5,650.5 C 212.167,650.5 212.833,650.5 213.5,650.5C 216.518,650.335 219.518,650.502 222.5,651C 221.956,651.717 221.289,652.217 220.5,652.5C 217.5,651.833 214.5,651.167 211.5,650.5 Z"/></g>
<g><path style="opacity:1" fill="#f4f3f4" d="M 483.5,661.5 C 483.5,673.5 483.5,685.5 483.5,697.5C 484.833,697.5 486.167,697.5 487.5,697.5C 457.868,701.466 428.202,705.133 398.5,708.5C 373.651,710.071 348.985,712.071 324.5,714.5C 320.833,714.5 317.167,714.5 313.5,714.5C 313.5,702.167 313.5,689.833 313.5,677.5C 314.833,677.5 316.167,677.5 317.5,677.5C 331.179,676.642 344.845,675.642 358.5,674.5C 376.185,673.013 393.852,671.347 411.5,669.5C 422.872,668.447 434.205,667.113 445.5,665.5C 458.183,664.331 470.85,662.998 483.5,661.5 Z"/></g>
<g><path style="opacity:1" fill="#cecdcd" d="M 891.5,677.5 C 893.374,678.285 895.374,678.952 897.5,679.5C 897.5,691.833 897.5,704.167 897.5,716.5C 896.167,716.167 894.833,715.833 893.5,715.5C 884.524,714.692 875.524,714.358 866.5,714.5C 862.167,714.5 857.833,714.5 853.5,714.5C 853.5,702.5 853.5,690.5 853.5,678.5C 851.833,678.5 850.167,678.5 848.5,678.5C 849.568,677.566 850.901,677.232 852.5,677.5C 865.503,676.224 878.503,676.224 891.5,677.5 Z"/></g>
<g><path style="opacity:1" fill="#eae9e9" d="M 313.5,677.5 C 313.5,689.833 313.5,702.167 313.5,714.5C 294.198,715.975 274.865,716.975 255.5,717.5C 255.5,705.167 255.5,692.833 255.5,680.5C 274.864,679.905 294.198,678.905 313.5,677.5 Z"/></g>
<g><path style="opacity:1" fill="#e3e3e3" d="M 254.5,680.5 C 254.833,680.5 255.167,680.5 255.5,680.5C 255.5,692.833 255.5,705.167 255.5,717.5C 232.507,718.228 209.507,718.561 186.5,718.5C 186.5,706.167 186.5,693.833 186.5,681.5C 195.5,681.5 204.5,681.5 213.5,681.5C 227.174,681.406 240.841,681.073 254.5,680.5 Z"/></g>
<g><path style="opacity:1" fill="#edeceb" d="M 848.5,678.5 C 850.167,678.5 851.833,678.5 853.5,678.5C 853.5,690.5 853.5,702.5 853.5,714.5C 850.61,715.245 847.61,715.912 844.5,716.5C 837.436,716.592 830.436,717.258 823.5,718.5C 823.167,718.5 822.833,718.5 822.5,718.5C 822.829,705.989 822.495,693.655 821.5,681.5C 825.021,680.693 828.688,680.026 832.5,679.5C 837.845,679.313 843.178,678.98 848.5,678.5 Z"/></g>
<g><path style="opacity:1" fill="#eeecec" d="M 897.5,679.5 C 904.943,680.624 909.943,684.624 912.5,691.5C 912.5,704.5 912.5,717.5 912.5,730.5C 911.342,725.34 908.342,721.674 903.5,719.5C 901.819,717.992 899.819,716.992 897.5,716.5C 897.5,704.167 897.5,691.833 897.5,679.5 Z"/></g>
<g><path style="opacity:1" fill="#fdfbfb" d="M 821.5,681.5 C 822.495,693.655 822.829,705.989 822.5,718.5C 750.04,729.97 677.707,742.137 605.5,755C 571.364,760.18 537.364,765.347 503.5,770.5C 496.797,770.838 490.13,771.505 483.5,772.5C 483.5,760.167 483.5,747.833 483.5,735.5C 490.794,734.502 498.128,733.502 505.5,732.5C 539.829,727.417 574.162,722.25 608.5,717C 679.361,704.301 750.361,692.468 821.5,681.5 Z"/></g>
<g><path style="opacity:1" fill="#d82a2a" d="M 505.5,695.5 C 505.5,707.833 505.5,720.167 505.5,732.5C 498.128,733.502 490.794,734.502 483.5,735.5C 455.192,738.719 426.858,741.719 398.5,744.5C 398.5,732.5 398.5,720.5 398.5,708.5C 428.202,705.133 457.868,701.466 487.5,697.5C 493.5,696.833 499.5,696.167 505.5,695.5 Z"/></g>
<g><path style="opacity:1" fill="#d22524" d="M 398.5,708.5 C 398.5,720.5 398.5,732.5 398.5,744.5C 373.909,747.306 349.242,749.306 324.5,750.5C 324.5,738.5 324.5,726.5 324.5,714.5C 348.985,712.071 373.651,710.071 398.5,708.5 Z"/></g>
<g><path style="opacity:1" fill="#cb1e1d" d="M 313.5,714.5 C 317.167,714.5 320.833,714.5 324.5,714.5C 324.5,726.5 324.5,738.5 324.5,750.5C 321.609,751.403 318.609,751.736 315.5,751.5C 295.51,752.673 275.51,753.673 255.5,754.5C 255.5,742.167 255.5,729.833 255.5,717.5C 274.865,716.975 294.198,715.975 313.5,714.5 Z"/></g>
<g><path style="opacity:1" fill="#c01b1a" d="M 853.5,714.5 C 857.833,714.5 862.167,714.5 866.5,714.5C 867.116,727.083 866.449,739.416 864.5,751.5C 857.847,752.054 851.18,752.388 844.5,752.5C 844.5,740.5 844.5,728.5 844.5,716.5C 847.61,715.912 850.61,715.245 853.5,714.5 Z"/></g>
<g><path style="opacity:1" fill="#a70707" d="M 866.5,714.5 C 875.524,714.358 884.524,714.692 893.5,715.5C 893.5,727.833 893.5,740.167 893.5,752.5C 884.862,751.66 876.195,751.327 867.5,751.5C 866.5,751.5 865.5,751.5 864.5,751.5C 866.449,739.416 867.116,727.083 866.5,714.5 Z"/></g>
<g><path style="opacity:1" fill="#c31616" d="M 255.5,717.5 C 255.5,729.833 255.5,742.167 255.5,754.5C 232.506,755.188 209.506,755.521 186.5,755.5C 186.5,743.167 186.5,730.833 186.5,718.5C 209.507,718.561 232.507,718.228 255.5,717.5 Z"/></g>
<g><path style="opacity:1" fill="#cf2525" d="M 844.5,716.5 C 844.5,728.5 844.5,740.5 844.5,752.5C 840.358,753.04 836.358,753.706 832.5,754.5C 828.466,754.505 824.466,754.838 820.5,755.5C 820.5,743.5 820.5,731.5 820.5,719.5C 821.791,719.737 822.791,719.404 823.5,718.5C 830.436,717.258 837.436,716.592 844.5,716.5 Z"/></g>
<g><path style="opacity:1" fill="#bf1a19" d="M 893.5,715.5 C 894.833,715.833 896.167,716.167 897.5,716.5C 899.819,716.992 901.819,717.992 903.5,719.5C 904.145,731.548 903.478,743.215 901.5,754.5C 899.784,754.371 898.117,754.038 896.5,753.5C 895.791,752.596 894.791,752.263 893.5,752.5C 893.5,740.167 893.5,727.833 893.5,715.5 Z"/></g>
<g><path style="opacity:1" fill="#dd302f" d="M 822.5,718.5 C 822.833,718.5 823.167,718.5 823.5,718.5C 822.791,719.404 821.791,719.737 820.5,719.5C 820.5,731.5 820.5,743.5 820.5,755.5C 748.434,767.129 676.434,779.296 604.5,792C 571.554,797.243 538.554,802.076 505.5,806.5C 506.146,794.12 505.479,782.12 503.5,770.5C 537.364,765.347 571.364,760.18 605.5,755C 677.707,742.137 750.04,729.97 822.5,718.5 Z"/></g>
<g><path style="opacity:1" fill="#d52a2a" d="M 903.5,719.5 C 908.342,721.674 911.342,725.34 912.5,730.5C 912.5,742.167 912.5,753.833 912.5,765.5C 911.563,761.635 909.23,758.968 905.5,757.5C 904.41,756.143 903.076,755.143 901.5,754.5C 903.478,743.215 904.145,731.548 903.5,719.5 Z"/></g>
<g><path style="opacity:1" fill="#f4f3f3" d="M 483.5,735.5 C 483.5,747.833 483.5,760.167 483.5,772.5C 455.252,776.19 426.919,779.524 398.5,782.5C 370.873,785.116 343.206,787.116 315.5,788.5C 314.171,782.872 313.504,776.872 313.5,770.5C 313.542,763.927 314.208,757.594 315.5,751.5C 318.609,751.736 321.609,751.403 324.5,750.5C 349.242,749.306 373.909,747.306 398.5,744.5C 426.858,741.719 455.192,738.719 483.5,735.5 Z"/></g>
<g><path style="opacity:1" fill="#c7c7c7" d="M 867.5,751.5 C 876.195,751.327 884.862,751.66 893.5,752.5C 894.791,752.263 895.791,752.596 896.5,753.5C 895.5,753.5 894.5,753.5 893.5,753.5C 893.5,765.5 893.5,777.5 893.5,789.5C 884.854,788.747 876.188,788.413 867.5,788.5C 867.5,776.167 867.5,763.833 867.5,751.5 Z"/></g>
<g><path style="opacity:1" fill="#eae9e9" d="M 315.5,751.5 C 314.208,757.594 313.542,763.927 313.5,770.5C 313.504,776.872 314.171,782.872 315.5,788.5C 296.024,790.222 276.358,791.222 256.5,791.5C 255.505,779.345 255.171,767.011 255.5,754.5C 275.51,753.673 295.51,752.673 315.5,751.5 Z"/></g>
<g><path style="opacity:1" fill="#e4e3e3" d="M 864.5,751.5 C 865.5,751.5 866.5,751.5 867.5,751.5C 867.5,763.833 867.5,776.167 867.5,788.5C 864.615,788.194 861.948,788.527 859.5,789.5C 857.167,789.5 854.833,789.5 852.5,789.5C 846.479,790.035 840.479,790.702 834.5,791.5C 835.146,778.788 834.48,766.455 832.5,754.5C 836.358,753.706 840.358,753.04 844.5,752.5C 851.18,752.388 857.847,752.054 864.5,751.5 Z"/></g>
<g><path style="opacity:1" fill="#e3e1e1" d="M 255.5,754.5 C 255.171,767.011 255.505,779.345 256.5,791.5C 256.5,792.167 256.167,792.5 255.5,792.5C 232.166,792.796 208.833,793.13 185.5,793.5C 185.5,791.167 185.5,788.833 185.5,786.5C 186.494,776.347 186.828,766.014 186.5,755.5C 209.506,755.521 232.506,755.188 255.5,754.5 Z"/></g>
<g><path style="opacity:1" fill="#dfdede" d="M 896.5,753.5 C 898.117,754.038 899.784,754.371 901.5,754.5C 903.076,755.143 904.41,756.143 905.5,757.5C 904.505,769.322 904.172,781.322 904.5,793.5C 904.167,793.5 903.833,793.5 903.5,793.5C 900.377,791.885 897.044,790.885 893.5,790.5C 893.5,790.167 893.5,789.833 893.5,789.5C 893.5,777.5 893.5,765.5 893.5,753.5C 894.5,753.5 895.5,753.5 896.5,753.5 Z"/></g>
<g><path style="opacity:1" fill="#fcfbfb" d="M 832.5,754.5 C 834.48,766.455 835.146,778.788 834.5,791.5C 829.781,791.888 825.114,792.555 820.5,793.5C 747.424,805.094 674.424,817.26 601.5,830C 569.481,835.001 537.481,839.835 505.5,844.5C 498.848,845.297 492.181,845.964 485.5,846.5C 483.52,834.545 482.854,822.212 483.5,809.5C 490.893,808.894 498.226,807.894 505.5,806.5C 538.554,802.076 571.554,797.243 604.5,792C 676.434,779.296 748.434,767.129 820.5,755.5C 824.466,754.838 828.466,754.505 832.5,754.5 Z"/></g>
<g><path style="opacity:0.733" fill="#f7f6f6" d="M 905.5,757.5 C 909.23,758.968 911.563,761.635 912.5,765.5C 912.5,778.5 912.5,791.5 912.5,804.5C 911.418,799.741 908.751,796.074 904.5,793.5C 904.172,781.322 904.505,769.322 905.5,757.5 Z"/></g>
<g><path style="opacity:1" fill="#d72a29" d="M 503.5,770.5 C 505.479,782.12 506.146,794.12 505.5,806.5C 498.226,807.894 490.893,808.894 483.5,809.5C 454.565,813.395 425.565,816.729 396.5,819.5C 398.449,807.416 399.116,795.083 398.5,782.5C 426.919,779.524 455.252,776.19 483.5,772.5C 490.13,771.505 496.797,770.838 503.5,770.5 Z"/></g>
<g><path style="opacity:1" fill="#cf2221" d="M 398.5,782.5 C 399.116,795.083 398.449,807.416 396.5,819.5C 368.694,821.894 341.027,824.228 313.5,826.5C 294.169,827.227 274.836,827.894 255.5,828.5C 255.5,816.5 255.5,804.5 255.5,792.5C 256.167,792.5 256.5,792.167 256.5,791.5C 276.358,791.222 296.024,790.222 315.5,788.5C 343.206,787.116 370.873,785.116 398.5,782.5 Z"/></g>
<g><path style="opacity:1" fill="#a80a08" d="M 859.5,789.5 C 861.948,788.527 864.615,788.194 867.5,788.5C 876.188,788.413 884.854,788.747 893.5,789.5C 893.5,789.833 893.5,790.167 893.5,790.5C 893.5,802.5 893.5,814.5 893.5,826.5C 884.518,825.782 875.518,825.448 866.5,825.5C 866.5,813.5 866.5,801.5 866.5,789.5C 864.167,789.5 861.833,789.5 859.5,789.5 Z"/></g>
<g><path style="opacity:1" fill="#c31515" d="M 255.5,792.5 C 255.5,804.5 255.5,816.5 255.5,828.5C 232.17,829.206 208.837,829.873 185.5,830.5C 185.5,818.167 185.5,805.833 185.5,793.5C 208.833,793.13 232.166,792.796 255.5,792.5 Z"/></g>
<g><path style="opacity:1" fill="#cd2423" d="M 852.5,789.5 C 852.5,801.833 852.5,814.167 852.5,826.5C 841.451,827.542 830.451,828.876 819.5,830.5C 820.479,818.247 820.813,805.913 820.5,793.5C 825.114,792.555 829.781,791.888 834.5,791.5C 840.479,790.702 846.479,790.035 852.5,789.5 Z"/></g>
<g><path style="opacity:1" fill="#dd2f2f" d="M 820.5,793.5 C 820.813,805.913 820.479,818.247 819.5,830.5C 806.215,832.529 792.882,834.363 779.5,836C 697.153,850.502 614.82,864.335 532.5,877.5C 523.532,878.781 514.532,879.781 505.5,880.5C 505.5,868.5 505.5,856.5 505.5,844.5C 537.481,839.835 569.481,835.001 601.5,830C 674.424,817.26 747.424,805.094 820.5,793.5 Z"/></g>
<g><path style="opacity:1" fill="#d42929" d="M 903.5,793.5 C 903.833,793.5 904.167,793.5 904.5,793.5C 908.751,796.074 911.418,799.741 912.5,804.5C 912.5,816.833 912.5,829.167 912.5,841.5C 911.476,836.785 908.809,833.118 904.5,830.5C 903.501,818.185 903.168,805.851 903.5,793.5 Z"/></g>
<g><path style="opacity:1" fill="#f4f3f3" d="M 483.5,809.5 C 482.854,822.212 483.52,834.545 485.5,846.5C 455.842,850.24 426.175,853.906 396.5,857.5C 371.314,859.016 346.314,861.016 321.5,863.5C 318.833,863.5 316.167,863.5 313.5,863.5C 313.5,851.167 313.5,838.833 313.5,826.5C 341.027,824.228 368.694,821.894 396.5,819.5C 425.565,816.729 454.565,813.395 483.5,809.5 Z"/></g>
<g><path style="opacity:0.995" fill="#bc1111" d="M 852.5,789.5 C 854.833,789.5 857.167,789.5 859.5,789.5C 861.833,789.5 864.167,789.5 866.5,789.5C 866.5,801.5 866.5,813.5 866.5,825.5C 875.518,825.448 884.518,825.782 893.5,826.5C 893.5,814.5 893.5,802.5 893.5,790.5C 897.044,790.885 900.377,791.885 903.5,793.5C 903.168,805.851 903.501,818.185 904.5,830.5C 908.809,833.118 911.476,836.785 912.5,841.5C 911.85,843.435 911.517,845.435 911.5,847.5C 910.662,847.842 910.328,848.508 910.5,849.5C 903.393,858.228 894.393,864.228 883.5,867.5C 880.287,867.81 877.287,867.477 874.5,866.5C 885.414,863.628 894.914,858.294 903,850.5C 908.292,841.264 905.792,835.431 895.5,833C 873.74,829.881 852.073,830.381 830.5,834.5C 812.372,836.515 794.372,839.182 776.5,842.5C 757.405,844.96 738.405,847.96 719.5,851.5C 697.944,854.623 676.611,858.29 655.5,862.5C 627.685,866.735 600.018,871.069 572.5,875.5C 565.819,876.036 559.152,876.703 552.5,877.5C 545.833,877.5 539.167,877.5 532.5,877.5C 614.82,864.335 697.153,850.502 779.5,836C 792.882,834.363 806.215,832.529 819.5,830.5C 830.451,828.876 841.451,827.542 852.5,826.5C 852.5,814.167 852.5,801.833 852.5,789.5 Z"/></g>
<g><path style="opacity:1" fill="#eae9e9" d="M 313.5,826.5 C 313.5,838.833 313.5,851.167 313.5,863.5C 295.868,864.749 278.201,865.415 260.5,865.5C 258.833,865.5 257.167,865.5 255.5,865.5C 255.5,853.167 255.5,840.833 255.5,828.5C 274.836,827.894 294.169,827.227 313.5,826.5 Z"/></g>
<g><path style="opacity:1" fill="#e3e1e1" d="M 255.5,828.5 C 255.5,840.833 255.5,853.167 255.5,865.5C 257.167,865.5 258.833,865.5 260.5,865.5C 259.081,866.451 257.415,866.784 255.5,866.5C 232.171,867.055 208.837,867.389 185.5,867.5C 185.5,855.167 185.5,842.833 185.5,830.5C 208.837,829.873 232.17,829.206 255.5,828.5 Z"/></g>
<g><path style="opacity:1" fill="#870000" d="M 874.5,866.5 C 860.031,870.99 845.364,874.657 830.5,877.5C 830.5,863.167 830.5,848.833 830.5,834.5C 852.073,830.381 873.74,829.881 895.5,833C 905.792,835.431 908.292,841.264 903,850.5C 894.914,858.294 885.414,863.628 874.5,866.5 Z"/></g>
<g><path style="opacity:1" fill="#800000" d="M 830.5,834.5 C 830.5,848.833 830.5,863.167 830.5,877.5C 812.527,880.258 794.527,882.925 776.5,885.5C 776.5,871.167 776.5,856.833 776.5,842.5C 794.372,839.182 812.372,836.515 830.5,834.5 Z"/></g>
<g><path style="opacity:1" fill="#790000" d="M 776.5,842.5 C 776.5,856.833 776.5,871.167 776.5,885.5C 773.904,886.265 771.237,886.599 768.5,886.5C 752.195,888.448 735.861,890.115 719.5,891.5C 719.5,878.167 719.5,864.833 719.5,851.5C 738.405,847.96 757.405,844.96 776.5,842.5 Z"/></g>
<g><path style="opacity:1" fill="#d72929" d="M 505.5,844.5 C 505.5,856.5 505.5,868.5 505.5,880.5C 472.819,885.501 440.152,889.834 407.5,893.5C 404.5,893.5 401.5,893.5 398.5,893.5C 399.146,881.12 398.479,869.12 396.5,857.5C 426.175,853.906 455.842,850.24 485.5,846.5C 492.181,845.964 498.848,845.297 505.5,844.5 Z"/></g>
<g><path style="opacity:1" fill="#730000" d="M 719.5,851.5 C 719.5,864.833 719.5,878.167 719.5,891.5C 698.85,893.356 678.183,895.023 657.5,896.5C 658.144,884.784 657.478,873.451 655.5,862.5C 676.611,858.29 697.944,854.623 719.5,851.5 Z"/></g>
<g><path style="opacity:1" fill="#d12423" d="M 396.5,857.5 C 398.479,869.12 399.146,881.12 398.5,893.5C 374.932,896.547 351.266,898.547 327.5,899.5C 326.5,899.5 325.5,899.5 324.5,899.5C 324.5,887.5 324.5,875.5 324.5,863.5C 323.5,863.5 322.5,863.5 321.5,863.5C 346.314,861.016 371.314,859.016 396.5,857.5 Z"/></g>
<g><path style="opacity:1" fill="#6d0000" d="M 655.5,862.5 C 657.478,873.451 658.144,884.784 657.5,896.5C 651.131,896.347 644.797,896.68 638.5,897.5C 617.184,898.832 595.851,899.832 574.5,900.5C 575.135,891.766 574.468,883.433 572.5,875.5C 600.018,871.069 627.685,866.735 655.5,862.5 Z"/></g>
<g><path style="opacity:1" fill="#ca1d1c" d="M 313.5,863.5 C 316.167,863.5 318.833,863.5 321.5,863.5C 322.5,863.5 323.5,863.5 324.5,863.5C 324.5,875.5 324.5,887.5 324.5,899.5C 325.5,899.5 326.5,899.5 327.5,899.5C 303.698,901.644 279.698,902.977 255.5,903.5C 255.5,891.167 255.5,878.833 255.5,866.5C 257.415,866.784 259.081,866.451 260.5,865.5C 278.201,865.415 295.868,864.749 313.5,863.5 Z"/></g>
<g><path style="opacity:1" fill="#c31515" d="M 255.5,866.5 C 255.5,878.833 255.5,891.167 255.5,903.5C 239.5,904.053 223.5,904.22 207.5,904C 199.216,901.546 192.882,896.712 188.5,889.5C 187.113,887.123 186.279,884.457 186,881.5C 185.501,876.845 185.334,872.179 185.5,867.5C 208.837,867.389 232.171,867.055 255.5,866.5 Z"/></g>
<g><path style="opacity:1" fill="#660000" d="M 572.5,875.5 C 574.468,883.433 575.135,891.766 574.5,900.5C 559.802,900.868 545.135,901.701 530.5,903C 554.164,903.5 577.831,903.667 601.5,903.5C 557.689,905.838 513.689,907.338 469.5,908C 403.505,909.119 337.505,909.619 271.5,909.5C 251.497,909.667 231.497,909.5 211.5,909C 207.654,908.987 204.321,907.82 201.5,905.5C 277.588,906.402 353.255,902.402 428.5,893.5C 470.115,889.299 511.448,883.965 552.5,877.5C 559.152,876.703 565.819,876.036 572.5,875.5 Z"/></g>
<g><path style="opacity:0.992" fill="#ad0c0c" d="M 874.5,866.5 C 877.287,867.477 880.287,867.81 883.5,867.5C 855.504,877.97 826.504,884.636 796.5,887.5C 786.985,887.827 777.652,887.494 768.5,886.5C 771.237,886.599 773.904,886.265 776.5,885.5C 794.527,882.925 812.527,880.258 830.5,877.5C 845.364,874.657 860.031,870.99 874.5,866.5 Z"/></g>
<g><path style="opacity:1" fill="#aa0d0d" d="M 532.5,877.5 C 539.167,877.5 545.833,877.5 552.5,877.5C 511.448,883.965 470.115,889.299 428.5,893.5C 421.5,893.5 414.5,893.5 407.5,893.5C 440.152,889.834 472.819,885.501 505.5,880.5C 514.532,879.781 523.532,878.781 532.5,877.5 Z"/></g>
<g><path style="opacity:1" fill="#930809" d="M 768.5,886.5 C 777.652,887.494 786.985,887.827 796.5,887.5C 760.827,893.001 724.827,896.668 688.5,898.5C 671.658,898.83 654.992,898.497 638.5,897.5C 644.797,896.68 651.131,896.347 657.5,896.5C 678.183,895.023 698.85,893.356 719.5,891.5C 735.861,890.115 752.195,888.448 768.5,886.5 Z"/></g>
<g><path style="opacity:1" fill="#7d0505" d="M 638.5,897.5 C 654.992,898.497 671.658,898.83 688.5,898.5C 659.712,901.213 630.712,902.879 601.5,903.5C 577.831,903.667 554.164,903.5 530.5,903C 545.135,901.701 559.802,900.868 574.5,900.5C 595.851,899.832 617.184,898.832 638.5,897.5 Z"/></g>
<g><path style="opacity:0.996" fill="#7f0506" d="M 188.5,889.5 C 192.882,896.712 199.216,901.546 207.5,904C 223.5,904.22 239.5,904.053 255.5,903.5C 279.698,902.977 303.698,901.644 327.5,899.5C 351.266,898.547 374.932,896.547 398.5,893.5C 401.5,893.5 404.5,893.5 407.5,893.5C 414.5,893.5 421.5,893.5 428.5,893.5C 353.255,902.402 277.588,906.402 201.5,905.5C 198.628,904.474 196.128,902.808 194,900.5C 191.096,897.358 189.262,893.691 188.5,889.5 Z"/></g>
</svg>
