<?xml version="1.0" standalone="no"?>
<!DOCTYPE svg PUBLIC "-//W3C//DTD SVG 20010904//EN"
 "http://www.w3.org/TR/2001/REC-SVG-20010904/DTD/svg10.dtd">
<svg version="1.0" xmlns="http://www.w3.org/2000/svg"
 width="1000.000000pt" height="1000.000000pt" viewBox="0 0 1000.000000 1000.000000"
 preserveAspectRatio="xMidYMid meet">

<g transform="translate(0.000000,1000.000000) scale(0.100000,-0.100000)"
fill="#000000" stroke="none">
<path d="M0 5000 l0 -5000 5000 0 5000 0 0 5000 0 5000 -3075 0 c-2680 0
-3076 -2 -3081 -15 -5 -12 -59 -14 -349 -15 -269 0 -344 2 -348 12 -4 10 -6
10 -6 1 -1 -7 -6 -13 -12 -13 -5 0 -8 4 -5 9 3 5 -1 11 -9 14 -9 4 -12 1 -8
-9 3 -7 0 -14 -6 -14 -6 0 -11 7 -11 15 0 13 -178 15 -1545 15 l-1545 0 0
-5000z m5080 2358 c18 -13 41 -39 51 -58 18 -33 19 -79 19 -985 l0 -950 673
671 c369 370 682 677 694 683 26 13 83 14 115 2 36 -14 77 -60 90 -102 26 -88
49 -61 -685 -797 l-672 -674 955 4 c705 2 960 0 975 -9 91 -52 115 -160 53
-238 -45 -57 -7 -55 -1035 -55 l-948 0 679 -679 679 -679 5 -56 c4 -48 1 -62
-21 -95 -45 -67 -124 -89 -195 -52 -20 11 -332 315 -697 680 l-660 661 -5
-964 -5 -964 -25 -27 c-78 -83 -200 -71 -251 25 -18 33 -19 79 -19 985 l0 950
-672 -671 c-370 -370 -683 -677 -695 -683 -30 -15 -89 -14 -122 4 -40 20 -79
70 -87 110 -14 78 -23 68 690 783 l671 673 -950 -2 c-615 -1 -959 2 -975 9
-82 33 -117 149 -67 223 49 73 -18 69 1042 69 l950 0 -671 673 c-370 369 -677
682 -683 694 -16 31 -14 90 5 129 18 37 64 71 112 80 74 15 69 20 780 -690
l672 -671 0 951 c-1 568 3 960 9 975 9 25 42 59 76 77 35 20 109 14 145 -10z"/>
<path d="M3790 9996 c0 -2 9 -6 20 -9 11 -3 20 -1 20 4 0 5 -9 9 -20 9 -11 0
-20 -2 -20 -4z"/>
</g>
</svg>
