<svg id="svg" version="1.1" xmlns="http://www.w3.org/2000/svg" xmlns:xlink="http://www.w3.org/1999/xlink" width="400" height="400" viewBox="0, 0, 400,400"><g id="svgg"><path id="path0" d="M29.067 131.867 C 28.529 132.404,28.759 187.068,29.300 187.515 C 29.884 187.998,34.283 190.298,47.000 196.768 C 52.060 199.343,56.650 201.730,57.200 202.074 C 57.750 202.417,64.140 205.720,71.400 209.415 C 78.660 213.110,87.660 217.711,91.400 219.639 C 97.631 222.852,106.411 227.347,114.650 231.544 C 116.438 232.455,118.088 233.200,118.317 233.200 C 118.546 233.200,118.793 233.354,118.867 233.543 C 118.940 233.732,123.500 236.179,129.000 238.981 C 143.690 246.465,143.788 246.520,143.901 247.409 C 143.984 248.065,142.721 248.839,136.501 251.942 C 132.375 254.000,126.840 256.818,124.200 258.203 L 119.400 260.723 119.297 288.762 C 119.241 304.183,119.260 316.800,119.340 316.800 C 119.419 316.800,121.626 315.695,124.242 314.346 C 126.859 312.996,134.310 309.193,140.800 305.895 C 147.290 302.597,153.050 299.614,153.600 299.266 C 154.150 298.918,158.200 296.811,162.600 294.584 C 181.477 285.031,194.642 278.257,195.200 277.811 C 195.530 277.547,196.430 277.093,197.200 276.802 C 197.970 276.510,198.771 276.121,198.980 275.936 C 199.466 275.507,201.092 275.498,201.267 275.924 C 201.340 276.103,203.470 277.297,206.000 278.578 C 212.802 282.023,231.776 291.725,238.200 295.043 C 250.755 301.527,255.078 303.741,256.600 304.467 C 257.480 304.886,258.528 305.413,258.930 305.637 C 259.331 305.861,262.031 307.273,264.930 308.774 C 275.125 314.057,280.499 316.800,280.652 316.800 C 280.736 316.800,280.759 304.167,280.703 288.726 L 280.600 260.651 273.000 256.728 C 268.820 254.570,263.290 251.769,260.710 250.502 C 253.527 246.976,250.150 249.496,287.400 230.591 C 293.340 227.577,298.650 224.825,299.200 224.475 C 299.750 224.126,304.160 221.829,309.000 219.371 C 331.920 207.732,340.248 203.455,340.800 203.042 C 341.130 202.795,342.030 202.294,342.800 201.928 C 345.525 200.634,348.279 199.244,355.200 195.672 C 359.050 193.685,364.225 191.038,366.700 189.790 L 371.200 187.521 371.200 159.784 C 371.200 144.251,371.045 131.952,370.848 131.830 C 370.655 131.710,369.696 132.038,368.718 132.558 C 367.740 133.078,364.163 134.905,360.770 136.619 C 357.376 138.332,354.510 139.841,354.400 139.972 C 354.089 140.341,347.329 143.600,346.872 143.600 C 346.649 143.600,346.407 143.735,346.333 143.900 C 346.200 144.201,344.619 145.026,326.400 154.297 C 321.010 157.040,315.430 159.922,314.000 160.702 C 310.347 162.695,310.497 162.618,307.400 164.121 C 305.860 164.868,301.900 166.880,298.600 168.591 C 295.300 170.302,289.000 173.542,284.600 175.790 C 280.200 178.038,274.170 181.138,271.200 182.678 C 268.230 184.218,262.495 187.171,258.456 189.239 C 254.417 191.308,247.397 194.910,242.856 197.244 C 238.315 199.578,229.200 204.239,222.600 207.601 C 216.000 210.962,210.330 213.928,210.000 214.191 C 209.670 214.453,208.770 214.913,208.000 215.211 C 207.230 215.510,206.510 215.855,206.400 215.977 C 204.448 218.151,199.566 219.146,197.160 217.860 C 196.192 217.343,194.050 216.192,192.400 215.304 C 190.750 214.415,185.170 211.538,180.000 208.909 C 174.830 206.280,167.090 202.345,162.800 200.165 C 158.510 197.984,154.910 196.100,154.800 195.977 C 154.690 195.855,153.970 195.510,153.200 195.211 C 152.430 194.913,151.530 194.453,151.200 194.191 C 150.870 193.928,144.030 190.375,136.000 186.295 C 127.970 182.215,118.700 177.483,115.400 175.779 C 93.492 164.468,90.200 162.800,89.781 162.800 C 89.606 162.800,89.179 162.555,88.831 162.255 C 88.272 161.772,78.227 156.582,59.800 147.255 C 56.500 145.584,53.710 144.114,53.600 143.986 C 53.490 143.859,52.770 143.506,52.000 143.202 C 51.230 142.898,49.970 142.264,49.200 141.792 C 48.430 141.321,45.100 139.571,41.800 137.902 C 38.500 136.234,34.365 134.133,32.611 133.234 C 30.857 132.335,29.402 131.600,29.378 131.600 C 29.353 131.600,29.213 131.720,29.067 131.867 " stroke="none" fill="#05e4cc" fill-rule="evenodd"></path><path id="path1" d="M286.200 89.196 C 267.666 98.577,212.144 126.731,204.700 130.523 L 200.000 132.918 200.000 154.059 C 200.000 167.223,200.144 175.200,200.382 175.200 C 200.592 175.200,206.577 172.256,213.682 168.657 C 220.787 165.059,236.500 157.102,248.600 150.976 C 280.112 135.023,297.329 126.263,298.120 125.782 C 298.758 125.394,298.800 123.842,298.704 104.142 L 298.600 82.920 286.200 89.196 " stroke="none" fill="#b758f0" fill-rule="evenodd"></path><path id="path2" d="M0.000 200.000 L 0.000 400.000 200.000 400.000 L 400.000 400.000 400.000 200.000 L 400.000 0.000 200.000 0.000 L 0.000 0.000 0.000 200.000 M299.104 104.081 C 299.190 121.602,299.115 125.173,298.652 125.557 C 298.347 125.810,292.631 128.777,285.949 132.152 C 279.267 135.526,265.070 142.700,254.400 148.094 C 243.730 153.488,227.299 161.794,217.888 166.551 C 208.476 171.308,200.601 175.200,200.388 175.200 C 200.142 175.200,200.000 167.436,200.000 154.055 L 200.000 132.910 203.100 131.355 C 204.805 130.500,206.260 129.665,206.333 129.500 C 206.407 129.335,206.677 129.199,206.933 129.198 C 207.190 129.196,207.940 128.904,208.600 128.547 C 209.712 127.947,217.321 124.074,246.200 109.407 C 257.437 103.700,270.709 96.938,288.600 87.806 C 293.880 85.110,298.380 82.942,298.600 82.986 C 298.859 83.038,299.036 90.475,299.104 104.081 M32.654 132.652 C 34.604 133.670,40.000 136.446,44.645 138.820 C 52.292 142.728,57.294 145.300,73.400 153.600 C 76.260 155.074,82.560 158.310,87.400 160.791 C 99.584 167.037,110.773 172.784,117.400 176.200 C 120.480 177.787,126.780 181.025,131.400 183.394 C 154.362 195.168,154.228 195.099,166.200 201.298 C 167.300 201.867,169.100 202.776,170.200 203.318 C 171.300 203.860,174.810 205.660,178.000 207.319 C 181.190 208.977,187.450 212.194,191.912 214.467 L 200.024 218.600 208.312 214.363 C 219.861 208.459,231.887 202.286,239.200 198.508 C 246.350 194.816,257.374 189.155,269.400 183.001 C 274.020 180.637,280.680 177.214,284.200 175.395 C 292.204 171.257,301.441 166.511,313.800 160.185 C 329.931 151.929,334.750 149.454,341.200 146.111 C 344.610 144.344,351.720 140.695,357.000 138.003 C 362.280 135.310,367.535 132.588,368.678 131.953 C 369.821 131.319,370.946 130.800,371.178 130.800 C 371.470 130.800,371.600 139.612,371.600 159.367 L 371.600 187.934 366.700 190.417 C 364.005 191.783,359.100 194.295,355.800 196.000 C 349.919 199.038,341.892 203.159,325.835 211.383 C 321.416 213.647,315.640 216.623,313.000 217.997 C 310.360 219.372,303.790 222.751,298.400 225.506 C 285.907 231.892,278.778 235.552,267.800 241.216 C 262.960 243.713,258.413 246.030,257.695 246.364 C 255.547 247.364,254.209 246.514,273.600 256.460 C 277.450 258.435,280.736 260.185,280.903 260.348 C 281.069 260.512,281.159 273.474,281.103 289.153 L 281.000 317.660 277.200 315.684 C 273.640 313.834,268.629 311.259,248.400 300.888 C 243.890 298.576,238.040 295.570,235.400 294.208 C 225.192 288.942,211.936 282.147,206.068 279.171 L 199.937 276.062 194.268 278.976 C 191.151 280.579,185.000 283.738,180.600 285.997 C 176.200 288.256,170.350 291.276,167.600 292.707 C 164.850 294.139,158.100 297.604,152.600 300.407 C 143.149 305.223,137.556 308.096,124.680 314.748 C 121.644 316.317,119.079 317.600,118.980 317.600 C 118.881 317.600,118.805 304.685,118.810 288.900 L 118.821 260.200 123.510 257.897 C 132.390 253.537,143.348 247.757,143.479 247.364 C 143.551 247.148,143.022 246.697,142.305 246.363 C 141.587 246.029,137.580 243.986,133.400 241.824 C 125.407 237.689,117.831 233.794,103.600 226.501 C 98.870 224.077,92.660 220.883,89.800 219.404 C 86.940 217.924,80.640 214.689,75.800 212.216 C 57.648 202.939,48.522 198.242,46.000 196.877 C 44.570 196.103,42.140 194.864,40.600 194.123 C 39.060 193.382,37.170 192.424,36.400 191.994 C 35.630 191.564,33.515 190.460,31.700 189.541 L 28.400 187.869 28.400 159.334 C 28.400 143.032,28.552 130.800,28.754 130.800 C 28.949 130.800,30.704 131.633,32.654 132.652 " stroke="none" fill="#fbfbfb" fill-rule="evenodd"></path><path id="path3" d="M366.300 133.429 C 364.805 134.240,364.896 134.578,366.400 133.800 C 367.060 133.459,367.600 133.094,367.600 132.990 C 367.600 132.732,367.557 132.747,366.300 133.429 M34.800 134.179 C 34.800 134.289,35.340 134.659,36.000 135.000 C 36.660 135.341,37.200 135.531,37.200 135.421 C 37.200 135.311,36.660 134.941,36.000 134.600 C 35.340 134.259,34.800 134.069,34.800 134.179 M48.000 140.996 C 48.000 141.197,49.966 142.300,51.700 143.072 C 53.706 143.964,52.839 143.271,50.400 142.032 C 49.080 141.361,48.000 140.895,48.000 140.996 M349.500 142.026 C 348.235 142.679,347.200 143.306,347.200 143.420 C 347.200 143.535,347.515 143.470,347.900 143.276 C 348.285 143.083,349.455 142.520,350.500 142.027 C 352.266 141.192,352.821 140.773,352.100 140.819 C 351.935 140.830,350.765 141.373,349.500 142.026 M55.600 144.971 C 55.600 145.173,59.514 147.201,59.893 147.195 C 60.246 147.190,57.350 145.495,56.300 145.093 C 55.915 144.946,55.600 144.891,55.600 144.971 M339.400 147.215 C 338.080 147.861,337.210 148.392,337.467 148.395 C 338.005 148.401,342.000 146.448,342.000 146.179 C 342.000 145.934,342.088 145.899,339.400 147.215 M65.200 149.784 C 65.200 149.894,65.920 150.351,66.800 150.800 C 67.680 151.249,68.400 151.526,68.400 151.416 C 68.400 151.306,67.680 150.849,66.800 150.400 C 65.920 149.951,65.200 149.674,65.200 149.784 M332.900 150.634 C 332.185 150.946,331.600 151.282,331.600 151.380 C 331.600 151.675,333.984 150.749,334.224 150.361 C 334.491 149.929,334.529 149.921,332.900 150.634 M330.100 152.012 C 329.605 152.211,329.200 152.470,329.200 152.587 C 329.200 152.975,329.837 152.808,330.624 152.213 C 331.508 151.543,331.385 151.496,330.100 152.012 M327.700 153.212 C 327.205 153.411,326.800 153.670,326.800 153.787 C 326.800 154.175,327.437 154.008,328.224 153.413 C 329.108 152.743,328.985 152.696,327.700 153.212 M73.774 154.358 C 73.897 154.558,74.580 154.924,75.290 155.171 C 76.788 155.694,76.335 155.179,74.675 154.473 C 74.056 154.209,73.650 154.158,73.774 154.358 M310.400 162.200 C 307.377 163.783,307.496 164.094,310.542 162.572 C 312.344 161.671,313.713 160.762,313.180 160.819 C 313.081 160.830,311.830 161.451,310.400 162.200 M88.446 161.916 C 89.444 162.665,91.600 163.697,91.600 163.426 C 91.600 163.247,88.009 161.200,87.696 161.200 C 87.584 161.200,87.921 161.522,88.446 161.916 M95.000 165.114 C 95.552 165.666,100.093 168.040,100.267 167.867 C 100.344 167.789,99.101 167.048,97.504 166.220 C 95.907 165.391,94.780 164.894,95.000 165.114 M299.668 167.614 C 298.936 168.008,298.220 168.447,298.077 168.590 C 297.639 169.028,300.025 168.028,300.929 167.395 C 302.070 166.596,301.319 166.726,299.668 167.614 M295.000 170.027 C 294.340 170.450,293.980 170.796,294.200 170.795 C 294.420 170.795,295.140 170.437,295.800 170.000 C 296.460 169.563,296.820 169.217,296.600 169.232 C 296.380 169.247,295.660 169.604,295.000 170.027 M107.200 171.379 C 107.200 171.489,107.740 171.859,108.400 172.200 C 109.060 172.541,109.600 172.731,109.600 172.621 C 109.600 172.511,109.060 172.141,108.400 171.800 C 107.740 171.459,107.200 171.269,107.200 171.379 M290.976 172.180 C 290.227 172.740,290.232 172.752,291.106 172.532 C 291.605 172.406,292.110 172.145,292.230 171.952 C 292.568 171.404,291.836 171.538,290.976 172.180 M288.900 173.212 C 288.405 173.411,288.000 173.670,288.000 173.787 C 288.000 174.175,288.637 174.008,289.424 173.413 C 290.308 172.743,290.185 172.696,288.900 173.212 M112.574 174.358 C 112.697 174.558,113.380 174.924,114.090 175.171 C 115.588 175.694,115.135 175.179,113.475 174.473 C 112.856 174.209,112.450 174.158,112.574 174.358 M286.100 174.596 C 285.385 174.907,284.800 175.251,284.800 175.360 C 284.800 175.669,287.174 174.765,287.424 174.361 C 287.705 173.907,287.673 173.913,286.100 174.596 M282.114 176.686 C 280.967 177.277,280.093 177.826,280.173 177.906 C 280.336 178.069,284.400 176.004,284.400 175.758 C 284.400 175.514,284.337 175.540,282.114 176.686 M118.000 177.007 C 118.000 177.107,119.080 177.734,120.400 178.400 C 123.118 179.772,123.707 179.699,121.100 178.313 C 118.978 177.185,118.000 176.773,118.000 177.007 M275.900 179.829 C 274.405 180.640,274.496 180.978,276.000 180.200 C 276.660 179.859,277.200 179.494,277.200 179.390 C 277.200 179.132,277.157 179.147,275.900 179.829 M271.400 182.221 C 270.080 182.974,269.180 183.590,269.400 183.590 C 269.620 183.590,270.880 182.968,272.200 182.207 C 273.520 181.447,274.420 180.830,274.200 180.838 C 273.980 180.846,272.720 181.468,271.400 182.221 M265.100 185.429 C 263.605 186.240,263.696 186.578,265.200 185.800 C 265.860 185.459,266.400 185.094,266.400 184.990 C 266.400 184.732,266.357 184.747,265.100 185.429 M136.000 186.179 C 136.000 186.289,136.540 186.659,137.200 187.000 C 137.860 187.341,138.400 187.531,138.400 187.421 C 138.400 187.311,137.860 186.941,137.200 186.600 C 136.540 186.259,136.000 186.069,136.000 186.179 M32.000 189.446 C 33.924 190.554,35.600 191.285,35.600 191.016 C 35.600 190.809,30.879 188.398,30.488 188.405 C 30.330 188.407,31.010 188.876,32.000 189.446 M366.900 189.608 C 365.525 190.266,364.400 190.905,364.400 191.026 C 364.400 191.148,364.535 191.182,364.700 191.103 C 367.905 189.557,369.600 188.675,369.600 188.552 C 369.600 188.318,369.563 188.333,366.900 189.608 M253.400 191.410 C 252.520 191.952,251.980 192.391,252.200 192.385 C 252.420 192.380,253.320 191.932,254.200 191.390 C 255.080 190.848,255.620 190.409,255.400 190.415 C 255.180 190.420,254.280 190.868,253.400 191.410 M36.000 191.379 C 36.000 191.489,36.540 191.859,37.200 192.200 C 37.860 192.541,38.400 192.731,38.400 192.621 C 38.400 192.511,37.860 192.141,37.200 191.800 C 36.540 191.459,36.000 191.269,36.000 191.379 M362.344 191.996 L 361.400 192.792 362.700 192.166 C 363.990 191.546,364.328 191.200,363.644 191.200 C 363.449 191.200,362.864 191.558,362.344 191.996 M250.300 193.029 C 249.695 193.357,249.200 193.693,249.200 193.775 C 249.200 194.118,250.810 193.470,251.236 192.957 C 251.808 192.267,251.686 192.277,250.300 193.029 M38.833 192.938 C 39.142 193.194,49.793 198.648,50.500 198.913 C 52.332 199.599,50.694 198.648,45.227 195.853 C 40.156 193.261,38.079 192.314,38.833 192.938 M150.846 193.916 C 152.122 194.873,154.590 195.918,153.424 195.007 C 152.996 194.673,152.434 194.400,152.173 194.400 C 151.912 194.400,151.474 194.130,151.200 193.800 C 150.926 193.470,150.520 193.200,150.297 193.200 C 150.074 193.200,150.321 193.522,150.846 193.916 M247.300 194.596 C 246.585 194.907,246.000 195.256,246.000 195.372 C 246.000 195.619,248.026 194.796,248.580 194.324 C 249.105 193.876,248.814 193.938,247.300 194.596 M244.176 196.180 C 243.427 196.740,243.432 196.752,244.306 196.532 C 244.805 196.406,245.310 196.145,245.430 195.952 C 245.768 195.404,245.036 195.538,244.176 196.180 M350.570 198.033 C 348.827 198.931,347.220 199.848,347.000 200.071 C 346.780 200.295,348.205 199.650,350.166 198.639 C 352.127 197.628,353.822 196.711,353.933 196.601 C 354.397 196.136,353.563 196.492,350.570 198.033 M156.823 196.956 C 156.932 197.065,159.176 198.265,161.810 199.623 C 164.445 200.981,166.420 201.915,166.200 201.700 C 165.980 201.484,164.090 200.414,162.000 199.321 C 158.397 197.437,156.385 196.518,156.823 196.956 M51.803 199.605 C 51.937 199.822,52.199 200.000,52.385 200.000 C 52.571 200.000,53.838 200.630,55.200 201.400 C 56.562 202.170,57.784 202.800,57.915 202.800 C 58.389 202.800,56.558 201.579,54.800 200.723 C 51.900 199.312,51.539 199.177,51.803 199.605 M237.100 199.829 C 235.605 200.640,235.696 200.978,237.200 200.200 C 237.860 199.859,238.400 199.494,238.400 199.390 C 238.400 199.132,238.357 199.147,237.100 199.829 M343.600 201.520 C 341.557 202.523,339.177 204.002,339.611 203.999 C 339.715 203.998,341.330 203.193,343.200 202.210 C 346.885 200.273,347.182 199.761,343.600 201.520 M233.900 201.429 C 232.405 202.240,232.496 202.578,234.000 201.800 C 234.660 201.459,235.200 201.094,235.200 200.990 C 235.200 200.732,235.157 200.747,233.900 201.429 M167.600 202.600 C 168.150 202.914,168.780 203.172,169.000 203.172 C 169.220 203.172,168.950 202.914,168.400 202.600 C 167.850 202.286,167.220 202.028,167.000 202.028 C 166.780 202.028,167.050 202.286,167.600 202.600 M169.600 203.379 C 169.600 203.489,170.140 203.859,170.800 204.200 C 171.460 204.541,172.000 204.731,172.000 204.621 C 172.000 204.511,171.460 204.141,170.800 203.800 C 170.140 203.459,169.600 203.269,169.600 203.379 M172.976 205.420 C 173.836 206.062,174.568 206.196,174.230 205.648 C 174.110 205.455,173.605 205.194,173.106 205.068 C 172.232 204.848,172.227 204.860,172.976 205.420 M223.600 206.800 C 222.830 207.222,222.344 207.574,222.520 207.583 C 222.944 207.605,225.200 206.432,225.200 206.190 C 225.200 205.928,225.177 205.937,223.600 206.800 M330.300 208.426 C 329.035 209.079,328.000 209.703,328.000 209.812 C 328.000 209.922,329.080 209.466,330.400 208.800 C 331.720 208.134,332.800 207.501,332.800 207.394 C 332.800 207.128,332.874 207.097,330.300 208.426 M69.233 208.553 C 69.641 208.926,74.400 211.191,74.400 211.012 C 74.400 210.787,69.779 208.400,69.345 208.400 C 69.192 208.400,69.142 208.469,69.233 208.553 M326.176 210.580 C 325.427 211.140,325.432 211.152,326.306 210.932 C 326.805 210.806,327.310 210.545,327.430 210.352 C 327.768 209.804,327.036 209.938,326.176 210.580 M323.776 211.780 C 323.027 212.340,323.032 212.352,323.906 212.132 C 324.405 212.006,324.910 211.745,325.030 211.552 C 325.368 211.004,324.636 211.138,323.776 211.780 M319.496 213.958 C 317.193 215.309,316.480 215.966,318.348 215.016 C 320.419 213.962,322.246 212.801,321.800 212.822 C 321.580 212.832,320.543 213.343,319.496 213.958 M209.111 214.160 C 207.137 215.333,206.712 215.796,208.200 215.152 C 209.498 214.589,211.532 213.176,210.954 213.238 C 210.759 213.258,209.930 213.674,209.111 214.160 M79.600 213.796 C 79.600 214.070,82.049 215.284,82.232 215.101 C 82.319 215.014,81.762 214.644,80.995 214.278 C 80.228 213.912,79.600 213.695,79.600 213.796 M191.824 214.987 C 192.251 215.310,192.780 215.575,193.000 215.575 C 193.220 215.575,193.051 215.310,192.624 214.987 C 192.196 214.664,191.667 214.400,191.447 214.400 C 191.227 214.400,191.396 214.664,191.824 214.987 M82.800 215.379 C 82.800 215.489,83.340 215.859,84.000 216.200 C 84.660 216.541,85.200 216.731,85.200 216.621 C 85.200 216.511,84.660 216.141,84.000 215.800 C 83.340 215.459,82.800 215.269,82.800 215.379 M86.769 217.638 C 88.249 218.540,90.000 219.284,90.000 219.011 C 90.000 218.811,86.055 216.799,85.667 216.801 C 85.520 216.802,86.016 217.179,86.769 217.638 M195.600 216.974 C 195.600 217.193,198.974 218.801,199.426 218.798 C 199.632 218.796,199.260 218.509,198.600 218.159 C 197.097 217.362,195.600 216.771,195.600 216.974 M202.006 217.818 C 201.020 218.358,200.378 218.800,200.580 218.800 C 201.042 218.800,204.400 217.186,204.400 216.964 C 204.400 216.630,203.755 216.860,202.006 217.818 M93.001 220.801 C 93.136 221.021,93.431 221.200,93.656 221.200 C 93.881 221.200,95.140 221.830,96.454 222.600 C 98.980 224.081,100.050 224.471,98.389 223.307 C 96.303 221.844,92.573 220.110,93.001 220.801 M304.673 221.562 C 302.192 222.797,301.168 223.508,302.808 222.856 C 304.503 222.182,307.200 220.791,307.200 220.591 C 307.200 220.306,307.181 220.313,304.673 221.562 M300.541 223.597 C 300.068 223.788,299.554 224.151,299.397 224.405 C 299.239 224.660,299.667 224.579,300.356 224.223 C 301.040 223.869,301.600 223.494,301.600 223.390 C 301.600 223.164,301.627 223.159,300.541 223.597 M108.200 228.487 C 109.398 229.340,112.474 230.859,112.649 230.684 C 112.733 230.600,111.767 230.007,110.501 229.366 C 107.704 227.951,107.149 227.738,108.200 228.487 M116.000 232.485 C 116.502 233.020,118.800 233.981,118.800 233.657 C 118.800 233.457,118.485 233.203,118.100 233.092 C 117.715 232.981,117.040 232.752,116.600 232.582 C 116.160 232.412,115.890 232.368,116.000 232.485 M281.100 233.626 C 279.835 234.279,278.800 234.903,278.800 235.012 C 278.800 235.191,283.560 232.925,283.967 232.553 C 284.490 232.073,283.098 232.594,281.100 233.626 M271.600 238.600 C 271.050 238.914,270.780 239.172,271.000 239.172 C 271.220 239.172,271.850 238.914,272.400 238.600 C 272.950 238.286,273.220 238.028,273.000 238.028 C 272.780 238.028,272.150 238.286,271.600 238.600 M129.113 239.295 C 129.579 239.856,131.200 240.538,131.200 240.173 C 131.200 240.089,130.615 239.718,129.900 239.348 C 128.801 238.780,128.679 238.772,129.113 239.295 M266.834 241.023 C 263.407 242.831,262.397 243.475,263.812 242.950 C 265.661 242.265,271.211 239.115,270.380 239.223 C 270.281 239.236,268.685 240.046,266.834 241.023 M133.400 241.512 C 134.906 242.402,136.800 243.238,136.800 243.012 C 136.800 242.811,132.857 240.799,132.467 240.801 C 132.320 240.802,132.740 241.122,133.400 241.512 M137.200 243.408 C 137.200 243.481,137.758 243.820,138.440 244.160 C 139.378 244.628,139.570 244.645,139.227 244.233 C 138.819 243.741,137.200 243.082,137.200 243.408 M258.948 244.976 C 258.259 245.276,257.566 245.732,257.406 245.990 C 257.247 246.248,257.855 246.082,258.758 245.621 C 261.006 244.475,261.139 244.023,258.948 244.976 M140.900 249.212 C 140.405 249.411,140.000 249.670,140.000 249.787 C 140.000 250.175,140.637 250.008,141.424 249.413 C 142.308 248.743,142.185 248.696,140.900 249.212 M258.576 249.420 C 259.436 250.062,260.168 250.196,259.830 249.648 C 259.710 249.455,259.205 249.194,258.706 249.068 C 257.832 248.848,257.827 248.860,258.576 249.420 M137.400 251.041 C 136.300 251.602,135.220 252.243,135.000 252.466 C 134.780 252.688,135.725 252.303,137.100 251.610 C 138.475 250.916,139.600 250.270,139.600 250.174 C 139.600 249.921,139.583 249.927,137.400 251.041 M260.574 250.358 C 260.697 250.558,261.380 250.924,262.090 251.171 C 263.588 251.694,263.135 251.179,261.475 250.473 C 260.856 250.209,260.450 250.158,260.574 250.358 M263.600 251.772 C 263.600 251.853,264.680 252.481,266.000 253.168 C 267.320 253.855,268.400 254.327,268.400 254.217 C 268.400 254.106,267.635 253.610,266.700 253.113 C 264.676 252.037,263.600 251.572,263.600 251.772 M132.800 253.400 C 132.250 253.714,131.980 253.972,132.200 253.972 C 132.420 253.972,133.050 253.714,133.600 253.400 C 134.150 253.086,134.420 252.828,134.200 252.828 C 133.980 252.828,133.350 253.086,132.800 253.400 M123.600 258.200 C 122.170 258.949,121.140 259.570,121.311 259.581 C 121.737 259.607,126.400 257.237,126.400 256.994 C 126.400 256.725,126.494 256.685,123.600 258.200 M276.000 258.196 C 276.000 258.470,278.449 259.684,278.632 259.501 C 278.719 259.414,278.162 259.044,277.395 258.678 C 276.628 258.312,276.000 258.095,276.000 258.196 M119.689 260.223 L 118.800 260.845 118.800 288.799 C 118.800 316.778,118.863 318.103,120.135 316.821 C 120.490 316.464,120.434 316.416,119.900 316.619 C 119.237 316.871,119.200 315.387,119.200 288.892 L 119.200 260.898 120.100 260.270 C 120.595 259.924,120.905 259.633,120.789 259.621 C 120.673 259.609,120.178 259.880,119.689 260.223 M279.905 260.257 L 280.811 261.012 280.705 289.086 C 280.647 304.527,280.736 317.024,280.903 316.857 C 281.069 316.691,281.159 303.987,281.103 288.626 L 281.000 260.697 280.000 260.100 L 279.000 259.502 279.905 260.257 M199.062 275.900 C 198.960 276.065,199.399 276.200,200.038 276.200 C 200.677 276.200,201.200 276.065,201.200 275.900 C 201.200 275.735,200.761 275.600,200.224 275.600 C 199.687 275.600,199.164 275.735,199.062 275.900 M196.792 276.932 C 195.677 277.449,193.692 278.800,194.047 278.800 C 194.171 278.800,195.246 278.263,196.436 277.607 C 198.557 276.438,198.783 276.009,196.792 276.932 M212.000 281.779 C 212.000 281.889,212.540 282.259,213.200 282.600 C 213.860 282.941,214.400 283.131,214.400 283.021 C 214.400 282.911,213.860 282.541,213.200 282.200 C 212.540 281.859,212.000 281.669,212.000 281.779 M184.300 283.429 C 182.805 284.240,182.896 284.578,184.400 283.800 C 185.060 283.459,185.600 283.094,185.600 282.990 C 185.600 282.732,185.557 282.747,184.300 283.429 M217.233 284.553 C 217.641 284.926,222.400 287.191,222.400 287.012 C 222.400 286.787,217.779 284.400,217.345 284.400 C 217.192 284.400,217.142 284.469,217.233 284.553 M178.176 286.580 C 177.427 287.140,177.432 287.152,178.306 286.932 C 178.805 286.806,179.310 286.545,179.430 286.352 C 179.768 285.804,179.036 285.938,178.176 286.580 M175.776 287.780 C 175.027 288.340,175.032 288.352,175.906 288.132 C 176.405 288.006,176.910 287.745,177.030 287.552 C 177.368 287.004,176.636 287.138,175.776 287.780 M172.300 289.626 C 171.035 290.279,170.000 290.903,170.000 291.012 C 170.000 291.122,171.080 290.666,172.400 290.000 C 173.720 289.334,174.800 288.701,174.800 288.594 C 174.800 288.328,174.874 288.297,172.300 289.626 M227.600 289.796 C 227.600 290.070,230.049 291.284,230.232 291.101 C 230.319 291.014,229.762 290.644,228.995 290.278 C 228.228 289.912,227.600 289.695,227.600 289.796 M231.000 291.523 C 231.443 291.949,236.198 294.510,237.300 294.917 C 239.020 295.551,237.700 294.708,234.300 292.999 C 232.265 291.976,230.780 291.312,231.000 291.523 M164.029 293.834 C 163.055 294.370,162.159 294.908,162.038 295.029 C 161.617 295.449,163.867 294.469,165.231 293.638 C 167.116 292.488,166.204 292.637,164.029 293.834 M160.500 295.612 C 160.005 295.811,159.600 296.070,159.600 296.187 C 159.600 296.575,160.237 296.408,161.024 295.813 C 161.908 295.143,161.785 295.096,160.500 295.612 M156.800 297.503 C 154.221 298.793,152.426 300.000,153.087 300.000 C 153.343 300.000,153.657 299.831,153.784 299.625 C 153.912 299.419,155.183 298.699,156.608 298.026 C 158.034 297.352,159.200 296.711,159.200 296.601 C 159.200 296.305,159.185 296.310,156.800 297.503 M240.800 296.613 C 240.800 296.707,241.563 297.173,242.497 297.649 C 243.713 298.270,244.046 298.338,243.673 297.888 C 243.185 297.300,240.800 296.241,240.800 296.613 M253.600 303.220 C 254.987 304.161,255.778 304.435,254.800 303.636 C 254.250 303.186,253.620 302.817,253.400 302.815 C 253.180 302.813,253.270 302.996,253.600 303.220 M256.400 304.588 C 256.400 304.789,260.343 306.801,260.733 306.799 C 261.086 306.797,258.893 305.507,257.500 304.898 C 256.895 304.634,256.400 304.494,256.400 304.588 M139.900 306.229 C 138.405 307.040,138.496 307.378,140.000 306.600 C 140.660 306.259,141.200 305.894,141.200 305.790 C 141.200 305.532,141.157 305.547,139.900 306.229 M133.400 309.600 C 132.300 310.252,131.541 310.789,131.714 310.793 C 131.887 310.797,132.967 310.262,134.114 309.604 C 135.261 308.946,136.020 308.409,135.800 308.411 C 135.580 308.412,134.500 308.948,133.400 309.600 M264.576 309.013 C 265.004 309.336,265.533 309.600,265.753 309.600 C 265.973 309.600,265.804 309.336,265.376 309.013 C 264.949 308.690,264.420 308.425,264.200 308.425 C 263.980 308.425,264.149 308.690,264.576 309.013 M129.100 311.829 C 127.605 312.640,127.696 312.978,129.200 312.200 C 129.860 311.859,130.400 311.494,130.400 311.390 C 130.400 311.132,130.357 311.147,129.100 311.829 M272.000 312.596 C 272.000 312.797,273.966 313.900,275.700 314.672 C 277.706 315.564,276.839 314.871,274.400 313.632 C 273.080 312.961,272.000 312.495,272.000 312.596 M122.865 314.987 C 120.903 316.061,120.237 316.591,121.412 316.141 C 122.625 315.676,125.451 314.008,125.000 314.023 C 124.780 314.030,123.819 314.463,122.865 314.987 M277.370 315.552 C 277.490 315.745,277.995 316.006,278.494 316.132 C 279.368 316.352,279.373 316.340,278.624 315.780 C 277.764 315.138,277.032 315.004,277.370 315.552 " stroke="none" fill="#6cdcd4" fill-rule="evenodd"></path><path id="path4" d="M298.986 104.200 C 298.986 115.860,299.037 120.572,299.100 114.672 C 299.162 108.771,299.162 99.231,299.100 93.472 C 299.037 87.712,298.986 92.540,298.986 104.200 M28.497 159.500 L 28.595 188.200 28.700 159.711 L 28.805 131.222 29.903 131.613 C 30.930 131.980,30.950 131.966,30.224 131.402 C 28.335 129.937,28.394 128.982,28.497 159.500 M369.776 131.422 C 369.026 132.023,369.030 132.030,369.874 131.622 C 370.354 131.390,370.848 131.200,370.971 131.200 C 371.094 131.200,371.242 144.025,371.300 159.700 L 371.405 188.200 371.503 159.500 C 371.606 128.982,371.663 129.910,369.776 131.422 M62.800 205.379 C 62.800 205.489,63.340 205.859,64.000 206.200 C 64.660 206.541,65.200 206.731,65.200 206.621 C 65.200 206.511,64.660 206.141,64.000 205.800 C 63.340 205.459,62.800 205.269,62.800 205.379 M301.776 223.380 C 301.027 223.940,301.032 223.952,301.906 223.732 C 302.405 223.606,302.910 223.345,303.030 223.152 C 303.368 222.604,302.636 222.738,301.776 223.380 M180.300 285.829 C 178.805 286.640,178.896 286.978,180.400 286.200 C 181.060 285.859,181.600 285.494,181.600 285.390 C 181.600 285.132,181.557 285.147,180.300 285.829 " stroke="none" fill="#93dcd3" fill-rule="evenodd"></path></g></svg>