<svg width="256" height="256" viewBox="0 0 256 256" fill="none" xmlns="http://www.w3.org/2000/svg">
<g clip-path="url(#clip0_153_70)">
<path d="M130.848 219.425C174.16 219.603 212.451 197.807 235.627 164.719C245.012 151.324 251.919 136.044 255.677 119.556C255.891 122.582 256 125.638 256 128.719C256 199.014 199.317 256 129.395 256C53.4253 256 0 203.272 0 138.228C0 87.5851 32.3878 44.4078 77.8358 27.7716C88.8813 23.9838 100.167 21.9196 111.932 21.9196C166.584 21.9196 213.798 66.4602 213.798 121.404C213.798 130.843 212.491 139.975 207.137 148.628C209.146 143.291 209.433 139.33 209.433 135.302C209.433 89.6506 171.166 54.1057 125.757 54.1057C80.3479 54.1057 43.5365 91.1136 43.5365 136.765C43.5365 175.426 69.937 207.888 105.602 216.923C112.872 218.385 120.305 219.39 130.848 219.425Z" fill="url(#paint0_linear_153_70)"/>
<path d="M125.152 36.5751C81.8397 36.3969 43.5488 58.1925 20.3732 91.2808C10.9883 104.676 4.08118 119.956 0.323022 136.444C0.108893 133.418 0 130.362 0 127.281C0 56.9857 56.6831 0 126.605 0C202.575 0 256 52.7282 256 117.772C256 168.415 223.612 211.592 178.164 228.228C167.119 232.016 155.833 234.08 144.068 234.08C89.416 234.08 42.2017 189.54 42.2017 134.596C42.2017 125.157 43.5093 116.025 48.8629 107.372C46.8539 112.709 46.5673 116.67 46.5673 120.698C46.5673 166.349 84.8339 201.894 130.243 201.894C175.652 201.894 212.463 164.886 212.463 119.235C212.463 80.5738 186.063 48.112 150.398 39.0767C143.128 37.6152 135.695 36.6097 125.152 36.5751Z" fill="url(#paint1_linear_153_70)"/>
</g>
<defs>
<linearGradient id="paint0_linear_153_70" x1="256" y1="139" x2="1.06289e-06" y2="139" gradientUnits="userSpaceOnUse">
<stop stop-color="#929297"/>
<stop offset="0.780357" stop-color="#88878D"/>
<stop offset="1" stop-color="#BAB9C6"/>
</linearGradient>
<linearGradient id="paint1_linear_153_70" x1="0" y1="117" x2="256" y2="117" gradientUnits="userSpaceOnUse">
<stop stop-color="#919FB7"/>
<stop offset="1" stop-color="#F8FAFE"/>
</linearGradient>
<clipPath id="clip0_153_70">
<rect width="256" height="256" fill="white"/>
</clipPath>
</defs>
</svg>
